G04 #@! TF.GenerationSoftware,KiCad,Pcbnew,(5.1.5)-3*
G04 #@! TF.CreationDate,2020-08-07T09:29:16-05:00*
G04 #@! TF.ProjectId,matt_damon,6d617474-5f64-4616-9d6f-6e2e6b696361,rev?*
G04 #@! TF.SameCoordinates,Original*
G04 #@! TF.FileFunction,Soldermask,Top*
G04 #@! TF.FilePolarity,Negative*
%FSLAX46Y46*%
G04 Gerber Fmt 4.6, Leading zero omitted, Abs format (unit mm)*
G04 Created by KiCad (PCBNEW (5.1.5)-3) date 2020-08-07 09:29:16*
%MOMM*%
%LPD*%
G04 APERTURE LIST*
%ADD10C,0.010000*%
%ADD11C,2.127200*%
%ADD12O,2.127200X2.127200*%
%ADD13R,2.127200X2.127200*%
G04 APERTURE END LIST*
D10*
G36*
X-899991Y35896916D02*
G01*
X230185Y35896751D01*
X1282838Y35896429D01*
X2260351Y35895940D01*
X3165104Y35895274D01*
X3999480Y35894424D01*
X4765860Y35893378D01*
X5466626Y35892128D01*
X6104159Y35890666D01*
X6680840Y35888980D01*
X7199051Y35887063D01*
X7661173Y35884905D01*
X8069589Y35882497D01*
X8426679Y35879829D01*
X8734825Y35876892D01*
X8996409Y35873677D01*
X9213811Y35870175D01*
X9389414Y35866377D01*
X9525600Y35862272D01*
X9624748Y35857852D01*
X9689242Y35853108D01*
X9721462Y35848031D01*
X9725982Y35845750D01*
X9752858Y35802191D01*
X9819404Y35690097D01*
X9922868Y35514204D01*
X10060499Y35279251D01*
X10229545Y34989974D01*
X10427255Y34651111D01*
X10650876Y34267398D01*
X10897657Y33843572D01*
X11164847Y33384372D01*
X11449692Y32894533D01*
X11749443Y32378794D01*
X12061347Y31841890D01*
X12382652Y31288560D01*
X12710607Y30723541D01*
X13042460Y30151569D01*
X13375460Y29577382D01*
X13706854Y29005717D01*
X14033891Y28441311D01*
X14353819Y27888901D01*
X14663887Y27353224D01*
X14961342Y26839018D01*
X15243434Y26351020D01*
X15507410Y25893966D01*
X15609257Y25717500D01*
X16281771Y24550417D01*
X16911701Y23453934D01*
X17500116Y22426102D01*
X18048086Y21464976D01*
X18556678Y20568609D01*
X19026963Y19735053D01*
X19460008Y18962363D01*
X19856884Y18248591D01*
X20218658Y17591791D01*
X20546400Y16990016D01*
X20841179Y16441318D01*
X21104064Y15943752D01*
X21336123Y15495371D01*
X21538426Y15094227D01*
X21712041Y14738374D01*
X21858038Y14425866D01*
X21977485Y14154755D01*
X22036378Y14012333D01*
X22110183Y13816494D01*
X22163260Y13638109D01*
X22193469Y13467601D01*
X22198668Y13295397D01*
X22176717Y13111920D01*
X22125474Y12907595D01*
X22042798Y12672846D01*
X21926549Y12398100D01*
X21774584Y12073780D01*
X21584763Y11690311D01*
X21463676Y11451166D01*
X21303299Y11139463D01*
X21122204Y10794103D01*
X20919396Y10413340D01*
X20693881Y9995430D01*
X20444663Y9538627D01*
X20170749Y9041186D01*
X19871144Y8501361D01*
X19544853Y7917408D01*
X19190882Y7287581D01*
X18808235Y6610136D01*
X18395918Y5883326D01*
X17952937Y5105407D01*
X17478297Y4274633D01*
X16971004Y3389260D01*
X16430062Y2447541D01*
X15854477Y1447733D01*
X15243255Y388089D01*
X14595400Y-733135D01*
X13909919Y-1917686D01*
X13185816Y-3167307D01*
X12422097Y-4483744D01*
X11617768Y-5868743D01*
X10771833Y-7324048D01*
X10350958Y-8047662D01*
X9720454Y-9131491D01*
X8723144Y-9158592D01*
X8555122Y-9162013D01*
X8308820Y-9165348D01*
X7988747Y-9168593D01*
X7599415Y-9171742D01*
X7145332Y-9174790D01*
X6631009Y-9177732D01*
X6060955Y-9180561D01*
X5439681Y-9183273D01*
X4771695Y-9185862D01*
X4061509Y-9188323D01*
X3313632Y-9190651D01*
X2532573Y-9192840D01*
X1722843Y-9194885D01*
X888952Y-9196780D01*
X35409Y-9198521D01*
X-833275Y-9200101D01*
X-1712591Y-9201515D01*
X-2598029Y-9202758D01*
X-3485079Y-9203826D01*
X-4369230Y-9204711D01*
X-5245975Y-9205409D01*
X-6110801Y-9205915D01*
X-6959200Y-9206223D01*
X-7786661Y-9206328D01*
X-8588675Y-9206224D01*
X-9360731Y-9205906D01*
X-10098321Y-9205369D01*
X-10796933Y-9204607D01*
X-11452059Y-9203616D01*
X-12059188Y-9202389D01*
X-12613810Y-9200921D01*
X-13111415Y-9199207D01*
X-13547494Y-9197241D01*
X-13917537Y-9195019D01*
X-14217033Y-9192535D01*
X-14441473Y-9189782D01*
X-14586347Y-9186757D01*
X-14599184Y-9186341D01*
X-15121648Y-9164769D01*
X-15563143Y-9139010D01*
X-15922880Y-9109139D01*
X-16200070Y-9075228D01*
X-16393927Y-9037350D01*
X-16467666Y-9013675D01*
X-16549652Y-8953615D01*
X-16643831Y-8847082D01*
X-16695753Y-8771506D01*
X-16767028Y-8653171D01*
X-16878167Y-8465479D01*
X-17026836Y-8212475D01*
X-17210700Y-7898203D01*
X-17427426Y-7526708D01*
X-17674677Y-7102033D01*
X-17950121Y-6628223D01*
X-18251421Y-6109322D01*
X-18576244Y-5549374D01*
X-18922255Y-4952424D01*
X-19287119Y-4322516D01*
X-19668502Y-3663695D01*
X-20064069Y-2980003D01*
X-20471485Y-2275487D01*
X-20888417Y-1554189D01*
X-21312529Y-820155D01*
X-21741487Y-77428D01*
X-22172956Y669947D01*
X-22604602Y1417925D01*
X-23034090Y2162464D01*
X-23459086Y2899518D01*
X-23877254Y3625043D01*
X-24286261Y4334994D01*
X-24683772Y5025329D01*
X-25067452Y5692001D01*
X-25434966Y6330968D01*
X-25783980Y6938184D01*
X-26112160Y7509606D01*
X-26417171Y8041189D01*
X-26696678Y8528888D01*
X-26948347Y8968661D01*
X-27169842Y9356462D01*
X-27358831Y9688247D01*
X-27512977Y9959971D01*
X-27629947Y10167592D01*
X-27672965Y10244666D01*
X-27985759Y10816389D01*
X-28252413Y11323083D01*
X-28474909Y11769380D01*
X-28655227Y12159915D01*
X-28795347Y12499322D01*
X-28897252Y12792232D01*
X-28962922Y13043279D01*
X-28994338Y13257097D01*
X-28997831Y13343370D01*
X-28991853Y13434915D01*
X-28972746Y13544512D01*
X-28939382Y13674235D01*
X-28890633Y13826160D01*
X-28825370Y14002361D01*
X-28742465Y14204914D01*
X-28640789Y14435892D01*
X-28519214Y14697371D01*
X-28376612Y14991426D01*
X-28211854Y15320132D01*
X-28023812Y15685564D01*
X-27811357Y16089796D01*
X-27573362Y16534903D01*
X-27308697Y17022960D01*
X-27016235Y17556043D01*
X-26694847Y18136225D01*
X-26343405Y18765582D01*
X-25960779Y19446189D01*
X-25545843Y20180120D01*
X-25097467Y20969451D01*
X-24614523Y21816256D01*
X-24095883Y22722610D01*
X-23540418Y23690588D01*
X-23388249Y23955141D01*
X-20270172Y23955141D01*
X-20232498Y23823782D01*
X-20189611Y23710925D01*
X-20118992Y23586252D01*
X-20012493Y23438619D01*
X-19861964Y23256885D01*
X-19659257Y23029908D01*
X-19622861Y22990198D01*
X-19424734Y22768595D01*
X-19283128Y22595055D01*
X-19191858Y22460745D01*
X-19144745Y22356833D01*
X-19134666Y22292706D01*
X-19101632Y22218985D01*
X-19069660Y22192828D01*
X-19012317Y22127800D01*
X-18971435Y22031974D01*
X-18938119Y21950766D01*
X-18876525Y21907549D01*
X-18758854Y21883182D01*
X-18754449Y21882580D01*
X-18565525Y21816375D01*
X-18413228Y21679286D01*
X-18306817Y21480550D01*
X-18286743Y21415998D01*
X-18261536Y21280795D01*
X-18274176Y21161238D01*
X-18310528Y21051376D01*
X-18364628Y20935448D01*
X-18419377Y20857214D01*
X-18440255Y20841740D01*
X-18475390Y20813401D01*
X-18454908Y20758455D01*
X-18435558Y20729618D01*
X-18402627Y20637524D01*
X-18383029Y20473230D01*
X-18376834Y20235218D01*
X-18384113Y19921970D01*
X-18404936Y19531969D01*
X-18439374Y19063696D01*
X-18487498Y18515633D01*
X-18549379Y17886264D01*
X-18582557Y17568333D01*
X-18614135Y17169153D01*
X-18624617Y16780908D01*
X-18614879Y16417414D01*
X-18585794Y16092488D01*
X-18538238Y15819946D01*
X-18473086Y15613603D01*
X-18456582Y15578666D01*
X-18387748Y15483544D01*
X-18263877Y15350315D01*
X-18098137Y15191042D01*
X-17903693Y15017789D01*
X-17693711Y14842617D01*
X-17481358Y14677589D01*
X-17438541Y14645970D01*
X-17282437Y14531230D01*
X-17182724Y14451900D01*
X-17127994Y14392676D01*
X-17106840Y14338255D01*
X-17107855Y14273335D01*
X-17115718Y14212911D01*
X-17139987Y14098949D01*
X-17187003Y13965719D01*
X-17261144Y13805164D01*
X-17366784Y13609227D01*
X-17508300Y13369853D01*
X-17690068Y13078985D01*
X-17916465Y12728566D01*
X-17948999Y12678833D01*
X-18163652Y12348456D01*
X-18335290Y12077198D01*
X-18469391Y11854774D01*
X-18571432Y11670898D01*
X-18646893Y11515286D01*
X-18701249Y11377653D01*
X-18739980Y11247714D01*
X-18761060Y11154180D01*
X-18781454Y10845265D01*
X-18725822Y10530734D01*
X-18601043Y10222131D01*
X-18414001Y9931003D01*
X-18171576Y9668896D01*
X-17880651Y9447354D01*
X-17676245Y9334137D01*
X-17524161Y9264550D01*
X-17396471Y9212580D01*
X-17316074Y9187381D01*
X-17306461Y9186333D01*
X-17242475Y9152422D01*
X-17187634Y9081063D01*
X-17167440Y9029427D01*
X-17158109Y8959987D01*
X-17160436Y8858775D01*
X-17175217Y8711824D01*
X-17203245Y8505168D01*
X-17231010Y8318574D01*
X-17330724Y7661356D01*
X-17232822Y7439595D01*
X-17122304Y7187691D01*
X-17041439Y6995320D01*
X-16985364Y6844703D01*
X-16949216Y6718063D01*
X-16928130Y6597620D01*
X-16917244Y6465598D01*
X-16911692Y6304216D01*
X-16910682Y6262074D01*
X-16902005Y6047445D01*
X-16882242Y5875078D01*
X-16843746Y5724312D01*
X-16778870Y5574485D01*
X-16679966Y5404936D01*
X-16539386Y5195003D01*
X-16488833Y5122333D01*
X-16354308Y4929506D01*
X-16251769Y4775061D01*
X-16177057Y4642960D01*
X-16126013Y4517164D01*
X-16094476Y4381636D01*
X-16078289Y4220336D01*
X-16073290Y4017228D01*
X-16075322Y3756271D01*
X-16078557Y3540319D01*
X-16091614Y2656804D01*
X-15976200Y2418485D01*
X-15813915Y2160107D01*
X-15584666Y1903019D01*
X-15305230Y1661023D01*
X-14992380Y1447917D01*
X-14662893Y1277502D01*
X-14520333Y1220806D01*
X-14446901Y1195173D01*
X-14377274Y1174409D01*
X-14301963Y1158013D01*
X-14211476Y1145486D01*
X-14096324Y1136325D01*
X-13947014Y1130032D01*
X-13754057Y1126104D01*
X-13507962Y1124042D01*
X-13199239Y1123345D01*
X-12818396Y1123512D01*
X-12678833Y1123667D01*
X-12262587Y1124524D01*
X-11919846Y1126366D01*
X-11639446Y1129703D01*
X-11410227Y1135045D01*
X-11221028Y1142900D01*
X-11060687Y1153778D01*
X-10918043Y1168190D01*
X-10781933Y1186645D01*
X-10641198Y1209652D01*
X-10587115Y1219171D01*
X-10388222Y1253740D01*
X-10222823Y1280794D01*
X-10106867Y1297849D01*
X-10056302Y1302419D01*
X-10055381Y1302004D01*
X-10036507Y1261219D01*
X-9991122Y1160759D01*
X-9927186Y1018281D01*
X-9888304Y931333D01*
X-9725134Y589152D01*
X-9566650Y309910D01*
X-9399821Y73753D01*
X-9211617Y-139170D01*
X-9137420Y-212709D01*
X-8850242Y-488918D01*
X-9069430Y-868876D01*
X-9135816Y-979689D01*
X-9205691Y-1084985D01*
X-9286537Y-1193176D01*
X-9385837Y-1312678D01*
X-9511071Y-1451902D01*
X-9669722Y-1619265D01*
X-9869272Y-1823178D01*
X-10117203Y-2072056D01*
X-10310772Y-2264834D01*
X-10627575Y-2582708D01*
X-10896609Y-2858889D01*
X-11114820Y-3090089D01*
X-11279152Y-3273020D01*
X-11386551Y-3404393D01*
X-11428120Y-3467541D01*
X-11487963Y-3625211D01*
X-11499538Y-3784524D01*
X-11460637Y-3964699D01*
X-11369047Y-4184958D01*
X-11338462Y-4246944D01*
X-11237351Y-4462926D01*
X-11151017Y-4676870D01*
X-11086967Y-4867721D01*
X-11052705Y-5014425D01*
X-11049000Y-5058983D01*
X-11021920Y-5158444D01*
X-10965590Y-5247884D01*
X-10912454Y-5315730D01*
X-10878089Y-5384799D01*
X-10861995Y-5470226D01*
X-10863672Y-5587149D01*
X-10882620Y-5750703D01*
X-10918341Y-5976024D01*
X-10937781Y-6090141D01*
X-11003235Y-6428297D01*
X-11076764Y-6707846D01*
X-11168185Y-6954830D01*
X-11287318Y-7195290D01*
X-11443980Y-7455269D01*
X-11464347Y-7486827D01*
X-11637886Y-7784510D01*
X-11747368Y-8048974D01*
X-11797961Y-8295753D01*
X-11799268Y-8493998D01*
X-11784122Y-8639362D01*
X-11765268Y-8752393D01*
X-11750180Y-8800998D01*
X-11721160Y-8806317D01*
X-11639710Y-8811217D01*
X-11503984Y-8815705D01*
X-11312138Y-8819786D01*
X-11062328Y-8823466D01*
X-10752710Y-8826753D01*
X-10381439Y-8829651D01*
X-9946671Y-8832169D01*
X-9446563Y-8834310D01*
X-8879269Y-8836083D01*
X-8242946Y-8837493D01*
X-7535748Y-8838547D01*
X-6755833Y-8839250D01*
X-5901355Y-8839610D01*
X-4970471Y-8839632D01*
X-3961336Y-8839322D01*
X-2872105Y-8838687D01*
X-1700936Y-8837734D01*
X-1111019Y-8837167D01*
X9499195Y-8826500D01*
X11216489Y-5863167D01*
X11486327Y-5396653D01*
X11746009Y-4945981D01*
X11992063Y-4517280D01*
X12221017Y-4116678D01*
X12429397Y-3750306D01*
X12613730Y-3424293D01*
X12770545Y-3144767D01*
X12896367Y-2917858D01*
X12987725Y-2749695D01*
X13041146Y-2646408D01*
X13050247Y-2626695D01*
X13166712Y-2353557D01*
X12968803Y-2055195D01*
X12621902Y-1554539D01*
X12235631Y-1036616D01*
X11820276Y-513094D01*
X11386125Y4356D01*
X10943465Y504067D01*
X10502582Y974367D01*
X10073764Y1403589D01*
X9667298Y1780063D01*
X9356850Y2042059D01*
X9052297Y2270034D01*
X8781783Y2436678D01*
X8530479Y2549799D01*
X8283557Y2617206D01*
X8255000Y2622341D01*
X7981110Y2679531D01*
X7766098Y2754175D01*
X7593977Y2859098D01*
X7448765Y3007123D01*
X7314477Y3211075D01*
X7175128Y3483779D01*
X7171362Y3491756D01*
X7032242Y3801905D01*
X6920686Y4089557D01*
X6831531Y4374588D01*
X6759616Y4676871D01*
X6699777Y5016279D01*
X6646853Y5412688D01*
X6626865Y5588000D01*
X6578942Y6005830D01*
X6533866Y6348069D01*
X6488504Y6623578D01*
X6439726Y6841222D01*
X6384401Y7009864D01*
X6319398Y7138366D01*
X6241584Y7235593D01*
X6147830Y7310407D01*
X6035004Y7371672D01*
X5989589Y7391915D01*
X5807960Y7439773D01*
X5551055Y7461543D01*
X5224114Y7457311D01*
X4832379Y7427163D01*
X4381092Y7371187D01*
X4335727Y7364590D01*
X4077058Y7327407D01*
X3886735Y7303079D01*
X3749530Y7290911D01*
X3650215Y7290207D01*
X3573559Y7300274D01*
X3504334Y7320415D01*
X3489060Y7325955D01*
X3387180Y7380155D01*
X3298480Y7467283D01*
X3219082Y7596303D01*
X3145109Y7776177D01*
X3072682Y8015868D01*
X2997924Y8324339D01*
X2940557Y8593666D01*
X2872429Y8946092D01*
X2824107Y9248615D01*
X2791600Y9532590D01*
X2770919Y9829368D01*
X2764282Y9978698D01*
X2756690Y10340186D01*
X2766010Y10662106D01*
X2795939Y10960725D01*
X2850178Y11252308D01*
X2932426Y11553123D01*
X3046382Y11879435D01*
X3195747Y12247512D01*
X3370129Y12642561D01*
X3541703Y13030264D01*
X3681171Y13369276D01*
X3797195Y13685111D01*
X3898435Y14003285D01*
X3993553Y14349312D01*
X4091211Y14748706D01*
X4104640Y14806285D01*
X4238367Y15417525D01*
X4351148Y16014267D01*
X4445395Y16614570D01*
X4523525Y17236492D01*
X4587951Y17898094D01*
X4641089Y18617434D01*
X4662917Y18981803D01*
X4687651Y19710052D01*
X4675448Y20397722D01*
X4624582Y21081234D01*
X4533329Y21797005D01*
X4527879Y21832963D01*
X4474102Y22185626D01*
X4432170Y22464078D01*
X4401289Y22677829D01*
X4380666Y22836385D01*
X4369506Y22949256D01*
X4367018Y23025948D01*
X4372408Y23075970D01*
X4384882Y23108830D01*
X4403647Y23134036D01*
X4418000Y23149888D01*
X4461949Y23207956D01*
X4464148Y23262598D01*
X4423179Y23347784D01*
X4408666Y23373239D01*
X4334223Y23529206D01*
X4253424Y23742111D01*
X4175419Y23985657D01*
X4109354Y24233546D01*
X4109291Y24233815D01*
X4075073Y24348063D01*
X4014626Y24519876D01*
X3935420Y24729147D01*
X3844923Y24955769D01*
X3808001Y25044944D01*
X3715090Y25274542D01*
X3630961Y25496467D01*
X3563062Y25690047D01*
X3518842Y25834613D01*
X3509783Y25872462D01*
X3476771Y26033909D01*
X3445639Y26187574D01*
X3433791Y26246666D01*
X3405777Y26345404D01*
X3360318Y26382110D01*
X3288776Y26381107D01*
X3219554Y26385827D01*
X3140648Y26423202D01*
X3036494Y26503259D01*
X2891530Y26636021D01*
X2888389Y26639014D01*
X2751607Y26766899D01*
X2655905Y26845583D01*
X2582386Y26885626D01*
X2512155Y26897589D01*
X2434167Y26892867D01*
X2312983Y26892174D01*
X2206119Y26927851D01*
X2082313Y27007529D01*
X1971635Y27097115D01*
X1920193Y27169882D01*
X1912374Y27248579D01*
X1912979Y27254235D01*
X1922787Y27311656D01*
X1947969Y27345335D01*
X2006835Y27361159D01*
X2117695Y27365014D01*
X2252800Y27363489D01*
X2579433Y27358477D01*
X2252800Y27590406D01*
X2072997Y27719839D01*
X1886022Y27857280D01*
X1725661Y27977827D01*
X1691636Y28003996D01*
X1547699Y28106941D01*
X1443369Y28158119D01*
X1359285Y28166521D01*
X1346133Y28164443D01*
X1248256Y28168045D01*
X1184845Y28237247D01*
X1184762Y28237401D01*
X1158155Y28317814D01*
X1184577Y28395647D01*
X1216970Y28442703D01*
X1307369Y28529616D01*
X1420495Y28567211D01*
X1567425Y28554654D01*
X1759239Y28491112D01*
X1989588Y28384539D01*
X2155752Y28304314D01*
X2295202Y28242985D01*
X2390002Y28208099D01*
X2420077Y28203414D01*
X2409118Y28228179D01*
X2335902Y28280558D01*
X2215066Y28352724D01*
X2061246Y28436850D01*
X1889078Y28525107D01*
X1713197Y28609670D01*
X1548239Y28682710D01*
X1453010Y28720598D01*
X1300002Y28782830D01*
X1175950Y28842620D01*
X1104724Y28888304D01*
X1100264Y28892985D01*
X1063271Y28991216D01*
X1107560Y29092090D01*
X1228026Y29187688D01*
X1375834Y29273500D01*
X1289860Y29358166D01*
X1221054Y29407983D01*
X1129101Y29430359D01*
X985984Y29431362D01*
X958005Y29430025D01*
X802477Y29434848D01*
X640555Y29469433D01*
X458087Y29539411D01*
X240919Y29650413D01*
X-25103Y29808070D01*
X-83053Y29844213D01*
X-240607Y29935534D01*
X-394068Y30011985D01*
X-511020Y30057464D01*
X-513920Y30058261D01*
X-637147Y30106160D01*
X-788188Y30184738D01*
X-889553Y30247539D01*
X-1018338Y30328526D01*
X-1103415Y30363664D01*
X-1166975Y30360265D01*
X-1194577Y30348053D01*
X-1296909Y30322369D01*
X-1450805Y30330903D01*
X-1664336Y30374809D01*
X-1945568Y30455242D01*
X-1947333Y30455792D01*
X-2138720Y30506056D01*
X-2373489Y30554106D01*
X-2610559Y30591871D01*
X-2688166Y30601352D01*
X-3072686Y30638060D01*
X-3515849Y30671012D01*
X-4001908Y30699733D01*
X-4515115Y30723746D01*
X-5039722Y30742576D01*
X-5559984Y30755747D01*
X-6060151Y30762782D01*
X-6524477Y30763206D01*
X-6937214Y30756543D01*
X-7282615Y30742317D01*
X-7305673Y30740912D01*
X-7564313Y30723909D01*
X-7758373Y30707525D01*
X-7907820Y30687845D01*
X-8032618Y30660949D01*
X-8152733Y30622920D01*
X-8288130Y30569839D01*
X-8385173Y30529066D01*
X-8557683Y30459041D01*
X-8788398Y30369925D01*
X-9055385Y30269951D01*
X-9336711Y30167350D01*
X-9567333Y30085410D01*
X-10667005Y29677309D01*
X-11685658Y29251777D01*
X-12625326Y28807843D01*
X-13488042Y28344533D01*
X-14275839Y27860876D01*
X-14422100Y27763300D01*
X-15014188Y27407345D01*
X-15666937Y27097847D01*
X-16002000Y26966294D01*
X-16418560Y26802914D01*
X-16805661Y26631012D01*
X-17142434Y26460194D01*
X-17304037Y26366897D01*
X-17464589Y26273244D01*
X-17666843Y26161677D01*
X-17876252Y26051083D01*
X-17956048Y26010461D01*
X-18250397Y25856923D01*
X-18466074Y25731383D01*
X-18604075Y25633189D01*
X-18665402Y25561688D01*
X-18669000Y25544902D01*
X-18706269Y25451026D01*
X-18809222Y25338921D01*
X-18964576Y25220901D01*
X-19113771Y25132560D01*
X-19367500Y24997833D01*
X-19379521Y24542211D01*
X-19387195Y24332915D01*
X-19398846Y24192696D01*
X-19417126Y24105977D01*
X-19444690Y24057178D01*
X-19464922Y24040762D01*
X-19515493Y23978472D01*
X-19525490Y23867003D01*
X-19522932Y23833773D01*
X-19520858Y23722925D01*
X-19549856Y23666692D01*
X-19596281Y23644452D01*
X-19706528Y23632794D01*
X-19833899Y23669790D01*
X-19994894Y23761339D01*
X-20072836Y23814864D01*
X-20270172Y23955141D01*
X-23388249Y23955141D01*
X-22947001Y24722265D01*
X-22314502Y25819716D01*
X-21641793Y26985016D01*
X-20927746Y28220239D01*
X-20587789Y28807833D01*
X-20241227Y29406718D01*
X-19895573Y30004066D01*
X-19554434Y30593642D01*
X-19221418Y31169211D01*
X-18900129Y31724539D01*
X-18594176Y32253392D01*
X-18307165Y32749535D01*
X-18042702Y33206733D01*
X-17804394Y33618752D01*
X-17595847Y33979358D01*
X-17420669Y34282315D01*
X-17282466Y34521390D01*
X-17227662Y34616226D01*
X-16488833Y35894953D01*
X-3402433Y35896810D01*
X-2110069Y35896932D01*
X-899991Y35896916D01*
G37*
X-899991Y35896916D02*
X230185Y35896751D01*
X1282838Y35896429D01*
X2260351Y35895940D01*
X3165104Y35895274D01*
X3999480Y35894424D01*
X4765860Y35893378D01*
X5466626Y35892128D01*
X6104159Y35890666D01*
X6680840Y35888980D01*
X7199051Y35887063D01*
X7661173Y35884905D01*
X8069589Y35882497D01*
X8426679Y35879829D01*
X8734825Y35876892D01*
X8996409Y35873677D01*
X9213811Y35870175D01*
X9389414Y35866377D01*
X9525600Y35862272D01*
X9624748Y35857852D01*
X9689242Y35853108D01*
X9721462Y35848031D01*
X9725982Y35845750D01*
X9752858Y35802191D01*
X9819404Y35690097D01*
X9922868Y35514204D01*
X10060499Y35279251D01*
X10229545Y34989974D01*
X10427255Y34651111D01*
X10650876Y34267398D01*
X10897657Y33843572D01*
X11164847Y33384372D01*
X11449692Y32894533D01*
X11749443Y32378794D01*
X12061347Y31841890D01*
X12382652Y31288560D01*
X12710607Y30723541D01*
X13042460Y30151569D01*
X13375460Y29577382D01*
X13706854Y29005717D01*
X14033891Y28441311D01*
X14353819Y27888901D01*
X14663887Y27353224D01*
X14961342Y26839018D01*
X15243434Y26351020D01*
X15507410Y25893966D01*
X15609257Y25717500D01*
X16281771Y24550417D01*
X16911701Y23453934D01*
X17500116Y22426102D01*
X18048086Y21464976D01*
X18556678Y20568609D01*
X19026963Y19735053D01*
X19460008Y18962363D01*
X19856884Y18248591D01*
X20218658Y17591791D01*
X20546400Y16990016D01*
X20841179Y16441318D01*
X21104064Y15943752D01*
X21336123Y15495371D01*
X21538426Y15094227D01*
X21712041Y14738374D01*
X21858038Y14425866D01*
X21977485Y14154755D01*
X22036378Y14012333D01*
X22110183Y13816494D01*
X22163260Y13638109D01*
X22193469Y13467601D01*
X22198668Y13295397D01*
X22176717Y13111920D01*
X22125474Y12907595D01*
X22042798Y12672846D01*
X21926549Y12398100D01*
X21774584Y12073780D01*
X21584763Y11690311D01*
X21463676Y11451166D01*
X21303299Y11139463D01*
X21122204Y10794103D01*
X20919396Y10413340D01*
X20693881Y9995430D01*
X20444663Y9538627D01*
X20170749Y9041186D01*
X19871144Y8501361D01*
X19544853Y7917408D01*
X19190882Y7287581D01*
X18808235Y6610136D01*
X18395918Y5883326D01*
X17952937Y5105407D01*
X17478297Y4274633D01*
X16971004Y3389260D01*
X16430062Y2447541D01*
X15854477Y1447733D01*
X15243255Y388089D01*
X14595400Y-733135D01*
X13909919Y-1917686D01*
X13185816Y-3167307D01*
X12422097Y-4483744D01*
X11617768Y-5868743D01*
X10771833Y-7324048D01*
X10350958Y-8047662D01*
X9720454Y-9131491D01*
X8723144Y-9158592D01*
X8555122Y-9162013D01*
X8308820Y-9165348D01*
X7988747Y-9168593D01*
X7599415Y-9171742D01*
X7145332Y-9174790D01*
X6631009Y-9177732D01*
X6060955Y-9180561D01*
X5439681Y-9183273D01*
X4771695Y-9185862D01*
X4061509Y-9188323D01*
X3313632Y-9190651D01*
X2532573Y-9192840D01*
X1722843Y-9194885D01*
X888952Y-9196780D01*
X35409Y-9198521D01*
X-833275Y-9200101D01*
X-1712591Y-9201515D01*
X-2598029Y-9202758D01*
X-3485079Y-9203826D01*
X-4369230Y-9204711D01*
X-5245975Y-9205409D01*
X-6110801Y-9205915D01*
X-6959200Y-9206223D01*
X-7786661Y-9206328D01*
X-8588675Y-9206224D01*
X-9360731Y-9205906D01*
X-10098321Y-9205369D01*
X-10796933Y-9204607D01*
X-11452059Y-9203616D01*
X-12059188Y-9202389D01*
X-12613810Y-9200921D01*
X-13111415Y-9199207D01*
X-13547494Y-9197241D01*
X-13917537Y-9195019D01*
X-14217033Y-9192535D01*
X-14441473Y-9189782D01*
X-14586347Y-9186757D01*
X-14599184Y-9186341D01*
X-15121648Y-9164769D01*
X-15563143Y-9139010D01*
X-15922880Y-9109139D01*
X-16200070Y-9075228D01*
X-16393927Y-9037350D01*
X-16467666Y-9013675D01*
X-16549652Y-8953615D01*
X-16643831Y-8847082D01*
X-16695753Y-8771506D01*
X-16767028Y-8653171D01*
X-16878167Y-8465479D01*
X-17026836Y-8212475D01*
X-17210700Y-7898203D01*
X-17427426Y-7526708D01*
X-17674677Y-7102033D01*
X-17950121Y-6628223D01*
X-18251421Y-6109322D01*
X-18576244Y-5549374D01*
X-18922255Y-4952424D01*
X-19287119Y-4322516D01*
X-19668502Y-3663695D01*
X-20064069Y-2980003D01*
X-20471485Y-2275487D01*
X-20888417Y-1554189D01*
X-21312529Y-820155D01*
X-21741487Y-77428D01*
X-22172956Y669947D01*
X-22604602Y1417925D01*
X-23034090Y2162464D01*
X-23459086Y2899518D01*
X-23877254Y3625043D01*
X-24286261Y4334994D01*
X-24683772Y5025329D01*
X-25067452Y5692001D01*
X-25434966Y6330968D01*
X-25783980Y6938184D01*
X-26112160Y7509606D01*
X-26417171Y8041189D01*
X-26696678Y8528888D01*
X-26948347Y8968661D01*
X-27169842Y9356462D01*
X-27358831Y9688247D01*
X-27512977Y9959971D01*
X-27629947Y10167592D01*
X-27672965Y10244666D01*
X-27985759Y10816389D01*
X-28252413Y11323083D01*
X-28474909Y11769380D01*
X-28655227Y12159915D01*
X-28795347Y12499322D01*
X-28897252Y12792232D01*
X-28962922Y13043279D01*
X-28994338Y13257097D01*
X-28997831Y13343370D01*
X-28991853Y13434915D01*
X-28972746Y13544512D01*
X-28939382Y13674235D01*
X-28890633Y13826160D01*
X-28825370Y14002361D01*
X-28742465Y14204914D01*
X-28640789Y14435892D01*
X-28519214Y14697371D01*
X-28376612Y14991426D01*
X-28211854Y15320132D01*
X-28023812Y15685564D01*
X-27811357Y16089796D01*
X-27573362Y16534903D01*
X-27308697Y17022960D01*
X-27016235Y17556043D01*
X-26694847Y18136225D01*
X-26343405Y18765582D01*
X-25960779Y19446189D01*
X-25545843Y20180120D01*
X-25097467Y20969451D01*
X-24614523Y21816256D01*
X-24095883Y22722610D01*
X-23540418Y23690588D01*
X-23388249Y23955141D01*
X-20270172Y23955141D01*
X-20232498Y23823782D01*
X-20189611Y23710925D01*
X-20118992Y23586252D01*
X-20012493Y23438619D01*
X-19861964Y23256885D01*
X-19659257Y23029908D01*
X-19622861Y22990198D01*
X-19424734Y22768595D01*
X-19283128Y22595055D01*
X-19191858Y22460745D01*
X-19144745Y22356833D01*
X-19134666Y22292706D01*
X-19101632Y22218985D01*
X-19069660Y22192828D01*
X-19012317Y22127800D01*
X-18971435Y22031974D01*
X-18938119Y21950766D01*
X-18876525Y21907549D01*
X-18758854Y21883182D01*
X-18754449Y21882580D01*
X-18565525Y21816375D01*
X-18413228Y21679286D01*
X-18306817Y21480550D01*
X-18286743Y21415998D01*
X-18261536Y21280795D01*
X-18274176Y21161238D01*
X-18310528Y21051376D01*
X-18364628Y20935448D01*
X-18419377Y20857214D01*
X-18440255Y20841740D01*
X-18475390Y20813401D01*
X-18454908Y20758455D01*
X-18435558Y20729618D01*
X-18402627Y20637524D01*
X-18383029Y20473230D01*
X-18376834Y20235218D01*
X-18384113Y19921970D01*
X-18404936Y19531969D01*
X-18439374Y19063696D01*
X-18487498Y18515633D01*
X-18549379Y17886264D01*
X-18582557Y17568333D01*
X-18614135Y17169153D01*
X-18624617Y16780908D01*
X-18614879Y16417414D01*
X-18585794Y16092488D01*
X-18538238Y15819946D01*
X-18473086Y15613603D01*
X-18456582Y15578666D01*
X-18387748Y15483544D01*
X-18263877Y15350315D01*
X-18098137Y15191042D01*
X-17903693Y15017789D01*
X-17693711Y14842617D01*
X-17481358Y14677589D01*
X-17438541Y14645970D01*
X-17282437Y14531230D01*
X-17182724Y14451900D01*
X-17127994Y14392676D01*
X-17106840Y14338255D01*
X-17107855Y14273335D01*
X-17115718Y14212911D01*
X-17139987Y14098949D01*
X-17187003Y13965719D01*
X-17261144Y13805164D01*
X-17366784Y13609227D01*
X-17508300Y13369853D01*
X-17690068Y13078985D01*
X-17916465Y12728566D01*
X-17948999Y12678833D01*
X-18163652Y12348456D01*
X-18335290Y12077198D01*
X-18469391Y11854774D01*
X-18571432Y11670898D01*
X-18646893Y11515286D01*
X-18701249Y11377653D01*
X-18739980Y11247714D01*
X-18761060Y11154180D01*
X-18781454Y10845265D01*
X-18725822Y10530734D01*
X-18601043Y10222131D01*
X-18414001Y9931003D01*
X-18171576Y9668896D01*
X-17880651Y9447354D01*
X-17676245Y9334137D01*
X-17524161Y9264550D01*
X-17396471Y9212580D01*
X-17316074Y9187381D01*
X-17306461Y9186333D01*
X-17242475Y9152422D01*
X-17187634Y9081063D01*
X-17167440Y9029427D01*
X-17158109Y8959987D01*
X-17160436Y8858775D01*
X-17175217Y8711824D01*
X-17203245Y8505168D01*
X-17231010Y8318574D01*
X-17330724Y7661356D01*
X-17232822Y7439595D01*
X-17122304Y7187691D01*
X-17041439Y6995320D01*
X-16985364Y6844703D01*
X-16949216Y6718063D01*
X-16928130Y6597620D01*
X-16917244Y6465598D01*
X-16911692Y6304216D01*
X-16910682Y6262074D01*
X-16902005Y6047445D01*
X-16882242Y5875078D01*
X-16843746Y5724312D01*
X-16778870Y5574485D01*
X-16679966Y5404936D01*
X-16539386Y5195003D01*
X-16488833Y5122333D01*
X-16354308Y4929506D01*
X-16251769Y4775061D01*
X-16177057Y4642960D01*
X-16126013Y4517164D01*
X-16094476Y4381636D01*
X-16078289Y4220336D01*
X-16073290Y4017228D01*
X-16075322Y3756271D01*
X-16078557Y3540319D01*
X-16091614Y2656804D01*
X-15976200Y2418485D01*
X-15813915Y2160107D01*
X-15584666Y1903019D01*
X-15305230Y1661023D01*
X-14992380Y1447917D01*
X-14662893Y1277502D01*
X-14520333Y1220806D01*
X-14446901Y1195173D01*
X-14377274Y1174409D01*
X-14301963Y1158013D01*
X-14211476Y1145486D01*
X-14096324Y1136325D01*
X-13947014Y1130032D01*
X-13754057Y1126104D01*
X-13507962Y1124042D01*
X-13199239Y1123345D01*
X-12818396Y1123512D01*
X-12678833Y1123667D01*
X-12262587Y1124524D01*
X-11919846Y1126366D01*
X-11639446Y1129703D01*
X-11410227Y1135045D01*
X-11221028Y1142900D01*
X-11060687Y1153778D01*
X-10918043Y1168190D01*
X-10781933Y1186645D01*
X-10641198Y1209652D01*
X-10587115Y1219171D01*
X-10388222Y1253740D01*
X-10222823Y1280794D01*
X-10106867Y1297849D01*
X-10056302Y1302419D01*
X-10055381Y1302004D01*
X-10036507Y1261219D01*
X-9991122Y1160759D01*
X-9927186Y1018281D01*
X-9888304Y931333D01*
X-9725134Y589152D01*
X-9566650Y309910D01*
X-9399821Y73753D01*
X-9211617Y-139170D01*
X-9137420Y-212709D01*
X-8850242Y-488918D01*
X-9069430Y-868876D01*
X-9135816Y-979689D01*
X-9205691Y-1084985D01*
X-9286537Y-1193176D01*
X-9385837Y-1312678D01*
X-9511071Y-1451902D01*
X-9669722Y-1619265D01*
X-9869272Y-1823178D01*
X-10117203Y-2072056D01*
X-10310772Y-2264834D01*
X-10627575Y-2582708D01*
X-10896609Y-2858889D01*
X-11114820Y-3090089D01*
X-11279152Y-3273020D01*
X-11386551Y-3404393D01*
X-11428120Y-3467541D01*
X-11487963Y-3625211D01*
X-11499538Y-3784524D01*
X-11460637Y-3964699D01*
X-11369047Y-4184958D01*
X-11338462Y-4246944D01*
X-11237351Y-4462926D01*
X-11151017Y-4676870D01*
X-11086967Y-4867721D01*
X-11052705Y-5014425D01*
X-11049000Y-5058983D01*
X-11021920Y-5158444D01*
X-10965590Y-5247884D01*
X-10912454Y-5315730D01*
X-10878089Y-5384799D01*
X-10861995Y-5470226D01*
X-10863672Y-5587149D01*
X-10882620Y-5750703D01*
X-10918341Y-5976024D01*
X-10937781Y-6090141D01*
X-11003235Y-6428297D01*
X-11076764Y-6707846D01*
X-11168185Y-6954830D01*
X-11287318Y-7195290D01*
X-11443980Y-7455269D01*
X-11464347Y-7486827D01*
X-11637886Y-7784510D01*
X-11747368Y-8048974D01*
X-11797961Y-8295753D01*
X-11799268Y-8493998D01*
X-11784122Y-8639362D01*
X-11765268Y-8752393D01*
X-11750180Y-8800998D01*
X-11721160Y-8806317D01*
X-11639710Y-8811217D01*
X-11503984Y-8815705D01*
X-11312138Y-8819786D01*
X-11062328Y-8823466D01*
X-10752710Y-8826753D01*
X-10381439Y-8829651D01*
X-9946671Y-8832169D01*
X-9446563Y-8834310D01*
X-8879269Y-8836083D01*
X-8242946Y-8837493D01*
X-7535748Y-8838547D01*
X-6755833Y-8839250D01*
X-5901355Y-8839610D01*
X-4970471Y-8839632D01*
X-3961336Y-8839322D01*
X-2872105Y-8838687D01*
X-1700936Y-8837734D01*
X-1111019Y-8837167D01*
X9499195Y-8826500D01*
X11216489Y-5863167D01*
X11486327Y-5396653D01*
X11746009Y-4945981D01*
X11992063Y-4517280D01*
X12221017Y-4116678D01*
X12429397Y-3750306D01*
X12613730Y-3424293D01*
X12770545Y-3144767D01*
X12896367Y-2917858D01*
X12987725Y-2749695D01*
X13041146Y-2646408D01*
X13050247Y-2626695D01*
X13166712Y-2353557D01*
X12968803Y-2055195D01*
X12621902Y-1554539D01*
X12235631Y-1036616D01*
X11820276Y-513094D01*
X11386125Y4356D01*
X10943465Y504067D01*
X10502582Y974367D01*
X10073764Y1403589D01*
X9667298Y1780063D01*
X9356850Y2042059D01*
X9052297Y2270034D01*
X8781783Y2436678D01*
X8530479Y2549799D01*
X8283557Y2617206D01*
X8255000Y2622341D01*
X7981110Y2679531D01*
X7766098Y2754175D01*
X7593977Y2859098D01*
X7448765Y3007123D01*
X7314477Y3211075D01*
X7175128Y3483779D01*
X7171362Y3491756D01*
X7032242Y3801905D01*
X6920686Y4089557D01*
X6831531Y4374588D01*
X6759616Y4676871D01*
X6699777Y5016279D01*
X6646853Y5412688D01*
X6626865Y5588000D01*
X6578942Y6005830D01*
X6533866Y6348069D01*
X6488504Y6623578D01*
X6439726Y6841222D01*
X6384401Y7009864D01*
X6319398Y7138366D01*
X6241584Y7235593D01*
X6147830Y7310407D01*
X6035004Y7371672D01*
X5989589Y7391915D01*
X5807960Y7439773D01*
X5551055Y7461543D01*
X5224114Y7457311D01*
X4832379Y7427163D01*
X4381092Y7371187D01*
X4335727Y7364590D01*
X4077058Y7327407D01*
X3886735Y7303079D01*
X3749530Y7290911D01*
X3650215Y7290207D01*
X3573559Y7300274D01*
X3504334Y7320415D01*
X3489060Y7325955D01*
X3387180Y7380155D01*
X3298480Y7467283D01*
X3219082Y7596303D01*
X3145109Y7776177D01*
X3072682Y8015868D01*
X2997924Y8324339D01*
X2940557Y8593666D01*
X2872429Y8946092D01*
X2824107Y9248615D01*
X2791600Y9532590D01*
X2770919Y9829368D01*
X2764282Y9978698D01*
X2756690Y10340186D01*
X2766010Y10662106D01*
X2795939Y10960725D01*
X2850178Y11252308D01*
X2932426Y11553123D01*
X3046382Y11879435D01*
X3195747Y12247512D01*
X3370129Y12642561D01*
X3541703Y13030264D01*
X3681171Y13369276D01*
X3797195Y13685111D01*
X3898435Y14003285D01*
X3993553Y14349312D01*
X4091211Y14748706D01*
X4104640Y14806285D01*
X4238367Y15417525D01*
X4351148Y16014267D01*
X4445395Y16614570D01*
X4523525Y17236492D01*
X4587951Y17898094D01*
X4641089Y18617434D01*
X4662917Y18981803D01*
X4687651Y19710052D01*
X4675448Y20397722D01*
X4624582Y21081234D01*
X4533329Y21797005D01*
X4527879Y21832963D01*
X4474102Y22185626D01*
X4432170Y22464078D01*
X4401289Y22677829D01*
X4380666Y22836385D01*
X4369506Y22949256D01*
X4367018Y23025948D01*
X4372408Y23075970D01*
X4384882Y23108830D01*
X4403647Y23134036D01*
X4418000Y23149888D01*
X4461949Y23207956D01*
X4464148Y23262598D01*
X4423179Y23347784D01*
X4408666Y23373239D01*
X4334223Y23529206D01*
X4253424Y23742111D01*
X4175419Y23985657D01*
X4109354Y24233546D01*
X4109291Y24233815D01*
X4075073Y24348063D01*
X4014626Y24519876D01*
X3935420Y24729147D01*
X3844923Y24955769D01*
X3808001Y25044944D01*
X3715090Y25274542D01*
X3630961Y25496467D01*
X3563062Y25690047D01*
X3518842Y25834613D01*
X3509783Y25872462D01*
X3476771Y26033909D01*
X3445639Y26187574D01*
X3433791Y26246666D01*
X3405777Y26345404D01*
X3360318Y26382110D01*
X3288776Y26381107D01*
X3219554Y26385827D01*
X3140648Y26423202D01*
X3036494Y26503259D01*
X2891530Y26636021D01*
X2888389Y26639014D01*
X2751607Y26766899D01*
X2655905Y26845583D01*
X2582386Y26885626D01*
X2512155Y26897589D01*
X2434167Y26892867D01*
X2312983Y26892174D01*
X2206119Y26927851D01*
X2082313Y27007529D01*
X1971635Y27097115D01*
X1920193Y27169882D01*
X1912374Y27248579D01*
X1912979Y27254235D01*
X1922787Y27311656D01*
X1947969Y27345335D01*
X2006835Y27361159D01*
X2117695Y27365014D01*
X2252800Y27363489D01*
X2579433Y27358477D01*
X2252800Y27590406D01*
X2072997Y27719839D01*
X1886022Y27857280D01*
X1725661Y27977827D01*
X1691636Y28003996D01*
X1547699Y28106941D01*
X1443369Y28158119D01*
X1359285Y28166521D01*
X1346133Y28164443D01*
X1248256Y28168045D01*
X1184845Y28237247D01*
X1184762Y28237401D01*
X1158155Y28317814D01*
X1184577Y28395647D01*
X1216970Y28442703D01*
X1307369Y28529616D01*
X1420495Y28567211D01*
X1567425Y28554654D01*
X1759239Y28491112D01*
X1989588Y28384539D01*
X2155752Y28304314D01*
X2295202Y28242985D01*
X2390002Y28208099D01*
X2420077Y28203414D01*
X2409118Y28228179D01*
X2335902Y28280558D01*
X2215066Y28352724D01*
X2061246Y28436850D01*
X1889078Y28525107D01*
X1713197Y28609670D01*
X1548239Y28682710D01*
X1453010Y28720598D01*
X1300002Y28782830D01*
X1175950Y28842620D01*
X1104724Y28888304D01*
X1100264Y28892985D01*
X1063271Y28991216D01*
X1107560Y29092090D01*
X1228026Y29187688D01*
X1375834Y29273500D01*
X1289860Y29358166D01*
X1221054Y29407983D01*
X1129101Y29430359D01*
X985984Y29431362D01*
X958005Y29430025D01*
X802477Y29434848D01*
X640555Y29469433D01*
X458087Y29539411D01*
X240919Y29650413D01*
X-25103Y29808070D01*
X-83053Y29844213D01*
X-240607Y29935534D01*
X-394068Y30011985D01*
X-511020Y30057464D01*
X-513920Y30058261D01*
X-637147Y30106160D01*
X-788188Y30184738D01*
X-889553Y30247539D01*
X-1018338Y30328526D01*
X-1103415Y30363664D01*
X-1166975Y30360265D01*
X-1194577Y30348053D01*
X-1296909Y30322369D01*
X-1450805Y30330903D01*
X-1664336Y30374809D01*
X-1945568Y30455242D01*
X-1947333Y30455792D01*
X-2138720Y30506056D01*
X-2373489Y30554106D01*
X-2610559Y30591871D01*
X-2688166Y30601352D01*
X-3072686Y30638060D01*
X-3515849Y30671012D01*
X-4001908Y30699733D01*
X-4515115Y30723746D01*
X-5039722Y30742576D01*
X-5559984Y30755747D01*
X-6060151Y30762782D01*
X-6524477Y30763206D01*
X-6937214Y30756543D01*
X-7282615Y30742317D01*
X-7305673Y30740912D01*
X-7564313Y30723909D01*
X-7758373Y30707525D01*
X-7907820Y30687845D01*
X-8032618Y30660949D01*
X-8152733Y30622920D01*
X-8288130Y30569839D01*
X-8385173Y30529066D01*
X-8557683Y30459041D01*
X-8788398Y30369925D01*
X-9055385Y30269951D01*
X-9336711Y30167350D01*
X-9567333Y30085410D01*
X-10667005Y29677309D01*
X-11685658Y29251777D01*
X-12625326Y28807843D01*
X-13488042Y28344533D01*
X-14275839Y27860876D01*
X-14422100Y27763300D01*
X-15014188Y27407345D01*
X-15666937Y27097847D01*
X-16002000Y26966294D01*
X-16418560Y26802914D01*
X-16805661Y26631012D01*
X-17142434Y26460194D01*
X-17304037Y26366897D01*
X-17464589Y26273244D01*
X-17666843Y26161677D01*
X-17876252Y26051083D01*
X-17956048Y26010461D01*
X-18250397Y25856923D01*
X-18466074Y25731383D01*
X-18604075Y25633189D01*
X-18665402Y25561688D01*
X-18669000Y25544902D01*
X-18706269Y25451026D01*
X-18809222Y25338921D01*
X-18964576Y25220901D01*
X-19113771Y25132560D01*
X-19367500Y24997833D01*
X-19379521Y24542211D01*
X-19387195Y24332915D01*
X-19398846Y24192696D01*
X-19417126Y24105977D01*
X-19444690Y24057178D01*
X-19464922Y24040762D01*
X-19515493Y23978472D01*
X-19525490Y23867003D01*
X-19522932Y23833773D01*
X-19520858Y23722925D01*
X-19549856Y23666692D01*
X-19596281Y23644452D01*
X-19706528Y23632794D01*
X-19833899Y23669790D01*
X-19994894Y23761339D01*
X-20072836Y23814864D01*
X-20270172Y23955141D01*
X-23388249Y23955141D01*
X-22947001Y24722265D01*
X-22314502Y25819716D01*
X-21641793Y26985016D01*
X-20927746Y28220239D01*
X-20587789Y28807833D01*
X-20241227Y29406718D01*
X-19895573Y30004066D01*
X-19554434Y30593642D01*
X-19221418Y31169211D01*
X-18900129Y31724539D01*
X-18594176Y32253392D01*
X-18307165Y32749535D01*
X-18042702Y33206733D01*
X-17804394Y33618752D01*
X-17595847Y33979358D01*
X-17420669Y34282315D01*
X-17282466Y34521390D01*
X-17227662Y34616226D01*
X-16488833Y35894953D01*
X-3402433Y35896810D01*
X-2110069Y35896932D01*
X-899991Y35896916D01*
D11*
X2146300Y-3289300D03*
X2146300Y-5829300D03*
D12*
X-393700Y-3289300D03*
X-393700Y-5829300D03*
X-2933700Y-3289300D03*
D13*
X-2933700Y-5829300D03*
M02*
