G04 #@! TF.GenerationSoftware,KiCad,Pcbnew,(5.1.5)-3*
G04 #@! TF.CreationDate,2020-08-07T09:29:16-05:00*
G04 #@! TF.ProjectId,matt_damon,6d617474-5f64-4616-9d6f-6e2e6b696361,rev?*
G04 #@! TF.SameCoordinates,Original*
G04 #@! TF.FileFunction,Profile,NP*
%FSLAX46Y46*%
G04 Gerber Fmt 4.6, Leading zero omitted, Abs format (unit mm)*
G04 Created by KiCad (PCBNEW (5.1.5)-3) date 2020-08-07 09:29:16*
%MOMM*%
%LPD*%
G04 APERTURE LIST*
%ADD10C,0.100000*%
G04 APERTURE END LIST*
D10*
X-16812745Y-9430547D02*
X-17009265Y-9121598D01*
X-17009265Y-9121598D02*
X-17470984Y-8345812D01*
X-17470984Y-8345812D02*
X-19328114Y-5155176D01*
X-19328114Y-5155176D02*
X-27743823Y9452234D01*
X-27743823Y9452234D02*
X-28558845Y10914621D01*
X-28558845Y10914621D02*
X-28867968Y11510290D01*
X-28867968Y11510290D02*
X-29114999Y12023254D01*
X-29114999Y12023254D02*
X-29302564Y12459246D01*
X-29302564Y12459246D02*
X-29433288Y12823998D01*
X-29433288Y12823998D02*
X-29509798Y13123242D01*
X-29509798Y13123242D02*
X-29534718Y13362712D01*
X-29534718Y13362712D02*
X-29508708Y13544219D01*
X-29508708Y13544219D02*
X-29426348Y13809744D01*
X-29426348Y13809744D02*
X-29281125Y14171070D01*
X-29281125Y14171070D02*
X-29066523Y14639982D01*
X-29066523Y14639982D02*
X-28403130Y15947693D01*
X-28403130Y15947693D02*
X-27384061Y17827144D01*
X-27384061Y17827144D02*
X-25957210Y20372600D01*
X-25957210Y20372600D02*
X-24070470Y23678328D01*
X-24070470Y23678328D02*
X-18708897Y32947665D01*
X-18708897Y32947665D02*
X-16733804Y36347146D01*
X-16733804Y36347146D02*
X-3388058Y36347146D01*
X-3388058Y36347146D02*
X9957688Y36347146D01*
X9957688Y36347146D02*
X12275615Y32361548D01*
X12275615Y32361548D02*
X15104895Y27485994D01*
X15104895Y27485994D02*
X17407934Y23490912D01*
X17407934Y23490912D02*
X19230660Y20292867D01*
X19230660Y20292867D02*
X20618997Y17808426D01*
X20618997Y17808426D02*
X21618870Y15954155D01*
X21618870Y15954155D02*
X22276205Y14646623D01*
X22276205Y14646623D02*
X22490773Y14171810D01*
X22490773Y14171810D02*
X22636928Y13802393D01*
X22636928Y13802393D02*
X22720408Y13527945D01*
X22720408Y13527945D02*
X22746958Y13338034D01*
X22746958Y13338034D02*
X22722518Y13155839D01*
X22722518Y13155839D02*
X22643968Y12894426D01*
X22643968Y12894426D02*
X22503434Y12539612D01*
X22503434Y12539612D02*
X22293061Y12077215D01*
X22293061Y12077215D02*
X21631350Y10772942D01*
X21631350Y10772942D02*
X20595942Y8868144D01*
X20595942Y8868144D02*
X19123947Y6249358D01*
X19123947Y6249358D02*
X17152473Y2803123D01*
X17152473Y2803123D02*
X11459525Y-7025542D01*
X11459525Y-7025542D02*
X9959918Y-9604453D01*
X9959918Y-9604453D02*
X-3309800Y-9664973D01*
X-3309800Y-9664973D02*
X-9798322Y-9681043D01*
X-9798322Y-9681043D02*
X-12121845Y-9672843D01*
X-12121845Y-9672843D02*
X-13907565Y-9652533D01*
X-13907565Y-9652533D02*
X-15212498Y-9619123D01*
X-15212498Y-9619123D02*
X-16093661Y-9571633D01*
X-16093661Y-9571633D02*
X-16608070Y-9509093D01*
X-16608070Y-9509093D02*
X-16745559Y-9471873D01*
X-16745559Y-9471873D02*
X-16812739Y-9430523D01*
X-16812739Y-9430523D02*
X-16812739Y-9430541D01*
X-16812739Y-9430541D02*
X-16812745Y-9430547D01*
M02*
