G04 #@! TF.GenerationSoftware,KiCad,Pcbnew,(5.1.5)-3*
G04 #@! TF.CreationDate,2020-08-07T09:29:16-05:00*
G04 #@! TF.ProjectId,matt_damon,6d617474-5f64-4616-9d6f-6e2e6b696361,rev?*
G04 #@! TF.SameCoordinates,Original*
G04 #@! TF.FileFunction,Copper,L2,Bot*
G04 #@! TF.FilePolarity,Positive*
%FSLAX46Y46*%
G04 Gerber Fmt 4.6, Leading zero omitted, Abs format (unit mm)*
G04 Created by KiCad (PCBNEW (5.1.5)-3) date 2020-08-07 09:29:16*
%MOMM*%
%LPD*%
G04 APERTURE LIST*
%ADD10C,1.727200*%
%ADD11O,1.727200X1.727200*%
%ADD12R,1.727200X1.727200*%
%ADD13R,1.000000X3.150000*%
%ADD14C,0.100000*%
%ADD15R,1.700000X0.650000*%
%ADD16C,0.600000*%
%ADD17C,0.250000*%
%ADD18C,0.254000*%
G04 APERTURE END LIST*
D10*
X2146300Y-3289300D03*
X2146300Y-5829300D03*
D11*
X-393700Y-3289300D03*
X-393700Y-5829300D03*
X-2933700Y-3289300D03*
D12*
X-2933700Y-5829300D03*
D13*
X-9499840Y9941800D03*
X-9499840Y4891800D03*
X-6959840Y9941800D03*
X-6959840Y4891800D03*
X-4419840Y9941800D03*
X-4419840Y4891800D03*
G04 #@! TA.AperFunction,SMDPad,CuDef*
D14*
G36*
X-9592159Y27203724D02*
G01*
X-9568498Y27200214D01*
X-9545294Y27194402D01*
X-9522772Y27186344D01*
X-9501148Y27176116D01*
X-9480631Y27163819D01*
X-9461418Y27149569D01*
X-9443694Y27133505D01*
X-9427630Y27115781D01*
X-9413380Y27096568D01*
X-9401083Y27076051D01*
X-9390855Y27054427D01*
X-9382797Y27031905D01*
X-9376985Y27008701D01*
X-9373475Y26985040D01*
X-9372301Y26961148D01*
X-9372301Y26048648D01*
X-9373475Y26024756D01*
X-9376985Y26001095D01*
X-9382797Y25977891D01*
X-9390855Y25955369D01*
X-9401083Y25933745D01*
X-9413380Y25913228D01*
X-9427630Y25894015D01*
X-9443694Y25876291D01*
X-9461418Y25860227D01*
X-9480631Y25845977D01*
X-9501148Y25833680D01*
X-9522772Y25823452D01*
X-9545294Y25815394D01*
X-9568498Y25809582D01*
X-9592159Y25806072D01*
X-9616051Y25804898D01*
X-10103551Y25804898D01*
X-10127443Y25806072D01*
X-10151104Y25809582D01*
X-10174308Y25815394D01*
X-10196830Y25823452D01*
X-10218454Y25833680D01*
X-10238971Y25845977D01*
X-10258184Y25860227D01*
X-10275908Y25876291D01*
X-10291972Y25894015D01*
X-10306222Y25913228D01*
X-10318519Y25933745D01*
X-10328747Y25955369D01*
X-10336805Y25977891D01*
X-10342617Y26001095D01*
X-10346127Y26024756D01*
X-10347301Y26048648D01*
X-10347301Y26961148D01*
X-10346127Y26985040D01*
X-10342617Y27008701D01*
X-10336805Y27031905D01*
X-10328747Y27054427D01*
X-10318519Y27076051D01*
X-10306222Y27096568D01*
X-10291972Y27115781D01*
X-10275908Y27133505D01*
X-10258184Y27149569D01*
X-10238971Y27163819D01*
X-10218454Y27176116D01*
X-10196830Y27186344D01*
X-10174308Y27194402D01*
X-10151104Y27200214D01*
X-10127443Y27203724D01*
X-10103551Y27204898D01*
X-9616051Y27204898D01*
X-9592159Y27203724D01*
G37*
G04 #@! TD.AperFunction*
G04 #@! TA.AperFunction,SMDPad,CuDef*
G36*
X-11467159Y27203724D02*
G01*
X-11443498Y27200214D01*
X-11420294Y27194402D01*
X-11397772Y27186344D01*
X-11376148Y27176116D01*
X-11355631Y27163819D01*
X-11336418Y27149569D01*
X-11318694Y27133505D01*
X-11302630Y27115781D01*
X-11288380Y27096568D01*
X-11276083Y27076051D01*
X-11265855Y27054427D01*
X-11257797Y27031905D01*
X-11251985Y27008701D01*
X-11248475Y26985040D01*
X-11247301Y26961148D01*
X-11247301Y26048648D01*
X-11248475Y26024756D01*
X-11251985Y26001095D01*
X-11257797Y25977891D01*
X-11265855Y25955369D01*
X-11276083Y25933745D01*
X-11288380Y25913228D01*
X-11302630Y25894015D01*
X-11318694Y25876291D01*
X-11336418Y25860227D01*
X-11355631Y25845977D01*
X-11376148Y25833680D01*
X-11397772Y25823452D01*
X-11420294Y25815394D01*
X-11443498Y25809582D01*
X-11467159Y25806072D01*
X-11491051Y25804898D01*
X-11978551Y25804898D01*
X-12002443Y25806072D01*
X-12026104Y25809582D01*
X-12049308Y25815394D01*
X-12071830Y25823452D01*
X-12093454Y25833680D01*
X-12113971Y25845977D01*
X-12133184Y25860227D01*
X-12150908Y25876291D01*
X-12166972Y25894015D01*
X-12181222Y25913228D01*
X-12193519Y25933745D01*
X-12203747Y25955369D01*
X-12211805Y25977891D01*
X-12217617Y26001095D01*
X-12221127Y26024756D01*
X-12222301Y26048648D01*
X-12222301Y26961148D01*
X-12221127Y26985040D01*
X-12217617Y27008701D01*
X-12211805Y27031905D01*
X-12203747Y27054427D01*
X-12193519Y27076051D01*
X-12181222Y27096568D01*
X-12166972Y27115781D01*
X-12150908Y27133505D01*
X-12133184Y27149569D01*
X-12113971Y27163819D01*
X-12093454Y27176116D01*
X-12071830Y27186344D01*
X-12049308Y27194402D01*
X-12026104Y27200214D01*
X-12002443Y27203724D01*
X-11978551Y27204898D01*
X-11491051Y27204898D01*
X-11467159Y27203724D01*
G37*
G04 #@! TD.AperFunction*
G04 #@! TA.AperFunction,SMDPad,CuDef*
G36*
X-14839416Y18589216D02*
G01*
X-14815147Y18585616D01*
X-14791349Y18579655D01*
X-14768249Y18571390D01*
X-14746071Y18560900D01*
X-14725027Y18548287D01*
X-14705322Y18533673D01*
X-14687143Y18517197D01*
X-14670667Y18499018D01*
X-14656053Y18479313D01*
X-14643440Y18458269D01*
X-14632950Y18436091D01*
X-14624685Y18412991D01*
X-14618724Y18389193D01*
X-14615124Y18364924D01*
X-14613920Y18340420D01*
X-14613920Y17590420D01*
X-14615124Y17565916D01*
X-14618724Y17541647D01*
X-14624685Y17517849D01*
X-14632950Y17494749D01*
X-14643440Y17472571D01*
X-14656053Y17451527D01*
X-14670667Y17431822D01*
X-14687143Y17413643D01*
X-14705322Y17397167D01*
X-14725027Y17382553D01*
X-14746071Y17369940D01*
X-14768249Y17359450D01*
X-14791349Y17351185D01*
X-14815147Y17345224D01*
X-14839416Y17341624D01*
X-14863920Y17340420D01*
X-16113920Y17340420D01*
X-16138424Y17341624D01*
X-16162693Y17345224D01*
X-16186491Y17351185D01*
X-16209591Y17359450D01*
X-16231769Y17369940D01*
X-16252813Y17382553D01*
X-16272518Y17397167D01*
X-16290697Y17413643D01*
X-16307173Y17431822D01*
X-16321787Y17451527D01*
X-16334400Y17472571D01*
X-16344890Y17494749D01*
X-16353155Y17517849D01*
X-16359116Y17541647D01*
X-16362716Y17565916D01*
X-16363920Y17590420D01*
X-16363920Y18340420D01*
X-16362716Y18364924D01*
X-16359116Y18389193D01*
X-16353155Y18412991D01*
X-16344890Y18436091D01*
X-16334400Y18458269D01*
X-16321787Y18479313D01*
X-16307173Y18499018D01*
X-16290697Y18517197D01*
X-16272518Y18533673D01*
X-16252813Y18548287D01*
X-16231769Y18560900D01*
X-16209591Y18571390D01*
X-16186491Y18579655D01*
X-16162693Y18585616D01*
X-16138424Y18589216D01*
X-16113920Y18590420D01*
X-14863920Y18590420D01*
X-14839416Y18589216D01*
G37*
G04 #@! TD.AperFunction*
G04 #@! TA.AperFunction,SMDPad,CuDef*
G36*
X-14839416Y15789216D02*
G01*
X-14815147Y15785616D01*
X-14791349Y15779655D01*
X-14768249Y15771390D01*
X-14746071Y15760900D01*
X-14725027Y15748287D01*
X-14705322Y15733673D01*
X-14687143Y15717197D01*
X-14670667Y15699018D01*
X-14656053Y15679313D01*
X-14643440Y15658269D01*
X-14632950Y15636091D01*
X-14624685Y15612991D01*
X-14618724Y15589193D01*
X-14615124Y15564924D01*
X-14613920Y15540420D01*
X-14613920Y14790420D01*
X-14615124Y14765916D01*
X-14618724Y14741647D01*
X-14624685Y14717849D01*
X-14632950Y14694749D01*
X-14643440Y14672571D01*
X-14656053Y14651527D01*
X-14670667Y14631822D01*
X-14687143Y14613643D01*
X-14705322Y14597167D01*
X-14725027Y14582553D01*
X-14746071Y14569940D01*
X-14768249Y14559450D01*
X-14791349Y14551185D01*
X-14815147Y14545224D01*
X-14839416Y14541624D01*
X-14863920Y14540420D01*
X-16113920Y14540420D01*
X-16138424Y14541624D01*
X-16162693Y14545224D01*
X-16186491Y14551185D01*
X-16209591Y14559450D01*
X-16231769Y14569940D01*
X-16252813Y14582553D01*
X-16272518Y14597167D01*
X-16290697Y14613643D01*
X-16307173Y14631822D01*
X-16321787Y14651527D01*
X-16334400Y14672571D01*
X-16344890Y14694749D01*
X-16353155Y14717849D01*
X-16359116Y14741647D01*
X-16362716Y14765916D01*
X-16363920Y14790420D01*
X-16363920Y15540420D01*
X-16362716Y15564924D01*
X-16359116Y15589193D01*
X-16353155Y15612991D01*
X-16344890Y15636091D01*
X-16334400Y15658269D01*
X-16321787Y15679313D01*
X-16307173Y15699018D01*
X-16290697Y15717197D01*
X-16272518Y15733673D01*
X-16252813Y15748287D01*
X-16231769Y15760900D01*
X-16209591Y15771390D01*
X-16186491Y15779655D01*
X-16162693Y15785616D01*
X-16138424Y15789216D01*
X-16113920Y15790420D01*
X-14863920Y15790420D01*
X-14839416Y15789216D01*
G37*
G04 #@! TD.AperFunction*
G04 #@! TA.AperFunction,SMDPad,CuDef*
G36*
X-13483161Y5116698D02*
G01*
X-13459073Y5112043D01*
X-13435557Y5105049D01*
X-13412839Y5095784D01*
X-13391140Y5084337D01*
X-13370667Y5070818D01*
X-13351617Y5055358D01*
X-13334175Y5038105D01*
X-13318507Y5019225D01*
X-13304766Y4998900D01*
X-13293083Y4977327D01*
X-13283571Y4954712D01*
X-13027056Y4249943D01*
X-13019806Y4226505D01*
X-13014889Y4202469D01*
X-13012351Y4178067D01*
X-13012217Y4153533D01*
X-13014488Y4129105D01*
X-13019143Y4105017D01*
X-13026137Y4081501D01*
X-13035402Y4058783D01*
X-13046849Y4037084D01*
X-13060368Y4016611D01*
X-13075828Y3997561D01*
X-13093081Y3980119D01*
X-13111961Y3964451D01*
X-13132286Y3950710D01*
X-13153859Y3939027D01*
X-13176474Y3929515D01*
X-14351089Y3501990D01*
X-14374527Y3494740D01*
X-14398563Y3489823D01*
X-14422965Y3487285D01*
X-14447499Y3487151D01*
X-14471927Y3489422D01*
X-14496015Y3494077D01*
X-14519531Y3501071D01*
X-14542249Y3510336D01*
X-14563948Y3521783D01*
X-14584421Y3535302D01*
X-14603471Y3550762D01*
X-14620913Y3568015D01*
X-14636581Y3586895D01*
X-14650322Y3607220D01*
X-14662005Y3628793D01*
X-14671517Y3651408D01*
X-14928032Y4356177D01*
X-14935282Y4379615D01*
X-14940199Y4403651D01*
X-14942737Y4428053D01*
X-14942871Y4452587D01*
X-14940600Y4477015D01*
X-14935945Y4501103D01*
X-14928951Y4524619D01*
X-14919686Y4547337D01*
X-14908239Y4569036D01*
X-14894720Y4589509D01*
X-14879260Y4608559D01*
X-14862007Y4626001D01*
X-14843127Y4641669D01*
X-14822802Y4655410D01*
X-14801229Y4667093D01*
X-14778614Y4676605D01*
X-13603999Y5104130D01*
X-13580561Y5111380D01*
X-13556525Y5116297D01*
X-13532123Y5118835D01*
X-13507589Y5118969D01*
X-13483161Y5116698D01*
G37*
G04 #@! TD.AperFunction*
G04 #@! TA.AperFunction,SMDPad,CuDef*
G36*
X-14440817Y7747838D02*
G01*
X-14416729Y7743183D01*
X-14393213Y7736189D01*
X-14370495Y7726924D01*
X-14348796Y7715477D01*
X-14328323Y7701958D01*
X-14309273Y7686498D01*
X-14291831Y7669245D01*
X-14276163Y7650365D01*
X-14262422Y7630040D01*
X-14250739Y7608467D01*
X-14241227Y7585852D01*
X-13984712Y6881083D01*
X-13977462Y6857645D01*
X-13972545Y6833609D01*
X-13970007Y6809207D01*
X-13969873Y6784673D01*
X-13972144Y6760245D01*
X-13976799Y6736157D01*
X-13983793Y6712641D01*
X-13993058Y6689923D01*
X-14004505Y6668224D01*
X-14018024Y6647751D01*
X-14033484Y6628701D01*
X-14050737Y6611259D01*
X-14069617Y6595591D01*
X-14089942Y6581850D01*
X-14111515Y6570167D01*
X-14134130Y6560655D01*
X-15308745Y6133130D01*
X-15332183Y6125880D01*
X-15356219Y6120963D01*
X-15380621Y6118425D01*
X-15405155Y6118291D01*
X-15429583Y6120562D01*
X-15453671Y6125217D01*
X-15477187Y6132211D01*
X-15499905Y6141476D01*
X-15521604Y6152923D01*
X-15542077Y6166442D01*
X-15561127Y6181902D01*
X-15578569Y6199155D01*
X-15594237Y6218035D01*
X-15607978Y6238360D01*
X-15619661Y6259933D01*
X-15629173Y6282548D01*
X-15885688Y6987317D01*
X-15892938Y7010755D01*
X-15897855Y7034791D01*
X-15900393Y7059193D01*
X-15900527Y7083727D01*
X-15898256Y7108155D01*
X-15893601Y7132243D01*
X-15886607Y7155759D01*
X-15877342Y7178477D01*
X-15865895Y7200176D01*
X-15852376Y7220649D01*
X-15836916Y7239699D01*
X-15819663Y7257141D01*
X-15800783Y7272809D01*
X-15780458Y7286550D01*
X-15758885Y7298233D01*
X-15736270Y7307745D01*
X-14561655Y7735270D01*
X-14538217Y7742520D01*
X-14514181Y7747437D01*
X-14489779Y7749975D01*
X-14465245Y7750109D01*
X-14440817Y7747838D01*
G37*
G04 #@! TD.AperFunction*
G04 #@! TA.AperFunction,SMDPad,CuDef*
G36*
X10568327Y-1384667D02*
G01*
X10592633Y-1388002D01*
X10616495Y-1393703D01*
X10639684Y-1401716D01*
X10661975Y-1411963D01*
X10683155Y-1424346D01*
X10703019Y-1438745D01*
X10721376Y-1455021D01*
X10738049Y-1473019D01*
X11220140Y-2047552D01*
X11234969Y-2067097D01*
X11247811Y-2088002D01*
X11258541Y-2110064D01*
X11267058Y-2133072D01*
X11273279Y-2156805D01*
X11277143Y-2181032D01*
X11278614Y-2205522D01*
X11277678Y-2230038D01*
X11274343Y-2254344D01*
X11268642Y-2278206D01*
X11260629Y-2301395D01*
X11250382Y-2323686D01*
X11237999Y-2344866D01*
X11223600Y-2364730D01*
X11207324Y-2383087D01*
X11189326Y-2399760D01*
X10231771Y-3203245D01*
X10212226Y-3218074D01*
X10191321Y-3230916D01*
X10169259Y-3241646D01*
X10146251Y-3250163D01*
X10122518Y-3256384D01*
X10098291Y-3260248D01*
X10073801Y-3261719D01*
X10049285Y-3260783D01*
X10024979Y-3257448D01*
X10001117Y-3251747D01*
X9977928Y-3243734D01*
X9955637Y-3233487D01*
X9934457Y-3221104D01*
X9914593Y-3206705D01*
X9896236Y-3190429D01*
X9879563Y-3172431D01*
X9397472Y-2597898D01*
X9382643Y-2578353D01*
X9369801Y-2557448D01*
X9359071Y-2535386D01*
X9350554Y-2512378D01*
X9344333Y-2488645D01*
X9340469Y-2464418D01*
X9338998Y-2439928D01*
X9339934Y-2415412D01*
X9343269Y-2391106D01*
X9348970Y-2367244D01*
X9356983Y-2344055D01*
X9367230Y-2321764D01*
X9379613Y-2300584D01*
X9394012Y-2280720D01*
X9410288Y-2262363D01*
X9428286Y-2245690D01*
X10385841Y-1442205D01*
X10405386Y-1427376D01*
X10426291Y-1414534D01*
X10448353Y-1403804D01*
X10471361Y-1395287D01*
X10495094Y-1389066D01*
X10519321Y-1385202D01*
X10543811Y-1383731D01*
X10568327Y-1384667D01*
G37*
G04 #@! TD.AperFunction*
G04 #@! TA.AperFunction,SMDPad,CuDef*
G36*
X8768521Y760257D02*
G01*
X8792827Y756922D01*
X8816689Y751221D01*
X8839878Y743208D01*
X8862169Y732961D01*
X8883349Y720578D01*
X8903213Y706179D01*
X8921570Y689903D01*
X8938243Y671905D01*
X9420334Y97372D01*
X9435163Y77827D01*
X9448005Y56922D01*
X9458735Y34860D01*
X9467252Y11852D01*
X9473473Y-11881D01*
X9477337Y-36108D01*
X9478808Y-60598D01*
X9477872Y-85114D01*
X9474537Y-109420D01*
X9468836Y-133282D01*
X9460823Y-156471D01*
X9450576Y-178762D01*
X9438193Y-199942D01*
X9423794Y-219806D01*
X9407518Y-238163D01*
X9389520Y-254836D01*
X8431965Y-1058321D01*
X8412420Y-1073150D01*
X8391515Y-1085992D01*
X8369453Y-1096722D01*
X8346445Y-1105239D01*
X8322712Y-1111460D01*
X8298485Y-1115324D01*
X8273995Y-1116795D01*
X8249479Y-1115859D01*
X8225173Y-1112524D01*
X8201311Y-1106823D01*
X8178122Y-1098810D01*
X8155831Y-1088563D01*
X8134651Y-1076180D01*
X8114787Y-1061781D01*
X8096430Y-1045505D01*
X8079757Y-1027507D01*
X7597666Y-452974D01*
X7582837Y-433429D01*
X7569995Y-412524D01*
X7559265Y-390462D01*
X7550748Y-367454D01*
X7544527Y-343721D01*
X7540663Y-319494D01*
X7539192Y-295004D01*
X7540128Y-270488D01*
X7543463Y-246182D01*
X7549164Y-222320D01*
X7557177Y-199131D01*
X7567424Y-176840D01*
X7579807Y-155660D01*
X7594206Y-135796D01*
X7610482Y-117439D01*
X7628480Y-100766D01*
X8586035Y702719D01*
X8605580Y717548D01*
X8626485Y730390D01*
X8648547Y741120D01*
X8671555Y749637D01*
X8695288Y755858D01*
X8719515Y759722D01*
X8744005Y761193D01*
X8768521Y760257D01*
G37*
G04 #@! TD.AperFunction*
G04 #@! TA.AperFunction,SMDPad,CuDef*
G36*
X2503704Y19064196D02*
G01*
X2527973Y19060596D01*
X2551771Y19054635D01*
X2574871Y19046370D01*
X2597049Y19035880D01*
X2618093Y19023267D01*
X2637798Y19008653D01*
X2655977Y18992177D01*
X2672453Y18973998D01*
X2687067Y18954293D01*
X2699680Y18933249D01*
X2710170Y18911071D01*
X2718435Y18887971D01*
X2724396Y18864173D01*
X2727996Y18839904D01*
X2729200Y18815400D01*
X2729200Y18065400D01*
X2727996Y18040896D01*
X2724396Y18016627D01*
X2718435Y17992829D01*
X2710170Y17969729D01*
X2699680Y17947551D01*
X2687067Y17926507D01*
X2672453Y17906802D01*
X2655977Y17888623D01*
X2637798Y17872147D01*
X2618093Y17857533D01*
X2597049Y17844920D01*
X2574871Y17834430D01*
X2551771Y17826165D01*
X2527973Y17820204D01*
X2503704Y17816604D01*
X2479200Y17815400D01*
X1229200Y17815400D01*
X1204696Y17816604D01*
X1180427Y17820204D01*
X1156629Y17826165D01*
X1133529Y17834430D01*
X1111351Y17844920D01*
X1090307Y17857533D01*
X1070602Y17872147D01*
X1052423Y17888623D01*
X1035947Y17906802D01*
X1021333Y17926507D01*
X1008720Y17947551D01*
X998230Y17969729D01*
X989965Y17992829D01*
X984004Y18016627D01*
X980404Y18040896D01*
X979200Y18065400D01*
X979200Y18815400D01*
X980404Y18839904D01*
X984004Y18864173D01*
X989965Y18887971D01*
X998230Y18911071D01*
X1008720Y18933249D01*
X1021333Y18954293D01*
X1035947Y18973998D01*
X1052423Y18992177D01*
X1070602Y19008653D01*
X1090307Y19023267D01*
X1111351Y19035880D01*
X1133529Y19046370D01*
X1156629Y19054635D01*
X1180427Y19060596D01*
X1204696Y19064196D01*
X1229200Y19065400D01*
X2479200Y19065400D01*
X2503704Y19064196D01*
G37*
G04 #@! TD.AperFunction*
G04 #@! TA.AperFunction,SMDPad,CuDef*
G36*
X2503704Y16264196D02*
G01*
X2527973Y16260596D01*
X2551771Y16254635D01*
X2574871Y16246370D01*
X2597049Y16235880D01*
X2618093Y16223267D01*
X2637798Y16208653D01*
X2655977Y16192177D01*
X2672453Y16173998D01*
X2687067Y16154293D01*
X2699680Y16133249D01*
X2710170Y16111071D01*
X2718435Y16087971D01*
X2724396Y16064173D01*
X2727996Y16039904D01*
X2729200Y16015400D01*
X2729200Y15265400D01*
X2727996Y15240896D01*
X2724396Y15216627D01*
X2718435Y15192829D01*
X2710170Y15169729D01*
X2699680Y15147551D01*
X2687067Y15126507D01*
X2672453Y15106802D01*
X2655977Y15088623D01*
X2637798Y15072147D01*
X2618093Y15057533D01*
X2597049Y15044920D01*
X2574871Y15034430D01*
X2551771Y15026165D01*
X2527973Y15020204D01*
X2503704Y15016604D01*
X2479200Y15015400D01*
X1229200Y15015400D01*
X1204696Y15016604D01*
X1180427Y15020204D01*
X1156629Y15026165D01*
X1133529Y15034430D01*
X1111351Y15044920D01*
X1090307Y15057533D01*
X1070602Y15072147D01*
X1052423Y15088623D01*
X1035947Y15106802D01*
X1021333Y15126507D01*
X1008720Y15147551D01*
X998230Y15169729D01*
X989965Y15192829D01*
X984004Y15216627D01*
X980404Y15240896D01*
X979200Y15265400D01*
X979200Y16015400D01*
X980404Y16039904D01*
X984004Y16064173D01*
X989965Y16087971D01*
X998230Y16111071D01*
X1008720Y16133249D01*
X1021333Y16154293D01*
X1035947Y16173998D01*
X1052423Y16192177D01*
X1070602Y16208653D01*
X1090307Y16223267D01*
X1111351Y16235880D01*
X1133529Y16246370D01*
X1156629Y16254635D01*
X1180427Y16260596D01*
X1204696Y16264196D01*
X1229200Y16265400D01*
X2479200Y16265400D01*
X2503704Y16264196D01*
G37*
G04 #@! TD.AperFunction*
G04 #@! TA.AperFunction,SMDPad,CuDef*
G36*
X-5981896Y29143996D02*
G01*
X-5957627Y29140396D01*
X-5933829Y29134435D01*
X-5910729Y29126170D01*
X-5888551Y29115680D01*
X-5867507Y29103067D01*
X-5847802Y29088453D01*
X-5829623Y29071977D01*
X-5813147Y29053798D01*
X-5798533Y29034093D01*
X-5785920Y29013049D01*
X-5775430Y28990871D01*
X-5767165Y28967771D01*
X-5761204Y28943973D01*
X-5757604Y28919704D01*
X-5756400Y28895200D01*
X-5756400Y27645200D01*
X-5757604Y27620696D01*
X-5761204Y27596427D01*
X-5767165Y27572629D01*
X-5775430Y27549529D01*
X-5785920Y27527351D01*
X-5798533Y27506307D01*
X-5813147Y27486602D01*
X-5829623Y27468423D01*
X-5847802Y27451947D01*
X-5867507Y27437333D01*
X-5888551Y27424720D01*
X-5910729Y27414230D01*
X-5933829Y27405965D01*
X-5957627Y27400004D01*
X-5981896Y27396404D01*
X-6006400Y27395200D01*
X-6756400Y27395200D01*
X-6780904Y27396404D01*
X-6805173Y27400004D01*
X-6828971Y27405965D01*
X-6852071Y27414230D01*
X-6874249Y27424720D01*
X-6895293Y27437333D01*
X-6914998Y27451947D01*
X-6933177Y27468423D01*
X-6949653Y27486602D01*
X-6964267Y27506307D01*
X-6976880Y27527351D01*
X-6987370Y27549529D01*
X-6995635Y27572629D01*
X-7001596Y27596427D01*
X-7005196Y27620696D01*
X-7006400Y27645200D01*
X-7006400Y28895200D01*
X-7005196Y28919704D01*
X-7001596Y28943973D01*
X-6995635Y28967771D01*
X-6987370Y28990871D01*
X-6976880Y29013049D01*
X-6964267Y29034093D01*
X-6949653Y29053798D01*
X-6933177Y29071977D01*
X-6914998Y29088453D01*
X-6895293Y29103067D01*
X-6874249Y29115680D01*
X-6852071Y29126170D01*
X-6828971Y29134435D01*
X-6805173Y29140396D01*
X-6780904Y29143996D01*
X-6756400Y29145200D01*
X-6006400Y29145200D01*
X-5981896Y29143996D01*
G37*
G04 #@! TD.AperFunction*
G04 #@! TA.AperFunction,SMDPad,CuDef*
G36*
X-3181896Y29143996D02*
G01*
X-3157627Y29140396D01*
X-3133829Y29134435D01*
X-3110729Y29126170D01*
X-3088551Y29115680D01*
X-3067507Y29103067D01*
X-3047802Y29088453D01*
X-3029623Y29071977D01*
X-3013147Y29053798D01*
X-2998533Y29034093D01*
X-2985920Y29013049D01*
X-2975430Y28990871D01*
X-2967165Y28967771D01*
X-2961204Y28943973D01*
X-2957604Y28919704D01*
X-2956400Y28895200D01*
X-2956400Y27645200D01*
X-2957604Y27620696D01*
X-2961204Y27596427D01*
X-2967165Y27572629D01*
X-2975430Y27549529D01*
X-2985920Y27527351D01*
X-2998533Y27506307D01*
X-3013147Y27486602D01*
X-3029623Y27468423D01*
X-3047802Y27451947D01*
X-3067507Y27437333D01*
X-3088551Y27424720D01*
X-3110729Y27414230D01*
X-3133829Y27405965D01*
X-3157627Y27400004D01*
X-3181896Y27396404D01*
X-3206400Y27395200D01*
X-3956400Y27395200D01*
X-3980904Y27396404D01*
X-4005173Y27400004D01*
X-4028971Y27405965D01*
X-4052071Y27414230D01*
X-4074249Y27424720D01*
X-4095293Y27437333D01*
X-4114998Y27451947D01*
X-4133177Y27468423D01*
X-4149653Y27486602D01*
X-4164267Y27506307D01*
X-4176880Y27527351D01*
X-4187370Y27549529D01*
X-4195635Y27572629D01*
X-4201596Y27596427D01*
X-4205196Y27620696D01*
X-4206400Y27645200D01*
X-4206400Y28895200D01*
X-4205196Y28919704D01*
X-4201596Y28943973D01*
X-4195635Y28967771D01*
X-4187370Y28990871D01*
X-4176880Y29013049D01*
X-4164267Y29034093D01*
X-4149653Y29053798D01*
X-4133177Y29071977D01*
X-4114998Y29088453D01*
X-4095293Y29103067D01*
X-4074249Y29115680D01*
X-4052071Y29126170D01*
X-4028971Y29134435D01*
X-4005173Y29140396D01*
X-3980904Y29143996D01*
X-3956400Y29145200D01*
X-3206400Y29145200D01*
X-3181896Y29143996D01*
G37*
G04 #@! TD.AperFunction*
G04 #@! TA.AperFunction,SMDPad,CuDef*
G36*
X-12959555Y22867592D02*
G01*
X-12935287Y22863992D01*
X-12911488Y22858031D01*
X-12888389Y22849766D01*
X-12866210Y22839276D01*
X-12845167Y22826664D01*
X-12825461Y22812049D01*
X-12807283Y22795573D01*
X-12790807Y22777395D01*
X-12776192Y22757689D01*
X-12763580Y22736646D01*
X-12753090Y22714467D01*
X-12744825Y22691368D01*
X-12738864Y22667569D01*
X-12735264Y22643301D01*
X-12734060Y22618797D01*
X-12734060Y21968795D01*
X-12735264Y21944291D01*
X-12738864Y21920023D01*
X-12744825Y21896224D01*
X-12753090Y21873125D01*
X-12763580Y21850946D01*
X-12776192Y21829903D01*
X-12790807Y21810197D01*
X-12807283Y21792019D01*
X-12825461Y21775543D01*
X-12845167Y21760928D01*
X-12866210Y21748316D01*
X-12888389Y21737826D01*
X-12911488Y21729561D01*
X-12935287Y21723600D01*
X-12959555Y21720000D01*
X-12984059Y21718796D01*
X-13884061Y21718796D01*
X-13908565Y21720000D01*
X-13932833Y21723600D01*
X-13956632Y21729561D01*
X-13979731Y21737826D01*
X-14001910Y21748316D01*
X-14022953Y21760928D01*
X-14042659Y21775543D01*
X-14060837Y21792019D01*
X-14077313Y21810197D01*
X-14091928Y21829903D01*
X-14104540Y21850946D01*
X-14115030Y21873125D01*
X-14123295Y21896224D01*
X-14129256Y21920023D01*
X-14132856Y21944291D01*
X-14134060Y21968795D01*
X-14134060Y22618797D01*
X-14132856Y22643301D01*
X-14129256Y22667569D01*
X-14123295Y22691368D01*
X-14115030Y22714467D01*
X-14104540Y22736646D01*
X-14091928Y22757689D01*
X-14077313Y22777395D01*
X-14060837Y22795573D01*
X-14042659Y22812049D01*
X-14022953Y22826664D01*
X-14001910Y22839276D01*
X-13979731Y22849766D01*
X-13956632Y22858031D01*
X-13932833Y22863992D01*
X-13908565Y22867592D01*
X-13884061Y22868796D01*
X-12984059Y22868796D01*
X-12959555Y22867592D01*
G37*
G04 #@! TD.AperFunction*
G04 #@! TA.AperFunction,SMDPad,CuDef*
G36*
X-12959555Y20817592D02*
G01*
X-12935287Y20813992D01*
X-12911488Y20808031D01*
X-12888389Y20799766D01*
X-12866210Y20789276D01*
X-12845167Y20776664D01*
X-12825461Y20762049D01*
X-12807283Y20745573D01*
X-12790807Y20727395D01*
X-12776192Y20707689D01*
X-12763580Y20686646D01*
X-12753090Y20664467D01*
X-12744825Y20641368D01*
X-12738864Y20617569D01*
X-12735264Y20593301D01*
X-12734060Y20568797D01*
X-12734060Y19918795D01*
X-12735264Y19894291D01*
X-12738864Y19870023D01*
X-12744825Y19846224D01*
X-12753090Y19823125D01*
X-12763580Y19800946D01*
X-12776192Y19779903D01*
X-12790807Y19760197D01*
X-12807283Y19742019D01*
X-12825461Y19725543D01*
X-12845167Y19710928D01*
X-12866210Y19698316D01*
X-12888389Y19687826D01*
X-12911488Y19679561D01*
X-12935287Y19673600D01*
X-12959555Y19670000D01*
X-12984059Y19668796D01*
X-13884061Y19668796D01*
X-13908565Y19670000D01*
X-13932833Y19673600D01*
X-13956632Y19679561D01*
X-13979731Y19687826D01*
X-14001910Y19698316D01*
X-14022953Y19710928D01*
X-14042659Y19725543D01*
X-14060837Y19742019D01*
X-14077313Y19760197D01*
X-14091928Y19779903D01*
X-14104540Y19800946D01*
X-14115030Y19823125D01*
X-14123295Y19846224D01*
X-14129256Y19870023D01*
X-14132856Y19894291D01*
X-14134060Y19918795D01*
X-14134060Y20568797D01*
X-14132856Y20593301D01*
X-14129256Y20617569D01*
X-14123295Y20641368D01*
X-14115030Y20664467D01*
X-14104540Y20686646D01*
X-14091928Y20707689D01*
X-14077313Y20727395D01*
X-14060837Y20745573D01*
X-14042659Y20762049D01*
X-14022953Y20776664D01*
X-14001910Y20789276D01*
X-13979731Y20799766D01*
X-13956632Y20808031D01*
X-13932833Y20813992D01*
X-13908565Y20817592D01*
X-13884061Y20818796D01*
X-12984059Y20818796D01*
X-12959555Y20817592D01*
G37*
G04 #@! TD.AperFunction*
G04 #@! TA.AperFunction,SMDPad,CuDef*
G36*
X-12377895Y11285196D02*
G01*
X-12353627Y11281596D01*
X-12329828Y11275635D01*
X-12306729Y11267370D01*
X-12284550Y11256880D01*
X-12263507Y11244268D01*
X-12243801Y11229653D01*
X-12225623Y11213177D01*
X-12209147Y11194999D01*
X-12194532Y11175293D01*
X-12181920Y11154250D01*
X-12171430Y11132071D01*
X-12163165Y11108972D01*
X-12157204Y11085173D01*
X-12153604Y11060905D01*
X-12152400Y11036401D01*
X-12152400Y10386399D01*
X-12153604Y10361895D01*
X-12157204Y10337627D01*
X-12163165Y10313828D01*
X-12171430Y10290729D01*
X-12181920Y10268550D01*
X-12194532Y10247507D01*
X-12209147Y10227801D01*
X-12225623Y10209623D01*
X-12243801Y10193147D01*
X-12263507Y10178532D01*
X-12284550Y10165920D01*
X-12306729Y10155430D01*
X-12329828Y10147165D01*
X-12353627Y10141204D01*
X-12377895Y10137604D01*
X-12402399Y10136400D01*
X-13302401Y10136400D01*
X-13326905Y10137604D01*
X-13351173Y10141204D01*
X-13374972Y10147165D01*
X-13398071Y10155430D01*
X-13420250Y10165920D01*
X-13441293Y10178532D01*
X-13460999Y10193147D01*
X-13479177Y10209623D01*
X-13495653Y10227801D01*
X-13510268Y10247507D01*
X-13522880Y10268550D01*
X-13533370Y10290729D01*
X-13541635Y10313828D01*
X-13547596Y10337627D01*
X-13551196Y10361895D01*
X-13552400Y10386399D01*
X-13552400Y11036401D01*
X-13551196Y11060905D01*
X-13547596Y11085173D01*
X-13541635Y11108972D01*
X-13533370Y11132071D01*
X-13522880Y11154250D01*
X-13510268Y11175293D01*
X-13495653Y11194999D01*
X-13479177Y11213177D01*
X-13460999Y11229653D01*
X-13441293Y11244268D01*
X-13420250Y11256880D01*
X-13398071Y11267370D01*
X-13374972Y11275635D01*
X-13351173Y11281596D01*
X-13326905Y11285196D01*
X-13302401Y11286400D01*
X-12402399Y11286400D01*
X-12377895Y11285196D01*
G37*
G04 #@! TD.AperFunction*
G04 #@! TA.AperFunction,SMDPad,CuDef*
G36*
X-12377895Y9235196D02*
G01*
X-12353627Y9231596D01*
X-12329828Y9225635D01*
X-12306729Y9217370D01*
X-12284550Y9206880D01*
X-12263507Y9194268D01*
X-12243801Y9179653D01*
X-12225623Y9163177D01*
X-12209147Y9144999D01*
X-12194532Y9125293D01*
X-12181920Y9104250D01*
X-12171430Y9082071D01*
X-12163165Y9058972D01*
X-12157204Y9035173D01*
X-12153604Y9010905D01*
X-12152400Y8986401D01*
X-12152400Y8336399D01*
X-12153604Y8311895D01*
X-12157204Y8287627D01*
X-12163165Y8263828D01*
X-12171430Y8240729D01*
X-12181920Y8218550D01*
X-12194532Y8197507D01*
X-12209147Y8177801D01*
X-12225623Y8159623D01*
X-12243801Y8143147D01*
X-12263507Y8128532D01*
X-12284550Y8115920D01*
X-12306729Y8105430D01*
X-12329828Y8097165D01*
X-12353627Y8091204D01*
X-12377895Y8087604D01*
X-12402399Y8086400D01*
X-13302401Y8086400D01*
X-13326905Y8087604D01*
X-13351173Y8091204D01*
X-13374972Y8097165D01*
X-13398071Y8105430D01*
X-13420250Y8115920D01*
X-13441293Y8128532D01*
X-13460999Y8143147D01*
X-13479177Y8159623D01*
X-13495653Y8177801D01*
X-13510268Y8197507D01*
X-13522880Y8218550D01*
X-13533370Y8240729D01*
X-13541635Y8263828D01*
X-13547596Y8287627D01*
X-13551196Y8311895D01*
X-13552400Y8336399D01*
X-13552400Y8986401D01*
X-13551196Y9010905D01*
X-13547596Y9035173D01*
X-13541635Y9058972D01*
X-13533370Y9082071D01*
X-13522880Y9104250D01*
X-13510268Y9125293D01*
X-13495653Y9144999D01*
X-13479177Y9163177D01*
X-13460999Y9179653D01*
X-13441293Y9194268D01*
X-13420250Y9206880D01*
X-13398071Y9217370D01*
X-13374972Y9225635D01*
X-13351173Y9231596D01*
X-13326905Y9235196D01*
X-13302401Y9236400D01*
X-12402399Y9236400D01*
X-12377895Y9235196D01*
G37*
G04 #@! TD.AperFunction*
G04 #@! TA.AperFunction,SMDPad,CuDef*
G36*
X-795495Y7584200D02*
G01*
X-771227Y7580600D01*
X-747428Y7574639D01*
X-724329Y7566374D01*
X-702150Y7555884D01*
X-681107Y7543272D01*
X-661401Y7528657D01*
X-643223Y7512181D01*
X-626747Y7494003D01*
X-612132Y7474297D01*
X-599520Y7453254D01*
X-589030Y7431075D01*
X-580765Y7407976D01*
X-574804Y7384177D01*
X-571204Y7359909D01*
X-570000Y7335405D01*
X-570000Y6685403D01*
X-571204Y6660899D01*
X-574804Y6636631D01*
X-580765Y6612832D01*
X-589030Y6589733D01*
X-599520Y6567554D01*
X-612132Y6546511D01*
X-626747Y6526805D01*
X-643223Y6508627D01*
X-661401Y6492151D01*
X-681107Y6477536D01*
X-702150Y6464924D01*
X-724329Y6454434D01*
X-747428Y6446169D01*
X-771227Y6440208D01*
X-795495Y6436608D01*
X-819999Y6435404D01*
X-1720001Y6435404D01*
X-1744505Y6436608D01*
X-1768773Y6440208D01*
X-1792572Y6446169D01*
X-1815671Y6454434D01*
X-1837850Y6464924D01*
X-1858893Y6477536D01*
X-1878599Y6492151D01*
X-1896777Y6508627D01*
X-1913253Y6526805D01*
X-1927868Y6546511D01*
X-1940480Y6567554D01*
X-1950970Y6589733D01*
X-1959235Y6612832D01*
X-1965196Y6636631D01*
X-1968796Y6660899D01*
X-1970000Y6685403D01*
X-1970000Y7335405D01*
X-1968796Y7359909D01*
X-1965196Y7384177D01*
X-1959235Y7407976D01*
X-1950970Y7431075D01*
X-1940480Y7453254D01*
X-1927868Y7474297D01*
X-1913253Y7494003D01*
X-1896777Y7512181D01*
X-1878599Y7528657D01*
X-1858893Y7543272D01*
X-1837850Y7555884D01*
X-1815671Y7566374D01*
X-1792572Y7574639D01*
X-1768773Y7580600D01*
X-1744505Y7584200D01*
X-1720001Y7585404D01*
X-819999Y7585404D01*
X-795495Y7584200D01*
G37*
G04 #@! TD.AperFunction*
G04 #@! TA.AperFunction,SMDPad,CuDef*
G36*
X-795495Y5534200D02*
G01*
X-771227Y5530600D01*
X-747428Y5524639D01*
X-724329Y5516374D01*
X-702150Y5505884D01*
X-681107Y5493272D01*
X-661401Y5478657D01*
X-643223Y5462181D01*
X-626747Y5444003D01*
X-612132Y5424297D01*
X-599520Y5403254D01*
X-589030Y5381075D01*
X-580765Y5357976D01*
X-574804Y5334177D01*
X-571204Y5309909D01*
X-570000Y5285405D01*
X-570000Y4635403D01*
X-571204Y4610899D01*
X-574804Y4586631D01*
X-580765Y4562832D01*
X-589030Y4539733D01*
X-599520Y4517554D01*
X-612132Y4496511D01*
X-626747Y4476805D01*
X-643223Y4458627D01*
X-661401Y4442151D01*
X-681107Y4427536D01*
X-702150Y4414924D01*
X-724329Y4404434D01*
X-747428Y4396169D01*
X-771227Y4390208D01*
X-795495Y4386608D01*
X-819999Y4385404D01*
X-1720001Y4385404D01*
X-1744505Y4386608D01*
X-1768773Y4390208D01*
X-1792572Y4396169D01*
X-1815671Y4404434D01*
X-1837850Y4414924D01*
X-1858893Y4427536D01*
X-1878599Y4442151D01*
X-1896777Y4458627D01*
X-1913253Y4476805D01*
X-1927868Y4496511D01*
X-1940480Y4517554D01*
X-1950970Y4539733D01*
X-1959235Y4562832D01*
X-1965196Y4586631D01*
X-1968796Y4610899D01*
X-1970000Y4635403D01*
X-1970000Y5285405D01*
X-1968796Y5309909D01*
X-1965196Y5334177D01*
X-1959235Y5357976D01*
X-1950970Y5381075D01*
X-1940480Y5403254D01*
X-1927868Y5424297D01*
X-1913253Y5444003D01*
X-1896777Y5462181D01*
X-1878599Y5478657D01*
X-1858893Y5493272D01*
X-1837850Y5505884D01*
X-1815671Y5516374D01*
X-1792572Y5524639D01*
X-1768773Y5530600D01*
X-1744505Y5534200D01*
X-1720001Y5535404D01*
X-819999Y5535404D01*
X-795495Y5534200D01*
G37*
G04 #@! TD.AperFunction*
G04 #@! TA.AperFunction,SMDPad,CuDef*
G36*
X-2675095Y15661392D02*
G01*
X-2650827Y15657792D01*
X-2627028Y15651831D01*
X-2603929Y15643566D01*
X-2581750Y15633076D01*
X-2560707Y15620464D01*
X-2541001Y15605849D01*
X-2522823Y15589373D01*
X-2506347Y15571195D01*
X-2491732Y15551489D01*
X-2479120Y15530446D01*
X-2468630Y15508267D01*
X-2460365Y15485168D01*
X-2454404Y15461369D01*
X-2450804Y15437101D01*
X-2449600Y15412597D01*
X-2449600Y14762595D01*
X-2450804Y14738091D01*
X-2454404Y14713823D01*
X-2460365Y14690024D01*
X-2468630Y14666925D01*
X-2479120Y14644746D01*
X-2491732Y14623703D01*
X-2506347Y14603997D01*
X-2522823Y14585819D01*
X-2541001Y14569343D01*
X-2560707Y14554728D01*
X-2581750Y14542116D01*
X-2603929Y14531626D01*
X-2627028Y14523361D01*
X-2650827Y14517400D01*
X-2675095Y14513800D01*
X-2699599Y14512596D01*
X-3599601Y14512596D01*
X-3624105Y14513800D01*
X-3648373Y14517400D01*
X-3672172Y14523361D01*
X-3695271Y14531626D01*
X-3717450Y14542116D01*
X-3738493Y14554728D01*
X-3758199Y14569343D01*
X-3776377Y14585819D01*
X-3792853Y14603997D01*
X-3807468Y14623703D01*
X-3820080Y14644746D01*
X-3830570Y14666925D01*
X-3838835Y14690024D01*
X-3844796Y14713823D01*
X-3848396Y14738091D01*
X-3849600Y14762595D01*
X-3849600Y15412597D01*
X-3848396Y15437101D01*
X-3844796Y15461369D01*
X-3838835Y15485168D01*
X-3830570Y15508267D01*
X-3820080Y15530446D01*
X-3807468Y15551489D01*
X-3792853Y15571195D01*
X-3776377Y15589373D01*
X-3758199Y15605849D01*
X-3738493Y15620464D01*
X-3717450Y15633076D01*
X-3695271Y15643566D01*
X-3672172Y15651831D01*
X-3648373Y15657792D01*
X-3624105Y15661392D01*
X-3599601Y15662596D01*
X-2699599Y15662596D01*
X-2675095Y15661392D01*
G37*
G04 #@! TD.AperFunction*
G04 #@! TA.AperFunction,SMDPad,CuDef*
G36*
X-2675095Y17711392D02*
G01*
X-2650827Y17707792D01*
X-2627028Y17701831D01*
X-2603929Y17693566D01*
X-2581750Y17683076D01*
X-2560707Y17670464D01*
X-2541001Y17655849D01*
X-2522823Y17639373D01*
X-2506347Y17621195D01*
X-2491732Y17601489D01*
X-2479120Y17580446D01*
X-2468630Y17558267D01*
X-2460365Y17535168D01*
X-2454404Y17511369D01*
X-2450804Y17487101D01*
X-2449600Y17462597D01*
X-2449600Y16812595D01*
X-2450804Y16788091D01*
X-2454404Y16763823D01*
X-2460365Y16740024D01*
X-2468630Y16716925D01*
X-2479120Y16694746D01*
X-2491732Y16673703D01*
X-2506347Y16653997D01*
X-2522823Y16635819D01*
X-2541001Y16619343D01*
X-2560707Y16604728D01*
X-2581750Y16592116D01*
X-2603929Y16581626D01*
X-2627028Y16573361D01*
X-2650827Y16567400D01*
X-2675095Y16563800D01*
X-2699599Y16562596D01*
X-3599601Y16562596D01*
X-3624105Y16563800D01*
X-3648373Y16567400D01*
X-3672172Y16573361D01*
X-3695271Y16581626D01*
X-3717450Y16592116D01*
X-3738493Y16604728D01*
X-3758199Y16619343D01*
X-3776377Y16635819D01*
X-3792853Y16653997D01*
X-3807468Y16673703D01*
X-3820080Y16694746D01*
X-3830570Y16716925D01*
X-3838835Y16740024D01*
X-3844796Y16763823D01*
X-3848396Y16788091D01*
X-3849600Y16812595D01*
X-3849600Y17462597D01*
X-3848396Y17487101D01*
X-3844796Y17511369D01*
X-3838835Y17535168D01*
X-3830570Y17558267D01*
X-3820080Y17580446D01*
X-3807468Y17601489D01*
X-3792853Y17621195D01*
X-3776377Y17639373D01*
X-3758199Y17655849D01*
X-3738493Y17670464D01*
X-3717450Y17683076D01*
X-3695271Y17693566D01*
X-3672172Y17701831D01*
X-3648373Y17707792D01*
X-3624105Y17711392D01*
X-3599601Y17712596D01*
X-2699599Y17712596D01*
X-2675095Y17711392D01*
G37*
G04 #@! TD.AperFunction*
G04 #@! TA.AperFunction,SMDPad,CuDef*
G36*
X1414305Y25473636D02*
G01*
X1438573Y25470036D01*
X1462372Y25464075D01*
X1485471Y25455810D01*
X1507650Y25445320D01*
X1528693Y25432708D01*
X1548399Y25418093D01*
X1566577Y25401617D01*
X1583053Y25383439D01*
X1597668Y25363733D01*
X1610280Y25342690D01*
X1620770Y25320511D01*
X1629035Y25297412D01*
X1634996Y25273613D01*
X1638596Y25249345D01*
X1639800Y25224841D01*
X1639800Y24574839D01*
X1638596Y24550335D01*
X1634996Y24526067D01*
X1629035Y24502268D01*
X1620770Y24479169D01*
X1610280Y24456990D01*
X1597668Y24435947D01*
X1583053Y24416241D01*
X1566577Y24398063D01*
X1548399Y24381587D01*
X1528693Y24366972D01*
X1507650Y24354360D01*
X1485471Y24343870D01*
X1462372Y24335605D01*
X1438573Y24329644D01*
X1414305Y24326044D01*
X1389801Y24324840D01*
X489799Y24324840D01*
X465295Y24326044D01*
X441027Y24329644D01*
X417228Y24335605D01*
X394129Y24343870D01*
X371950Y24354360D01*
X350907Y24366972D01*
X331201Y24381587D01*
X313023Y24398063D01*
X296547Y24416241D01*
X281932Y24435947D01*
X269320Y24456990D01*
X258830Y24479169D01*
X250565Y24502268D01*
X244604Y24526067D01*
X241004Y24550335D01*
X239800Y24574839D01*
X239800Y25224841D01*
X241004Y25249345D01*
X244604Y25273613D01*
X250565Y25297412D01*
X258830Y25320511D01*
X269320Y25342690D01*
X281932Y25363733D01*
X296547Y25383439D01*
X313023Y25401617D01*
X331201Y25418093D01*
X350907Y25432708D01*
X371950Y25445320D01*
X394129Y25455810D01*
X417228Y25464075D01*
X441027Y25470036D01*
X465295Y25473636D01*
X489799Y25474840D01*
X1389801Y25474840D01*
X1414305Y25473636D01*
G37*
G04 #@! TD.AperFunction*
G04 #@! TA.AperFunction,SMDPad,CuDef*
G36*
X1414305Y23423636D02*
G01*
X1438573Y23420036D01*
X1462372Y23414075D01*
X1485471Y23405810D01*
X1507650Y23395320D01*
X1528693Y23382708D01*
X1548399Y23368093D01*
X1566577Y23351617D01*
X1583053Y23333439D01*
X1597668Y23313733D01*
X1610280Y23292690D01*
X1620770Y23270511D01*
X1629035Y23247412D01*
X1634996Y23223613D01*
X1638596Y23199345D01*
X1639800Y23174841D01*
X1639800Y22524839D01*
X1638596Y22500335D01*
X1634996Y22476067D01*
X1629035Y22452268D01*
X1620770Y22429169D01*
X1610280Y22406990D01*
X1597668Y22385947D01*
X1583053Y22366241D01*
X1566577Y22348063D01*
X1548399Y22331587D01*
X1528693Y22316972D01*
X1507650Y22304360D01*
X1485471Y22293870D01*
X1462372Y22285605D01*
X1438573Y22279644D01*
X1414305Y22276044D01*
X1389801Y22274840D01*
X489799Y22274840D01*
X465295Y22276044D01*
X441027Y22279644D01*
X417228Y22285605D01*
X394129Y22293870D01*
X371950Y22304360D01*
X350907Y22316972D01*
X331201Y22331587D01*
X313023Y22348063D01*
X296547Y22366241D01*
X281932Y22385947D01*
X269320Y22406990D01*
X258830Y22429169D01*
X250565Y22452268D01*
X244604Y22476067D01*
X241004Y22500335D01*
X239800Y22524839D01*
X239800Y23174841D01*
X241004Y23199345D01*
X244604Y23223613D01*
X250565Y23247412D01*
X258830Y23270511D01*
X269320Y23292690D01*
X281932Y23313733D01*
X296547Y23333439D01*
X313023Y23351617D01*
X331201Y23368093D01*
X350907Y23382708D01*
X371950Y23395320D01*
X394129Y23405810D01*
X417228Y23414075D01*
X441027Y23420036D01*
X465295Y23423636D01*
X489799Y23424840D01*
X1389801Y23424840D01*
X1414305Y23423636D01*
G37*
G04 #@! TD.AperFunction*
D15*
X-2562840Y24434800D03*
X-2562840Y23164800D03*
X-2562840Y21894800D03*
X-2562840Y20624800D03*
X-9862840Y20624800D03*
X-9862840Y21894800D03*
X-9862840Y23164800D03*
X-9862840Y24434800D03*
D16*
X-11071860Y4907280D03*
X-8178800Y26504900D03*
D17*
X-11056380Y4891800D02*
X-11071860Y4907280D01*
X-9499840Y4891800D02*
X-11056380Y4891800D01*
X-9820840Y26465937D02*
X-9859801Y26504898D01*
X-9859801Y26504898D02*
X-8178802Y26504898D01*
X-8178802Y26504898D02*
X-8178800Y26504900D01*
X-9859801Y24437839D02*
X-9862840Y24434800D01*
X-9859801Y26504898D02*
X-9859801Y24437839D01*
X-15488920Y18590420D02*
X-15488920Y17965420D01*
X-15488920Y18888936D02*
X-15488920Y18590420D01*
X-14134060Y20243796D02*
X-15488920Y18888936D01*
X-13434060Y20243796D02*
X-14134060Y20243796D01*
X-1270000Y4385404D02*
X-1270000Y4960404D01*
X3293205Y-177801D02*
X-1270000Y4385404D01*
X8509000Y-177801D02*
X3293205Y-177801D01*
X939800Y25474840D02*
X-1855560Y28270200D01*
X-2956400Y28270200D02*
X-3581400Y28270200D01*
X-1855560Y28270200D02*
X-2956400Y28270200D01*
X939800Y24899840D02*
X939800Y25474840D01*
X-11597640Y14808200D02*
X-9499840Y12710400D01*
X-9499840Y12710400D02*
X-9499840Y9941800D01*
X-11597640Y12541160D02*
X-11597640Y14808200D01*
X-12852400Y11286400D02*
X-11597640Y12541160D01*
X-12852400Y10711400D02*
X-12852400Y11286400D01*
X-10962840Y21894800D02*
X-9862840Y21894800D01*
X-11597640Y21260000D02*
X-10962840Y21894800D01*
X-11597640Y14808200D02*
X-11597640Y21260000D01*
X-13431736Y22296120D02*
X-13434060Y22293796D01*
X-13434060Y22868796D02*
X-13434060Y22293796D01*
X-13138056Y23164800D02*
X-13434060Y22868796D01*
X-9862840Y23164800D02*
X-13138056Y23164800D01*
X-6959840Y11766800D02*
X-6959840Y9941800D01*
X-6959840Y21361800D02*
X-6959840Y11766800D01*
X-8762840Y23164800D02*
X-6959840Y21361800D01*
X-9862840Y23164800D02*
X-8762840Y23164800D01*
X-8275320Y12446000D02*
X-8275320Y5457280D01*
X-8275320Y5457280D02*
X-7709840Y4891800D01*
X-7709840Y4891800D02*
X-6959840Y4891800D01*
X-1970000Y7010404D02*
X-1270000Y7010404D01*
X-6666236Y7010404D02*
X-1970000Y7010404D01*
X-6959840Y6716800D02*
X-6666236Y7010404D01*
X-6959840Y4891800D02*
X-6959840Y6716800D01*
X-9862840Y14033520D02*
X-9862840Y20624800D01*
X-8275320Y12446000D02*
X-9862840Y14033520D01*
X-4419840Y11766800D02*
X-6509830Y13856790D01*
X-4419840Y9941800D02*
X-4419840Y11766800D01*
X-3662840Y24434800D02*
X-2562840Y24434800D01*
X-6509830Y21587810D02*
X-3662840Y24434800D01*
X-6509830Y13856790D02*
X-6509830Y21587810D01*
X-3662840Y23164800D02*
X-2562840Y23164800D01*
X-6015841Y20811799D02*
X-3662840Y23164800D01*
X-6015841Y19146119D02*
X-6015841Y20811799D01*
X-4007318Y17137596D02*
X-6015841Y19146119D01*
X-3149600Y17137596D02*
X-4007318Y17137596D01*
X939800Y22274840D02*
X939800Y22849840D01*
X559760Y21894800D02*
X939800Y22274840D01*
X-2562840Y21894800D02*
X559760Y21894800D01*
X-14004600Y6934200D02*
X-14935200Y6934200D01*
X-12852400Y8086400D02*
X-14004600Y6934200D01*
X-12852400Y8661400D02*
X-12852400Y8086400D01*
X-873604Y15087596D02*
X1854200Y17815400D01*
X1854200Y17815400D02*
X1854200Y18440400D01*
X-3149600Y15087596D02*
X-873604Y15087596D01*
D18*
G36*
X-6229497Y30770075D02*
G01*
X-5742546Y30764720D01*
X-5611203Y30763013D01*
X-4974285Y30752795D01*
X-4415276Y30739765D01*
X-3926969Y30723346D01*
X-3502013Y30702965D01*
X-3133265Y30678070D01*
X-2813702Y30648142D01*
X-2536174Y30612690D01*
X-2293293Y30571229D01*
X-2077637Y30523270D01*
X-1879902Y30467783D01*
X-1858466Y30461035D01*
X-1855039Y30460009D01*
X-1642140Y30399526D01*
X-1632110Y30397112D01*
X-1462127Y30363443D01*
X-1443437Y30361164D01*
X-1327626Y30355699D01*
X-1302762Y30356969D01*
X-1278624Y30363065D01*
X-1266792Y30368013D01*
X-1216405Y30392140D01*
X-1195112Y30405041D01*
X-1176745Y30421848D01*
X-1162010Y30441916D01*
X-1151474Y30464473D01*
X-1148041Y30477828D01*
X-1074553Y30423491D01*
X-1071387Y30421224D01*
X-895293Y30299189D01*
X-888742Y30294941D01*
X-704702Y30183486D01*
X-696926Y30179142D01*
X-535410Y30096205D01*
X-525632Y30091697D01*
X-474226Y30070592D01*
X-332167Y30009697D01*
X-152309Y29919854D01*
X36430Y29815754D01*
X106749Y29774039D01*
X311564Y29651218D01*
X315495Y29648955D01*
X469359Y29564007D01*
X479661Y29558913D01*
X602704Y29504859D01*
X620788Y29498495D01*
X733404Y29468195D01*
X752309Y29464618D01*
X874891Y29450932D01*
X885489Y29450196D01*
X1038433Y29445987D01*
X1040665Y29445945D01*
X1055395Y29445799D01*
X1221747Y29439713D01*
X1256703Y29434023D01*
X1264142Y29413840D01*
X1277143Y29392608D01*
X1294036Y29374320D01*
X1305258Y29365422D01*
X1370822Y29319207D01*
X1399226Y29304162D01*
X1523378Y29257399D01*
X1457789Y29241290D01*
X1445811Y29237714D01*
X1306400Y29188509D01*
X1300026Y29186065D01*
X1299944Y29186031D01*
X1298808Y29185554D01*
X1156721Y29125018D01*
X1134884Y29113062D01*
X1115799Y29097075D01*
X1100199Y29077672D01*
X1088684Y29055598D01*
X1081697Y29031702D01*
X1079506Y29006902D01*
X1082196Y28982152D01*
X1089662Y28958401D01*
X1101618Y28936564D01*
X1117605Y28917479D01*
X1137008Y28901879D01*
X1155357Y28891933D01*
X1365773Y28799360D01*
X1858951Y28569569D01*
X2268254Y28350911D01*
X2574377Y28156246D01*
X2473198Y28168647D01*
X2368039Y28191482D01*
X2211399Y28246566D01*
X2023807Y28327525D01*
X1944614Y28365813D01*
X1752332Y28460767D01*
X1748685Y28462496D01*
X1616426Y28522660D01*
X1603839Y28527596D01*
X1517202Y28556346D01*
X1492918Y28561833D01*
X1479348Y28562791D01*
X1423474Y28563735D01*
X1398660Y28561713D01*
X1374717Y28554890D01*
X1357459Y28546524D01*
X1317485Y28523265D01*
X1297297Y28508695D01*
X1287558Y28499116D01*
X1258661Y28467460D01*
X1245966Y28451036D01*
X1217113Y28406633D01*
X1205659Y28384528D01*
X1198738Y28360613D01*
X1196615Y28335808D01*
X1199373Y28311064D01*
X1206905Y28287335D01*
X1218921Y28265530D01*
X1234961Y28246489D01*
X1254407Y28230943D01*
X1276512Y28219489D01*
X1301205Y28212426D01*
X1333038Y28206722D01*
X1357857Y28204754D01*
X1383146Y28207790D01*
X1429375Y28218125D01*
X1473485Y28221154D01*
X1514324Y28203117D01*
X1602362Y28131667D01*
X1694299Y28055109D01*
X1697455Y28052565D01*
X1841514Y27940190D01*
X1843139Y27938944D01*
X2021068Y27804707D01*
X2022361Y27803744D01*
X2216496Y27661110D01*
X2217356Y27660484D01*
X2273846Y27619704D01*
X2608311Y27365176D01*
X2893913Y27119274D01*
X3123029Y26890156D01*
X3287435Y26687150D01*
X3352501Y26580178D01*
X3399519Y26462586D01*
X3449432Y26293407D01*
X3489341Y26112870D01*
X3490224Y26107879D01*
X3491715Y26100671D01*
X3536142Y25913471D01*
X3538409Y25905179D01*
X3614848Y25658697D01*
X3616501Y25653732D01*
X3719414Y25364567D01*
X3720822Y25360800D01*
X3838412Y25060824D01*
X3838558Y25060453D01*
X3936595Y24812654D01*
X4026511Y24570823D01*
X4101668Y24354070D01*
X4154729Y24183644D01*
X4175325Y24102325D01*
X4176488Y24098051D01*
X4229065Y23917215D01*
X4232685Y23906550D01*
X4325552Y23668285D01*
X4328168Y23662067D01*
X4455712Y23380087D01*
X4457442Y23376421D01*
X4541097Y23206161D01*
X4541142Y23206069D01*
X4628651Y23028329D01*
X4628649Y23028330D01*
X4597500Y23043089D01*
X4574064Y23051492D01*
X4549440Y23055163D01*
X4524573Y23053958D01*
X4500418Y23047926D01*
X4477905Y23037297D01*
X4457898Y23022480D01*
X4441165Y23004045D01*
X4428351Y22982700D01*
X4419211Y22956168D01*
X4408653Y22909190D01*
X4405601Y22884481D01*
X4405945Y22871480D01*
X4414827Y22757445D01*
X4415772Y22748990D01*
X4442943Y22562574D01*
X4443365Y22559880D01*
X4487672Y22295761D01*
X4487765Y22295214D01*
X4488778Y22289332D01*
X4588084Y21637405D01*
X4657960Y20996437D01*
X4698829Y20350802D01*
X4710878Y19685937D01*
X4694227Y18987362D01*
X4648967Y18240774D01*
X4575127Y17431385D01*
X4548257Y17181890D01*
X4381525Y16008800D01*
X4139297Y14817007D01*
X4089358Y14607209D01*
X4007289Y14280660D01*
X3928509Y13995219D01*
X3846147Y13731009D01*
X3753221Y13468005D01*
X3642571Y13186014D01*
X3507129Y12865318D01*
X3344769Y12497257D01*
X3344133Y12495790D01*
X3149426Y12038907D01*
X3147111Y12033081D01*
X2994671Y11619947D01*
X2991849Y11611372D01*
X2880168Y11226464D01*
X2877476Y11215334D01*
X2805046Y10843126D01*
X2803248Y10830562D01*
X2768564Y10455528D01*
X2768025Y10443332D01*
X2769578Y10049949D01*
X2770032Y10039703D01*
X2806316Y9612444D01*
X2807190Y9604865D01*
X2876697Y9128207D01*
X2877498Y9123371D01*
X2968269Y8634004D01*
X2968745Y8631572D01*
X3036823Y8300698D01*
X3037407Y8298008D01*
X3096272Y8040331D01*
X3097542Y8035256D01*
X3150627Y7840256D01*
X3153493Y7831106D01*
X3204231Y7688266D01*
X3210865Y7672887D01*
X3262690Y7571686D01*
X3276752Y7549997D01*
X3333097Y7479915D01*
X3348495Y7463871D01*
X3375520Y7440249D01*
X3391025Y7428656D01*
X3458910Y7385553D01*
X3487538Y7372049D01*
X3569586Y7345238D01*
X3596849Y7339542D01*
X3706119Y7329010D01*
X3723169Y7328517D01*
X3872723Y7334251D01*
X3881539Y7334897D01*
X4084437Y7356883D01*
X4088602Y7357404D01*
X4357904Y7395628D01*
X4359238Y7395825D01*
X4446164Y7409106D01*
X4830938Y7458262D01*
X5191276Y7484775D01*
X5512668Y7488750D01*
X5777871Y7470553D01*
X5953980Y7436123D01*
X6138340Y7347893D01*
X6301401Y7207695D01*
X6400702Y7066098D01*
X6441285Y6955162D01*
X6489074Y6752396D01*
X6540098Y6463195D01*
X6593498Y6089427D01*
X6646198Y5657292D01*
X6646263Y5656766D01*
X6682100Y5372767D01*
X6682447Y5370228D01*
X6724703Y5082272D01*
X6725092Y5079793D01*
X6769872Y4811636D01*
X6770445Y4808453D01*
X6813856Y4583852D01*
X6814841Y4579219D01*
X6842858Y4458599D01*
X6845074Y4450333D01*
X6913055Y4227118D01*
X6915468Y4219966D01*
X7006681Y3973963D01*
X7008759Y3968718D01*
X7115548Y3715782D01*
X7117614Y3711149D01*
X7232327Y3467131D01*
X7234789Y3462177D01*
X7349770Y3242930D01*
X7353454Y3236384D01*
X7461051Y3057761D01*
X7468616Y3046591D01*
X7561172Y2924443D01*
X7576887Y2907242D01*
X7615712Y2871887D01*
X7644251Y2852282D01*
X7742054Y2803194D01*
X7756434Y2797054D01*
X7910785Y2742111D01*
X7918997Y2739498D01*
X8103099Y2687732D01*
X8108688Y2686297D01*
X8191814Y2666950D01*
X8386602Y2619546D01*
X8570157Y2566126D01*
X8712140Y2516130D01*
X8741566Y2503274D01*
X8967550Y2373084D01*
X9238430Y2178810D01*
X9547813Y1925703D01*
X9887885Y1620722D01*
X10251621Y1270568D01*
X10632400Y881719D01*
X11023734Y460585D01*
X11419150Y13603D01*
X11812267Y-452868D01*
X12197193Y-933061D01*
X12239645Y-987591D01*
X12367566Y-1155646D01*
X12511375Y-1349894D01*
X12662962Y-1558784D01*
X12814004Y-1770461D01*
X12956070Y-1972915D01*
X13080852Y-2154296D01*
X13168859Y-2286000D01*
X13081000Y-2286000D01*
X13056224Y-2288440D01*
X13032399Y-2295667D01*
X13010443Y-2307403D01*
X12991197Y-2323197D01*
X12975403Y-2342443D01*
X12963667Y-2364399D01*
X12956440Y-2388224D01*
X12954001Y-2412440D01*
X12952742Y-2698190D01*
X12951633Y-2950042D01*
X11223307Y-5926392D01*
X9514630Y-8868907D01*
X-1134198Y-8879499D01*
X-2298852Y-8880585D01*
X-3381466Y-8881433D01*
X-4384683Y-8882035D01*
X-5311139Y-8882380D01*
X-6163437Y-8882456D01*
X-6944256Y-8882255D01*
X-7656230Y-8881764D01*
X-8301980Y-8880975D01*
X-8884136Y-8879877D01*
X-9405466Y-8878458D01*
X-9868366Y-8876711D01*
X-10275345Y-8874624D01*
X-10629400Y-8872186D01*
X-10933366Y-8869385D01*
X-11188837Y-8866221D01*
X-11399340Y-8862675D01*
X-11566801Y-8858756D01*
X-11693841Y-8854464D01*
X-11774576Y-8850265D01*
X-11788278Y-8801111D01*
X-11821670Y-8638676D01*
X-11845442Y-8482050D01*
X-11851671Y-8400414D01*
X-11827957Y-8217584D01*
X-11754559Y-7983826D01*
X-11635429Y-7716560D01*
X-11476316Y-7433751D01*
X-11449621Y-7391481D01*
X-11448267Y-7389288D01*
X-11303827Y-7149951D01*
X-11298907Y-7141005D01*
X-11188345Y-6919288D01*
X-11183019Y-6907030D01*
X-11103080Y-6692900D01*
X-4435372Y-6692900D01*
X-4423112Y-6817382D01*
X-4386802Y-6937080D01*
X-4327837Y-7047394D01*
X-4248485Y-7144085D01*
X-4151794Y-7223437D01*
X-4041480Y-7282402D01*
X-3921782Y-7318712D01*
X-3797300Y-7330972D01*
X-3219450Y-7327900D01*
X-3060700Y-7169150D01*
X-3060700Y-5956300D01*
X-4273550Y-5956300D01*
X-4432300Y-6115050D01*
X-4435372Y-6692900D01*
X-11103080Y-6692900D01*
X-11098036Y-6679389D01*
X-11094201Y-6667312D01*
X-11026498Y-6410201D01*
X-11024529Y-6401488D01*
X-10965809Y-6091365D01*
X-10965173Y-6087718D01*
X-10945595Y-5964821D01*
X-10945491Y-5964151D01*
X-10873393Y-5495491D01*
X-10872037Y-5470632D01*
X-10875558Y-5445986D01*
X-10883819Y-5422500D01*
X-10893829Y-5404867D01*
X-10992808Y-5259015D01*
X-11056918Y-5132567D01*
X-11102114Y-4985919D01*
X-11105628Y-4965700D01*
X-4435372Y-4965700D01*
X-4432300Y-5543550D01*
X-4273550Y-5702300D01*
X-3060700Y-5702300D01*
X-3060700Y-5682300D01*
X-2806700Y-5682300D01*
X-2806700Y-5702300D01*
X-2786700Y-5702300D01*
X-2786700Y-5956300D01*
X-2806700Y-5956300D01*
X-2806700Y-7169150D01*
X-2647950Y-7327900D01*
X-2070100Y-7330972D01*
X-1945618Y-7318712D01*
X-1825920Y-7282402D01*
X-1715606Y-7223437D01*
X-1618915Y-7144085D01*
X-1539563Y-7047394D01*
X-1480598Y-6937080D01*
X-1463064Y-6879277D01*
X-1349002Y-6993339D01*
X-1103553Y-7157342D01*
X-830825Y-7270310D01*
X-541299Y-7327900D01*
X-246101Y-7327900D01*
X43425Y-7270310D01*
X316153Y-7157342D01*
X561602Y-6993339D01*
X770339Y-6784602D01*
X876300Y-6626019D01*
X982261Y-6784602D01*
X1190998Y-6993339D01*
X1436447Y-7157342D01*
X1709175Y-7270310D01*
X1998701Y-7327900D01*
X2293899Y-7327900D01*
X2583425Y-7270310D01*
X2856153Y-7157342D01*
X3101602Y-6993339D01*
X3310339Y-6784602D01*
X3474342Y-6539153D01*
X3587310Y-6266425D01*
X3644900Y-5976899D01*
X3644900Y-5681701D01*
X3587310Y-5392175D01*
X3474342Y-5119447D01*
X3310339Y-4873998D01*
X3101602Y-4665261D01*
X2943019Y-4559300D01*
X3101602Y-4453339D01*
X3310339Y-4244602D01*
X3474342Y-3999153D01*
X3587310Y-3726425D01*
X3629915Y-3512231D01*
X9335755Y-3512231D01*
X9551468Y-3774087D01*
X9640875Y-3861565D01*
X9745631Y-3929919D01*
X9861709Y-3976523D01*
X9984648Y-3999586D01*
X10109724Y-3998221D01*
X10232131Y-3972483D01*
X10347165Y-3923357D01*
X10450404Y-3852733D01*
X10899821Y-3471618D01*
X10919388Y-3247965D01*
X10293152Y-2501647D01*
X9355322Y-3288579D01*
X9335755Y-3512231D01*
X3629915Y-3512231D01*
X3644900Y-3436899D01*
X3644900Y-3141701D01*
X3587310Y-2852175D01*
X3474342Y-2579447D01*
X3321549Y-2350775D01*
X8601131Y-2350775D01*
X8602496Y-2475851D01*
X8628234Y-2598258D01*
X8677360Y-2713292D01*
X8747983Y-2816531D01*
X8968402Y-3074437D01*
X9192054Y-3094004D01*
X10092572Y-2338379D01*
X10487728Y-2338379D01*
X11113963Y-3084697D01*
X11337616Y-3104264D01*
X11790982Y-2727855D01*
X11878460Y-2638448D01*
X11946814Y-2533692D01*
X11993418Y-2417614D01*
X12016481Y-2294675D01*
X12015116Y-2169599D01*
X11989378Y-2047192D01*
X11940252Y-1932158D01*
X11869629Y-1828919D01*
X11649210Y-1571013D01*
X11425558Y-1551446D01*
X10487728Y-2338379D01*
X10092572Y-2338379D01*
X10129884Y-2307071D01*
X9503649Y-1560753D01*
X9279996Y-1541186D01*
X8826630Y-1917595D01*
X8739152Y-2007002D01*
X8670798Y-2111758D01*
X8624194Y-2227836D01*
X8601131Y-2350775D01*
X3321549Y-2350775D01*
X3310339Y-2333998D01*
X3101602Y-2125261D01*
X2856153Y-1961258D01*
X2583425Y-1848290D01*
X2293899Y-1790700D01*
X1998701Y-1790700D01*
X1709175Y-1848290D01*
X1436447Y-1961258D01*
X1190998Y-2125261D01*
X982261Y-2333998D01*
X876300Y-2492581D01*
X770339Y-2333998D01*
X561602Y-2125261D01*
X316153Y-1961258D01*
X43425Y-1848290D01*
X-246101Y-1790700D01*
X-541299Y-1790700D01*
X-830825Y-1848290D01*
X-1103553Y-1961258D01*
X-1349002Y-2125261D01*
X-1557739Y-2333998D01*
X-1663700Y-2492581D01*
X-1769661Y-2333998D01*
X-1978398Y-2125261D01*
X-2223847Y-1961258D01*
X-2496575Y-1848290D01*
X-2786101Y-1790700D01*
X-3081299Y-1790700D01*
X-3370825Y-1848290D01*
X-3643553Y-1961258D01*
X-3889002Y-2125261D01*
X-4097739Y-2333998D01*
X-4261742Y-2579447D01*
X-4374710Y-2852175D01*
X-4432300Y-3141701D01*
X-4432300Y-3436899D01*
X-4374710Y-3726425D01*
X-4261742Y-3999153D01*
X-4097739Y-4244602D01*
X-3983677Y-4358664D01*
X-4041480Y-4376198D01*
X-4151794Y-4435163D01*
X-4248485Y-4514515D01*
X-4327837Y-4611206D01*
X-4386802Y-4721520D01*
X-4423112Y-4841218D01*
X-4435372Y-4965700D01*
X-11105628Y-4965700D01*
X-11107343Y-4955839D01*
X-11109050Y-4947634D01*
X-11138014Y-4828304D01*
X-11141103Y-4817637D01*
X-11198440Y-4647802D01*
X-11200561Y-4641991D01*
X-11277136Y-4447052D01*
X-11278989Y-4442587D01*
X-11341538Y-4299600D01*
X-11445981Y-4054176D01*
X-11506934Y-3858139D01*
X-11525357Y-3698854D01*
X-11503827Y-3557429D01*
X-11437161Y-3409031D01*
X-11313790Y-3236293D01*
X-11126355Y-3029250D01*
X-10885050Y-2791390D01*
X-10512366Y-2432728D01*
X-10511589Y-2431973D01*
X-10195911Y-2122944D01*
X-10194758Y-2121801D01*
X-9930889Y-1856798D01*
X-9929222Y-1855092D01*
X-9711435Y-1627994D01*
X-9709095Y-1625487D01*
X-9531661Y-1430174D01*
X-9528504Y-1426565D01*
X-9385696Y-1256918D01*
X-9381689Y-1251905D01*
X-9267777Y-1101804D01*
X-9263169Y-1095320D01*
X-9173481Y-960358D01*
X-9171095Y-956629D01*
X-8954390Y-604495D01*
X-8943483Y-582115D01*
X-8937151Y-558037D01*
X-8935639Y-533187D01*
X-8939003Y-508519D01*
X-8947115Y-484981D01*
X-8959664Y-463479D01*
X-8969732Y-451251D01*
X-9261151Y-139202D01*
X-9404233Y23762D01*
X-9523865Y185039D01*
X-9639152Y372633D01*
X-9767119Y613568D01*
X-9796545Y672236D01*
X-9796719Y672581D01*
X-9903558Y883981D01*
X-9905181Y887086D01*
X-9983865Y1032656D01*
X-9988674Y1040810D01*
X-10046796Y1131470D01*
X-10062436Y1151233D01*
X-10107587Y1197902D01*
X-10126569Y1214012D01*
X-10157774Y1229766D01*
X-10197547Y1243365D01*
X-10221781Y1249072D01*
X-10253867Y1249278D01*
X-10276523Y1246541D01*
X-10285011Y1245223D01*
X-10561831Y1192596D01*
X-10908258Y1149430D01*
X-11332262Y1114927D01*
X-11835914Y1089106D01*
X-12385410Y1072596D01*
X-12892195Y1064861D01*
X-13322506Y1065872D01*
X-13684032Y1076139D01*
X-13984778Y1096079D01*
X-14232610Y1125951D01*
X-14435664Y1165813D01*
X-14605883Y1216570D01*
X-14614864Y1219866D01*
X-14887326Y1347485D01*
X-15168208Y1524254D01*
X-15441691Y1736734D01*
X-15687907Y1968364D01*
X-15887372Y2201576D01*
X-16021567Y2415776D01*
X-16051586Y2479940D01*
X-16072609Y2538285D01*
X-16086734Y2604813D01*
X-16095875Y2700196D01*
X-16100036Y2839987D01*
X-16099812Y3036971D01*
X-16096344Y3303863D01*
X-16095754Y3342388D01*
X-16095745Y3343108D01*
X-16094058Y3518092D01*
X-15298748Y3518092D01*
X-15185604Y3198251D01*
X-15131508Y3085469D01*
X-15056449Y2985409D01*
X-14963310Y2901915D01*
X-14855673Y2838195D01*
X-14737674Y2796699D01*
X-14613845Y2779019D01*
X-14488947Y2785838D01*
X-14367779Y2816893D01*
X-13815116Y3021315D01*
X-13720235Y3224787D01*
X-14053448Y4140282D01*
X-15203867Y3721564D01*
X-15298748Y3518092D01*
X-16094058Y3518092D01*
X-16093209Y3606050D01*
X-16093203Y3607497D01*
X-16093633Y3853708D01*
X-16093647Y3855375D01*
X-16096799Y4067297D01*
X-16096863Y4069872D01*
X-16102493Y4229948D01*
X-16102825Y4235675D01*
X-16109531Y4318979D01*
X-16113625Y4342310D01*
X-16144375Y4454677D01*
X-16151685Y4474646D01*
X-16218690Y4618933D01*
X-15651003Y4618933D01*
X-15644184Y4494035D01*
X-15613129Y4372867D01*
X-15494212Y4055127D01*
X-15290740Y3960246D01*
X-14557411Y4227156D01*
X-13814766Y4227156D01*
X-13481553Y3311660D01*
X-13278081Y3216780D01*
X-12723317Y3415428D01*
X-12610535Y3469524D01*
X-12510475Y3544584D01*
X-12426981Y3637722D01*
X-12363261Y3745359D01*
X-12321765Y3863359D01*
X-12304085Y3987187D01*
X-12310904Y4112085D01*
X-12341959Y4233253D01*
X-12460876Y4550993D01*
X-12664348Y4645874D01*
X-13814766Y4227156D01*
X-14557411Y4227156D01*
X-14140322Y4378964D01*
X-14473535Y5294460D01*
X-14659835Y5381333D01*
X-14234853Y5381333D01*
X-13901640Y4465838D01*
X-12751221Y4884556D01*
X-12656340Y5088028D01*
X-12769484Y5407869D01*
X-12823580Y5520651D01*
X-12898639Y5620711D01*
X-12991778Y5704205D01*
X-13099415Y5767925D01*
X-13217414Y5809421D01*
X-13341243Y5827101D01*
X-13466141Y5820282D01*
X-13587309Y5789227D01*
X-14139972Y5584805D01*
X-14234853Y5381333D01*
X-14659835Y5381333D01*
X-14677007Y5389340D01*
X-15231771Y5190692D01*
X-15344553Y5136596D01*
X-15444613Y5061536D01*
X-15528107Y4968398D01*
X-15591827Y4860761D01*
X-15633323Y4742761D01*
X-15651003Y4618933D01*
X-16218690Y4618933D01*
X-16219888Y4621512D01*
X-16225195Y4631705D01*
X-16336348Y4823487D01*
X-16339504Y4828645D01*
X-16492985Y5066580D01*
X-16493295Y5067058D01*
X-16656699Y5317897D01*
X-16773375Y5513893D01*
X-16850670Y5671628D01*
X-16897360Y5809073D01*
X-16922568Y5948318D01*
X-16932678Y6112654D01*
X-16933576Y6197910D01*
X-16933638Y6200755D01*
X-16941811Y6448745D01*
X-16942994Y6462350D01*
X-16972417Y6670349D01*
X-16976255Y6688157D01*
X-17034857Y6888860D01*
X-17039814Y6902771D01*
X-17135525Y7128872D01*
X-17137979Y7134310D01*
X-17182372Y7226821D01*
X-17240705Y7354599D01*
X-17280834Y7468402D01*
X-17305582Y7583906D01*
X-17316099Y7717525D01*
X-17311577Y7884219D01*
X-17290891Y8096316D01*
X-17253506Y8364901D01*
X-17199302Y8701051D01*
X-17169928Y8874444D01*
X-17168337Y8888663D01*
X-17164802Y8952769D01*
X-17165874Y8977643D01*
X-17171778Y9001829D01*
X-17182865Y9025364D01*
X-17210391Y9070992D01*
X-17225278Y9090947D01*
X-17243773Y9107613D01*
X-17257154Y9116238D01*
X-17332749Y9158507D01*
X-17348961Y9166125D01*
X-17471075Y9213304D01*
X-17838038Y9385929D01*
X-18157337Y9612966D01*
X-18423903Y9887058D01*
X-18629949Y10202350D01*
X-18653017Y10248984D01*
X-18710936Y10377533D01*
X-18745094Y10476532D01*
X-18763866Y10577209D01*
X-18772725Y10714271D01*
X-18774832Y10915494D01*
X-18774833Y10921381D01*
X-18772842Y11125061D01*
X-18764217Y11263620D01*
X-18745895Y11364302D01*
X-18712680Y11461421D01*
X-18656653Y11585374D01*
X-18595686Y11700039D01*
X-18495888Y11871559D01*
X-18366994Y12083562D01*
X-18219307Y12319066D01*
X-18062033Y12562932D01*
X-18033481Y12606445D01*
X-18033029Y12607138D01*
X-17756670Y13034354D01*
X-17755294Y13036529D01*
X-17531864Y13397770D01*
X-17529893Y13401068D01*
X-17359353Y13696407D01*
X-17356326Y13701963D01*
X-17238632Y13931474D01*
X-17233571Y13942641D01*
X-17168683Y14106399D01*
X-17161802Y14130456D01*
X-17147757Y14207675D01*
X-17145724Y14232489D01*
X-17149990Y14263105D01*
X-17176450Y14362396D01*
X-17185188Y14385708D01*
X-17198306Y14406868D01*
X-17214133Y14424023D01*
X-17305945Y14506787D01*
X-17324814Y14520860D01*
X-17340543Y14530460D01*
X-17355065Y14540420D01*
X-17001992Y14540420D01*
X-16989732Y14415938D01*
X-16953422Y14296240D01*
X-16894457Y14185926D01*
X-16815105Y14089235D01*
X-16718414Y14009883D01*
X-16608100Y13950918D01*
X-16488402Y13914608D01*
X-16363920Y13902348D01*
X-15774670Y13905420D01*
X-15615920Y14064170D01*
X-15615920Y15038420D01*
X-15361920Y15038420D01*
X-15361920Y14064170D01*
X-15203170Y13905420D01*
X-14613920Y13902348D01*
X-14489438Y13914608D01*
X-14369740Y13950918D01*
X-14259426Y14009883D01*
X-14162735Y14089235D01*
X-14083383Y14185926D01*
X-14024418Y14296240D01*
X-13988108Y14415938D01*
X-13975848Y14540420D01*
X-13978920Y14879670D01*
X-14137670Y15038420D01*
X-15361920Y15038420D01*
X-15615920Y15038420D01*
X-16840170Y15038420D01*
X-16998920Y14879670D01*
X-17001992Y14540420D01*
X-17355065Y14540420D01*
X-17433153Y14593975D01*
X-17572667Y14700990D01*
X-17741996Y14837587D01*
X-17922430Y14988280D01*
X-18096142Y15138184D01*
X-18245024Y15272089D01*
X-18349651Y15373296D01*
X-18442275Y15491757D01*
X-18512390Y15635201D01*
X-18557257Y15790420D01*
X-17001992Y15790420D01*
X-16998920Y15451170D01*
X-16840170Y15292420D01*
X-15615920Y15292420D01*
X-15615920Y16266670D01*
X-15361920Y16266670D01*
X-15361920Y15292420D01*
X-14137670Y15292420D01*
X-13978920Y15451170D01*
X-13975848Y15790420D01*
X-13988108Y15914902D01*
X-14024418Y16034600D01*
X-14083383Y16144914D01*
X-14162735Y16241605D01*
X-14259426Y16320957D01*
X-14369740Y16379922D01*
X-14489438Y16416232D01*
X-14613920Y16428492D01*
X-15203170Y16425420D01*
X-15361920Y16266670D01*
X-15615920Y16266670D01*
X-15774670Y16425420D01*
X-16363920Y16428492D01*
X-16488402Y16416232D01*
X-16608100Y16379922D01*
X-16718414Y16320957D01*
X-16815105Y16241605D01*
X-16894457Y16144914D01*
X-16953422Y16034600D01*
X-16989732Y15914902D01*
X-17001992Y15790420D01*
X-18557257Y15790420D01*
X-18568213Y15828322D01*
X-18612269Y16088829D01*
X-18633687Y16278428D01*
X-18644491Y16393270D01*
X-18652442Y16498050D01*
X-18657126Y16601493D01*
X-18658172Y16713540D01*
X-18655082Y16844070D01*
X-18647291Y17002517D01*
X-18634269Y17197689D01*
X-18615517Y17438411D01*
X-18590555Y17733549D01*
X-18558913Y18091950D01*
X-18536529Y18340420D01*
X-17001992Y18340420D01*
X-17001992Y17590420D01*
X-16984928Y17417166D01*
X-16934392Y17250570D01*
X-16852325Y17097034D01*
X-16741882Y16962458D01*
X-16607306Y16852015D01*
X-16453770Y16769948D01*
X-16287174Y16719412D01*
X-16113920Y16702348D01*
X-14863920Y16702348D01*
X-14690666Y16719412D01*
X-14524070Y16769948D01*
X-14370534Y16852015D01*
X-14235958Y16962458D01*
X-14125515Y17097034D01*
X-14043448Y17250570D01*
X-13992912Y17417166D01*
X-13975848Y17590420D01*
X-13975848Y18340420D01*
X-13992912Y18513674D01*
X-14043448Y18680270D01*
X-14125515Y18833806D01*
X-14235958Y18968382D01*
X-14290176Y19012878D01*
X-14209194Y19093860D01*
X-14057315Y19047788D01*
X-13884061Y19030724D01*
X-12984059Y19030724D01*
X-12810805Y19047788D01*
X-12644209Y19098324D01*
X-12490673Y19180391D01*
X-12357639Y19289569D01*
X-12357640Y14845523D01*
X-12361316Y14808200D01*
X-12357640Y14770878D01*
X-12357640Y14770868D01*
X-12357639Y14770858D01*
X-12357640Y12855962D01*
X-13289129Y11924472D01*
X-13302401Y11924472D01*
X-13475655Y11907408D01*
X-13642251Y11856872D01*
X-13795787Y11774805D01*
X-13930362Y11664362D01*
X-14040805Y11529787D01*
X-14122872Y11376251D01*
X-14173408Y11209655D01*
X-14190472Y11036401D01*
X-14190472Y10386399D01*
X-14173408Y10213145D01*
X-14122872Y10046549D01*
X-14040805Y9893013D01*
X-13930362Y9758438D01*
X-13842584Y9686400D01*
X-13930362Y9614362D01*
X-14040805Y9479787D01*
X-14122872Y9326251D01*
X-14173408Y9159655D01*
X-14190472Y8986401D01*
X-14190472Y8336736D01*
X-14265068Y8362969D01*
X-14437413Y8387574D01*
X-14611247Y8378083D01*
X-14779889Y8334862D01*
X-15954504Y7907337D01*
X-16111473Y7832045D01*
X-16250738Y7727577D01*
X-16366946Y7597947D01*
X-16455632Y7448137D01*
X-16513387Y7283904D01*
X-16537992Y7111559D01*
X-16528501Y6937725D01*
X-16485280Y6769083D01*
X-16228765Y6064314D01*
X-16153473Y5907345D01*
X-16049005Y5768080D01*
X-15919375Y5651872D01*
X-15769565Y5563186D01*
X-15605332Y5505431D01*
X-15432987Y5480826D01*
X-15259153Y5490317D01*
X-15090511Y5533538D01*
X-13915896Y5961063D01*
X-13758927Y6036355D01*
X-13619662Y6140823D01*
X-13503454Y6270453D01*
X-13414768Y6420263D01*
X-13399055Y6464943D01*
X-12415670Y7448328D01*
X-12402399Y7448328D01*
X-12229145Y7465392D01*
X-12062549Y7515928D01*
X-11909013Y7597995D01*
X-11774438Y7708438D01*
X-11663995Y7843013D01*
X-11581928Y7996549D01*
X-11531392Y8163145D01*
X-11514328Y8336399D01*
X-11514328Y8986401D01*
X-11531392Y9159655D01*
X-11581928Y9326251D01*
X-11663995Y9479787D01*
X-11774438Y9614362D01*
X-11862216Y9686400D01*
X-11774438Y9758438D01*
X-11663995Y9893013D01*
X-11581928Y10046549D01*
X-11531392Y10213145D01*
X-11514328Y10386399D01*
X-11514328Y11036401D01*
X-11531392Y11209655D01*
X-11581928Y11376251D01*
X-11618788Y11445211D01*
X-11086636Y11977362D01*
X-11057639Y12001159D01*
X-10962666Y12116884D01*
X-10892094Y12248913D01*
X-10848637Y12392174D01*
X-10837640Y12503827D01*
X-10837640Y12503828D01*
X-10833963Y12541160D01*
X-10837640Y12578493D01*
X-10837640Y12973398D01*
X-10259840Y12395598D01*
X-10259840Y12097846D01*
X-10354334Y12047337D01*
X-10451025Y11967985D01*
X-10530377Y11871294D01*
X-10589342Y11760980D01*
X-10625652Y11641282D01*
X-10637912Y11516800D01*
X-10637912Y8366800D01*
X-10625652Y8242318D01*
X-10589342Y8122620D01*
X-10530377Y8012306D01*
X-10451025Y7915615D01*
X-10354334Y7836263D01*
X-10244020Y7777298D01*
X-10124322Y7740988D01*
X-9999840Y7728728D01*
X-9035319Y7728728D01*
X-9035319Y7104872D01*
X-9999840Y7104872D01*
X-10124322Y7092612D01*
X-10244020Y7056302D01*
X-10354334Y6997337D01*
X-10451025Y6917985D01*
X-10530377Y6821294D01*
X-10589342Y6710980D01*
X-10625652Y6591282D01*
X-10637912Y6466800D01*
X-10637912Y5739569D01*
X-10799131Y5806348D01*
X-10979771Y5842280D01*
X-11163949Y5842280D01*
X-11344589Y5806348D01*
X-11514749Y5735866D01*
X-11667888Y5633542D01*
X-11798122Y5503308D01*
X-11900446Y5350169D01*
X-11970928Y5180009D01*
X-12006860Y4999369D01*
X-12006860Y4815191D01*
X-11970928Y4634551D01*
X-11900446Y4464391D01*
X-11798122Y4311252D01*
X-11667888Y4181018D01*
X-11514749Y4078694D01*
X-11344589Y4008212D01*
X-11163949Y3972280D01*
X-10979771Y3972280D01*
X-10799131Y4008212D01*
X-10637912Y4074991D01*
X-10637912Y3316800D01*
X-10625652Y3192318D01*
X-10589342Y3072620D01*
X-10530377Y2962306D01*
X-10451025Y2865615D01*
X-10354334Y2786263D01*
X-10244020Y2727298D01*
X-10124322Y2690988D01*
X-9999840Y2678728D01*
X-8999840Y2678728D01*
X-8875358Y2690988D01*
X-8755660Y2727298D01*
X-8645346Y2786263D01*
X-8548655Y2865615D01*
X-8469303Y2962306D01*
X-8410338Y3072620D01*
X-8374028Y3192318D01*
X-8361768Y3316800D01*
X-8361768Y4468925D01*
X-8273635Y4380793D01*
X-8249841Y4351799D01*
X-8220848Y4328005D01*
X-8220844Y4328001D01*
X-8181305Y4295553D01*
X-8134116Y4256826D01*
X-8097912Y4237474D01*
X-8097912Y3316800D01*
X-8085652Y3192318D01*
X-8049342Y3072620D01*
X-7990377Y2962306D01*
X-7911025Y2865615D01*
X-7814334Y2786263D01*
X-7704020Y2727298D01*
X-7584322Y2690988D01*
X-7459840Y2678728D01*
X-6459840Y2678728D01*
X-6335358Y2690988D01*
X-6215660Y2727298D01*
X-6105346Y2786263D01*
X-6008655Y2865615D01*
X-5929303Y2962306D01*
X-5870338Y3072620D01*
X-5834028Y3192318D01*
X-5821768Y3316800D01*
X-5557912Y3316800D01*
X-5545652Y3192318D01*
X-5509342Y3072620D01*
X-5450377Y2962306D01*
X-5371025Y2865615D01*
X-5274334Y2786263D01*
X-5164020Y2727298D01*
X-5044322Y2690988D01*
X-4919840Y2678728D01*
X-4705590Y2681800D01*
X-4546840Y2840550D01*
X-4546840Y4764800D01*
X-4292840Y4764800D01*
X-4292840Y2840550D01*
X-4134090Y2681800D01*
X-3919840Y2678728D01*
X-3795358Y2690988D01*
X-3675660Y2727298D01*
X-3565346Y2786263D01*
X-3468655Y2865615D01*
X-3389303Y2962306D01*
X-3330338Y3072620D01*
X-3294028Y3192318D01*
X-3281768Y3316800D01*
X-3284840Y4606050D01*
X-3443590Y4764800D01*
X-4292840Y4764800D01*
X-4546840Y4764800D01*
X-5396090Y4764800D01*
X-5554840Y4606050D01*
X-5557912Y3316800D01*
X-5821768Y3316800D01*
X-5821768Y6250404D01*
X-5557396Y6250404D01*
X-5554840Y5177550D01*
X-5396090Y5018800D01*
X-4546840Y5018800D01*
X-4546840Y5038800D01*
X-4292840Y5038800D01*
X-4292840Y5018800D01*
X-3443590Y5018800D01*
X-3284840Y5177550D01*
X-3282284Y6250404D01*
X-2489614Y6250404D01*
X-2458405Y6192017D01*
X-2347962Y6057442D01*
X-2260184Y5985404D01*
X-2347962Y5913366D01*
X-2458405Y5778791D01*
X-2540472Y5625255D01*
X-2591008Y5458659D01*
X-2608072Y5285405D01*
X-2608072Y4635403D01*
X-2591008Y4462149D01*
X-2540472Y4295553D01*
X-2458405Y4142017D01*
X-2347962Y4007442D01*
X-2213387Y3896999D01*
X-2059851Y3814932D01*
X-1893255Y3764396D01*
X-1720001Y3747332D01*
X-1706729Y3747332D01*
X2729410Y-688809D01*
X2753204Y-717802D01*
X2782197Y-741596D01*
X2782201Y-741600D01*
X2833726Y-783885D01*
X2868929Y-812775D01*
X3000958Y-883347D01*
X3144219Y-926804D01*
X3255872Y-937801D01*
X3255881Y-937801D01*
X3293204Y-941477D01*
X3330527Y-937801D01*
X7171541Y-937801D01*
X7590966Y-1437652D01*
X7715403Y-1559404D01*
X7861202Y-1654540D01*
X8022760Y-1719404D01*
X8193868Y-1751503D01*
X8367950Y-1749604D01*
X8538317Y-1713779D01*
X8698421Y-1645406D01*
X8842110Y-1547112D01*
X9020428Y-1397485D01*
X9698224Y-1397485D01*
X10324460Y-2143803D01*
X11262290Y-1356871D01*
X11281857Y-1133219D01*
X11066144Y-871363D01*
X10976737Y-783885D01*
X10871981Y-715531D01*
X10755903Y-668927D01*
X10632964Y-645864D01*
X10507888Y-647229D01*
X10385481Y-672967D01*
X10270447Y-722093D01*
X10167208Y-792717D01*
X9717791Y-1173832D01*
X9698224Y-1397485D01*
X9020428Y-1397485D01*
X9799665Y-743627D01*
X9921417Y-619190D01*
X10016553Y-473391D01*
X10081417Y-311833D01*
X10113516Y-140725D01*
X10111617Y33357D01*
X10075792Y203724D01*
X10007419Y363828D01*
X9909125Y507517D01*
X9427034Y1082050D01*
X9302597Y1203802D01*
X9156798Y1298938D01*
X8995240Y1363802D01*
X8824132Y1395901D01*
X8650050Y1394002D01*
X8479683Y1358177D01*
X8319579Y1289804D01*
X8175890Y1191510D01*
X7449742Y582199D01*
X3608008Y582199D01*
X-36388Y4226593D01*
X472Y4295553D01*
X51008Y4462149D01*
X68072Y4635403D01*
X68072Y5285405D01*
X51008Y5458659D01*
X472Y5625255D01*
X-81595Y5778791D01*
X-192038Y5913366D01*
X-279816Y5985404D01*
X-192038Y6057442D01*
X-81595Y6192017D01*
X472Y6345553D01*
X51008Y6512149D01*
X68072Y6685403D01*
X68072Y7335405D01*
X51008Y7508659D01*
X472Y7675255D01*
X-81595Y7828791D01*
X-192038Y7963366D01*
X-326613Y8073809D01*
X-480149Y8155876D01*
X-646745Y8206412D01*
X-819999Y8223476D01*
X-1720001Y8223476D01*
X-1893255Y8206412D01*
X-2059851Y8155876D01*
X-2213387Y8073809D01*
X-2347962Y7963366D01*
X-2458405Y7828791D01*
X-2489614Y7770404D01*
X-3698386Y7770404D01*
X-3675660Y7777298D01*
X-3565346Y7836263D01*
X-3468655Y7915615D01*
X-3389303Y8012306D01*
X-3330338Y8122620D01*
X-3294028Y8242318D01*
X-3281768Y8366800D01*
X-3281768Y11516800D01*
X-3294028Y11641282D01*
X-3330338Y11760980D01*
X-3389303Y11871294D01*
X-3468655Y11967985D01*
X-3565346Y12047337D01*
X-3675660Y12106302D01*
X-3751917Y12129434D01*
X-3784866Y12191076D01*
X-3879839Y12306801D01*
X-3908837Y12330599D01*
X-5749830Y14171591D01*
X-5749830Y17805306D01*
X-4571113Y16626588D01*
X-4547319Y16597595D01*
X-4518326Y16573801D01*
X-4518322Y16573797D01*
X-4447633Y16515785D01*
X-4431594Y16502622D01*
X-4428659Y16501053D01*
X-4420072Y16472745D01*
X-4338005Y16319209D01*
X-4227562Y16184634D01*
X-4139784Y16112596D01*
X-4227562Y16040558D01*
X-4338005Y15905983D01*
X-4420072Y15752447D01*
X-4470608Y15585851D01*
X-4487672Y15412597D01*
X-4487672Y14762595D01*
X-4470608Y14589341D01*
X-4420072Y14422745D01*
X-4338005Y14269209D01*
X-4227562Y14134634D01*
X-4092987Y14024191D01*
X-3939451Y13942124D01*
X-3772855Y13891588D01*
X-3599601Y13874524D01*
X-2699599Y13874524D01*
X-2526345Y13891588D01*
X-2359749Y13942124D01*
X-2206213Y14024191D01*
X-2071638Y14134634D01*
X-1961195Y14269209D01*
X-1929986Y14327596D01*
X-910926Y14327596D01*
X-873604Y14323920D01*
X-836282Y14327596D01*
X-836271Y14327596D01*
X-724618Y14338593D01*
X-581357Y14382050D01*
X-449328Y14452622D01*
X-333603Y14547595D01*
X-309800Y14576599D01*
X343066Y15229465D01*
X341128Y15015400D01*
X353388Y14890918D01*
X389698Y14771220D01*
X448663Y14660906D01*
X528015Y14564215D01*
X624706Y14484863D01*
X735020Y14425898D01*
X854718Y14389588D01*
X979200Y14377328D01*
X1568450Y14380400D01*
X1727200Y14539150D01*
X1727200Y15513400D01*
X1981200Y15513400D01*
X1981200Y14539150D01*
X2139950Y14380400D01*
X2729200Y14377328D01*
X2853682Y14389588D01*
X2973380Y14425898D01*
X3083694Y14484863D01*
X3180385Y14564215D01*
X3259737Y14660906D01*
X3318702Y14771220D01*
X3355012Y14890918D01*
X3367272Y15015400D01*
X3364200Y15354650D01*
X3205450Y15513400D01*
X1981200Y15513400D01*
X1727200Y15513400D01*
X1707200Y15513400D01*
X1707200Y15767400D01*
X1727200Y15767400D01*
X1727200Y15787400D01*
X1981200Y15787400D01*
X1981200Y15767400D01*
X3205450Y15767400D01*
X3364200Y15926150D01*
X3367272Y16265400D01*
X3355012Y16389882D01*
X3318702Y16509580D01*
X3259737Y16619894D01*
X3180385Y16716585D01*
X3083694Y16795937D01*
X2973380Y16854902D01*
X2853682Y16891212D01*
X2729200Y16903472D01*
X2139950Y16900400D01*
X1981202Y16741652D01*
X1981202Y16867599D01*
X2290931Y17177328D01*
X2479200Y17177328D01*
X2652454Y17194392D01*
X2819050Y17244928D01*
X2972586Y17326995D01*
X3107162Y17437438D01*
X3217605Y17572014D01*
X3299672Y17725550D01*
X3350208Y17892146D01*
X3367272Y18065400D01*
X3367272Y18815400D01*
X3350208Y18988654D01*
X3299672Y19155250D01*
X3217605Y19308786D01*
X3107162Y19443362D01*
X2972586Y19553805D01*
X2819050Y19635872D01*
X2652454Y19686408D01*
X2479200Y19703472D01*
X1229200Y19703472D01*
X1055946Y19686408D01*
X889350Y19635872D01*
X735814Y19553805D01*
X601238Y19443362D01*
X490795Y19308786D01*
X408728Y19155250D01*
X358192Y18988654D01*
X341128Y18815400D01*
X341128Y18065400D01*
X358192Y17892146D01*
X408728Y17725550D01*
X490795Y17572014D01*
X511177Y17547179D01*
X-1188405Y15847596D01*
X-1929986Y15847596D01*
X-1961195Y15905983D01*
X-2071638Y16040558D01*
X-2159416Y16112596D01*
X-2071638Y16184634D01*
X-1961195Y16319209D01*
X-1879128Y16472745D01*
X-1828592Y16639341D01*
X-1811528Y16812595D01*
X-1811528Y17462597D01*
X-1828592Y17635851D01*
X-1879128Y17802447D01*
X-1961195Y17955983D01*
X-2071638Y18090558D01*
X-2206213Y18201001D01*
X-2359749Y18283068D01*
X-2526345Y18333604D01*
X-2699599Y18350668D01*
X-3599601Y18350668D01*
X-3772855Y18333604D01*
X-3939451Y18283068D01*
X-4029731Y18234812D01*
X-5255841Y19460920D01*
X-5255841Y20299800D01*
X-4050912Y20299800D01*
X-4038652Y20175318D01*
X-4002342Y20055620D01*
X-3943377Y19945306D01*
X-3864025Y19848615D01*
X-3767334Y19769263D01*
X-3657020Y19710298D01*
X-3537322Y19673988D01*
X-3412840Y19661728D01*
X-2848590Y19664800D01*
X-2689840Y19823550D01*
X-2689840Y20497800D01*
X-2435840Y20497800D01*
X-2435840Y19823550D01*
X-2277090Y19664800D01*
X-1712840Y19661728D01*
X-1588358Y19673988D01*
X-1468660Y19710298D01*
X-1358346Y19769263D01*
X-1261655Y19848615D01*
X-1182303Y19945306D01*
X-1123338Y20055620D01*
X-1087028Y20175318D01*
X-1074768Y20299800D01*
X-1077840Y20339050D01*
X-1236590Y20497800D01*
X-2435840Y20497800D01*
X-2689840Y20497800D01*
X-3889090Y20497800D01*
X-4047840Y20339050D01*
X-4050912Y20299800D01*
X-5255841Y20299800D01*
X-5255841Y20496998D01*
X-4050912Y21701926D01*
X-4050912Y21569800D01*
X-4038652Y21445318D01*
X-4002342Y21325620D01*
X-3967160Y21259800D01*
X-4002342Y21193980D01*
X-4038652Y21074282D01*
X-4050912Y20949800D01*
X-4047840Y20910550D01*
X-3889090Y20751800D01*
X-2689840Y20751800D01*
X-2689840Y20771800D01*
X-2435840Y20771800D01*
X-2435840Y20751800D01*
X-1236590Y20751800D01*
X-1077840Y20910550D01*
X-1074768Y20949800D01*
X-1087028Y21074282D01*
X-1105386Y21134800D01*
X522438Y21134800D01*
X559760Y21131124D01*
X597082Y21134800D01*
X597093Y21134800D01*
X708746Y21145797D01*
X852007Y21189254D01*
X984036Y21259826D01*
X1099761Y21354799D01*
X1123564Y21383803D01*
X1376529Y21636768D01*
X1389801Y21636768D01*
X1563055Y21653832D01*
X1729651Y21704368D01*
X1883187Y21786435D01*
X2017762Y21896878D01*
X2128205Y22031453D01*
X2210272Y22184989D01*
X2260808Y22351585D01*
X2277872Y22524839D01*
X2277872Y23174841D01*
X2260808Y23348095D01*
X2210272Y23514691D01*
X2128205Y23668227D01*
X2017762Y23802802D01*
X1929984Y23874840D01*
X2017762Y23946878D01*
X2128205Y24081453D01*
X2210272Y24234989D01*
X2260808Y24401585D01*
X2277872Y24574839D01*
X2277872Y25224841D01*
X2260808Y25398095D01*
X2210272Y25564691D01*
X2128205Y25718227D01*
X2017762Y25852802D01*
X1883187Y25963245D01*
X1729651Y26045312D01*
X1563055Y26095848D01*
X1389801Y26112912D01*
X1376530Y26112912D01*
X-1291756Y28781197D01*
X-1315559Y28810201D01*
X-1431284Y28905174D01*
X-1563313Y28975746D01*
X-1706574Y29019203D01*
X-1818227Y29030200D01*
X-1818238Y29030200D01*
X-1855560Y29033876D01*
X-1892882Y29030200D01*
X-2331624Y29030200D01*
X-2335392Y29068454D01*
X-2385928Y29235050D01*
X-2467995Y29388586D01*
X-2578438Y29523162D01*
X-2713014Y29633605D01*
X-2866550Y29715672D01*
X-3033146Y29766208D01*
X-3206400Y29783272D01*
X-3956400Y29783272D01*
X-4129654Y29766208D01*
X-4296250Y29715672D01*
X-4449786Y29633605D01*
X-4584362Y29523162D01*
X-4694805Y29388586D01*
X-4776872Y29235050D01*
X-4827408Y29068454D01*
X-4844472Y28895200D01*
X-4844472Y27645200D01*
X-4827408Y27471946D01*
X-4776872Y27305350D01*
X-4694805Y27151814D01*
X-4584362Y27017238D01*
X-4449786Y26906795D01*
X-4296250Y26824728D01*
X-4129654Y26774192D01*
X-3956400Y26757128D01*
X-3206400Y26757128D01*
X-3033146Y26774192D01*
X-2866550Y26824728D01*
X-2713014Y26906795D01*
X-2578438Y27017238D01*
X-2467995Y27151814D01*
X-2385928Y27305350D01*
X-2335392Y27471946D01*
X-2331624Y27510200D01*
X-2170361Y27510200D01*
X-293812Y25633650D01*
X-330672Y25564691D01*
X-381208Y25398095D01*
X-398272Y25224841D01*
X-398272Y24574839D01*
X-381208Y24401585D01*
X-330672Y24234989D01*
X-248605Y24081453D01*
X-138162Y23946878D01*
X-50384Y23874840D01*
X-138162Y23802802D01*
X-248605Y23668227D01*
X-330672Y23514691D01*
X-381208Y23348095D01*
X-398272Y23174841D01*
X-398272Y22654800D01*
X-1105386Y22654800D01*
X-1087028Y22715318D01*
X-1074768Y22839800D01*
X-1074768Y23489800D01*
X-1087028Y23614282D01*
X-1123338Y23733980D01*
X-1158520Y23799800D01*
X-1123338Y23865620D01*
X-1087028Y23985318D01*
X-1074768Y24109800D01*
X-1074768Y24759800D01*
X-1087028Y24884282D01*
X-1123338Y25003980D01*
X-1182303Y25114294D01*
X-1261655Y25210985D01*
X-1358346Y25290337D01*
X-1468660Y25349302D01*
X-1588358Y25385612D01*
X-1712840Y25397872D01*
X-3412840Y25397872D01*
X-3537322Y25385612D01*
X-3657020Y25349302D01*
X-3767334Y25290337D01*
X-3864025Y25210985D01*
X-3911029Y25153711D01*
X-3955087Y25140346D01*
X-4087116Y25069774D01*
X-4202841Y24974801D01*
X-4226639Y24945803D01*
X-6847840Y22324601D01*
X-8199036Y23675797D01*
X-8222839Y23704801D01*
X-8338564Y23799774D01*
X-8431874Y23849650D01*
X-8423338Y23865620D01*
X-8387028Y23985318D01*
X-8374768Y24109800D01*
X-8374768Y24759800D01*
X-8387028Y24884282D01*
X-8423338Y25003980D01*
X-8482303Y25114294D01*
X-8561655Y25210985D01*
X-8658346Y25290337D01*
X-8768660Y25349302D01*
X-8888358Y25385612D01*
X-9012840Y25397872D01*
X-9025694Y25397872D01*
X-8992509Y25425106D01*
X-8882843Y25558734D01*
X-8801354Y25711189D01*
X-8791128Y25744898D01*
X-8724332Y25744898D01*
X-8621689Y25676314D01*
X-8451529Y25605832D01*
X-8270889Y25569900D01*
X-8086711Y25569900D01*
X-7906071Y25605832D01*
X-7735911Y25676314D01*
X-7582772Y25778638D01*
X-7452538Y25908872D01*
X-7350214Y26062011D01*
X-7279732Y26232171D01*
X-7243800Y26412811D01*
X-7243800Y26596989D01*
X-7279732Y26777629D01*
X-7302954Y26833693D01*
X-7250580Y26805698D01*
X-7130882Y26769388D01*
X-7006400Y26757128D01*
X-6667150Y26760200D01*
X-6508400Y26918950D01*
X-6508400Y28143200D01*
X-6254400Y28143200D01*
X-6254400Y26918950D01*
X-6095650Y26760200D01*
X-5756400Y26757128D01*
X-5631918Y26769388D01*
X-5512220Y26805698D01*
X-5401906Y26864663D01*
X-5305215Y26944015D01*
X-5225863Y27040706D01*
X-5166898Y27151020D01*
X-5130588Y27270718D01*
X-5118328Y27395200D01*
X-5121400Y27984450D01*
X-5280150Y28143200D01*
X-6254400Y28143200D01*
X-6508400Y28143200D01*
X-7482650Y28143200D01*
X-7641400Y27984450D01*
X-7644472Y27395200D01*
X-7632212Y27270718D01*
X-7629731Y27262539D01*
X-7735911Y27333486D01*
X-7906071Y27403968D01*
X-8086711Y27439900D01*
X-8270889Y27439900D01*
X-8451529Y27403968D01*
X-8621689Y27333486D01*
X-8724338Y27264898D01*
X-8791128Y27264898D01*
X-8801354Y27298607D01*
X-8882843Y27451062D01*
X-8992509Y27584690D01*
X-9126137Y27694356D01*
X-9278592Y27775845D01*
X-9444016Y27826026D01*
X-9616051Y27842970D01*
X-10103551Y27842970D01*
X-10275586Y27826026D01*
X-10441010Y27775845D01*
X-10593465Y27694356D01*
X-10727093Y27584690D01*
X-10732309Y27578334D01*
X-10796116Y27656083D01*
X-10892807Y27735435D01*
X-11003121Y27794400D01*
X-11122819Y27830710D01*
X-11247301Y27842970D01*
X-11449051Y27839898D01*
X-11607801Y27681148D01*
X-11607801Y26631898D01*
X-11587801Y26631898D01*
X-11587801Y26377898D01*
X-11607801Y26377898D01*
X-11607801Y25328648D01*
X-11449051Y25169898D01*
X-11247301Y25166826D01*
X-11196129Y25171866D01*
X-11243377Y25114294D01*
X-11302342Y25003980D01*
X-11338652Y24884282D01*
X-11350912Y24759800D01*
X-11350912Y24109800D01*
X-11338652Y23985318D01*
X-11320294Y23924800D01*
X-13100733Y23924800D01*
X-13138056Y23928476D01*
X-13175379Y23924800D01*
X-13175389Y23924800D01*
X-13287042Y23913803D01*
X-13430303Y23870346D01*
X-13562332Y23799774D01*
X-13678057Y23704801D01*
X-13701860Y23675797D01*
X-13870789Y23506868D01*
X-13884061Y23506868D01*
X-14057315Y23489804D01*
X-14223911Y23439268D01*
X-14377447Y23357201D01*
X-14512022Y23246758D01*
X-14622465Y23112183D01*
X-14704532Y22958647D01*
X-14755068Y22792051D01*
X-14772132Y22618797D01*
X-14772132Y21968795D01*
X-14755068Y21795541D01*
X-14704532Y21628945D01*
X-14622465Y21475409D01*
X-14512022Y21340834D01*
X-14424244Y21268796D01*
X-14512022Y21196758D01*
X-14622465Y21062183D01*
X-14704532Y20908647D01*
X-14755068Y20742051D01*
X-14759925Y20692733D01*
X-15999918Y19452739D01*
X-16028921Y19428937D01*
X-16084049Y19361762D01*
X-16123894Y19313212D01*
X-16133112Y19295966D01*
X-16172249Y19222747D01*
X-16287174Y19211428D01*
X-16453770Y19160892D01*
X-16607306Y19078825D01*
X-16741882Y18968382D01*
X-16852325Y18833806D01*
X-16934392Y18680270D01*
X-16984928Y18513674D01*
X-17001992Y18340420D01*
X-18536529Y18340420D01*
X-18520111Y18522650D01*
X-18504049Y18699870D01*
X-18504045Y18699922D01*
X-18463465Y19149737D01*
X-18463427Y19150163D01*
X-18431009Y19523547D01*
X-18430918Y19524656D01*
X-18407140Y19829495D01*
X-18406983Y19831759D01*
X-18392321Y20075937D01*
X-18392137Y20080187D01*
X-18387069Y20271592D01*
X-18387099Y20279289D01*
X-18392103Y20425805D01*
X-18393290Y20439325D01*
X-18408841Y20548839D01*
X-18413997Y20570844D01*
X-18440573Y20651241D01*
X-18454362Y20680113D01*
X-18492441Y20739279D01*
X-18513485Y20764227D01*
X-18563543Y20810048D01*
X-18580407Y20823063D01*
X-18642922Y20863425D01*
X-18648967Y20867093D01*
X-18690113Y20890521D01*
X-18799115Y20960283D01*
X-18860709Y21022096D01*
X-18900306Y21100694D01*
X-18929129Y21231157D01*
X-18948133Y21435351D01*
X-18952932Y21521523D01*
X-18952994Y21522552D01*
X-18966448Y21733309D01*
X-18967152Y21740821D01*
X-18985436Y21888518D01*
X-18988569Y21904905D01*
X-19016222Y22011147D01*
X-19024682Y22034214D01*
X-19066244Y22120607D01*
X-19073590Y22133806D01*
X-19094622Y22166807D01*
X-19152288Y22264055D01*
X-19178248Y22325813D01*
X-19178548Y22327716D01*
X-19185071Y22352497D01*
X-19216631Y22436747D01*
X-19230752Y22463920D01*
X-19323233Y22599060D01*
X-19330122Y22608211D01*
X-19480231Y22789954D01*
X-19484334Y22794680D01*
X-19688772Y23018738D01*
X-19690375Y23020463D01*
X-19700343Y23030989D01*
X-19938929Y23294275D01*
X-20108987Y23508712D01*
X-20213935Y23676251D01*
X-20262872Y23804662D01*
X-20263279Y23806691D01*
X-20268035Y23823974D01*
X-20316087Y23960162D01*
X-20327047Y23983409D01*
X-20391606Y24090643D01*
X-20336270Y24055073D01*
X-20208358Y23963308D01*
X-20207718Y23962852D01*
X-19996813Y23813516D01*
X-19989994Y23809010D01*
X-19840697Y23717115D01*
X-19820767Y23707144D01*
X-19733267Y23672595D01*
X-19709326Y23665765D01*
X-19684512Y23663738D01*
X-19659780Y23666590D01*
X-19636079Y23674212D01*
X-19614321Y23686312D01*
X-19602207Y23695839D01*
X-19576695Y23718538D01*
X-19559807Y23736831D01*
X-19546811Y23758066D01*
X-19538209Y23781429D01*
X-19534330Y23806021D01*
X-19535323Y23830898D01*
X-19545700Y23866415D01*
X-19582367Y23946268D01*
X-19594880Y23967706D01*
X-19667242Y24067742D01*
X-19662356Y24065758D01*
X-19638482Y24058697D01*
X-19613690Y24056429D01*
X-19588931Y24059041D01*
X-19565469Y24066303D01*
X-19509051Y24089956D01*
X-19487144Y24101786D01*
X-19467967Y24117662D01*
X-19452256Y24136975D01*
X-19440614Y24158982D01*
X-19435614Y24173718D01*
X-19410642Y24265444D01*
X-19406182Y24298623D01*
X-19405945Y24464432D01*
X-19406205Y24472734D01*
X-19414349Y24599846D01*
X-19414401Y24600622D01*
X-19426833Y24777671D01*
X-19428784Y24880001D01*
X-19422056Y24921303D01*
X-19410618Y24941502D01*
X-19370864Y24982305D01*
X-19364129Y24988617D01*
X-19266238Y25067136D01*
X-19129549Y25160417D01*
X-19026494Y25222893D01*
X-19021666Y25225972D01*
X-18860718Y25333756D01*
X-18834041Y25357712D01*
X-18756090Y25450740D01*
X-18742048Y25471298D01*
X-18731398Y25497147D01*
X-18726645Y25513644D01*
X-18696000Y25581623D01*
X-18612063Y25665053D01*
X-18447904Y25777630D01*
X-18398805Y25804898D01*
X-12860373Y25804898D01*
X-12848113Y25680416D01*
X-12811803Y25560718D01*
X-12752838Y25450404D01*
X-12673486Y25353713D01*
X-12576795Y25274361D01*
X-12466481Y25215396D01*
X-12346783Y25179086D01*
X-12222301Y25166826D01*
X-12020551Y25169898D01*
X-11861801Y25328648D01*
X-11861801Y26377898D01*
X-12698551Y26377898D01*
X-12857301Y26219148D01*
X-12860373Y25804898D01*
X-18398805Y25804898D01*
X-18201502Y25914472D01*
X-18130667Y25950547D01*
X-18129837Y25950974D01*
X-17921722Y26058897D01*
X-17919571Y26060038D01*
X-17698106Y26180327D01*
X-17695964Y26181518D01*
X-17499398Y26293247D01*
X-17497247Y26294497D01*
X-17442281Y26327181D01*
X-17255206Y26437961D01*
X-17085150Y26532439D01*
X-16914013Y26619369D01*
X-16723798Y26707269D01*
X-16496970Y26804283D01*
X-16216628Y26918268D01*
X-16015917Y26998008D01*
X-16015834Y26998042D01*
X-15705082Y27121755D01*
X-15703772Y27122285D01*
X-15502795Y27204898D01*
X-12860373Y27204898D01*
X-12857301Y26790648D01*
X-12698551Y26631898D01*
X-11861801Y26631898D01*
X-11861801Y27681148D01*
X-12020551Y27839898D01*
X-12222301Y27842970D01*
X-12346783Y27830710D01*
X-12466481Y27794400D01*
X-12576795Y27735435D01*
X-12673486Y27656083D01*
X-12752838Y27559392D01*
X-12811803Y27449078D01*
X-12848113Y27329380D01*
X-12860373Y27204898D01*
X-15502795Y27204898D01*
X-15456268Y27224023D01*
X-15453556Y27225174D01*
X-15253366Y27312946D01*
X-15248973Y27314973D01*
X-15080165Y27396787D01*
X-15074620Y27399645D01*
X-14921261Y27483510D01*
X-14916018Y27486541D01*
X-14762174Y27580465D01*
X-14758560Y27582757D01*
X-14588299Y27694748D01*
X-14586750Y27695783D01*
X-14467835Y27776524D01*
X-13823581Y28188189D01*
X-13104910Y28594762D01*
X-12319192Y28992810D01*
X-11985283Y29145200D01*
X-7644472Y29145200D01*
X-7641400Y28555950D01*
X-7482650Y28397200D01*
X-6508400Y28397200D01*
X-6508400Y29621450D01*
X-6254400Y29621450D01*
X-6254400Y28397200D01*
X-5280150Y28397200D01*
X-5121400Y28555950D01*
X-5118328Y29145200D01*
X-5130588Y29269682D01*
X-5166898Y29389380D01*
X-5225863Y29499694D01*
X-5305215Y29596385D01*
X-5401906Y29675737D01*
X-5512220Y29734702D01*
X-5631918Y29771012D01*
X-5756400Y29783272D01*
X-6095650Y29780200D01*
X-6254400Y29621450D01*
X-6508400Y29621450D01*
X-6667150Y29780200D01*
X-7006400Y29783272D01*
X-7130882Y29771012D01*
X-7250580Y29734702D01*
X-7360894Y29675737D01*
X-7457585Y29596385D01*
X-7536937Y29499694D01*
X-7595902Y29389380D01*
X-7632212Y29269682D01*
X-7644472Y29145200D01*
X-11985283Y29145200D01*
X-11475666Y29377779D01*
X-10583623Y29745142D01*
X-9691759Y30076563D01*
X-9404143Y30179199D01*
X-9403350Y30179485D01*
X-9117900Y30283490D01*
X-9117104Y30283783D01*
X-8852530Y30382189D01*
X-8851542Y30382561D01*
X-8625775Y30468676D01*
X-8624159Y30469305D01*
X-8455128Y30536437D01*
X-8453066Y30537277D01*
X-8416904Y30552378D01*
X-8283034Y30606639D01*
X-8156429Y30650810D01*
X-8026594Y30686626D01*
X-7883326Y30715316D01*
X-7716807Y30737623D01*
X-7517911Y30754006D01*
X-7278028Y30764898D01*
X-6988922Y30770806D01*
X-6642126Y30772321D01*
X-6229497Y30770075D01*
G37*
X-6229497Y30770075D02*
X-5742546Y30764720D01*
X-5611203Y30763013D01*
X-4974285Y30752795D01*
X-4415276Y30739765D01*
X-3926969Y30723346D01*
X-3502013Y30702965D01*
X-3133265Y30678070D01*
X-2813702Y30648142D01*
X-2536174Y30612690D01*
X-2293293Y30571229D01*
X-2077637Y30523270D01*
X-1879902Y30467783D01*
X-1858466Y30461035D01*
X-1855039Y30460009D01*
X-1642140Y30399526D01*
X-1632110Y30397112D01*
X-1462127Y30363443D01*
X-1443437Y30361164D01*
X-1327626Y30355699D01*
X-1302762Y30356969D01*
X-1278624Y30363065D01*
X-1266792Y30368013D01*
X-1216405Y30392140D01*
X-1195112Y30405041D01*
X-1176745Y30421848D01*
X-1162010Y30441916D01*
X-1151474Y30464473D01*
X-1148041Y30477828D01*
X-1074553Y30423491D01*
X-1071387Y30421224D01*
X-895293Y30299189D01*
X-888742Y30294941D01*
X-704702Y30183486D01*
X-696926Y30179142D01*
X-535410Y30096205D01*
X-525632Y30091697D01*
X-474226Y30070592D01*
X-332167Y30009697D01*
X-152309Y29919854D01*
X36430Y29815754D01*
X106749Y29774039D01*
X311564Y29651218D01*
X315495Y29648955D01*
X469359Y29564007D01*
X479661Y29558913D01*
X602704Y29504859D01*
X620788Y29498495D01*
X733404Y29468195D01*
X752309Y29464618D01*
X874891Y29450932D01*
X885489Y29450196D01*
X1038433Y29445987D01*
X1040665Y29445945D01*
X1055395Y29445799D01*
X1221747Y29439713D01*
X1256703Y29434023D01*
X1264142Y29413840D01*
X1277143Y29392608D01*
X1294036Y29374320D01*
X1305258Y29365422D01*
X1370822Y29319207D01*
X1399226Y29304162D01*
X1523378Y29257399D01*
X1457789Y29241290D01*
X1445811Y29237714D01*
X1306400Y29188509D01*
X1300026Y29186065D01*
X1299944Y29186031D01*
X1298808Y29185554D01*
X1156721Y29125018D01*
X1134884Y29113062D01*
X1115799Y29097075D01*
X1100199Y29077672D01*
X1088684Y29055598D01*
X1081697Y29031702D01*
X1079506Y29006902D01*
X1082196Y28982152D01*
X1089662Y28958401D01*
X1101618Y28936564D01*
X1117605Y28917479D01*
X1137008Y28901879D01*
X1155357Y28891933D01*
X1365773Y28799360D01*
X1858951Y28569569D01*
X2268254Y28350911D01*
X2574377Y28156246D01*
X2473198Y28168647D01*
X2368039Y28191482D01*
X2211399Y28246566D01*
X2023807Y28327525D01*
X1944614Y28365813D01*
X1752332Y28460767D01*
X1748685Y28462496D01*
X1616426Y28522660D01*
X1603839Y28527596D01*
X1517202Y28556346D01*
X1492918Y28561833D01*
X1479348Y28562791D01*
X1423474Y28563735D01*
X1398660Y28561713D01*
X1374717Y28554890D01*
X1357459Y28546524D01*
X1317485Y28523265D01*
X1297297Y28508695D01*
X1287558Y28499116D01*
X1258661Y28467460D01*
X1245966Y28451036D01*
X1217113Y28406633D01*
X1205659Y28384528D01*
X1198738Y28360613D01*
X1196615Y28335808D01*
X1199373Y28311064D01*
X1206905Y28287335D01*
X1218921Y28265530D01*
X1234961Y28246489D01*
X1254407Y28230943D01*
X1276512Y28219489D01*
X1301205Y28212426D01*
X1333038Y28206722D01*
X1357857Y28204754D01*
X1383146Y28207790D01*
X1429375Y28218125D01*
X1473485Y28221154D01*
X1514324Y28203117D01*
X1602362Y28131667D01*
X1694299Y28055109D01*
X1697455Y28052565D01*
X1841514Y27940190D01*
X1843139Y27938944D01*
X2021068Y27804707D01*
X2022361Y27803744D01*
X2216496Y27661110D01*
X2217356Y27660484D01*
X2273846Y27619704D01*
X2608311Y27365176D01*
X2893913Y27119274D01*
X3123029Y26890156D01*
X3287435Y26687150D01*
X3352501Y26580178D01*
X3399519Y26462586D01*
X3449432Y26293407D01*
X3489341Y26112870D01*
X3490224Y26107879D01*
X3491715Y26100671D01*
X3536142Y25913471D01*
X3538409Y25905179D01*
X3614848Y25658697D01*
X3616501Y25653732D01*
X3719414Y25364567D01*
X3720822Y25360800D01*
X3838412Y25060824D01*
X3838558Y25060453D01*
X3936595Y24812654D01*
X4026511Y24570823D01*
X4101668Y24354070D01*
X4154729Y24183644D01*
X4175325Y24102325D01*
X4176488Y24098051D01*
X4229065Y23917215D01*
X4232685Y23906550D01*
X4325552Y23668285D01*
X4328168Y23662067D01*
X4455712Y23380087D01*
X4457442Y23376421D01*
X4541097Y23206161D01*
X4541142Y23206069D01*
X4628651Y23028329D01*
X4628649Y23028330D01*
X4597500Y23043089D01*
X4574064Y23051492D01*
X4549440Y23055163D01*
X4524573Y23053958D01*
X4500418Y23047926D01*
X4477905Y23037297D01*
X4457898Y23022480D01*
X4441165Y23004045D01*
X4428351Y22982700D01*
X4419211Y22956168D01*
X4408653Y22909190D01*
X4405601Y22884481D01*
X4405945Y22871480D01*
X4414827Y22757445D01*
X4415772Y22748990D01*
X4442943Y22562574D01*
X4443365Y22559880D01*
X4487672Y22295761D01*
X4487765Y22295214D01*
X4488778Y22289332D01*
X4588084Y21637405D01*
X4657960Y20996437D01*
X4698829Y20350802D01*
X4710878Y19685937D01*
X4694227Y18987362D01*
X4648967Y18240774D01*
X4575127Y17431385D01*
X4548257Y17181890D01*
X4381525Y16008800D01*
X4139297Y14817007D01*
X4089358Y14607209D01*
X4007289Y14280660D01*
X3928509Y13995219D01*
X3846147Y13731009D01*
X3753221Y13468005D01*
X3642571Y13186014D01*
X3507129Y12865318D01*
X3344769Y12497257D01*
X3344133Y12495790D01*
X3149426Y12038907D01*
X3147111Y12033081D01*
X2994671Y11619947D01*
X2991849Y11611372D01*
X2880168Y11226464D01*
X2877476Y11215334D01*
X2805046Y10843126D01*
X2803248Y10830562D01*
X2768564Y10455528D01*
X2768025Y10443332D01*
X2769578Y10049949D01*
X2770032Y10039703D01*
X2806316Y9612444D01*
X2807190Y9604865D01*
X2876697Y9128207D01*
X2877498Y9123371D01*
X2968269Y8634004D01*
X2968745Y8631572D01*
X3036823Y8300698D01*
X3037407Y8298008D01*
X3096272Y8040331D01*
X3097542Y8035256D01*
X3150627Y7840256D01*
X3153493Y7831106D01*
X3204231Y7688266D01*
X3210865Y7672887D01*
X3262690Y7571686D01*
X3276752Y7549997D01*
X3333097Y7479915D01*
X3348495Y7463871D01*
X3375520Y7440249D01*
X3391025Y7428656D01*
X3458910Y7385553D01*
X3487538Y7372049D01*
X3569586Y7345238D01*
X3596849Y7339542D01*
X3706119Y7329010D01*
X3723169Y7328517D01*
X3872723Y7334251D01*
X3881539Y7334897D01*
X4084437Y7356883D01*
X4088602Y7357404D01*
X4357904Y7395628D01*
X4359238Y7395825D01*
X4446164Y7409106D01*
X4830938Y7458262D01*
X5191276Y7484775D01*
X5512668Y7488750D01*
X5777871Y7470553D01*
X5953980Y7436123D01*
X6138340Y7347893D01*
X6301401Y7207695D01*
X6400702Y7066098D01*
X6441285Y6955162D01*
X6489074Y6752396D01*
X6540098Y6463195D01*
X6593498Y6089427D01*
X6646198Y5657292D01*
X6646263Y5656766D01*
X6682100Y5372767D01*
X6682447Y5370228D01*
X6724703Y5082272D01*
X6725092Y5079793D01*
X6769872Y4811636D01*
X6770445Y4808453D01*
X6813856Y4583852D01*
X6814841Y4579219D01*
X6842858Y4458599D01*
X6845074Y4450333D01*
X6913055Y4227118D01*
X6915468Y4219966D01*
X7006681Y3973963D01*
X7008759Y3968718D01*
X7115548Y3715782D01*
X7117614Y3711149D01*
X7232327Y3467131D01*
X7234789Y3462177D01*
X7349770Y3242930D01*
X7353454Y3236384D01*
X7461051Y3057761D01*
X7468616Y3046591D01*
X7561172Y2924443D01*
X7576887Y2907242D01*
X7615712Y2871887D01*
X7644251Y2852282D01*
X7742054Y2803194D01*
X7756434Y2797054D01*
X7910785Y2742111D01*
X7918997Y2739498D01*
X8103099Y2687732D01*
X8108688Y2686297D01*
X8191814Y2666950D01*
X8386602Y2619546D01*
X8570157Y2566126D01*
X8712140Y2516130D01*
X8741566Y2503274D01*
X8967550Y2373084D01*
X9238430Y2178810D01*
X9547813Y1925703D01*
X9887885Y1620722D01*
X10251621Y1270568D01*
X10632400Y881719D01*
X11023734Y460585D01*
X11419150Y13603D01*
X11812267Y-452868D01*
X12197193Y-933061D01*
X12239645Y-987591D01*
X12367566Y-1155646D01*
X12511375Y-1349894D01*
X12662962Y-1558784D01*
X12814004Y-1770461D01*
X12956070Y-1972915D01*
X13080852Y-2154296D01*
X13168859Y-2286000D01*
X13081000Y-2286000D01*
X13056224Y-2288440D01*
X13032399Y-2295667D01*
X13010443Y-2307403D01*
X12991197Y-2323197D01*
X12975403Y-2342443D01*
X12963667Y-2364399D01*
X12956440Y-2388224D01*
X12954001Y-2412440D01*
X12952742Y-2698190D01*
X12951633Y-2950042D01*
X11223307Y-5926392D01*
X9514630Y-8868907D01*
X-1134198Y-8879499D01*
X-2298852Y-8880585D01*
X-3381466Y-8881433D01*
X-4384683Y-8882035D01*
X-5311139Y-8882380D01*
X-6163437Y-8882456D01*
X-6944256Y-8882255D01*
X-7656230Y-8881764D01*
X-8301980Y-8880975D01*
X-8884136Y-8879877D01*
X-9405466Y-8878458D01*
X-9868366Y-8876711D01*
X-10275345Y-8874624D01*
X-10629400Y-8872186D01*
X-10933366Y-8869385D01*
X-11188837Y-8866221D01*
X-11399340Y-8862675D01*
X-11566801Y-8858756D01*
X-11693841Y-8854464D01*
X-11774576Y-8850265D01*
X-11788278Y-8801111D01*
X-11821670Y-8638676D01*
X-11845442Y-8482050D01*
X-11851671Y-8400414D01*
X-11827957Y-8217584D01*
X-11754559Y-7983826D01*
X-11635429Y-7716560D01*
X-11476316Y-7433751D01*
X-11449621Y-7391481D01*
X-11448267Y-7389288D01*
X-11303827Y-7149951D01*
X-11298907Y-7141005D01*
X-11188345Y-6919288D01*
X-11183019Y-6907030D01*
X-11103080Y-6692900D01*
X-4435372Y-6692900D01*
X-4423112Y-6817382D01*
X-4386802Y-6937080D01*
X-4327837Y-7047394D01*
X-4248485Y-7144085D01*
X-4151794Y-7223437D01*
X-4041480Y-7282402D01*
X-3921782Y-7318712D01*
X-3797300Y-7330972D01*
X-3219450Y-7327900D01*
X-3060700Y-7169150D01*
X-3060700Y-5956300D01*
X-4273550Y-5956300D01*
X-4432300Y-6115050D01*
X-4435372Y-6692900D01*
X-11103080Y-6692900D01*
X-11098036Y-6679389D01*
X-11094201Y-6667312D01*
X-11026498Y-6410201D01*
X-11024529Y-6401488D01*
X-10965809Y-6091365D01*
X-10965173Y-6087718D01*
X-10945595Y-5964821D01*
X-10945491Y-5964151D01*
X-10873393Y-5495491D01*
X-10872037Y-5470632D01*
X-10875558Y-5445986D01*
X-10883819Y-5422500D01*
X-10893829Y-5404867D01*
X-10992808Y-5259015D01*
X-11056918Y-5132567D01*
X-11102114Y-4985919D01*
X-11105628Y-4965700D01*
X-4435372Y-4965700D01*
X-4432300Y-5543550D01*
X-4273550Y-5702300D01*
X-3060700Y-5702300D01*
X-3060700Y-5682300D01*
X-2806700Y-5682300D01*
X-2806700Y-5702300D01*
X-2786700Y-5702300D01*
X-2786700Y-5956300D01*
X-2806700Y-5956300D01*
X-2806700Y-7169150D01*
X-2647950Y-7327900D01*
X-2070100Y-7330972D01*
X-1945618Y-7318712D01*
X-1825920Y-7282402D01*
X-1715606Y-7223437D01*
X-1618915Y-7144085D01*
X-1539563Y-7047394D01*
X-1480598Y-6937080D01*
X-1463064Y-6879277D01*
X-1349002Y-6993339D01*
X-1103553Y-7157342D01*
X-830825Y-7270310D01*
X-541299Y-7327900D01*
X-246101Y-7327900D01*
X43425Y-7270310D01*
X316153Y-7157342D01*
X561602Y-6993339D01*
X770339Y-6784602D01*
X876300Y-6626019D01*
X982261Y-6784602D01*
X1190998Y-6993339D01*
X1436447Y-7157342D01*
X1709175Y-7270310D01*
X1998701Y-7327900D01*
X2293899Y-7327900D01*
X2583425Y-7270310D01*
X2856153Y-7157342D01*
X3101602Y-6993339D01*
X3310339Y-6784602D01*
X3474342Y-6539153D01*
X3587310Y-6266425D01*
X3644900Y-5976899D01*
X3644900Y-5681701D01*
X3587310Y-5392175D01*
X3474342Y-5119447D01*
X3310339Y-4873998D01*
X3101602Y-4665261D01*
X2943019Y-4559300D01*
X3101602Y-4453339D01*
X3310339Y-4244602D01*
X3474342Y-3999153D01*
X3587310Y-3726425D01*
X3629915Y-3512231D01*
X9335755Y-3512231D01*
X9551468Y-3774087D01*
X9640875Y-3861565D01*
X9745631Y-3929919D01*
X9861709Y-3976523D01*
X9984648Y-3999586D01*
X10109724Y-3998221D01*
X10232131Y-3972483D01*
X10347165Y-3923357D01*
X10450404Y-3852733D01*
X10899821Y-3471618D01*
X10919388Y-3247965D01*
X10293152Y-2501647D01*
X9355322Y-3288579D01*
X9335755Y-3512231D01*
X3629915Y-3512231D01*
X3644900Y-3436899D01*
X3644900Y-3141701D01*
X3587310Y-2852175D01*
X3474342Y-2579447D01*
X3321549Y-2350775D01*
X8601131Y-2350775D01*
X8602496Y-2475851D01*
X8628234Y-2598258D01*
X8677360Y-2713292D01*
X8747983Y-2816531D01*
X8968402Y-3074437D01*
X9192054Y-3094004D01*
X10092572Y-2338379D01*
X10487728Y-2338379D01*
X11113963Y-3084697D01*
X11337616Y-3104264D01*
X11790982Y-2727855D01*
X11878460Y-2638448D01*
X11946814Y-2533692D01*
X11993418Y-2417614D01*
X12016481Y-2294675D01*
X12015116Y-2169599D01*
X11989378Y-2047192D01*
X11940252Y-1932158D01*
X11869629Y-1828919D01*
X11649210Y-1571013D01*
X11425558Y-1551446D01*
X10487728Y-2338379D01*
X10092572Y-2338379D01*
X10129884Y-2307071D01*
X9503649Y-1560753D01*
X9279996Y-1541186D01*
X8826630Y-1917595D01*
X8739152Y-2007002D01*
X8670798Y-2111758D01*
X8624194Y-2227836D01*
X8601131Y-2350775D01*
X3321549Y-2350775D01*
X3310339Y-2333998D01*
X3101602Y-2125261D01*
X2856153Y-1961258D01*
X2583425Y-1848290D01*
X2293899Y-1790700D01*
X1998701Y-1790700D01*
X1709175Y-1848290D01*
X1436447Y-1961258D01*
X1190998Y-2125261D01*
X982261Y-2333998D01*
X876300Y-2492581D01*
X770339Y-2333998D01*
X561602Y-2125261D01*
X316153Y-1961258D01*
X43425Y-1848290D01*
X-246101Y-1790700D01*
X-541299Y-1790700D01*
X-830825Y-1848290D01*
X-1103553Y-1961258D01*
X-1349002Y-2125261D01*
X-1557739Y-2333998D01*
X-1663700Y-2492581D01*
X-1769661Y-2333998D01*
X-1978398Y-2125261D01*
X-2223847Y-1961258D01*
X-2496575Y-1848290D01*
X-2786101Y-1790700D01*
X-3081299Y-1790700D01*
X-3370825Y-1848290D01*
X-3643553Y-1961258D01*
X-3889002Y-2125261D01*
X-4097739Y-2333998D01*
X-4261742Y-2579447D01*
X-4374710Y-2852175D01*
X-4432300Y-3141701D01*
X-4432300Y-3436899D01*
X-4374710Y-3726425D01*
X-4261742Y-3999153D01*
X-4097739Y-4244602D01*
X-3983677Y-4358664D01*
X-4041480Y-4376198D01*
X-4151794Y-4435163D01*
X-4248485Y-4514515D01*
X-4327837Y-4611206D01*
X-4386802Y-4721520D01*
X-4423112Y-4841218D01*
X-4435372Y-4965700D01*
X-11105628Y-4965700D01*
X-11107343Y-4955839D01*
X-11109050Y-4947634D01*
X-11138014Y-4828304D01*
X-11141103Y-4817637D01*
X-11198440Y-4647802D01*
X-11200561Y-4641991D01*
X-11277136Y-4447052D01*
X-11278989Y-4442587D01*
X-11341538Y-4299600D01*
X-11445981Y-4054176D01*
X-11506934Y-3858139D01*
X-11525357Y-3698854D01*
X-11503827Y-3557429D01*
X-11437161Y-3409031D01*
X-11313790Y-3236293D01*
X-11126355Y-3029250D01*
X-10885050Y-2791390D01*
X-10512366Y-2432728D01*
X-10511589Y-2431973D01*
X-10195911Y-2122944D01*
X-10194758Y-2121801D01*
X-9930889Y-1856798D01*
X-9929222Y-1855092D01*
X-9711435Y-1627994D01*
X-9709095Y-1625487D01*
X-9531661Y-1430174D01*
X-9528504Y-1426565D01*
X-9385696Y-1256918D01*
X-9381689Y-1251905D01*
X-9267777Y-1101804D01*
X-9263169Y-1095320D01*
X-9173481Y-960358D01*
X-9171095Y-956629D01*
X-8954390Y-604495D01*
X-8943483Y-582115D01*
X-8937151Y-558037D01*
X-8935639Y-533187D01*
X-8939003Y-508519D01*
X-8947115Y-484981D01*
X-8959664Y-463479D01*
X-8969732Y-451251D01*
X-9261151Y-139202D01*
X-9404233Y23762D01*
X-9523865Y185039D01*
X-9639152Y372633D01*
X-9767119Y613568D01*
X-9796545Y672236D01*
X-9796719Y672581D01*
X-9903558Y883981D01*
X-9905181Y887086D01*
X-9983865Y1032656D01*
X-9988674Y1040810D01*
X-10046796Y1131470D01*
X-10062436Y1151233D01*
X-10107587Y1197902D01*
X-10126569Y1214012D01*
X-10157774Y1229766D01*
X-10197547Y1243365D01*
X-10221781Y1249072D01*
X-10253867Y1249278D01*
X-10276523Y1246541D01*
X-10285011Y1245223D01*
X-10561831Y1192596D01*
X-10908258Y1149430D01*
X-11332262Y1114927D01*
X-11835914Y1089106D01*
X-12385410Y1072596D01*
X-12892195Y1064861D01*
X-13322506Y1065872D01*
X-13684032Y1076139D01*
X-13984778Y1096079D01*
X-14232610Y1125951D01*
X-14435664Y1165813D01*
X-14605883Y1216570D01*
X-14614864Y1219866D01*
X-14887326Y1347485D01*
X-15168208Y1524254D01*
X-15441691Y1736734D01*
X-15687907Y1968364D01*
X-15887372Y2201576D01*
X-16021567Y2415776D01*
X-16051586Y2479940D01*
X-16072609Y2538285D01*
X-16086734Y2604813D01*
X-16095875Y2700196D01*
X-16100036Y2839987D01*
X-16099812Y3036971D01*
X-16096344Y3303863D01*
X-16095754Y3342388D01*
X-16095745Y3343108D01*
X-16094058Y3518092D01*
X-15298748Y3518092D01*
X-15185604Y3198251D01*
X-15131508Y3085469D01*
X-15056449Y2985409D01*
X-14963310Y2901915D01*
X-14855673Y2838195D01*
X-14737674Y2796699D01*
X-14613845Y2779019D01*
X-14488947Y2785838D01*
X-14367779Y2816893D01*
X-13815116Y3021315D01*
X-13720235Y3224787D01*
X-14053448Y4140282D01*
X-15203867Y3721564D01*
X-15298748Y3518092D01*
X-16094058Y3518092D01*
X-16093209Y3606050D01*
X-16093203Y3607497D01*
X-16093633Y3853708D01*
X-16093647Y3855375D01*
X-16096799Y4067297D01*
X-16096863Y4069872D01*
X-16102493Y4229948D01*
X-16102825Y4235675D01*
X-16109531Y4318979D01*
X-16113625Y4342310D01*
X-16144375Y4454677D01*
X-16151685Y4474646D01*
X-16218690Y4618933D01*
X-15651003Y4618933D01*
X-15644184Y4494035D01*
X-15613129Y4372867D01*
X-15494212Y4055127D01*
X-15290740Y3960246D01*
X-14557411Y4227156D01*
X-13814766Y4227156D01*
X-13481553Y3311660D01*
X-13278081Y3216780D01*
X-12723317Y3415428D01*
X-12610535Y3469524D01*
X-12510475Y3544584D01*
X-12426981Y3637722D01*
X-12363261Y3745359D01*
X-12321765Y3863359D01*
X-12304085Y3987187D01*
X-12310904Y4112085D01*
X-12341959Y4233253D01*
X-12460876Y4550993D01*
X-12664348Y4645874D01*
X-13814766Y4227156D01*
X-14557411Y4227156D01*
X-14140322Y4378964D01*
X-14473535Y5294460D01*
X-14659835Y5381333D01*
X-14234853Y5381333D01*
X-13901640Y4465838D01*
X-12751221Y4884556D01*
X-12656340Y5088028D01*
X-12769484Y5407869D01*
X-12823580Y5520651D01*
X-12898639Y5620711D01*
X-12991778Y5704205D01*
X-13099415Y5767925D01*
X-13217414Y5809421D01*
X-13341243Y5827101D01*
X-13466141Y5820282D01*
X-13587309Y5789227D01*
X-14139972Y5584805D01*
X-14234853Y5381333D01*
X-14659835Y5381333D01*
X-14677007Y5389340D01*
X-15231771Y5190692D01*
X-15344553Y5136596D01*
X-15444613Y5061536D01*
X-15528107Y4968398D01*
X-15591827Y4860761D01*
X-15633323Y4742761D01*
X-15651003Y4618933D01*
X-16218690Y4618933D01*
X-16219888Y4621512D01*
X-16225195Y4631705D01*
X-16336348Y4823487D01*
X-16339504Y4828645D01*
X-16492985Y5066580D01*
X-16493295Y5067058D01*
X-16656699Y5317897D01*
X-16773375Y5513893D01*
X-16850670Y5671628D01*
X-16897360Y5809073D01*
X-16922568Y5948318D01*
X-16932678Y6112654D01*
X-16933576Y6197910D01*
X-16933638Y6200755D01*
X-16941811Y6448745D01*
X-16942994Y6462350D01*
X-16972417Y6670349D01*
X-16976255Y6688157D01*
X-17034857Y6888860D01*
X-17039814Y6902771D01*
X-17135525Y7128872D01*
X-17137979Y7134310D01*
X-17182372Y7226821D01*
X-17240705Y7354599D01*
X-17280834Y7468402D01*
X-17305582Y7583906D01*
X-17316099Y7717525D01*
X-17311577Y7884219D01*
X-17290891Y8096316D01*
X-17253506Y8364901D01*
X-17199302Y8701051D01*
X-17169928Y8874444D01*
X-17168337Y8888663D01*
X-17164802Y8952769D01*
X-17165874Y8977643D01*
X-17171778Y9001829D01*
X-17182865Y9025364D01*
X-17210391Y9070992D01*
X-17225278Y9090947D01*
X-17243773Y9107613D01*
X-17257154Y9116238D01*
X-17332749Y9158507D01*
X-17348961Y9166125D01*
X-17471075Y9213304D01*
X-17838038Y9385929D01*
X-18157337Y9612966D01*
X-18423903Y9887058D01*
X-18629949Y10202350D01*
X-18653017Y10248984D01*
X-18710936Y10377533D01*
X-18745094Y10476532D01*
X-18763866Y10577209D01*
X-18772725Y10714271D01*
X-18774832Y10915494D01*
X-18774833Y10921381D01*
X-18772842Y11125061D01*
X-18764217Y11263620D01*
X-18745895Y11364302D01*
X-18712680Y11461421D01*
X-18656653Y11585374D01*
X-18595686Y11700039D01*
X-18495888Y11871559D01*
X-18366994Y12083562D01*
X-18219307Y12319066D01*
X-18062033Y12562932D01*
X-18033481Y12606445D01*
X-18033029Y12607138D01*
X-17756670Y13034354D01*
X-17755294Y13036529D01*
X-17531864Y13397770D01*
X-17529893Y13401068D01*
X-17359353Y13696407D01*
X-17356326Y13701963D01*
X-17238632Y13931474D01*
X-17233571Y13942641D01*
X-17168683Y14106399D01*
X-17161802Y14130456D01*
X-17147757Y14207675D01*
X-17145724Y14232489D01*
X-17149990Y14263105D01*
X-17176450Y14362396D01*
X-17185188Y14385708D01*
X-17198306Y14406868D01*
X-17214133Y14424023D01*
X-17305945Y14506787D01*
X-17324814Y14520860D01*
X-17340543Y14530460D01*
X-17355065Y14540420D01*
X-17001992Y14540420D01*
X-16989732Y14415938D01*
X-16953422Y14296240D01*
X-16894457Y14185926D01*
X-16815105Y14089235D01*
X-16718414Y14009883D01*
X-16608100Y13950918D01*
X-16488402Y13914608D01*
X-16363920Y13902348D01*
X-15774670Y13905420D01*
X-15615920Y14064170D01*
X-15615920Y15038420D01*
X-15361920Y15038420D01*
X-15361920Y14064170D01*
X-15203170Y13905420D01*
X-14613920Y13902348D01*
X-14489438Y13914608D01*
X-14369740Y13950918D01*
X-14259426Y14009883D01*
X-14162735Y14089235D01*
X-14083383Y14185926D01*
X-14024418Y14296240D01*
X-13988108Y14415938D01*
X-13975848Y14540420D01*
X-13978920Y14879670D01*
X-14137670Y15038420D01*
X-15361920Y15038420D01*
X-15615920Y15038420D01*
X-16840170Y15038420D01*
X-16998920Y14879670D01*
X-17001992Y14540420D01*
X-17355065Y14540420D01*
X-17433153Y14593975D01*
X-17572667Y14700990D01*
X-17741996Y14837587D01*
X-17922430Y14988280D01*
X-18096142Y15138184D01*
X-18245024Y15272089D01*
X-18349651Y15373296D01*
X-18442275Y15491757D01*
X-18512390Y15635201D01*
X-18557257Y15790420D01*
X-17001992Y15790420D01*
X-16998920Y15451170D01*
X-16840170Y15292420D01*
X-15615920Y15292420D01*
X-15615920Y16266670D01*
X-15361920Y16266670D01*
X-15361920Y15292420D01*
X-14137670Y15292420D01*
X-13978920Y15451170D01*
X-13975848Y15790420D01*
X-13988108Y15914902D01*
X-14024418Y16034600D01*
X-14083383Y16144914D01*
X-14162735Y16241605D01*
X-14259426Y16320957D01*
X-14369740Y16379922D01*
X-14489438Y16416232D01*
X-14613920Y16428492D01*
X-15203170Y16425420D01*
X-15361920Y16266670D01*
X-15615920Y16266670D01*
X-15774670Y16425420D01*
X-16363920Y16428492D01*
X-16488402Y16416232D01*
X-16608100Y16379922D01*
X-16718414Y16320957D01*
X-16815105Y16241605D01*
X-16894457Y16144914D01*
X-16953422Y16034600D01*
X-16989732Y15914902D01*
X-17001992Y15790420D01*
X-18557257Y15790420D01*
X-18568213Y15828322D01*
X-18612269Y16088829D01*
X-18633687Y16278428D01*
X-18644491Y16393270D01*
X-18652442Y16498050D01*
X-18657126Y16601493D01*
X-18658172Y16713540D01*
X-18655082Y16844070D01*
X-18647291Y17002517D01*
X-18634269Y17197689D01*
X-18615517Y17438411D01*
X-18590555Y17733549D01*
X-18558913Y18091950D01*
X-18536529Y18340420D01*
X-17001992Y18340420D01*
X-17001992Y17590420D01*
X-16984928Y17417166D01*
X-16934392Y17250570D01*
X-16852325Y17097034D01*
X-16741882Y16962458D01*
X-16607306Y16852015D01*
X-16453770Y16769948D01*
X-16287174Y16719412D01*
X-16113920Y16702348D01*
X-14863920Y16702348D01*
X-14690666Y16719412D01*
X-14524070Y16769948D01*
X-14370534Y16852015D01*
X-14235958Y16962458D01*
X-14125515Y17097034D01*
X-14043448Y17250570D01*
X-13992912Y17417166D01*
X-13975848Y17590420D01*
X-13975848Y18340420D01*
X-13992912Y18513674D01*
X-14043448Y18680270D01*
X-14125515Y18833806D01*
X-14235958Y18968382D01*
X-14290176Y19012878D01*
X-14209194Y19093860D01*
X-14057315Y19047788D01*
X-13884061Y19030724D01*
X-12984059Y19030724D01*
X-12810805Y19047788D01*
X-12644209Y19098324D01*
X-12490673Y19180391D01*
X-12357639Y19289569D01*
X-12357640Y14845523D01*
X-12361316Y14808200D01*
X-12357640Y14770878D01*
X-12357640Y14770868D01*
X-12357639Y14770858D01*
X-12357640Y12855962D01*
X-13289129Y11924472D01*
X-13302401Y11924472D01*
X-13475655Y11907408D01*
X-13642251Y11856872D01*
X-13795787Y11774805D01*
X-13930362Y11664362D01*
X-14040805Y11529787D01*
X-14122872Y11376251D01*
X-14173408Y11209655D01*
X-14190472Y11036401D01*
X-14190472Y10386399D01*
X-14173408Y10213145D01*
X-14122872Y10046549D01*
X-14040805Y9893013D01*
X-13930362Y9758438D01*
X-13842584Y9686400D01*
X-13930362Y9614362D01*
X-14040805Y9479787D01*
X-14122872Y9326251D01*
X-14173408Y9159655D01*
X-14190472Y8986401D01*
X-14190472Y8336736D01*
X-14265068Y8362969D01*
X-14437413Y8387574D01*
X-14611247Y8378083D01*
X-14779889Y8334862D01*
X-15954504Y7907337D01*
X-16111473Y7832045D01*
X-16250738Y7727577D01*
X-16366946Y7597947D01*
X-16455632Y7448137D01*
X-16513387Y7283904D01*
X-16537992Y7111559D01*
X-16528501Y6937725D01*
X-16485280Y6769083D01*
X-16228765Y6064314D01*
X-16153473Y5907345D01*
X-16049005Y5768080D01*
X-15919375Y5651872D01*
X-15769565Y5563186D01*
X-15605332Y5505431D01*
X-15432987Y5480826D01*
X-15259153Y5490317D01*
X-15090511Y5533538D01*
X-13915896Y5961063D01*
X-13758927Y6036355D01*
X-13619662Y6140823D01*
X-13503454Y6270453D01*
X-13414768Y6420263D01*
X-13399055Y6464943D01*
X-12415670Y7448328D01*
X-12402399Y7448328D01*
X-12229145Y7465392D01*
X-12062549Y7515928D01*
X-11909013Y7597995D01*
X-11774438Y7708438D01*
X-11663995Y7843013D01*
X-11581928Y7996549D01*
X-11531392Y8163145D01*
X-11514328Y8336399D01*
X-11514328Y8986401D01*
X-11531392Y9159655D01*
X-11581928Y9326251D01*
X-11663995Y9479787D01*
X-11774438Y9614362D01*
X-11862216Y9686400D01*
X-11774438Y9758438D01*
X-11663995Y9893013D01*
X-11581928Y10046549D01*
X-11531392Y10213145D01*
X-11514328Y10386399D01*
X-11514328Y11036401D01*
X-11531392Y11209655D01*
X-11581928Y11376251D01*
X-11618788Y11445211D01*
X-11086636Y11977362D01*
X-11057639Y12001159D01*
X-10962666Y12116884D01*
X-10892094Y12248913D01*
X-10848637Y12392174D01*
X-10837640Y12503827D01*
X-10837640Y12503828D01*
X-10833963Y12541160D01*
X-10837640Y12578493D01*
X-10837640Y12973398D01*
X-10259840Y12395598D01*
X-10259840Y12097846D01*
X-10354334Y12047337D01*
X-10451025Y11967985D01*
X-10530377Y11871294D01*
X-10589342Y11760980D01*
X-10625652Y11641282D01*
X-10637912Y11516800D01*
X-10637912Y8366800D01*
X-10625652Y8242318D01*
X-10589342Y8122620D01*
X-10530377Y8012306D01*
X-10451025Y7915615D01*
X-10354334Y7836263D01*
X-10244020Y7777298D01*
X-10124322Y7740988D01*
X-9999840Y7728728D01*
X-9035319Y7728728D01*
X-9035319Y7104872D01*
X-9999840Y7104872D01*
X-10124322Y7092612D01*
X-10244020Y7056302D01*
X-10354334Y6997337D01*
X-10451025Y6917985D01*
X-10530377Y6821294D01*
X-10589342Y6710980D01*
X-10625652Y6591282D01*
X-10637912Y6466800D01*
X-10637912Y5739569D01*
X-10799131Y5806348D01*
X-10979771Y5842280D01*
X-11163949Y5842280D01*
X-11344589Y5806348D01*
X-11514749Y5735866D01*
X-11667888Y5633542D01*
X-11798122Y5503308D01*
X-11900446Y5350169D01*
X-11970928Y5180009D01*
X-12006860Y4999369D01*
X-12006860Y4815191D01*
X-11970928Y4634551D01*
X-11900446Y4464391D01*
X-11798122Y4311252D01*
X-11667888Y4181018D01*
X-11514749Y4078694D01*
X-11344589Y4008212D01*
X-11163949Y3972280D01*
X-10979771Y3972280D01*
X-10799131Y4008212D01*
X-10637912Y4074991D01*
X-10637912Y3316800D01*
X-10625652Y3192318D01*
X-10589342Y3072620D01*
X-10530377Y2962306D01*
X-10451025Y2865615D01*
X-10354334Y2786263D01*
X-10244020Y2727298D01*
X-10124322Y2690988D01*
X-9999840Y2678728D01*
X-8999840Y2678728D01*
X-8875358Y2690988D01*
X-8755660Y2727298D01*
X-8645346Y2786263D01*
X-8548655Y2865615D01*
X-8469303Y2962306D01*
X-8410338Y3072620D01*
X-8374028Y3192318D01*
X-8361768Y3316800D01*
X-8361768Y4468925D01*
X-8273635Y4380793D01*
X-8249841Y4351799D01*
X-8220848Y4328005D01*
X-8220844Y4328001D01*
X-8181305Y4295553D01*
X-8134116Y4256826D01*
X-8097912Y4237474D01*
X-8097912Y3316800D01*
X-8085652Y3192318D01*
X-8049342Y3072620D01*
X-7990377Y2962306D01*
X-7911025Y2865615D01*
X-7814334Y2786263D01*
X-7704020Y2727298D01*
X-7584322Y2690988D01*
X-7459840Y2678728D01*
X-6459840Y2678728D01*
X-6335358Y2690988D01*
X-6215660Y2727298D01*
X-6105346Y2786263D01*
X-6008655Y2865615D01*
X-5929303Y2962306D01*
X-5870338Y3072620D01*
X-5834028Y3192318D01*
X-5821768Y3316800D01*
X-5557912Y3316800D01*
X-5545652Y3192318D01*
X-5509342Y3072620D01*
X-5450377Y2962306D01*
X-5371025Y2865615D01*
X-5274334Y2786263D01*
X-5164020Y2727298D01*
X-5044322Y2690988D01*
X-4919840Y2678728D01*
X-4705590Y2681800D01*
X-4546840Y2840550D01*
X-4546840Y4764800D01*
X-4292840Y4764800D01*
X-4292840Y2840550D01*
X-4134090Y2681800D01*
X-3919840Y2678728D01*
X-3795358Y2690988D01*
X-3675660Y2727298D01*
X-3565346Y2786263D01*
X-3468655Y2865615D01*
X-3389303Y2962306D01*
X-3330338Y3072620D01*
X-3294028Y3192318D01*
X-3281768Y3316800D01*
X-3284840Y4606050D01*
X-3443590Y4764800D01*
X-4292840Y4764800D01*
X-4546840Y4764800D01*
X-5396090Y4764800D01*
X-5554840Y4606050D01*
X-5557912Y3316800D01*
X-5821768Y3316800D01*
X-5821768Y6250404D01*
X-5557396Y6250404D01*
X-5554840Y5177550D01*
X-5396090Y5018800D01*
X-4546840Y5018800D01*
X-4546840Y5038800D01*
X-4292840Y5038800D01*
X-4292840Y5018800D01*
X-3443590Y5018800D01*
X-3284840Y5177550D01*
X-3282284Y6250404D01*
X-2489614Y6250404D01*
X-2458405Y6192017D01*
X-2347962Y6057442D01*
X-2260184Y5985404D01*
X-2347962Y5913366D01*
X-2458405Y5778791D01*
X-2540472Y5625255D01*
X-2591008Y5458659D01*
X-2608072Y5285405D01*
X-2608072Y4635403D01*
X-2591008Y4462149D01*
X-2540472Y4295553D01*
X-2458405Y4142017D01*
X-2347962Y4007442D01*
X-2213387Y3896999D01*
X-2059851Y3814932D01*
X-1893255Y3764396D01*
X-1720001Y3747332D01*
X-1706729Y3747332D01*
X2729410Y-688809D01*
X2753204Y-717802D01*
X2782197Y-741596D01*
X2782201Y-741600D01*
X2833726Y-783885D01*
X2868929Y-812775D01*
X3000958Y-883347D01*
X3144219Y-926804D01*
X3255872Y-937801D01*
X3255881Y-937801D01*
X3293204Y-941477D01*
X3330527Y-937801D01*
X7171541Y-937801D01*
X7590966Y-1437652D01*
X7715403Y-1559404D01*
X7861202Y-1654540D01*
X8022760Y-1719404D01*
X8193868Y-1751503D01*
X8367950Y-1749604D01*
X8538317Y-1713779D01*
X8698421Y-1645406D01*
X8842110Y-1547112D01*
X9020428Y-1397485D01*
X9698224Y-1397485D01*
X10324460Y-2143803D01*
X11262290Y-1356871D01*
X11281857Y-1133219D01*
X11066144Y-871363D01*
X10976737Y-783885D01*
X10871981Y-715531D01*
X10755903Y-668927D01*
X10632964Y-645864D01*
X10507888Y-647229D01*
X10385481Y-672967D01*
X10270447Y-722093D01*
X10167208Y-792717D01*
X9717791Y-1173832D01*
X9698224Y-1397485D01*
X9020428Y-1397485D01*
X9799665Y-743627D01*
X9921417Y-619190D01*
X10016553Y-473391D01*
X10081417Y-311833D01*
X10113516Y-140725D01*
X10111617Y33357D01*
X10075792Y203724D01*
X10007419Y363828D01*
X9909125Y507517D01*
X9427034Y1082050D01*
X9302597Y1203802D01*
X9156798Y1298938D01*
X8995240Y1363802D01*
X8824132Y1395901D01*
X8650050Y1394002D01*
X8479683Y1358177D01*
X8319579Y1289804D01*
X8175890Y1191510D01*
X7449742Y582199D01*
X3608008Y582199D01*
X-36388Y4226593D01*
X472Y4295553D01*
X51008Y4462149D01*
X68072Y4635403D01*
X68072Y5285405D01*
X51008Y5458659D01*
X472Y5625255D01*
X-81595Y5778791D01*
X-192038Y5913366D01*
X-279816Y5985404D01*
X-192038Y6057442D01*
X-81595Y6192017D01*
X472Y6345553D01*
X51008Y6512149D01*
X68072Y6685403D01*
X68072Y7335405D01*
X51008Y7508659D01*
X472Y7675255D01*
X-81595Y7828791D01*
X-192038Y7963366D01*
X-326613Y8073809D01*
X-480149Y8155876D01*
X-646745Y8206412D01*
X-819999Y8223476D01*
X-1720001Y8223476D01*
X-1893255Y8206412D01*
X-2059851Y8155876D01*
X-2213387Y8073809D01*
X-2347962Y7963366D01*
X-2458405Y7828791D01*
X-2489614Y7770404D01*
X-3698386Y7770404D01*
X-3675660Y7777298D01*
X-3565346Y7836263D01*
X-3468655Y7915615D01*
X-3389303Y8012306D01*
X-3330338Y8122620D01*
X-3294028Y8242318D01*
X-3281768Y8366800D01*
X-3281768Y11516800D01*
X-3294028Y11641282D01*
X-3330338Y11760980D01*
X-3389303Y11871294D01*
X-3468655Y11967985D01*
X-3565346Y12047337D01*
X-3675660Y12106302D01*
X-3751917Y12129434D01*
X-3784866Y12191076D01*
X-3879839Y12306801D01*
X-3908837Y12330599D01*
X-5749830Y14171591D01*
X-5749830Y17805306D01*
X-4571113Y16626588D01*
X-4547319Y16597595D01*
X-4518326Y16573801D01*
X-4518322Y16573797D01*
X-4447633Y16515785D01*
X-4431594Y16502622D01*
X-4428659Y16501053D01*
X-4420072Y16472745D01*
X-4338005Y16319209D01*
X-4227562Y16184634D01*
X-4139784Y16112596D01*
X-4227562Y16040558D01*
X-4338005Y15905983D01*
X-4420072Y15752447D01*
X-4470608Y15585851D01*
X-4487672Y15412597D01*
X-4487672Y14762595D01*
X-4470608Y14589341D01*
X-4420072Y14422745D01*
X-4338005Y14269209D01*
X-4227562Y14134634D01*
X-4092987Y14024191D01*
X-3939451Y13942124D01*
X-3772855Y13891588D01*
X-3599601Y13874524D01*
X-2699599Y13874524D01*
X-2526345Y13891588D01*
X-2359749Y13942124D01*
X-2206213Y14024191D01*
X-2071638Y14134634D01*
X-1961195Y14269209D01*
X-1929986Y14327596D01*
X-910926Y14327596D01*
X-873604Y14323920D01*
X-836282Y14327596D01*
X-836271Y14327596D01*
X-724618Y14338593D01*
X-581357Y14382050D01*
X-449328Y14452622D01*
X-333603Y14547595D01*
X-309800Y14576599D01*
X343066Y15229465D01*
X341128Y15015400D01*
X353388Y14890918D01*
X389698Y14771220D01*
X448663Y14660906D01*
X528015Y14564215D01*
X624706Y14484863D01*
X735020Y14425898D01*
X854718Y14389588D01*
X979200Y14377328D01*
X1568450Y14380400D01*
X1727200Y14539150D01*
X1727200Y15513400D01*
X1981200Y15513400D01*
X1981200Y14539150D01*
X2139950Y14380400D01*
X2729200Y14377328D01*
X2853682Y14389588D01*
X2973380Y14425898D01*
X3083694Y14484863D01*
X3180385Y14564215D01*
X3259737Y14660906D01*
X3318702Y14771220D01*
X3355012Y14890918D01*
X3367272Y15015400D01*
X3364200Y15354650D01*
X3205450Y15513400D01*
X1981200Y15513400D01*
X1727200Y15513400D01*
X1707200Y15513400D01*
X1707200Y15767400D01*
X1727200Y15767400D01*
X1727200Y15787400D01*
X1981200Y15787400D01*
X1981200Y15767400D01*
X3205450Y15767400D01*
X3364200Y15926150D01*
X3367272Y16265400D01*
X3355012Y16389882D01*
X3318702Y16509580D01*
X3259737Y16619894D01*
X3180385Y16716585D01*
X3083694Y16795937D01*
X2973380Y16854902D01*
X2853682Y16891212D01*
X2729200Y16903472D01*
X2139950Y16900400D01*
X1981202Y16741652D01*
X1981202Y16867599D01*
X2290931Y17177328D01*
X2479200Y17177328D01*
X2652454Y17194392D01*
X2819050Y17244928D01*
X2972586Y17326995D01*
X3107162Y17437438D01*
X3217605Y17572014D01*
X3299672Y17725550D01*
X3350208Y17892146D01*
X3367272Y18065400D01*
X3367272Y18815400D01*
X3350208Y18988654D01*
X3299672Y19155250D01*
X3217605Y19308786D01*
X3107162Y19443362D01*
X2972586Y19553805D01*
X2819050Y19635872D01*
X2652454Y19686408D01*
X2479200Y19703472D01*
X1229200Y19703472D01*
X1055946Y19686408D01*
X889350Y19635872D01*
X735814Y19553805D01*
X601238Y19443362D01*
X490795Y19308786D01*
X408728Y19155250D01*
X358192Y18988654D01*
X341128Y18815400D01*
X341128Y18065400D01*
X358192Y17892146D01*
X408728Y17725550D01*
X490795Y17572014D01*
X511177Y17547179D01*
X-1188405Y15847596D01*
X-1929986Y15847596D01*
X-1961195Y15905983D01*
X-2071638Y16040558D01*
X-2159416Y16112596D01*
X-2071638Y16184634D01*
X-1961195Y16319209D01*
X-1879128Y16472745D01*
X-1828592Y16639341D01*
X-1811528Y16812595D01*
X-1811528Y17462597D01*
X-1828592Y17635851D01*
X-1879128Y17802447D01*
X-1961195Y17955983D01*
X-2071638Y18090558D01*
X-2206213Y18201001D01*
X-2359749Y18283068D01*
X-2526345Y18333604D01*
X-2699599Y18350668D01*
X-3599601Y18350668D01*
X-3772855Y18333604D01*
X-3939451Y18283068D01*
X-4029731Y18234812D01*
X-5255841Y19460920D01*
X-5255841Y20299800D01*
X-4050912Y20299800D01*
X-4038652Y20175318D01*
X-4002342Y20055620D01*
X-3943377Y19945306D01*
X-3864025Y19848615D01*
X-3767334Y19769263D01*
X-3657020Y19710298D01*
X-3537322Y19673988D01*
X-3412840Y19661728D01*
X-2848590Y19664800D01*
X-2689840Y19823550D01*
X-2689840Y20497800D01*
X-2435840Y20497800D01*
X-2435840Y19823550D01*
X-2277090Y19664800D01*
X-1712840Y19661728D01*
X-1588358Y19673988D01*
X-1468660Y19710298D01*
X-1358346Y19769263D01*
X-1261655Y19848615D01*
X-1182303Y19945306D01*
X-1123338Y20055620D01*
X-1087028Y20175318D01*
X-1074768Y20299800D01*
X-1077840Y20339050D01*
X-1236590Y20497800D01*
X-2435840Y20497800D01*
X-2689840Y20497800D01*
X-3889090Y20497800D01*
X-4047840Y20339050D01*
X-4050912Y20299800D01*
X-5255841Y20299800D01*
X-5255841Y20496998D01*
X-4050912Y21701926D01*
X-4050912Y21569800D01*
X-4038652Y21445318D01*
X-4002342Y21325620D01*
X-3967160Y21259800D01*
X-4002342Y21193980D01*
X-4038652Y21074282D01*
X-4050912Y20949800D01*
X-4047840Y20910550D01*
X-3889090Y20751800D01*
X-2689840Y20751800D01*
X-2689840Y20771800D01*
X-2435840Y20771800D01*
X-2435840Y20751800D01*
X-1236590Y20751800D01*
X-1077840Y20910550D01*
X-1074768Y20949800D01*
X-1087028Y21074282D01*
X-1105386Y21134800D01*
X522438Y21134800D01*
X559760Y21131124D01*
X597082Y21134800D01*
X597093Y21134800D01*
X708746Y21145797D01*
X852007Y21189254D01*
X984036Y21259826D01*
X1099761Y21354799D01*
X1123564Y21383803D01*
X1376529Y21636768D01*
X1389801Y21636768D01*
X1563055Y21653832D01*
X1729651Y21704368D01*
X1883187Y21786435D01*
X2017762Y21896878D01*
X2128205Y22031453D01*
X2210272Y22184989D01*
X2260808Y22351585D01*
X2277872Y22524839D01*
X2277872Y23174841D01*
X2260808Y23348095D01*
X2210272Y23514691D01*
X2128205Y23668227D01*
X2017762Y23802802D01*
X1929984Y23874840D01*
X2017762Y23946878D01*
X2128205Y24081453D01*
X2210272Y24234989D01*
X2260808Y24401585D01*
X2277872Y24574839D01*
X2277872Y25224841D01*
X2260808Y25398095D01*
X2210272Y25564691D01*
X2128205Y25718227D01*
X2017762Y25852802D01*
X1883187Y25963245D01*
X1729651Y26045312D01*
X1563055Y26095848D01*
X1389801Y26112912D01*
X1376530Y26112912D01*
X-1291756Y28781197D01*
X-1315559Y28810201D01*
X-1431284Y28905174D01*
X-1563313Y28975746D01*
X-1706574Y29019203D01*
X-1818227Y29030200D01*
X-1818238Y29030200D01*
X-1855560Y29033876D01*
X-1892882Y29030200D01*
X-2331624Y29030200D01*
X-2335392Y29068454D01*
X-2385928Y29235050D01*
X-2467995Y29388586D01*
X-2578438Y29523162D01*
X-2713014Y29633605D01*
X-2866550Y29715672D01*
X-3033146Y29766208D01*
X-3206400Y29783272D01*
X-3956400Y29783272D01*
X-4129654Y29766208D01*
X-4296250Y29715672D01*
X-4449786Y29633605D01*
X-4584362Y29523162D01*
X-4694805Y29388586D01*
X-4776872Y29235050D01*
X-4827408Y29068454D01*
X-4844472Y28895200D01*
X-4844472Y27645200D01*
X-4827408Y27471946D01*
X-4776872Y27305350D01*
X-4694805Y27151814D01*
X-4584362Y27017238D01*
X-4449786Y26906795D01*
X-4296250Y26824728D01*
X-4129654Y26774192D01*
X-3956400Y26757128D01*
X-3206400Y26757128D01*
X-3033146Y26774192D01*
X-2866550Y26824728D01*
X-2713014Y26906795D01*
X-2578438Y27017238D01*
X-2467995Y27151814D01*
X-2385928Y27305350D01*
X-2335392Y27471946D01*
X-2331624Y27510200D01*
X-2170361Y27510200D01*
X-293812Y25633650D01*
X-330672Y25564691D01*
X-381208Y25398095D01*
X-398272Y25224841D01*
X-398272Y24574839D01*
X-381208Y24401585D01*
X-330672Y24234989D01*
X-248605Y24081453D01*
X-138162Y23946878D01*
X-50384Y23874840D01*
X-138162Y23802802D01*
X-248605Y23668227D01*
X-330672Y23514691D01*
X-381208Y23348095D01*
X-398272Y23174841D01*
X-398272Y22654800D01*
X-1105386Y22654800D01*
X-1087028Y22715318D01*
X-1074768Y22839800D01*
X-1074768Y23489800D01*
X-1087028Y23614282D01*
X-1123338Y23733980D01*
X-1158520Y23799800D01*
X-1123338Y23865620D01*
X-1087028Y23985318D01*
X-1074768Y24109800D01*
X-1074768Y24759800D01*
X-1087028Y24884282D01*
X-1123338Y25003980D01*
X-1182303Y25114294D01*
X-1261655Y25210985D01*
X-1358346Y25290337D01*
X-1468660Y25349302D01*
X-1588358Y25385612D01*
X-1712840Y25397872D01*
X-3412840Y25397872D01*
X-3537322Y25385612D01*
X-3657020Y25349302D01*
X-3767334Y25290337D01*
X-3864025Y25210985D01*
X-3911029Y25153711D01*
X-3955087Y25140346D01*
X-4087116Y25069774D01*
X-4202841Y24974801D01*
X-4226639Y24945803D01*
X-6847840Y22324601D01*
X-8199036Y23675797D01*
X-8222839Y23704801D01*
X-8338564Y23799774D01*
X-8431874Y23849650D01*
X-8423338Y23865620D01*
X-8387028Y23985318D01*
X-8374768Y24109800D01*
X-8374768Y24759800D01*
X-8387028Y24884282D01*
X-8423338Y25003980D01*
X-8482303Y25114294D01*
X-8561655Y25210985D01*
X-8658346Y25290337D01*
X-8768660Y25349302D01*
X-8888358Y25385612D01*
X-9012840Y25397872D01*
X-9025694Y25397872D01*
X-8992509Y25425106D01*
X-8882843Y25558734D01*
X-8801354Y25711189D01*
X-8791128Y25744898D01*
X-8724332Y25744898D01*
X-8621689Y25676314D01*
X-8451529Y25605832D01*
X-8270889Y25569900D01*
X-8086711Y25569900D01*
X-7906071Y25605832D01*
X-7735911Y25676314D01*
X-7582772Y25778638D01*
X-7452538Y25908872D01*
X-7350214Y26062011D01*
X-7279732Y26232171D01*
X-7243800Y26412811D01*
X-7243800Y26596989D01*
X-7279732Y26777629D01*
X-7302954Y26833693D01*
X-7250580Y26805698D01*
X-7130882Y26769388D01*
X-7006400Y26757128D01*
X-6667150Y26760200D01*
X-6508400Y26918950D01*
X-6508400Y28143200D01*
X-6254400Y28143200D01*
X-6254400Y26918950D01*
X-6095650Y26760200D01*
X-5756400Y26757128D01*
X-5631918Y26769388D01*
X-5512220Y26805698D01*
X-5401906Y26864663D01*
X-5305215Y26944015D01*
X-5225863Y27040706D01*
X-5166898Y27151020D01*
X-5130588Y27270718D01*
X-5118328Y27395200D01*
X-5121400Y27984450D01*
X-5280150Y28143200D01*
X-6254400Y28143200D01*
X-6508400Y28143200D01*
X-7482650Y28143200D01*
X-7641400Y27984450D01*
X-7644472Y27395200D01*
X-7632212Y27270718D01*
X-7629731Y27262539D01*
X-7735911Y27333486D01*
X-7906071Y27403968D01*
X-8086711Y27439900D01*
X-8270889Y27439900D01*
X-8451529Y27403968D01*
X-8621689Y27333486D01*
X-8724338Y27264898D01*
X-8791128Y27264898D01*
X-8801354Y27298607D01*
X-8882843Y27451062D01*
X-8992509Y27584690D01*
X-9126137Y27694356D01*
X-9278592Y27775845D01*
X-9444016Y27826026D01*
X-9616051Y27842970D01*
X-10103551Y27842970D01*
X-10275586Y27826026D01*
X-10441010Y27775845D01*
X-10593465Y27694356D01*
X-10727093Y27584690D01*
X-10732309Y27578334D01*
X-10796116Y27656083D01*
X-10892807Y27735435D01*
X-11003121Y27794400D01*
X-11122819Y27830710D01*
X-11247301Y27842970D01*
X-11449051Y27839898D01*
X-11607801Y27681148D01*
X-11607801Y26631898D01*
X-11587801Y26631898D01*
X-11587801Y26377898D01*
X-11607801Y26377898D01*
X-11607801Y25328648D01*
X-11449051Y25169898D01*
X-11247301Y25166826D01*
X-11196129Y25171866D01*
X-11243377Y25114294D01*
X-11302342Y25003980D01*
X-11338652Y24884282D01*
X-11350912Y24759800D01*
X-11350912Y24109800D01*
X-11338652Y23985318D01*
X-11320294Y23924800D01*
X-13100733Y23924800D01*
X-13138056Y23928476D01*
X-13175379Y23924800D01*
X-13175389Y23924800D01*
X-13287042Y23913803D01*
X-13430303Y23870346D01*
X-13562332Y23799774D01*
X-13678057Y23704801D01*
X-13701860Y23675797D01*
X-13870789Y23506868D01*
X-13884061Y23506868D01*
X-14057315Y23489804D01*
X-14223911Y23439268D01*
X-14377447Y23357201D01*
X-14512022Y23246758D01*
X-14622465Y23112183D01*
X-14704532Y22958647D01*
X-14755068Y22792051D01*
X-14772132Y22618797D01*
X-14772132Y21968795D01*
X-14755068Y21795541D01*
X-14704532Y21628945D01*
X-14622465Y21475409D01*
X-14512022Y21340834D01*
X-14424244Y21268796D01*
X-14512022Y21196758D01*
X-14622465Y21062183D01*
X-14704532Y20908647D01*
X-14755068Y20742051D01*
X-14759925Y20692733D01*
X-15999918Y19452739D01*
X-16028921Y19428937D01*
X-16084049Y19361762D01*
X-16123894Y19313212D01*
X-16133112Y19295966D01*
X-16172249Y19222747D01*
X-16287174Y19211428D01*
X-16453770Y19160892D01*
X-16607306Y19078825D01*
X-16741882Y18968382D01*
X-16852325Y18833806D01*
X-16934392Y18680270D01*
X-16984928Y18513674D01*
X-17001992Y18340420D01*
X-18536529Y18340420D01*
X-18520111Y18522650D01*
X-18504049Y18699870D01*
X-18504045Y18699922D01*
X-18463465Y19149737D01*
X-18463427Y19150163D01*
X-18431009Y19523547D01*
X-18430918Y19524656D01*
X-18407140Y19829495D01*
X-18406983Y19831759D01*
X-18392321Y20075937D01*
X-18392137Y20080187D01*
X-18387069Y20271592D01*
X-18387099Y20279289D01*
X-18392103Y20425805D01*
X-18393290Y20439325D01*
X-18408841Y20548839D01*
X-18413997Y20570844D01*
X-18440573Y20651241D01*
X-18454362Y20680113D01*
X-18492441Y20739279D01*
X-18513485Y20764227D01*
X-18563543Y20810048D01*
X-18580407Y20823063D01*
X-18642922Y20863425D01*
X-18648967Y20867093D01*
X-18690113Y20890521D01*
X-18799115Y20960283D01*
X-18860709Y21022096D01*
X-18900306Y21100694D01*
X-18929129Y21231157D01*
X-18948133Y21435351D01*
X-18952932Y21521523D01*
X-18952994Y21522552D01*
X-18966448Y21733309D01*
X-18967152Y21740821D01*
X-18985436Y21888518D01*
X-18988569Y21904905D01*
X-19016222Y22011147D01*
X-19024682Y22034214D01*
X-19066244Y22120607D01*
X-19073590Y22133806D01*
X-19094622Y22166807D01*
X-19152288Y22264055D01*
X-19178248Y22325813D01*
X-19178548Y22327716D01*
X-19185071Y22352497D01*
X-19216631Y22436747D01*
X-19230752Y22463920D01*
X-19323233Y22599060D01*
X-19330122Y22608211D01*
X-19480231Y22789954D01*
X-19484334Y22794680D01*
X-19688772Y23018738D01*
X-19690375Y23020463D01*
X-19700343Y23030989D01*
X-19938929Y23294275D01*
X-20108987Y23508712D01*
X-20213935Y23676251D01*
X-20262872Y23804662D01*
X-20263279Y23806691D01*
X-20268035Y23823974D01*
X-20316087Y23960162D01*
X-20327047Y23983409D01*
X-20391606Y24090643D01*
X-20336270Y24055073D01*
X-20208358Y23963308D01*
X-20207718Y23962852D01*
X-19996813Y23813516D01*
X-19989994Y23809010D01*
X-19840697Y23717115D01*
X-19820767Y23707144D01*
X-19733267Y23672595D01*
X-19709326Y23665765D01*
X-19684512Y23663738D01*
X-19659780Y23666590D01*
X-19636079Y23674212D01*
X-19614321Y23686312D01*
X-19602207Y23695839D01*
X-19576695Y23718538D01*
X-19559807Y23736831D01*
X-19546811Y23758066D01*
X-19538209Y23781429D01*
X-19534330Y23806021D01*
X-19535323Y23830898D01*
X-19545700Y23866415D01*
X-19582367Y23946268D01*
X-19594880Y23967706D01*
X-19667242Y24067742D01*
X-19662356Y24065758D01*
X-19638482Y24058697D01*
X-19613690Y24056429D01*
X-19588931Y24059041D01*
X-19565469Y24066303D01*
X-19509051Y24089956D01*
X-19487144Y24101786D01*
X-19467967Y24117662D01*
X-19452256Y24136975D01*
X-19440614Y24158982D01*
X-19435614Y24173718D01*
X-19410642Y24265444D01*
X-19406182Y24298623D01*
X-19405945Y24464432D01*
X-19406205Y24472734D01*
X-19414349Y24599846D01*
X-19414401Y24600622D01*
X-19426833Y24777671D01*
X-19428784Y24880001D01*
X-19422056Y24921303D01*
X-19410618Y24941502D01*
X-19370864Y24982305D01*
X-19364129Y24988617D01*
X-19266238Y25067136D01*
X-19129549Y25160417D01*
X-19026494Y25222893D01*
X-19021666Y25225972D01*
X-18860718Y25333756D01*
X-18834041Y25357712D01*
X-18756090Y25450740D01*
X-18742048Y25471298D01*
X-18731398Y25497147D01*
X-18726645Y25513644D01*
X-18696000Y25581623D01*
X-18612063Y25665053D01*
X-18447904Y25777630D01*
X-18398805Y25804898D01*
X-12860373Y25804898D01*
X-12848113Y25680416D01*
X-12811803Y25560718D01*
X-12752838Y25450404D01*
X-12673486Y25353713D01*
X-12576795Y25274361D01*
X-12466481Y25215396D01*
X-12346783Y25179086D01*
X-12222301Y25166826D01*
X-12020551Y25169898D01*
X-11861801Y25328648D01*
X-11861801Y26377898D01*
X-12698551Y26377898D01*
X-12857301Y26219148D01*
X-12860373Y25804898D01*
X-18398805Y25804898D01*
X-18201502Y25914472D01*
X-18130667Y25950547D01*
X-18129837Y25950974D01*
X-17921722Y26058897D01*
X-17919571Y26060038D01*
X-17698106Y26180327D01*
X-17695964Y26181518D01*
X-17499398Y26293247D01*
X-17497247Y26294497D01*
X-17442281Y26327181D01*
X-17255206Y26437961D01*
X-17085150Y26532439D01*
X-16914013Y26619369D01*
X-16723798Y26707269D01*
X-16496970Y26804283D01*
X-16216628Y26918268D01*
X-16015917Y26998008D01*
X-16015834Y26998042D01*
X-15705082Y27121755D01*
X-15703772Y27122285D01*
X-15502795Y27204898D01*
X-12860373Y27204898D01*
X-12857301Y26790648D01*
X-12698551Y26631898D01*
X-11861801Y26631898D01*
X-11861801Y27681148D01*
X-12020551Y27839898D01*
X-12222301Y27842970D01*
X-12346783Y27830710D01*
X-12466481Y27794400D01*
X-12576795Y27735435D01*
X-12673486Y27656083D01*
X-12752838Y27559392D01*
X-12811803Y27449078D01*
X-12848113Y27329380D01*
X-12860373Y27204898D01*
X-15502795Y27204898D01*
X-15456268Y27224023D01*
X-15453556Y27225174D01*
X-15253366Y27312946D01*
X-15248973Y27314973D01*
X-15080165Y27396787D01*
X-15074620Y27399645D01*
X-14921261Y27483510D01*
X-14916018Y27486541D01*
X-14762174Y27580465D01*
X-14758560Y27582757D01*
X-14588299Y27694748D01*
X-14586750Y27695783D01*
X-14467835Y27776524D01*
X-13823581Y28188189D01*
X-13104910Y28594762D01*
X-12319192Y28992810D01*
X-11985283Y29145200D01*
X-7644472Y29145200D01*
X-7641400Y28555950D01*
X-7482650Y28397200D01*
X-6508400Y28397200D01*
X-6508400Y29621450D01*
X-6254400Y29621450D01*
X-6254400Y28397200D01*
X-5280150Y28397200D01*
X-5121400Y28555950D01*
X-5118328Y29145200D01*
X-5130588Y29269682D01*
X-5166898Y29389380D01*
X-5225863Y29499694D01*
X-5305215Y29596385D01*
X-5401906Y29675737D01*
X-5512220Y29734702D01*
X-5631918Y29771012D01*
X-5756400Y29783272D01*
X-6095650Y29780200D01*
X-6254400Y29621450D01*
X-6508400Y29621450D01*
X-6667150Y29780200D01*
X-7006400Y29783272D01*
X-7130882Y29771012D01*
X-7250580Y29734702D01*
X-7360894Y29675737D01*
X-7457585Y29596385D01*
X-7536937Y29499694D01*
X-7595902Y29389380D01*
X-7632212Y29269682D01*
X-7644472Y29145200D01*
X-11985283Y29145200D01*
X-11475666Y29377779D01*
X-10583623Y29745142D01*
X-9691759Y30076563D01*
X-9404143Y30179199D01*
X-9403350Y30179485D01*
X-9117900Y30283490D01*
X-9117104Y30283783D01*
X-8852530Y30382189D01*
X-8851542Y30382561D01*
X-8625775Y30468676D01*
X-8624159Y30469305D01*
X-8455128Y30536437D01*
X-8453066Y30537277D01*
X-8416904Y30552378D01*
X-8283034Y30606639D01*
X-8156429Y30650810D01*
X-8026594Y30686626D01*
X-7883326Y30715316D01*
X-7716807Y30737623D01*
X-7517911Y30754006D01*
X-7278028Y30764898D01*
X-6988922Y30770806D01*
X-6642126Y30772321D01*
X-6229497Y30770075D01*
M02*
