G04 #@! TF.GenerationSoftware,KiCad,Pcbnew,(5.1.5)-3*
G04 #@! TF.CreationDate,2020-08-07T09:29:16-05:00*
G04 #@! TF.ProjectId,matt_damon,6d617474-5f64-4616-9d6f-6e2e6b696361,rev?*
G04 #@! TF.SameCoordinates,Original*
G04 #@! TF.FileFunction,Legend,Bot*
G04 #@! TF.FilePolarity,Positive*
%FSLAX46Y46*%
G04 Gerber Fmt 4.6, Leading zero omitted, Abs format (unit mm)*
G04 Created by KiCad (PCBNEW (5.1.5)-3) date 2020-08-07 09:29:16*
%MOMM*%
%LPD*%
G04 APERTURE LIST*
%ADD10C,0.150000*%
%ADD11C,0.010000*%
%ADD12C,0.120000*%
G04 APERTURE END LIST*
D10*
X-5795259Y25477384D02*
X-5080973Y25477384D01*
X-4938116Y25525003D01*
X-4842878Y25620241D01*
X-4795259Y25763099D01*
X-4795259Y25858337D01*
X-4795259Y24525003D02*
X-4795259Y25001194D01*
X-5795259Y25001194D01*
X-4890497Y23620241D02*
X-4842878Y23667860D01*
X-4795259Y23810718D01*
X-4795259Y23905956D01*
X-4842878Y24048813D01*
X-4938116Y24144051D01*
X-5033354Y24191670D01*
X-5223830Y24239289D01*
X-5366687Y24239289D01*
X-5557163Y24191670D01*
X-5652401Y24144051D01*
X-5747640Y24048813D01*
X-5795259Y23905956D01*
X-5795259Y23810718D01*
X-5747640Y23667860D01*
X-5700020Y23620241D01*
X-5795259Y22144051D02*
X-5080973Y22144051D01*
X-4938116Y22191670D01*
X-4842878Y22286908D01*
X-4795259Y22429765D01*
X-4795259Y22525003D01*
X-4795259Y21191670D02*
X-4795259Y21667860D01*
X-5795259Y21667860D01*
X-4890497Y20286908D02*
X-4842878Y20334527D01*
X-4795259Y20477384D01*
X-4795259Y20572622D01*
X-4842878Y20715480D01*
X-4938116Y20810718D01*
X-5033354Y20858337D01*
X-5223830Y20905956D01*
X-5366687Y20905956D01*
X-5557163Y20858337D01*
X-5652401Y20810718D01*
X-5747640Y20715480D01*
X-5795259Y20572622D01*
X-5795259Y20477384D01*
X-5747640Y20334527D01*
X-5700020Y20286908D01*
X-5795259Y18810718D02*
X-5080973Y18810718D01*
X-4938116Y18858337D01*
X-4842878Y18953575D01*
X-4795259Y19096432D01*
X-4795259Y19191670D01*
X-4795259Y17858337D02*
X-4795259Y18334527D01*
X-5795259Y18334527D01*
X-4890497Y16953575D02*
X-4842878Y17001194D01*
X-4795259Y17144051D01*
X-4795259Y17239289D01*
X-4842878Y17382146D01*
X-4938116Y17477384D01*
X-5033354Y17525003D01*
X-5223830Y17572622D01*
X-5366687Y17572622D01*
X-5557163Y17525003D01*
X-5652401Y17477384D01*
X-5747640Y17382146D01*
X-5795259Y17239289D01*
X-5795259Y17144051D01*
X-5747640Y17001194D01*
X-5700020Y16953575D01*
X-5795259Y15477384D02*
X-5080973Y15477384D01*
X-4938116Y15525003D01*
X-4842878Y15620241D01*
X-4795259Y15763099D01*
X-4795259Y15858337D01*
X-4795259Y14525003D02*
X-4795259Y15001194D01*
X-5795259Y15001194D01*
X-4890497Y13620241D02*
X-4842878Y13667860D01*
X-4795259Y13810718D01*
X-4795259Y13905956D01*
X-4842878Y14048813D01*
X-4938116Y14144051D01*
X-5033354Y14191670D01*
X-5223830Y14239289D01*
X-5366687Y14239289D01*
X-5557163Y14191670D01*
X-5652401Y14144051D01*
X-5747640Y14048813D01*
X-5795259Y13905956D01*
X-5795259Y13810718D01*
X-5747640Y13667860D01*
X-5700020Y13620241D01*
D11*
G36*
X-5710992Y1072614D02*
G01*
X-5610505Y1001632D01*
X-5533759Y894153D01*
X-5503333Y773344D01*
X-5533503Y614967D01*
X-5617228Y510996D01*
X-5744328Y472288D01*
X-5783718Y474310D01*
X-5892685Y476874D01*
X-5922945Y449380D01*
X-5875223Y391080D01*
X-5869227Y386030D01*
X-5785364Y358985D01*
X-5678727Y364971D01*
X-5583626Y374370D01*
X-5547773Y346493D01*
X-5545666Y327321D01*
X-5580793Y256756D01*
X-5668736Y218635D01*
X-5783340Y214872D01*
X-5898452Y247382D01*
X-5969000Y296333D01*
X-6013054Y354556D01*
X-6038938Y434567D01*
X-6051009Y558155D01*
X-6053666Y719666D01*
X-6052680Y794162D01*
X-5926086Y794162D01*
X-5925682Y689814D01*
X-5898444Y620889D01*
X-5818313Y591755D01*
X-5726955Y620612D01*
X-5671147Y680172D01*
X-5647813Y767567D01*
X-5685981Y861633D01*
X-5691800Y870672D01*
X-5745885Y947604D01*
X-5787038Y969534D01*
X-5849092Y952039D01*
X-5859704Y947971D01*
X-5902551Y893232D01*
X-5926086Y794162D01*
X-6052680Y794162D01*
X-6051411Y889890D01*
X-6042233Y992066D01*
X-6022519Y1042750D01*
X-5988652Y1058495D01*
X-5979583Y1058911D01*
X-5877189Y1070389D01*
X-5812638Y1084391D01*
X-5710992Y1072614D01*
G37*
X-5710992Y1072614D02*
X-5610505Y1001632D01*
X-5533759Y894153D01*
X-5503333Y773344D01*
X-5533503Y614967D01*
X-5617228Y510996D01*
X-5744328Y472288D01*
X-5783718Y474310D01*
X-5892685Y476874D01*
X-5922945Y449380D01*
X-5875223Y391080D01*
X-5869227Y386030D01*
X-5785364Y358985D01*
X-5678727Y364971D01*
X-5583626Y374370D01*
X-5547773Y346493D01*
X-5545666Y327321D01*
X-5580793Y256756D01*
X-5668736Y218635D01*
X-5783340Y214872D01*
X-5898452Y247382D01*
X-5969000Y296333D01*
X-6013054Y354556D01*
X-6038938Y434567D01*
X-6051009Y558155D01*
X-6053666Y719666D01*
X-6052680Y794162D01*
X-5926086Y794162D01*
X-5925682Y689814D01*
X-5898444Y620889D01*
X-5818313Y591755D01*
X-5726955Y620612D01*
X-5671147Y680172D01*
X-5647813Y767567D01*
X-5685981Y861633D01*
X-5691800Y870672D01*
X-5745885Y947604D01*
X-5787038Y969534D01*
X-5849092Y952039D01*
X-5859704Y947971D01*
X-5902551Y893232D01*
X-5926086Y794162D01*
X-6052680Y794162D01*
X-6051411Y889890D01*
X-6042233Y992066D01*
X-6022519Y1042750D01*
X-5988652Y1058495D01*
X-5979583Y1058911D01*
X-5877189Y1070389D01*
X-5812638Y1084391D01*
X-5710992Y1072614D01*
G36*
X1253217Y1038062D02*
G01*
X1335161Y970980D01*
X1361034Y877297D01*
X1364521Y745437D01*
X1347665Y615949D01*
X1312923Y529876D01*
X1235930Y485405D01*
X1122537Y465720D01*
X1116650Y465666D01*
X1020779Y455848D01*
X974449Y431816D01*
X973667Y427862D01*
X1010103Y378795D01*
X1099417Y355125D01*
X1209864Y364460D01*
X1289803Y369505D01*
X1312334Y326618D01*
X1277861Y253715D01*
X1191196Y217751D01*
X1077467Y221169D01*
X961804Y266416D01*
X929426Y289365D01*
X879277Y341939D01*
X847252Y414877D01*
X827394Y529660D01*
X813832Y706337D01*
X809239Y785693D01*
X973667Y785693D01*
X985817Y662297D01*
X1030318Y605912D01*
X1119245Y601344D01*
X1120091Y601464D01*
X1192037Y644315D01*
X1220715Y738746D01*
X1206053Y862858D01*
X1163684Y915755D01*
X1069610Y951607D01*
X1002818Y911779D01*
X974054Y803621D01*
X973667Y785693D01*
X809239Y785693D01*
X794192Y1045609D01*
X950404Y1070959D01*
X1114914Y1075201D01*
X1253217Y1038062D01*
G37*
X1253217Y1038062D02*
X1335161Y970980D01*
X1361034Y877297D01*
X1364521Y745437D01*
X1347665Y615949D01*
X1312923Y529876D01*
X1235930Y485405D01*
X1122537Y465720D01*
X1116650Y465666D01*
X1020779Y455848D01*
X974449Y431816D01*
X973667Y427862D01*
X1010103Y378795D01*
X1099417Y355125D01*
X1209864Y364460D01*
X1289803Y369505D01*
X1312334Y326618D01*
X1277861Y253715D01*
X1191196Y217751D01*
X1077467Y221169D01*
X961804Y266416D01*
X929426Y289365D01*
X879277Y341939D01*
X847252Y414877D01*
X827394Y529660D01*
X813832Y706337D01*
X809239Y785693D01*
X973667Y785693D01*
X985817Y662297D01*
X1030318Y605912D01*
X1119245Y601344D01*
X1120091Y601464D01*
X1192037Y644315D01*
X1220715Y738746D01*
X1206053Y862858D01*
X1163684Y915755D01*
X1069610Y951607D01*
X1002818Y911779D01*
X974054Y803621D01*
X973667Y785693D01*
X809239Y785693D01*
X794192Y1045609D01*
X950404Y1070959D01*
X1114914Y1075201D01*
X1253217Y1038062D01*
G36*
X6410329Y1025218D02*
G01*
X6474222Y919937D01*
X6498748Y860421D01*
X6574331Y662509D01*
X6647475Y849838D01*
X6704347Y963650D01*
X6764720Y1037604D01*
X6789310Y1050854D01*
X6835699Y1052720D01*
X6852534Y1025032D01*
X6838369Y954141D01*
X6791760Y826397D01*
X6756171Y737759D01*
X6695911Y564211D01*
X6682385Y451804D01*
X6692671Y415851D01*
X6727839Y312036D01*
X6717733Y235932D01*
X6675014Y211666D01*
X6631731Y247957D01*
X6572111Y343091D01*
X6509160Y476250D01*
X6440149Y641835D01*
X6373158Y801589D01*
X6331745Y899583D01*
X6291722Y1000365D01*
X6288238Y1045868D01*
X6322936Y1057953D01*
X6343681Y1058333D01*
X6410329Y1025218D01*
G37*
X6410329Y1025218D02*
X6474222Y919937D01*
X6498748Y860421D01*
X6574331Y662509D01*
X6647475Y849838D01*
X6704347Y963650D01*
X6764720Y1037604D01*
X6789310Y1050854D01*
X6835699Y1052720D01*
X6852534Y1025032D01*
X6838369Y954141D01*
X6791760Y826397D01*
X6756171Y737759D01*
X6695911Y564211D01*
X6682385Y451804D01*
X6692671Y415851D01*
X6727839Y312036D01*
X6717733Y235932D01*
X6675014Y211666D01*
X6631731Y247957D01*
X6572111Y343091D01*
X6509160Y476250D01*
X6440149Y641835D01*
X6373158Y801589D01*
X6331745Y899583D01*
X6291722Y1000365D01*
X6288238Y1045868D01*
X6322936Y1057953D01*
X6343681Y1058333D01*
X6410329Y1025218D01*
G36*
X-1589864Y599478D02*
G01*
X-1535850Y487912D01*
X-1530701Y471338D01*
X-1495025Y345957D01*
X-1485912Y281273D01*
X-1504269Y257300D01*
X-1540570Y254000D01*
X-1591022Y289909D01*
X-1647933Y380144D01*
X-1667570Y424190D01*
X-1714855Y545842D01*
X-1729891Y608451D01*
X-1711760Y631632D01*
X-1659543Y635000D01*
X-1657701Y635000D01*
X-1589864Y599478D01*
G37*
X-1589864Y599478D02*
X-1535850Y487912D01*
X-1530701Y471338D01*
X-1495025Y345957D01*
X-1485912Y281273D01*
X-1504269Y257300D01*
X-1540570Y254000D01*
X-1591022Y289909D01*
X-1647933Y380144D01*
X-1667570Y424190D01*
X-1714855Y545842D01*
X-1729891Y608451D01*
X-1711760Y631632D01*
X-1659543Y635000D01*
X-1657701Y635000D01*
X-1589864Y599478D01*
G36*
X-7969990Y1192631D02*
G01*
X-7958666Y1146528D01*
X-7934590Y1069760D01*
X-7905750Y1045986D01*
X-7874062Y1017718D01*
X-7905750Y970491D01*
X-7939100Y894851D01*
X-7957442Y774941D01*
X-7958666Y735390D01*
X-7975664Y593077D01*
X-8020264Y495167D01*
X-8025190Y489857D01*
X-8118041Y434896D01*
X-8217405Y426436D01*
X-8269111Y451555D01*
X-8299313Y514834D01*
X-8278354Y562082D01*
X-8229561Y564003D01*
X-8153759Y570131D01*
X-8104289Y649963D01*
X-8086315Y793750D01*
X-8095209Y889262D01*
X-8136083Y926431D01*
X-8191500Y931333D01*
X-8276619Y953413D01*
X-8297333Y994833D01*
X-8260533Y1045905D01*
X-8191500Y1058333D01*
X-8108509Y1078177D01*
X-8085666Y1143000D01*
X-8059197Y1211952D01*
X-8022166Y1227666D01*
X-7969990Y1192631D01*
G37*
X-7969990Y1192631D02*
X-7958666Y1146528D01*
X-7934590Y1069760D01*
X-7905750Y1045986D01*
X-7874062Y1017718D01*
X-7905750Y970491D01*
X-7939100Y894851D01*
X-7957442Y774941D01*
X-7958666Y735390D01*
X-7975664Y593077D01*
X-8020264Y495167D01*
X-8025190Y489857D01*
X-8118041Y434896D01*
X-8217405Y426436D01*
X-8269111Y451555D01*
X-8299313Y514834D01*
X-8278354Y562082D01*
X-8229561Y564003D01*
X-8153759Y570131D01*
X-8104289Y649963D01*
X-8086315Y793750D01*
X-8095209Y889262D01*
X-8136083Y926431D01*
X-8191500Y931333D01*
X-8276619Y953413D01*
X-8297333Y994833D01*
X-8260533Y1045905D01*
X-8191500Y1058333D01*
X-8108509Y1078177D01*
X-8085666Y1143000D01*
X-8059197Y1211952D01*
X-8022166Y1227666D01*
X-7969990Y1192631D01*
G36*
X-7410930Y1061434D02*
G01*
X-7337161Y1019271D01*
X-7323666Y984606D01*
X-7346807Y941367D01*
X-7427320Y941651D01*
X-7442077Y944432D01*
X-7531688Y949977D01*
X-7609349Y936636D01*
X-7653982Y912583D01*
X-7644510Y885993D01*
X-7618813Y875888D01*
X-7459696Y828995D01*
X-7364614Y791861D01*
X-7315851Y752209D01*
X-7295694Y697762D01*
X-7289444Y647631D01*
X-7299287Y537931D01*
X-7361940Y470795D01*
X-7488115Y439117D01*
X-7611155Y434180D01*
X-7792809Y434879D01*
X-7782529Y683714D01*
X-7662333Y683714D01*
X-7630374Y603328D01*
X-7556693Y557161D01*
X-7474582Y557584D01*
X-7427220Y596355D01*
X-7426273Y661738D01*
X-7508705Y718297D01*
X-7567083Y738928D01*
X-7639692Y747057D01*
X-7661937Y699092D01*
X-7662333Y683714D01*
X-7782529Y683714D01*
X-7780488Y733113D01*
X-7771923Y889685D01*
X-7757266Y981927D01*
X-7728835Y1030163D01*
X-7678952Y1054714D01*
X-7656567Y1061057D01*
X-7526124Y1077367D01*
X-7410930Y1061434D01*
G37*
X-7410930Y1061434D02*
X-7337161Y1019271D01*
X-7323666Y984606D01*
X-7346807Y941367D01*
X-7427320Y941651D01*
X-7442077Y944432D01*
X-7531688Y949977D01*
X-7609349Y936636D01*
X-7653982Y912583D01*
X-7644510Y885993D01*
X-7618813Y875888D01*
X-7459696Y828995D01*
X-7364614Y791861D01*
X-7315851Y752209D01*
X-7295694Y697762D01*
X-7289444Y647631D01*
X-7299287Y537931D01*
X-7361940Y470795D01*
X-7488115Y439117D01*
X-7611155Y434180D01*
X-7792809Y434879D01*
X-7782529Y683714D01*
X-7662333Y683714D01*
X-7630374Y603328D01*
X-7556693Y557161D01*
X-7474582Y557584D01*
X-7427220Y596355D01*
X-7426273Y661738D01*
X-7508705Y718297D01*
X-7567083Y738928D01*
X-7639692Y747057D01*
X-7661937Y699092D01*
X-7662333Y683714D01*
X-7782529Y683714D01*
X-7780488Y733113D01*
X-7771923Y889685D01*
X-7757266Y981927D01*
X-7728835Y1030163D01*
X-7678952Y1054714D01*
X-7656567Y1061057D01*
X-7526124Y1077367D01*
X-7410930Y1061434D01*
G36*
X-6856862Y1075739D02*
G01*
X-6745339Y1017295D01*
X-6678731Y956746D01*
X-6651902Y864036D01*
X-6649525Y733029D01*
X-6669532Y605832D01*
X-6699389Y536291D01*
X-6780507Y481628D01*
X-6908713Y446613D01*
X-7047313Y438670D01*
X-7122583Y450659D01*
X-7184945Y505171D01*
X-7196666Y551235D01*
X-7186213Y602897D01*
X-7138965Y607687D01*
X-7072667Y587369D01*
X-6937081Y566829D01*
X-6861000Y591061D01*
X-6784598Y647599D01*
X-6789601Y689391D01*
X-6873642Y713983D01*
X-6985000Y719666D01*
X-7110622Y723098D01*
X-7173292Y740609D01*
X-7194661Y783026D01*
X-7196666Y825500D01*
X-7184463Y868844D01*
X-7050203Y868844D01*
X-7016636Y850577D01*
X-6921500Y846666D01*
X-6822132Y851242D01*
X-6792725Y870760D01*
X-6815666Y910166D01*
X-6885003Y963823D01*
X-6921500Y973666D01*
X-6991000Y944021D01*
X-7027333Y910166D01*
X-7050203Y868844D01*
X-7184463Y868844D01*
X-7165555Y935997D01*
X-7089695Y1036132D01*
X-6995300Y1095292D01*
X-6961050Y1100666D01*
X-6856862Y1075739D01*
G37*
X-6856862Y1075739D02*
X-6745339Y1017295D01*
X-6678731Y956746D01*
X-6651902Y864036D01*
X-6649525Y733029D01*
X-6669532Y605832D01*
X-6699389Y536291D01*
X-6780507Y481628D01*
X-6908713Y446613D01*
X-7047313Y438670D01*
X-7122583Y450659D01*
X-7184945Y505171D01*
X-7196666Y551235D01*
X-7186213Y602897D01*
X-7138965Y607687D01*
X-7072667Y587369D01*
X-6937081Y566829D01*
X-6861000Y591061D01*
X-6784598Y647599D01*
X-6789601Y689391D01*
X-6873642Y713983D01*
X-6985000Y719666D01*
X-7110622Y723098D01*
X-7173292Y740609D01*
X-7194661Y783026D01*
X-7196666Y825500D01*
X-7184463Y868844D01*
X-7050203Y868844D01*
X-7016636Y850577D01*
X-6921500Y846666D01*
X-6822132Y851242D01*
X-6792725Y870760D01*
X-6815666Y910166D01*
X-6885003Y963823D01*
X-6921500Y973666D01*
X-6991000Y944021D01*
X-7027333Y910166D01*
X-7050203Y868844D01*
X-7184463Y868844D01*
X-7165555Y935997D01*
X-7089695Y1036132D01*
X-6995300Y1095292D01*
X-6961050Y1100666D01*
X-6856862Y1075739D01*
G36*
X-6223000Y1047595D02*
G01*
X-6223000Y735464D01*
X-6226422Y569616D01*
X-6238774Y472855D01*
X-6263186Y429803D01*
X-6286500Y423333D01*
X-6324718Y444159D01*
X-6344440Y517278D01*
X-6350000Y657225D01*
X-6352722Y791533D01*
X-6368445Y864331D01*
X-6408502Y898758D01*
X-6477000Y916516D01*
X-6580719Y952670D01*
X-6607664Y995331D01*
X-6563615Y1032215D01*
X-6454354Y1051043D01*
X-6413500Y1051419D01*
X-6223000Y1047595D01*
G37*
X-6223000Y1047595D02*
X-6223000Y735464D01*
X-6226422Y569616D01*
X-6238774Y472855D01*
X-6263186Y429803D01*
X-6286500Y423333D01*
X-6324718Y444159D01*
X-6344440Y517278D01*
X-6350000Y657225D01*
X-6352722Y791533D01*
X-6368445Y864331D01*
X-6408502Y898758D01*
X-6477000Y916516D01*
X-6580719Y952670D01*
X-6607664Y995331D01*
X-6563615Y1032215D01*
X-6454354Y1051043D01*
X-6413500Y1051419D01*
X-6223000Y1047595D01*
G36*
X-4664145Y1062953D02*
G01*
X-4567189Y967179D01*
X-4502376Y839393D01*
X-4487333Y745830D01*
X-4524625Y602081D01*
X-4622700Y493587D01*
X-4760861Y432599D01*
X-4918408Y431372D01*
X-4984750Y451370D01*
X-5028868Y506316D01*
X-5037666Y555350D01*
X-5026853Y611525D01*
X-4978882Y605575D01*
X-4949057Y590556D01*
X-4836133Y562554D01*
X-4724017Y582029D01*
X-4648478Y641393D01*
X-4641498Y655801D01*
X-4642300Y694439D01*
X-4693831Y713878D01*
X-4812127Y719632D01*
X-4827328Y719666D01*
X-4952145Y722554D01*
X-5014204Y739864D01*
X-5035406Y784568D01*
X-5037666Y844266D01*
X-5019206Y905363D01*
X-4906964Y905363D01*
X-4891421Y867717D01*
X-4809261Y847435D01*
X-4783666Y846666D01*
X-4694477Y857622D01*
X-4656676Y884017D01*
X-4656666Y884471D01*
X-4692047Y932467D01*
X-4771979Y956020D01*
X-4847166Y946642D01*
X-4906964Y905363D01*
X-5019206Y905363D01*
X-4999753Y969742D01*
X-4903120Y1063473D01*
X-4773429Y1100664D01*
X-4772323Y1100666D01*
X-4664145Y1062953D01*
G37*
X-4664145Y1062953D02*
X-4567189Y967179D01*
X-4502376Y839393D01*
X-4487333Y745830D01*
X-4524625Y602081D01*
X-4622700Y493587D01*
X-4760861Y432599D01*
X-4918408Y431372D01*
X-4984750Y451370D01*
X-5028868Y506316D01*
X-5037666Y555350D01*
X-5026853Y611525D01*
X-4978882Y605575D01*
X-4949057Y590556D01*
X-4836133Y562554D01*
X-4724017Y582029D01*
X-4648478Y641393D01*
X-4641498Y655801D01*
X-4642300Y694439D01*
X-4693831Y713878D01*
X-4812127Y719632D01*
X-4827328Y719666D01*
X-4952145Y722554D01*
X-5014204Y739864D01*
X-5035406Y784568D01*
X-5037666Y844266D01*
X-5019206Y905363D01*
X-4906964Y905363D01*
X-4891421Y867717D01*
X-4809261Y847435D01*
X-4783666Y846666D01*
X-4694477Y857622D01*
X-4656676Y884017D01*
X-4656666Y884471D01*
X-4692047Y932467D01*
X-4771979Y956020D01*
X-4847166Y946642D01*
X-4906964Y905363D01*
X-5019206Y905363D01*
X-4999753Y969742D01*
X-4903120Y1063473D01*
X-4773429Y1100664D01*
X-4772323Y1100666D01*
X-4664145Y1062953D01*
G36*
X-3886684Y1298618D02*
G01*
X-3867783Y1248316D01*
X-3857144Y1147697D01*
X-3852781Y983027D01*
X-3852333Y873202D01*
X-3852333Y434071D01*
X-4044348Y430217D01*
X-4201422Y443732D01*
X-4306041Y496944D01*
X-4319515Y509515D01*
X-4385607Y628335D01*
X-4403720Y780003D01*
X-4401467Y791190D01*
X-4268142Y791190D01*
X-4254889Y661057D01*
X-4189842Y578136D01*
X-4088871Y558874D01*
X-4030487Y582621D01*
X-4005030Y647429D01*
X-4000500Y740833D01*
X-4005515Y849411D01*
X-4032692Y897678D01*
X-4100229Y909899D01*
X-4127500Y910166D01*
X-4220186Y897375D01*
X-4259390Y842419D01*
X-4268142Y791190D01*
X-4401467Y791190D01*
X-4373966Y927680D01*
X-4318000Y1016000D01*
X-4226253Y1087093D01*
X-4139332Y1090940D01*
X-4061217Y1056844D01*
X-4006854Y1036790D01*
X-3983947Y1067685D01*
X-3979333Y1162677D01*
X-3965845Y1272852D01*
X-3922656Y1311957D01*
X-3915833Y1312333D01*
X-3886684Y1298618D01*
G37*
X-3886684Y1298618D02*
X-3867783Y1248316D01*
X-3857144Y1147697D01*
X-3852781Y983027D01*
X-3852333Y873202D01*
X-3852333Y434071D01*
X-4044348Y430217D01*
X-4201422Y443732D01*
X-4306041Y496944D01*
X-4319515Y509515D01*
X-4385607Y628335D01*
X-4403720Y780003D01*
X-4401467Y791190D01*
X-4268142Y791190D01*
X-4254889Y661057D01*
X-4189842Y578136D01*
X-4088871Y558874D01*
X-4030487Y582621D01*
X-4005030Y647429D01*
X-4000500Y740833D01*
X-4005515Y849411D01*
X-4032692Y897678D01*
X-4100229Y909899D01*
X-4127500Y910166D01*
X-4220186Y897375D01*
X-4259390Y842419D01*
X-4268142Y791190D01*
X-4401467Y791190D01*
X-4373966Y927680D01*
X-4318000Y1016000D01*
X-4226253Y1087093D01*
X-4139332Y1090940D01*
X-4061217Y1056844D01*
X-4006854Y1036790D01*
X-3983947Y1067685D01*
X-3979333Y1162677D01*
X-3965845Y1272852D01*
X-3922656Y1311957D01*
X-3915833Y1312333D01*
X-3886684Y1298618D01*
G36*
X-2914093Y1023250D02*
G01*
X-2827487Y913652D01*
X-2794001Y759908D01*
X-2794000Y758927D01*
X-2825127Y595644D01*
X-2907501Y482279D01*
X-3024612Y427981D01*
X-3159949Y441894D01*
X-3260749Y500364D01*
X-3325070Y597011D01*
X-3354518Y725930D01*
X-3214075Y725930D01*
X-3183411Y622772D01*
X-3166533Y601133D01*
X-3077658Y553129D01*
X-2997071Y588157D01*
X-2961223Y638943D01*
X-2931704Y750495D01*
X-2950932Y853967D01*
X-3005462Y929803D01*
X-3081850Y958450D01*
X-3159199Y926880D01*
X-3205669Y842167D01*
X-3214075Y725930D01*
X-3354518Y725930D01*
X-3356242Y733477D01*
X-3351626Y873935D01*
X-3308586Y982557D01*
X-3297189Y995346D01*
X-3168487Y1073279D01*
X-3034274Y1079520D01*
X-2914093Y1023250D01*
G37*
X-2914093Y1023250D02*
X-2827487Y913652D01*
X-2794001Y759908D01*
X-2794000Y758927D01*
X-2825127Y595644D01*
X-2907501Y482279D01*
X-3024612Y427981D01*
X-3159949Y441894D01*
X-3260749Y500364D01*
X-3325070Y597011D01*
X-3354518Y725930D01*
X-3214075Y725930D01*
X-3183411Y622772D01*
X-3166533Y601133D01*
X-3077658Y553129D01*
X-2997071Y588157D01*
X-2961223Y638943D01*
X-2931704Y750495D01*
X-2950932Y853967D01*
X-3005462Y929803D01*
X-3081850Y958450D01*
X-3159199Y926880D01*
X-3205669Y842167D01*
X-3214075Y725930D01*
X-3354518Y725930D01*
X-3356242Y733477D01*
X-3351626Y873935D01*
X-3308586Y982557D01*
X-3297189Y995346D01*
X-3168487Y1073279D01*
X-3034274Y1079520D01*
X-2914093Y1023250D01*
G36*
X-2347166Y1049567D02*
G01*
X-2269675Y994725D01*
X-2249697Y908802D01*
X-2252146Y870663D01*
X-2273395Y780687D01*
X-2331476Y730654D01*
X-2423583Y701617D01*
X-2524931Y668191D01*
X-2579369Y633896D01*
X-2582333Y626205D01*
X-2547295Y577389D01*
X-2462697Y560533D01*
X-2359316Y580866D01*
X-2346800Y586194D01*
X-2271834Y612180D01*
X-2245784Y587351D01*
X-2243666Y553955D01*
X-2279715Y477483D01*
X-2370742Y432332D01*
X-2491074Y424068D01*
X-2615035Y458258D01*
X-2635250Y469057D01*
X-2693228Y545558D01*
X-2709333Y635404D01*
X-2698207Y718087D01*
X-2649607Y768214D01*
X-2540701Y809124D01*
X-2538823Y809687D01*
X-2437746Y850664D01*
X-2386028Y893030D01*
X-2384358Y906637D01*
X-2436699Y942285D01*
X-2536971Y940782D01*
X-2635250Y911360D01*
X-2694119Y905349D01*
X-2709333Y963846D01*
X-2672885Y1033073D01*
X-2581135Y1073817D01*
X-2460478Y1079832D01*
X-2347166Y1049567D01*
G37*
X-2347166Y1049567D02*
X-2269675Y994725D01*
X-2249697Y908802D01*
X-2252146Y870663D01*
X-2273395Y780687D01*
X-2331476Y730654D01*
X-2423583Y701617D01*
X-2524931Y668191D01*
X-2579369Y633896D01*
X-2582333Y626205D01*
X-2547295Y577389D01*
X-2462697Y560533D01*
X-2359316Y580866D01*
X-2346800Y586194D01*
X-2271834Y612180D01*
X-2245784Y587351D01*
X-2243666Y553955D01*
X-2279715Y477483D01*
X-2370742Y432332D01*
X-2491074Y424068D01*
X-2615035Y458258D01*
X-2635250Y469057D01*
X-2693228Y545558D01*
X-2709333Y635404D01*
X-2698207Y718087D01*
X-2649607Y768214D01*
X-2540701Y809124D01*
X-2538823Y809687D01*
X-2437746Y850664D01*
X-2386028Y893030D01*
X-2384358Y906637D01*
X-2436699Y942285D01*
X-2536971Y940782D01*
X-2635250Y911360D01*
X-2694119Y905349D01*
X-2709333Y963846D01*
X-2672885Y1033073D01*
X-2581135Y1073817D01*
X-2460478Y1079832D01*
X-2347166Y1049567D01*
G36*
X-1085199Y1194117D02*
G01*
X-1046000Y1111517D01*
X-1039586Y991347D01*
X-1052241Y836168D01*
X-1078936Y677396D01*
X-1114642Y546450D01*
X-1146687Y482390D01*
X-1224434Y436214D01*
X-1324739Y425512D01*
X-1405548Y452425D01*
X-1419907Y468483D01*
X-1424942Y531599D01*
X-1359987Y567414D01*
X-1319929Y570960D01*
X-1270106Y595707D01*
X-1243184Y679904D01*
X-1235974Y748174D01*
X-1233487Y861802D01*
X-1255125Y916715D01*
X-1311508Y937781D01*
X-1317325Y938674D01*
X-1403469Y970303D01*
X-1428992Y1015708D01*
X-1390021Y1051375D01*
X-1337028Y1058333D01*
X-1252286Y1076829D01*
X-1227671Y1141675D01*
X-1227666Y1143000D01*
X-1202915Y1215134D01*
X-1146505Y1230627D01*
X-1085199Y1194117D01*
G37*
X-1085199Y1194117D02*
X-1046000Y1111517D01*
X-1039586Y991347D01*
X-1052241Y836168D01*
X-1078936Y677396D01*
X-1114642Y546450D01*
X-1146687Y482390D01*
X-1224434Y436214D01*
X-1324739Y425512D01*
X-1405548Y452425D01*
X-1419907Y468483D01*
X-1424942Y531599D01*
X-1359987Y567414D01*
X-1319929Y570960D01*
X-1270106Y595707D01*
X-1243184Y679904D01*
X-1235974Y748174D01*
X-1233487Y861802D01*
X-1255125Y916715D01*
X-1311508Y937781D01*
X-1317325Y938674D01*
X-1403469Y970303D01*
X-1428992Y1015708D01*
X-1390021Y1051375D01*
X-1337028Y1058333D01*
X-1252286Y1076829D01*
X-1227671Y1141675D01*
X-1227666Y1143000D01*
X-1202915Y1215134D01*
X-1146505Y1230627D01*
X-1085199Y1194117D01*
G36*
X-569436Y1074908D02*
G01*
X-472082Y1046540D01*
X-424432Y996261D01*
X-423333Y986231D01*
X-448872Y945167D01*
X-535447Y935732D01*
X-578084Y938606D01*
X-696401Y934780D01*
X-750895Y899730D01*
X-750946Y899583D01*
X-729770Y859115D01*
X-641551Y846666D01*
X-506971Y816801D01*
X-416836Y740601D01*
X-382284Y638165D01*
X-414455Y529587D01*
X-445110Y492271D01*
X-545078Y446189D01*
X-715904Y432883D01*
X-722045Y433008D01*
X-934871Y437856D01*
X-922997Y705193D01*
X-804333Y705193D01*
X-769696Y633460D01*
X-690907Y571953D01*
X-623088Y551620D01*
X-581356Y584022D01*
X-564941Y615659D01*
X-550625Y674257D01*
X-579397Y708441D01*
X-669960Y737408D01*
X-688003Y741981D01*
X-773907Y752538D01*
X-803449Y719524D01*
X-804333Y705193D01*
X-922997Y705193D01*
X-922519Y715943D01*
X-912620Y868328D01*
X-894136Y959111D01*
X-858449Y1011355D01*
X-798708Y1047281D01*
X-687858Y1076708D01*
X-569436Y1074908D01*
G37*
X-569436Y1074908D02*
X-472082Y1046540D01*
X-424432Y996261D01*
X-423333Y986231D01*
X-448872Y945167D01*
X-535447Y935732D01*
X-578084Y938606D01*
X-696401Y934780D01*
X-750895Y899730D01*
X-750946Y899583D01*
X-729770Y859115D01*
X-641551Y846666D01*
X-506971Y816801D01*
X-416836Y740601D01*
X-382284Y638165D01*
X-414455Y529587D01*
X-445110Y492271D01*
X-545078Y446189D01*
X-715904Y432883D01*
X-722045Y433008D01*
X-934871Y437856D01*
X-922997Y705193D01*
X-804333Y705193D01*
X-769696Y633460D01*
X-690907Y571953D01*
X-623088Y551620D01*
X-581356Y584022D01*
X-564941Y615659D01*
X-550625Y674257D01*
X-579397Y708441D01*
X-669960Y737408D01*
X-688003Y741981D01*
X-773907Y752538D01*
X-803449Y719524D01*
X-804333Y705193D01*
X-922997Y705193D01*
X-922519Y715943D01*
X-912620Y868328D01*
X-894136Y959111D01*
X-858449Y1011355D01*
X-798708Y1047281D01*
X-687858Y1076708D01*
X-569436Y1074908D01*
G36*
X72073Y1063526D02*
G01*
X171248Y970298D01*
X238462Y848270D01*
X254000Y762000D01*
X216571Y614198D01*
X118304Y501118D01*
X-19771Y435893D01*
X-176625Y431654D01*
X-243416Y451370D01*
X-288482Y506541D01*
X-296333Y550184D01*
X-286243Y600215D01*
X-240209Y603633D01*
X-172727Y580989D01*
X-66387Y555788D01*
X8664Y582664D01*
X17773Y589850D01*
X76616Y655040D01*
X61973Y696116D01*
X-29832Y716271D01*
X-131589Y719666D01*
X-258032Y721805D01*
X-318646Y735968D01*
X-332268Y773777D01*
X-320284Y836083D01*
X-288473Y902211D01*
X-169773Y902211D01*
X-138308Y862646D01*
X-42333Y846666D01*
X46850Y858106D01*
X84658Y885667D01*
X84667Y886147D01*
X49323Y929733D01*
X-28768Y958900D01*
X-107695Y960440D01*
X-126621Y952734D01*
X-169773Y902211D01*
X-288473Y902211D01*
X-258333Y964862D01*
X-155256Y1061511D01*
X-38356Y1100644D01*
X-35719Y1100666D01*
X72073Y1063526D01*
G37*
X72073Y1063526D02*
X171248Y970298D01*
X238462Y848270D01*
X254000Y762000D01*
X216571Y614198D01*
X118304Y501118D01*
X-19771Y435893D01*
X-176625Y431654D01*
X-243416Y451370D01*
X-288482Y506541D01*
X-296333Y550184D01*
X-286243Y600215D01*
X-240209Y603633D01*
X-172727Y580989D01*
X-66387Y555788D01*
X8664Y582664D01*
X17773Y589850D01*
X76616Y655040D01*
X61973Y696116D01*
X-29832Y716271D01*
X-131589Y719666D01*
X-258032Y721805D01*
X-318646Y735968D01*
X-332268Y773777D01*
X-320284Y836083D01*
X-288473Y902211D01*
X-169773Y902211D01*
X-138308Y862646D01*
X-42333Y846666D01*
X46850Y858106D01*
X84658Y885667D01*
X84667Y886147D01*
X49323Y929733D01*
X-28768Y958900D01*
X-107695Y960440D01*
X-126621Y952734D01*
X-169773Y902211D01*
X-288473Y902211D01*
X-258333Y964862D01*
X-155256Y1061511D01*
X-38356Y1100644D01*
X-35719Y1100666D01*
X72073Y1063526D01*
G36*
X677334Y1043891D02*
G01*
X677334Y733612D01*
X673877Y568326D01*
X661407Y472101D01*
X636769Y429534D01*
X613834Y423333D01*
X573171Y446828D01*
X553808Y527643D01*
X550334Y626533D01*
X534735Y792755D01*
X483273Y890105D01*
X388947Y929308D01*
X351367Y931333D01*
X273715Y954094D01*
X254000Y992433D01*
X277605Y1030462D01*
X358426Y1047421D01*
X465667Y1048712D01*
X677334Y1043891D01*
G37*
X677334Y1043891D02*
X677334Y733612D01*
X673877Y568326D01*
X661407Y472101D01*
X636769Y429534D01*
X613834Y423333D01*
X573171Y446828D01*
X553808Y527643D01*
X550334Y626533D01*
X534735Y792755D01*
X483273Y890105D01*
X388947Y929308D01*
X351367Y931333D01*
X273715Y954094D01*
X254000Y992433D01*
X277605Y1030462D01*
X358426Y1047421D01*
X465667Y1048712D01*
X677334Y1043891D01*
G36*
X2248409Y1046702D02*
G01*
X2346371Y958923D01*
X2387963Y808804D01*
X2389909Y756931D01*
X2357377Y591340D01*
X2264444Y481293D01*
X2118109Y431088D01*
X1925371Y445026D01*
X1894417Y452515D01*
X1833805Y505095D01*
X1820334Y557966D01*
X1836733Y619305D01*
X1894417Y613559D01*
X2032027Y566247D01*
X2122307Y562561D01*
X2180392Y592854D01*
X2236967Y657020D01*
X2218971Y697423D01*
X2123112Y716875D01*
X2032000Y719666D01*
X1906067Y723425D01*
X1843231Y741308D01*
X1822030Y783226D01*
X1820334Y817409D01*
X1843941Y916090D01*
X1993976Y916090D01*
X2006075Y874256D01*
X2083671Y848908D01*
X2125738Y846666D01*
X2214507Y850600D01*
X2231074Y870969D01*
X2192521Y915955D01*
X2111916Y960712D01*
X2056449Y959617D01*
X1993976Y916090D01*
X1843941Y916090D01*
X1854319Y959470D01*
X1951514Y1047623D01*
X2091145Y1075266D01*
X2248409Y1046702D01*
G37*
X2248409Y1046702D02*
X2346371Y958923D01*
X2387963Y808804D01*
X2389909Y756931D01*
X2357377Y591340D01*
X2264444Y481293D01*
X2118109Y431088D01*
X1925371Y445026D01*
X1894417Y452515D01*
X1833805Y505095D01*
X1820334Y557966D01*
X1836733Y619305D01*
X1894417Y613559D01*
X2032027Y566247D01*
X2122307Y562561D01*
X2180392Y592854D01*
X2236967Y657020D01*
X2218971Y697423D01*
X2123112Y716875D01*
X2032000Y719666D01*
X1906067Y723425D01*
X1843231Y741308D01*
X1822030Y783226D01*
X1820334Y817409D01*
X1843941Y916090D01*
X1993976Y916090D01*
X2006075Y874256D01*
X2083671Y848908D01*
X2125738Y846666D01*
X2214507Y850600D01*
X2231074Y870969D01*
X2192521Y915955D01*
X2111916Y960712D01*
X2056449Y959617D01*
X1993976Y916090D01*
X1843941Y916090D01*
X1854319Y959470D01*
X1951514Y1047623D01*
X2091145Y1075266D01*
X2248409Y1046702D01*
G36*
X2971420Y1298557D02*
G01*
X2990347Y1248043D01*
X3000955Y1147017D01*
X3005254Y981701D01*
X3005667Y876829D01*
X3005667Y441324D01*
X2838163Y434645D01*
X2665880Y456923D01*
X2574542Y505796D01*
X2497231Y617366D01*
X2472424Y762336D01*
X2477834Y791190D01*
X2632191Y791190D01*
X2643716Y668023D01*
X2699285Y583204D01*
X2783938Y558664D01*
X2790107Y559681D01*
X2838022Y599509D01*
X2856768Y703519D01*
X2857500Y741413D01*
X2851677Y850274D01*
X2824243Y898564D01*
X2760252Y910114D01*
X2751667Y910166D01*
X2670968Y892093D01*
X2636613Y821603D01*
X2632191Y791190D01*
X2477834Y791190D01*
X2499737Y907993D01*
X2578784Y1021622D01*
X2580619Y1023124D01*
X2705195Y1083679D01*
X2780740Y1081298D01*
X2849503Y1074785D01*
X2875440Y1117650D01*
X2878667Y1184527D01*
X2897356Y1285706D01*
X2942167Y1312333D01*
X2971420Y1298557D01*
G37*
X2971420Y1298557D02*
X2990347Y1248043D01*
X3000955Y1147017D01*
X3005254Y981701D01*
X3005667Y876829D01*
X3005667Y441324D01*
X2838163Y434645D01*
X2665880Y456923D01*
X2574542Y505796D01*
X2497231Y617366D01*
X2472424Y762336D01*
X2477834Y791190D01*
X2632191Y791190D01*
X2643716Y668023D01*
X2699285Y583204D01*
X2783938Y558664D01*
X2790107Y559681D01*
X2838022Y599509D01*
X2856768Y703519D01*
X2857500Y741413D01*
X2851677Y850274D01*
X2824243Y898564D01*
X2760252Y910114D01*
X2751667Y910166D01*
X2670968Y892093D01*
X2636613Y821603D01*
X2632191Y791190D01*
X2477834Y791190D01*
X2499737Y907993D01*
X2578784Y1021622D01*
X2580619Y1023124D01*
X2705195Y1083679D01*
X2780740Y1081298D01*
X2849503Y1074785D01*
X2875440Y1117650D01*
X2878667Y1184527D01*
X2897356Y1285706D01*
X2942167Y1312333D01*
X2971420Y1298557D01*
G36*
X3926677Y1061839D02*
G01*
X4028292Y959344D01*
X4088336Y814161D01*
X4091489Y796860D01*
X4097379Y676095D01*
X4056332Y586384D01*
X4007459Y532277D01*
X3874688Y442066D01*
X3744539Y433431D01*
X3626204Y506312D01*
X3601406Y534876D01*
X3538694Y651855D01*
X3521965Y730587D01*
X3665290Y730587D01*
X3684728Y651623D01*
X3732012Y569395D01*
X3801610Y555207D01*
X3870038Y576029D01*
X3917847Y633735D01*
X3936415Y735068D01*
X3924834Y843868D01*
X3882191Y923975D01*
X3878866Y926880D01*
X3793654Y960068D01*
X3721239Y926485D01*
X3674244Y844027D01*
X3665290Y730587D01*
X3521965Y730587D01*
X3513667Y769633D01*
X3545811Y890483D01*
X3625972Y1003891D01*
X3729740Y1081969D01*
X3803386Y1100666D01*
X3926677Y1061839D01*
G37*
X3926677Y1061839D02*
X4028292Y959344D01*
X4088336Y814161D01*
X4091489Y796860D01*
X4097379Y676095D01*
X4056332Y586384D01*
X4007459Y532277D01*
X3874688Y442066D01*
X3744539Y433431D01*
X3626204Y506312D01*
X3601406Y534876D01*
X3538694Y651855D01*
X3521965Y730587D01*
X3665290Y730587D01*
X3684728Y651623D01*
X3732012Y569395D01*
X3801610Y555207D01*
X3870038Y576029D01*
X3917847Y633735D01*
X3936415Y735068D01*
X3924834Y843868D01*
X3882191Y923975D01*
X3878866Y926880D01*
X3793654Y960068D01*
X3721239Y926485D01*
X3674244Y844027D01*
X3665290Y730587D01*
X3521965Y730587D01*
X3513667Y769633D01*
X3545811Y890483D01*
X3625972Y1003891D01*
X3729740Y1081969D01*
X3803386Y1100666D01*
X3926677Y1061839D01*
G36*
X4459492Y1194076D02*
G01*
X4498000Y1111250D01*
X4507234Y982626D01*
X4498741Y827477D01*
X4476540Y672409D01*
X4444651Y544030D01*
X4407094Y468949D01*
X4400091Y463179D01*
X4299917Y427675D01*
X4205581Y434147D01*
X4176889Y451555D01*
X4145989Y518580D01*
X4179549Y562373D01*
X4233334Y562599D01*
X4285026Y558326D01*
X4310020Y593937D01*
X4317680Y688600D01*
X4318000Y735896D01*
X4312747Y856819D01*
X4290815Y914776D01*
X4242944Y931144D01*
X4233334Y931333D01*
X4164381Y957803D01*
X4148667Y994833D01*
X4183960Y1046547D01*
X4233334Y1058333D01*
X4304086Y1088267D01*
X4318000Y1143000D01*
X4342639Y1215229D01*
X4398721Y1230682D01*
X4459492Y1194076D01*
G37*
X4459492Y1194076D02*
X4498000Y1111250D01*
X4507234Y982626D01*
X4498741Y827477D01*
X4476540Y672409D01*
X4444651Y544030D01*
X4407094Y468949D01*
X4400091Y463179D01*
X4299917Y427675D01*
X4205581Y434147D01*
X4176889Y451555D01*
X4145989Y518580D01*
X4179549Y562373D01*
X4233334Y562599D01*
X4285026Y558326D01*
X4310020Y593937D01*
X4317680Y688600D01*
X4318000Y735896D01*
X4312747Y856819D01*
X4290815Y914776D01*
X4242944Y931144D01*
X4233334Y931333D01*
X4164381Y957803D01*
X4148667Y994833D01*
X4183960Y1046547D01*
X4233334Y1058333D01*
X4304086Y1088267D01*
X4318000Y1143000D01*
X4342639Y1215229D01*
X4398721Y1230682D01*
X4459492Y1194076D01*
G36*
X5520756Y1021055D02*
G01*
X5543212Y926303D01*
X5549626Y799703D01*
X5540091Y666877D01*
X5514696Y553450D01*
X5480147Y490861D01*
X5407404Y457880D01*
X5289170Y437330D01*
X5160078Y431441D01*
X5054762Y442444D01*
X5014251Y460860D01*
X5004765Y509606D01*
X4997976Y619401D01*
X4995334Y766638D01*
X4995334Y769055D01*
X4997727Y922540D01*
X5008478Y1009712D01*
X5032944Y1048869D01*
X5076479Y1058312D01*
X5080000Y1058333D01*
X5129306Y1048024D01*
X5154770Y1003616D01*
X5163891Y904890D01*
X5164667Y830029D01*
X5172037Y684307D01*
X5197403Y604170D01*
X5233533Y575299D01*
X5325817Y573841D01*
X5387960Y648041D01*
X5416910Y793338D01*
X5418667Y851850D01*
X5425790Y983134D01*
X5450354Y1046291D01*
X5482167Y1058333D01*
X5520756Y1021055D01*
G37*
X5520756Y1021055D02*
X5543212Y926303D01*
X5549626Y799703D01*
X5540091Y666877D01*
X5514696Y553450D01*
X5480147Y490861D01*
X5407404Y457880D01*
X5289170Y437330D01*
X5160078Y431441D01*
X5054762Y442444D01*
X5014251Y460860D01*
X5004765Y509606D01*
X4997976Y619401D01*
X4995334Y766638D01*
X4995334Y769055D01*
X4997727Y922540D01*
X5008478Y1009712D01*
X5032944Y1048869D01*
X5076479Y1058312D01*
X5080000Y1058333D01*
X5129306Y1048024D01*
X5154770Y1003616D01*
X5163891Y904890D01*
X5164667Y830029D01*
X5172037Y684307D01*
X5197403Y604170D01*
X5233533Y575299D01*
X5325817Y573841D01*
X5387960Y648041D01*
X5416910Y793338D01*
X5418667Y851850D01*
X5425790Y983134D01*
X5450354Y1046291D01*
X5482167Y1058333D01*
X5520756Y1021055D01*
G36*
X6102907Y1023250D02*
G01*
X6189513Y913652D01*
X6222999Y759908D01*
X6223000Y758927D01*
X6191873Y595644D01*
X6109499Y482279D01*
X5992388Y427981D01*
X5857051Y441894D01*
X5756251Y500364D01*
X5691930Y597011D01*
X5662482Y725930D01*
X5802925Y725930D01*
X5833589Y622772D01*
X5850467Y601133D01*
X5939342Y553129D01*
X6019929Y588157D01*
X6055777Y638943D01*
X6085296Y750495D01*
X6066068Y853967D01*
X6011538Y929803D01*
X5935150Y958450D01*
X5857801Y926880D01*
X5811331Y842167D01*
X5802925Y725930D01*
X5662482Y725930D01*
X5660758Y733477D01*
X5665374Y873935D01*
X5708414Y982557D01*
X5719811Y995346D01*
X5848513Y1073279D01*
X5982726Y1079520D01*
X6102907Y1023250D01*
G37*
X6102907Y1023250D02*
X6189513Y913652D01*
X6222999Y759908D01*
X6223000Y758927D01*
X6191873Y595644D01*
X6109499Y482279D01*
X5992388Y427981D01*
X5857051Y441894D01*
X5756251Y500364D01*
X5691930Y597011D01*
X5662482Y725930D01*
X5802925Y725930D01*
X5833589Y622772D01*
X5850467Y601133D01*
X5939342Y553129D01*
X6019929Y588157D01*
X6055777Y638943D01*
X6085296Y750495D01*
X6066068Y853967D01*
X6011538Y929803D01*
X5935150Y958450D01*
X5857801Y926880D01*
X5811331Y842167D01*
X5802925Y725930D01*
X5662482Y725930D01*
X5660758Y733477D01*
X5665374Y873935D01*
X5708414Y982557D01*
X5719811Y995346D01*
X5848513Y1073279D01*
X5982726Y1079520D01*
X6102907Y1023250D01*
G36*
X-8613013Y1284372D02*
G01*
X-8594819Y1191682D01*
X-8593666Y1143000D01*
X-8604152Y1025257D01*
X-8638911Y976740D01*
X-8657166Y973666D01*
X-8701320Y1001628D01*
X-8719514Y1094318D01*
X-8720666Y1143000D01*
X-8710181Y1260742D01*
X-8675422Y1309260D01*
X-8657166Y1312333D01*
X-8613013Y1284372D01*
G37*
X-8613013Y1284372D02*
X-8594819Y1191682D01*
X-8593666Y1143000D01*
X-8604152Y1025257D01*
X-8638911Y976740D01*
X-8657166Y973666D01*
X-8701320Y1001628D01*
X-8719514Y1094318D01*
X-8720666Y1143000D01*
X-8710181Y1260742D01*
X-8675422Y1309260D01*
X-8657166Y1312333D01*
X-8613013Y1284372D01*
G36*
X-8401346Y1284372D02*
G01*
X-8383152Y1191682D01*
X-8382000Y1143000D01*
X-8392485Y1025257D01*
X-8427244Y976740D01*
X-8445500Y973666D01*
X-8489653Y1001628D01*
X-8507847Y1094318D01*
X-8509000Y1143000D01*
X-8498514Y1260742D01*
X-8463756Y1309260D01*
X-8445500Y1312333D01*
X-8401346Y1284372D01*
G37*
X-8401346Y1284372D02*
X-8383152Y1191682D01*
X-8382000Y1143000D01*
X-8392485Y1025257D01*
X-8427244Y976740D01*
X-8445500Y973666D01*
X-8489653Y1001628D01*
X-8507847Y1094318D01*
X-8509000Y1143000D01*
X-8498514Y1260742D01*
X-8463756Y1309260D01*
X-8445500Y1312333D01*
X-8401346Y1284372D01*
G36*
X-1566333Y2401863D02*
G01*
X-1566333Y1984098D01*
X-1568475Y1788176D01*
X-1576319Y1662850D01*
X-1591992Y1594124D01*
X-1617621Y1568002D01*
X-1629833Y1566333D01*
X-1680462Y1603838D01*
X-1693333Y1686001D01*
X-1702754Y1769435D01*
X-1748826Y1793775D01*
X-1816143Y1787645D01*
X-1952313Y1804724D01*
X-2055278Y1889651D01*
X-2110861Y2027772D01*
X-2116666Y2098283D01*
X-2111283Y2163422D01*
X-1973851Y2163422D01*
X-1971292Y2054745D01*
X-1948069Y1991040D01*
X-1875532Y1914887D01*
X-1795264Y1911016D01*
X-1729230Y1972425D01*
X-1700776Y2069894D01*
X-1712364Y2200166D01*
X-1781084Y2269719D01*
X-1872443Y2285352D01*
X-1938345Y2250242D01*
X-1973851Y2163422D01*
X-2111283Y2163422D01*
X-2103275Y2260298D01*
X-2052943Y2355869D01*
X-1950434Y2399758D01*
X-1797801Y2407200D01*
X-1566333Y2401863D01*
G37*
X-1566333Y2401863D02*
X-1566333Y1984098D01*
X-1568475Y1788176D01*
X-1576319Y1662850D01*
X-1591992Y1594124D01*
X-1617621Y1568002D01*
X-1629833Y1566333D01*
X-1680462Y1603838D01*
X-1693333Y1686001D01*
X-1702754Y1769435D01*
X-1748826Y1793775D01*
X-1816143Y1787645D01*
X-1952313Y1804724D01*
X-2055278Y1889651D01*
X-2110861Y2027772D01*
X-2116666Y2098283D01*
X-2111283Y2163422D01*
X-1973851Y2163422D01*
X-1971292Y2054745D01*
X-1948069Y1991040D01*
X-1875532Y1914887D01*
X-1795264Y1911016D01*
X-1729230Y1972425D01*
X-1700776Y2069894D01*
X-1712364Y2200166D01*
X-1781084Y2269719D01*
X-1872443Y2285352D01*
X-1938345Y2250242D01*
X-1973851Y2163422D01*
X-2111283Y2163422D01*
X-2103275Y2260298D01*
X-2052943Y2355869D01*
X-1950434Y2399758D01*
X-1797801Y2407200D01*
X-1566333Y2401863D01*
G36*
X4402667Y2401938D02*
G01*
X4402667Y1984136D01*
X4400525Y1788204D01*
X4392683Y1662868D01*
X4377012Y1594133D01*
X4351386Y1568005D01*
X4339167Y1566333D01*
X4288095Y1603134D01*
X4275667Y1672166D01*
X4261998Y1747803D01*
X4203894Y1775472D01*
X4148667Y1778000D01*
X4009177Y1814118D01*
X3908583Y1908585D01*
X3855791Y2040573D01*
X3856582Y2070587D01*
X3995678Y2070587D01*
X4029487Y1971648D01*
X4106275Y1916142D01*
X4162114Y1913014D01*
X4222839Y1935778D01*
X4249415Y1997203D01*
X4254500Y2095500D01*
X4246979Y2207577D01*
X4215766Y2260678D01*
X4159660Y2278307D01*
X4069860Y2260076D01*
X4017721Y2188412D01*
X3995678Y2070587D01*
X3856582Y2070587D01*
X3859711Y2189254D01*
X3917671Y2318110D01*
X3975762Y2376495D01*
X4060789Y2402827D01*
X4192838Y2406666D01*
X4402667Y2401938D01*
G37*
X4402667Y2401938D02*
X4402667Y1984136D01*
X4400525Y1788204D01*
X4392683Y1662868D01*
X4377012Y1594133D01*
X4351386Y1568005D01*
X4339167Y1566333D01*
X4288095Y1603134D01*
X4275667Y1672166D01*
X4261998Y1747803D01*
X4203894Y1775472D01*
X4148667Y1778000D01*
X4009177Y1814118D01*
X3908583Y1908585D01*
X3855791Y2040573D01*
X3856582Y2070587D01*
X3995678Y2070587D01*
X4029487Y1971648D01*
X4106275Y1916142D01*
X4162114Y1913014D01*
X4222839Y1935778D01*
X4249415Y1997203D01*
X4254500Y2095500D01*
X4246979Y2207577D01*
X4215766Y2260678D01*
X4159660Y2278307D01*
X4069860Y2260076D01*
X4017721Y2188412D01*
X3995678Y2070587D01*
X3856582Y2070587D01*
X3859711Y2189254D01*
X3917671Y2318110D01*
X3975762Y2376495D01*
X4060789Y2402827D01*
X4192838Y2406666D01*
X4402667Y2401938D01*
G36*
X-6434666Y2398558D02*
G01*
X-6434666Y2088279D01*
X-6438375Y1921629D01*
X-6451435Y1824721D01*
X-6476745Y1782874D01*
X-6495954Y1778000D01*
X-6536689Y1806806D01*
X-6561163Y1900881D01*
X-6570038Y2000250D01*
X-6581371Y2131391D01*
X-6605616Y2203386D01*
X-6657370Y2241740D01*
X-6720416Y2263004D01*
X-6829928Y2309157D01*
X-6859250Y2353310D01*
X-6812645Y2387390D01*
X-6694373Y2403325D01*
X-6646333Y2403379D01*
X-6434666Y2398558D01*
G37*
X-6434666Y2398558D02*
X-6434666Y2088279D01*
X-6438375Y1921629D01*
X-6451435Y1824721D01*
X-6476745Y1782874D01*
X-6495954Y1778000D01*
X-6536689Y1806806D01*
X-6561163Y1900881D01*
X-6570038Y2000250D01*
X-6581371Y2131391D01*
X-6605616Y2203386D01*
X-6657370Y2241740D01*
X-6720416Y2263004D01*
X-6829928Y2309157D01*
X-6859250Y2353310D01*
X-6812645Y2387390D01*
X-6694373Y2403325D01*
X-6646333Y2403379D01*
X-6434666Y2398558D01*
G36*
X-5856321Y2361177D02*
G01*
X-5827394Y2335583D01*
X-5773422Y2225840D01*
X-5757480Y2082965D01*
X-5779009Y1943925D01*
X-5834750Y1848061D01*
X-5950937Y1790324D01*
X-6088402Y1784479D01*
X-6208678Y1829823D01*
X-6237605Y1855417D01*
X-6291577Y1965159D01*
X-6304317Y2079337D01*
X-6180666Y2079337D01*
X-6151800Y1980209D01*
X-6082686Y1921494D01*
X-5999551Y1909938D01*
X-5928625Y1952289D01*
X-5902484Y2007778D01*
X-5892566Y2147579D01*
X-5935430Y2245860D01*
X-6023328Y2285821D01*
X-6030823Y2286000D01*
X-6127492Y2251217D01*
X-6175409Y2148251D01*
X-6180666Y2079337D01*
X-6304317Y2079337D01*
X-6307520Y2108034D01*
X-6285991Y2247075D01*
X-6230250Y2342939D01*
X-6114062Y2400675D01*
X-5976597Y2406521D01*
X-5856321Y2361177D01*
G37*
X-5856321Y2361177D02*
X-5827394Y2335583D01*
X-5773422Y2225840D01*
X-5757480Y2082965D01*
X-5779009Y1943925D01*
X-5834750Y1848061D01*
X-5950937Y1790324D01*
X-6088402Y1784479D01*
X-6208678Y1829823D01*
X-6237605Y1855417D01*
X-6291577Y1965159D01*
X-6304317Y2079337D01*
X-6180666Y2079337D01*
X-6151800Y1980209D01*
X-6082686Y1921494D01*
X-5999551Y1909938D01*
X-5928625Y1952289D01*
X-5902484Y2007778D01*
X-5892566Y2147579D01*
X-5935430Y2245860D01*
X-6023328Y2285821D01*
X-6030823Y2286000D01*
X-6127492Y2251217D01*
X-6175409Y2148251D01*
X-6180666Y2079337D01*
X-6304317Y2079337D01*
X-6307520Y2108034D01*
X-6285991Y2247075D01*
X-6230250Y2342939D01*
X-6114062Y2400675D01*
X-5976597Y2406521D01*
X-5856321Y2361177D01*
G36*
X-5481436Y2592411D02*
G01*
X-5434781Y2513775D01*
X-5402104Y2436936D01*
X-5371744Y2413000D01*
X-5338237Y2378644D01*
X-5334000Y2349500D01*
X-5356859Y2293164D01*
X-5376333Y2286000D01*
X-5398882Y2247440D01*
X-5414170Y2146709D01*
X-5418666Y2032000D01*
X-5423543Y1884514D01*
X-5440831Y1805329D01*
X-5474515Y1778501D01*
X-5482166Y1778000D01*
X-5519038Y1797507D01*
X-5538834Y1866657D01*
X-5545541Y2001396D01*
X-5545666Y2032000D01*
X-5548756Y2173864D01*
X-5562326Y2250520D01*
X-5592833Y2281330D01*
X-5630333Y2286000D01*
X-5699285Y2312470D01*
X-5715000Y2349500D01*
X-5679707Y2401214D01*
X-5630333Y2413000D01*
X-5561543Y2430728D01*
X-5545666Y2455333D01*
X-5582859Y2497471D01*
X-5688409Y2502696D01*
X-5704416Y2500827D01*
X-5749485Y2521980D01*
X-5752211Y2577608D01*
X-5714380Y2629930D01*
X-5697916Y2638409D01*
X-5581823Y2645758D01*
X-5481436Y2592411D01*
G37*
X-5481436Y2592411D02*
X-5434781Y2513775D01*
X-5402104Y2436936D01*
X-5371744Y2413000D01*
X-5338237Y2378644D01*
X-5334000Y2349500D01*
X-5356859Y2293164D01*
X-5376333Y2286000D01*
X-5398882Y2247440D01*
X-5414170Y2146709D01*
X-5418666Y2032000D01*
X-5423543Y1884514D01*
X-5440831Y1805329D01*
X-5474515Y1778501D01*
X-5482166Y1778000D01*
X-5519038Y1797507D01*
X-5538834Y1866657D01*
X-5545541Y2001396D01*
X-5545666Y2032000D01*
X-5548756Y2173864D01*
X-5562326Y2250520D01*
X-5592833Y2281330D01*
X-5630333Y2286000D01*
X-5699285Y2312470D01*
X-5715000Y2349500D01*
X-5679707Y2401214D01*
X-5630333Y2413000D01*
X-5561543Y2430728D01*
X-5545666Y2455333D01*
X-5582859Y2497471D01*
X-5688409Y2502696D01*
X-5704416Y2500827D01*
X-5749485Y2521980D01*
X-5752211Y2577608D01*
X-5714380Y2629930D01*
X-5697916Y2638409D01*
X-5581823Y2645758D01*
X-5481436Y2592411D01*
G36*
X-4504657Y2385040D02*
G01*
X-4406399Y2298400D01*
X-4363170Y2148938D01*
X-4360333Y2083984D01*
X-4374816Y1950118D01*
X-4426296Y1866424D01*
X-4454419Y1843900D01*
X-4578524Y1795175D01*
X-4732233Y1782260D01*
X-4857750Y1806036D01*
X-4905931Y1861850D01*
X-4910666Y1889279D01*
X-4890974Y1928355D01*
X-4819349Y1932361D01*
X-4762036Y1923286D01*
X-4622584Y1918290D01*
X-4550369Y1947718D01*
X-4493955Y2011797D01*
X-4512151Y2052149D01*
X-4608237Y2071564D01*
X-4699000Y2074333D01*
X-4825660Y2078618D01*
X-4888847Y2097256D01*
X-4909561Y2138924D01*
X-4910666Y2161783D01*
X-4894945Y2243666D01*
X-4762500Y2243666D01*
X-4744469Y2214987D01*
X-4657817Y2201695D01*
X-4635500Y2201333D01*
X-4537846Y2211216D01*
X-4505959Y2237436D01*
X-4508500Y2243666D01*
X-4567001Y2276736D01*
X-4635500Y2286000D01*
X-4724146Y2270020D01*
X-4762500Y2243666D01*
X-4894945Y2243666D01*
X-4883006Y2305842D01*
X-4797679Y2388364D01*
X-4661738Y2413000D01*
X-4504657Y2385040D01*
G37*
X-4504657Y2385040D02*
X-4406399Y2298400D01*
X-4363170Y2148938D01*
X-4360333Y2083984D01*
X-4374816Y1950118D01*
X-4426296Y1866424D01*
X-4454419Y1843900D01*
X-4578524Y1795175D01*
X-4732233Y1782260D01*
X-4857750Y1806036D01*
X-4905931Y1861850D01*
X-4910666Y1889279D01*
X-4890974Y1928355D01*
X-4819349Y1932361D01*
X-4762036Y1923286D01*
X-4622584Y1918290D01*
X-4550369Y1947718D01*
X-4493955Y2011797D01*
X-4512151Y2052149D01*
X-4608237Y2071564D01*
X-4699000Y2074333D01*
X-4825660Y2078618D01*
X-4888847Y2097256D01*
X-4909561Y2138924D01*
X-4910666Y2161783D01*
X-4894945Y2243666D01*
X-4762500Y2243666D01*
X-4744469Y2214987D01*
X-4657817Y2201695D01*
X-4635500Y2201333D01*
X-4537846Y2211216D01*
X-4505959Y2237436D01*
X-4508500Y2243666D01*
X-4567001Y2276736D01*
X-4635500Y2286000D01*
X-4724146Y2270020D01*
X-4762500Y2243666D01*
X-4894945Y2243666D01*
X-4883006Y2305842D01*
X-4797679Y2388364D01*
X-4661738Y2413000D01*
X-4504657Y2385040D01*
G36*
X-3991119Y2547040D02*
G01*
X-3979333Y2497666D01*
X-3961605Y2428876D01*
X-3937000Y2413000D01*
X-3899443Y2378712D01*
X-3894666Y2349500D01*
X-3917525Y2293164D01*
X-3937000Y2286000D01*
X-3961570Y2248016D01*
X-3976844Y2151284D01*
X-3979333Y2082800D01*
X-3989348Y1952002D01*
X-4014709Y1853857D01*
X-4030133Y1828800D01*
X-4105718Y1789181D01*
X-4201283Y1778364D01*
X-4283240Y1795209D01*
X-4318000Y1838556D01*
X-4281964Y1891019D01*
X-4222750Y1912639D01*
X-4160088Y1936068D01*
X-4128035Y1998912D01*
X-4114482Y2106083D01*
X-4110554Y2218931D01*
X-4128837Y2270970D01*
X-4181655Y2285480D01*
X-4209732Y2286000D01*
X-4296672Y2307660D01*
X-4318000Y2349500D01*
X-4281199Y2400571D01*
X-4212166Y2413000D01*
X-4129176Y2432843D01*
X-4106333Y2497666D01*
X-4079863Y2566619D01*
X-4042833Y2582333D01*
X-3991119Y2547040D01*
G37*
X-3991119Y2547040D02*
X-3979333Y2497666D01*
X-3961605Y2428876D01*
X-3937000Y2413000D01*
X-3899443Y2378712D01*
X-3894666Y2349500D01*
X-3917525Y2293164D01*
X-3937000Y2286000D01*
X-3961570Y2248016D01*
X-3976844Y2151284D01*
X-3979333Y2082800D01*
X-3989348Y1952002D01*
X-4014709Y1853857D01*
X-4030133Y1828800D01*
X-4105718Y1789181D01*
X-4201283Y1778364D01*
X-4283240Y1795209D01*
X-4318000Y1838556D01*
X-4281964Y1891019D01*
X-4222750Y1912639D01*
X-4160088Y1936068D01*
X-4128035Y1998912D01*
X-4114482Y2106083D01*
X-4110554Y2218931D01*
X-4128837Y2270970D01*
X-4181655Y2285480D01*
X-4209732Y2286000D01*
X-4296672Y2307660D01*
X-4318000Y2349500D01*
X-4281199Y2400571D01*
X-4212166Y2413000D01*
X-4129176Y2432843D01*
X-4106333Y2497666D01*
X-4079863Y2566619D01*
X-4042833Y2582333D01*
X-3991119Y2547040D01*
G36*
X-3409059Y2406092D02*
G01*
X-3355303Y2379676D01*
X-3344333Y2336834D01*
X-3360613Y2286025D01*
X-3424160Y2272357D01*
X-3487500Y2277382D01*
X-3592153Y2276358D01*
X-3656410Y2251562D01*
X-3659331Y2247714D01*
X-3646807Y2213290D01*
X-3558498Y2201333D01*
X-3436857Y2172721D01*
X-3329945Y2101601D01*
X-3266470Y2010051D01*
X-3259666Y1971524D01*
X-3297414Y1870623D01*
X-3405626Y1806770D01*
X-3576755Y1784111D01*
X-3600545Y1784342D01*
X-3810000Y1789061D01*
X-3810000Y2017173D01*
X-3683000Y2017173D01*
X-3646066Y1944962D01*
X-3534494Y1910809D01*
X-3499979Y1908342D01*
X-3440433Y1931725D01*
X-3436841Y1979083D01*
X-3477938Y2034810D01*
X-3554111Y2066079D01*
X-3632375Y2067786D01*
X-3679744Y2034827D01*
X-3683000Y2017173D01*
X-3810000Y2017173D01*
X-3810000Y2050231D01*
X-3802055Y2200508D01*
X-3781228Y2315328D01*
X-3759200Y2362200D01*
X-3687470Y2393894D01*
X-3569615Y2411634D01*
X-3526366Y2413000D01*
X-3409059Y2406092D01*
G37*
X-3409059Y2406092D02*
X-3355303Y2379676D01*
X-3344333Y2336834D01*
X-3360613Y2286025D01*
X-3424160Y2272357D01*
X-3487500Y2277382D01*
X-3592153Y2276358D01*
X-3656410Y2251562D01*
X-3659331Y2247714D01*
X-3646807Y2213290D01*
X-3558498Y2201333D01*
X-3436857Y2172721D01*
X-3329945Y2101601D01*
X-3266470Y2010051D01*
X-3259666Y1971524D01*
X-3297414Y1870623D01*
X-3405626Y1806770D01*
X-3576755Y1784111D01*
X-3600545Y1784342D01*
X-3810000Y1789061D01*
X-3810000Y2017173D01*
X-3683000Y2017173D01*
X-3646066Y1944962D01*
X-3534494Y1910809D01*
X-3499979Y1908342D01*
X-3440433Y1931725D01*
X-3436841Y1979083D01*
X-3477938Y2034810D01*
X-3554111Y2066079D01*
X-3632375Y2067786D01*
X-3679744Y2034827D01*
X-3683000Y2017173D01*
X-3810000Y2017173D01*
X-3810000Y2050231D01*
X-3802055Y2200508D01*
X-3781228Y2315328D01*
X-3759200Y2362200D01*
X-3687470Y2393894D01*
X-3569615Y2411634D01*
X-3526366Y2413000D01*
X-3409059Y2406092D01*
G36*
X-2878666Y2398558D02*
G01*
X-2878666Y2088279D01*
X-2882375Y1921629D01*
X-2895435Y1824721D01*
X-2920745Y1782874D01*
X-2939954Y1778000D01*
X-2980689Y1806806D01*
X-3005163Y1900881D01*
X-3014038Y2000250D01*
X-3025371Y2131391D01*
X-3049616Y2203386D01*
X-3101370Y2241740D01*
X-3164416Y2263004D01*
X-3273928Y2309157D01*
X-3303250Y2353310D01*
X-3256645Y2387390D01*
X-3138373Y2403325D01*
X-3090333Y2403379D01*
X-2878666Y2398558D01*
G37*
X-2878666Y2398558D02*
X-2878666Y2088279D01*
X-2882375Y1921629D01*
X-2895435Y1824721D01*
X-2920745Y1782874D01*
X-2939954Y1778000D01*
X-2980689Y1806806D01*
X-3005163Y1900881D01*
X-3014038Y2000250D01*
X-3025371Y2131391D01*
X-3049616Y2203386D01*
X-3101370Y2241740D01*
X-3164416Y2263004D01*
X-3273928Y2309157D01*
X-3303250Y2353310D01*
X-3256645Y2387390D01*
X-3138373Y2403325D01*
X-3090333Y2403379D01*
X-2878666Y2398558D01*
G36*
X-2340439Y2379746D02*
G01*
X-2243112Y2282091D01*
X-2202428Y2123199D01*
X-2201333Y2086080D01*
X-2237759Y1939422D01*
X-2334755Y1833609D01*
X-2473897Y1779013D01*
X-2636764Y1786005D01*
X-2698750Y1806036D01*
X-2747230Y1861900D01*
X-2751666Y1887861D01*
X-2731535Y1925198D01*
X-2659114Y1931230D01*
X-2586373Y1921902D01*
X-2472792Y1911663D01*
X-2409435Y1934694D01*
X-2373216Y1984902D01*
X-2350607Y2037554D01*
X-2367384Y2064031D01*
X-2440110Y2073293D01*
X-2538510Y2074333D01*
X-2664443Y2077292D01*
X-2727454Y2094221D01*
X-2749270Y2137201D01*
X-2751666Y2192866D01*
X-2741870Y2243666D01*
X-2603500Y2243666D01*
X-2586958Y2213685D01*
X-2504595Y2201354D01*
X-2500165Y2201333D01*
X-2409920Y2213377D01*
X-2370718Y2242474D01*
X-2370666Y2243666D01*
X-2406817Y2275766D01*
X-2474001Y2286000D01*
X-2563638Y2270391D01*
X-2603500Y2243666D01*
X-2741870Y2243666D01*
X-2727340Y2319008D01*
X-2647816Y2389590D01*
X-2503284Y2412921D01*
X-2491600Y2413000D01*
X-2340439Y2379746D01*
G37*
X-2340439Y2379746D02*
X-2243112Y2282091D01*
X-2202428Y2123199D01*
X-2201333Y2086080D01*
X-2237759Y1939422D01*
X-2334755Y1833609D01*
X-2473897Y1779013D01*
X-2636764Y1786005D01*
X-2698750Y1806036D01*
X-2747230Y1861900D01*
X-2751666Y1887861D01*
X-2731535Y1925198D01*
X-2659114Y1931230D01*
X-2586373Y1921902D01*
X-2472792Y1911663D01*
X-2409435Y1934694D01*
X-2373216Y1984902D01*
X-2350607Y2037554D01*
X-2367384Y2064031D01*
X-2440110Y2073293D01*
X-2538510Y2074333D01*
X-2664443Y2077292D01*
X-2727454Y2094221D01*
X-2749270Y2137201D01*
X-2751666Y2192866D01*
X-2741870Y2243666D01*
X-2603500Y2243666D01*
X-2586958Y2213685D01*
X-2504595Y2201354D01*
X-2500165Y2201333D01*
X-2409920Y2213377D01*
X-2370718Y2242474D01*
X-2370666Y2243666D01*
X-2406817Y2275766D01*
X-2474001Y2286000D01*
X-2563638Y2270391D01*
X-2603500Y2243666D01*
X-2741870Y2243666D01*
X-2727340Y2319008D01*
X-2647816Y2389590D01*
X-2503284Y2412921D01*
X-2491600Y2413000D01*
X-2340439Y2379746D01*
G36*
X-1098782Y2394354D02*
G01*
X-1006177Y2331995D01*
X-980746Y2219862D01*
X-982110Y2204957D01*
X-1015955Y2117399D01*
X-1106665Y2060363D01*
X-1141122Y2048218D01*
X-1242148Y2004740D01*
X-1300230Y1959374D01*
X-1303399Y1952968D01*
X-1284445Y1916435D01*
X-1212827Y1906728D01*
X-1116275Y1924102D01*
X-1052174Y1950630D01*
X-990051Y1974306D01*
X-976544Y1936417D01*
X-980874Y1897713D01*
X-1004690Y1831866D01*
X-1067903Y1799116D01*
X-1166357Y1786559D01*
X-1303992Y1791862D01*
X-1395098Y1839010D01*
X-1413589Y1857609D01*
X-1469197Y1962805D01*
X-1444618Y2057490D01*
X-1344320Y2132499D01*
X-1266169Y2160031D01*
X-1156553Y2204688D01*
X-1126406Y2247979D01*
X-1171514Y2275664D01*
X-1287663Y2273505D01*
X-1299224Y2271726D01*
X-1396387Y2262556D01*
X-1432012Y2283600D01*
X-1431073Y2319977D01*
X-1384138Y2376560D01*
X-1265090Y2404358D01*
X-1256110Y2405148D01*
X-1098782Y2394354D01*
G37*
X-1098782Y2394354D02*
X-1006177Y2331995D01*
X-980746Y2219862D01*
X-982110Y2204957D01*
X-1015955Y2117399D01*
X-1106665Y2060363D01*
X-1141122Y2048218D01*
X-1242148Y2004740D01*
X-1300230Y1959374D01*
X-1303399Y1952968D01*
X-1284445Y1916435D01*
X-1212827Y1906728D01*
X-1116275Y1924102D01*
X-1052174Y1950630D01*
X-990051Y1974306D01*
X-976544Y1936417D01*
X-980874Y1897713D01*
X-1004690Y1831866D01*
X-1067903Y1799116D01*
X-1166357Y1786559D01*
X-1303992Y1791862D01*
X-1395098Y1839010D01*
X-1413589Y1857609D01*
X-1469197Y1962805D01*
X-1444618Y2057490D01*
X-1344320Y2132499D01*
X-1266169Y2160031D01*
X-1156553Y2204688D01*
X-1126406Y2247979D01*
X-1171514Y2275664D01*
X-1287663Y2273505D01*
X-1299224Y2271726D01*
X-1396387Y2262556D01*
X-1432012Y2283600D01*
X-1431073Y2319977D01*
X-1384138Y2376560D01*
X-1265090Y2404358D01*
X-1256110Y2405148D01*
X-1098782Y2394354D01*
G36*
X-480881Y2383099D02*
G01*
X-381053Y2292932D01*
X-339913Y2141805D01*
X-338666Y2102750D01*
X-371888Y1939711D01*
X-464999Y1829443D01*
X-608174Y1782238D01*
X-645583Y1781342D01*
X-758131Y1789953D01*
X-835944Y1805980D01*
X-836083Y1806036D01*
X-884264Y1861850D01*
X-889000Y1889279D01*
X-869307Y1928355D01*
X-797682Y1932361D01*
X-740369Y1923286D01*
X-600917Y1918290D01*
X-528702Y1947718D01*
X-472288Y2011797D01*
X-490485Y2052149D01*
X-586570Y2071564D01*
X-677333Y2074333D01*
X-803994Y2078618D01*
X-867180Y2097256D01*
X-887895Y2138924D01*
X-889000Y2161783D01*
X-873278Y2243666D01*
X-740833Y2243666D01*
X-724291Y2213685D01*
X-641928Y2201354D01*
X-637498Y2201333D01*
X-547253Y2213377D01*
X-508051Y2242474D01*
X-508000Y2243666D01*
X-544150Y2275766D01*
X-611335Y2286000D01*
X-700971Y2270391D01*
X-740833Y2243666D01*
X-873278Y2243666D01*
X-861339Y2305842D01*
X-776012Y2388364D01*
X-640072Y2413000D01*
X-480881Y2383099D01*
G37*
X-480881Y2383099D02*
X-381053Y2292932D01*
X-339913Y2141805D01*
X-338666Y2102750D01*
X-371888Y1939711D01*
X-464999Y1829443D01*
X-608174Y1782238D01*
X-645583Y1781342D01*
X-758131Y1789953D01*
X-835944Y1805980D01*
X-836083Y1806036D01*
X-884264Y1861850D01*
X-889000Y1889279D01*
X-869307Y1928355D01*
X-797682Y1932361D01*
X-740369Y1923286D01*
X-600917Y1918290D01*
X-528702Y1947718D01*
X-472288Y2011797D01*
X-490485Y2052149D01*
X-586570Y2071564D01*
X-677333Y2074333D01*
X-803994Y2078618D01*
X-867180Y2097256D01*
X-887895Y2138924D01*
X-889000Y2161783D01*
X-873278Y2243666D01*
X-740833Y2243666D01*
X-724291Y2213685D01*
X-641928Y2201354D01*
X-637498Y2201333D01*
X-547253Y2213377D01*
X-508051Y2242474D01*
X-508000Y2243666D01*
X-544150Y2275766D01*
X-611335Y2286000D01*
X-700971Y2270391D01*
X-740833Y2243666D01*
X-873278Y2243666D01*
X-861339Y2305842D01*
X-776012Y2388364D01*
X-640072Y2413000D01*
X-480881Y2383099D01*
G36*
X-97095Y2587866D02*
G01*
X-84666Y2518833D01*
X-73348Y2446839D01*
X-22709Y2417686D01*
X61100Y2413000D01*
X204711Y2377472D01*
X299548Y2276567D01*
X338164Y2118806D01*
X338667Y2095500D01*
X312923Y1933532D01*
X231816Y1832696D01*
X89535Y1787681D01*
X-1838Y1784334D01*
X-211666Y1789061D01*
X-211666Y2120194D01*
X-84666Y2120194D01*
X-72214Y2007146D01*
X-40866Y1939059D01*
X-31750Y1933036D01*
X77307Y1911743D01*
X149615Y1960544D01*
X174596Y2005478D01*
X194992Y2127565D01*
X151416Y2227964D01*
X57323Y2282312D01*
X19677Y2286000D01*
X-48108Y2276246D01*
X-77868Y2231030D01*
X-84660Y2126424D01*
X-84666Y2120194D01*
X-211666Y2120194D01*
X-211666Y2206864D01*
X-209525Y2402796D01*
X-201682Y2528132D01*
X-186012Y2596867D01*
X-160386Y2622995D01*
X-148166Y2624666D01*
X-97095Y2587866D01*
G37*
X-97095Y2587866D02*
X-84666Y2518833D01*
X-73348Y2446839D01*
X-22709Y2417686D01*
X61100Y2413000D01*
X204711Y2377472D01*
X299548Y2276567D01*
X338164Y2118806D01*
X338667Y2095500D01*
X312923Y1933532D01*
X231816Y1832696D01*
X89535Y1787681D01*
X-1838Y1784334D01*
X-211666Y1789061D01*
X-211666Y2120194D01*
X-84666Y2120194D01*
X-72214Y2007146D01*
X-40866Y1939059D01*
X-31750Y1933036D01*
X77307Y1911743D01*
X149615Y1960544D01*
X174596Y2005478D01*
X194992Y2127565D01*
X151416Y2227964D01*
X57323Y2282312D01*
X19677Y2286000D01*
X-48108Y2276246D01*
X-77868Y2231030D01*
X-84660Y2126424D01*
X-84666Y2120194D01*
X-211666Y2120194D01*
X-211666Y2206864D01*
X-209525Y2402796D01*
X-201682Y2528132D01*
X-186012Y2596867D01*
X-160386Y2622995D01*
X-148166Y2624666D01*
X-97095Y2587866D01*
G36*
X1215561Y2379746D02*
G01*
X1312888Y2282091D01*
X1353572Y2123199D01*
X1354667Y2086080D01*
X1318241Y1939422D01*
X1221245Y1833609D01*
X1082103Y1779013D01*
X919236Y1786005D01*
X857250Y1806036D01*
X808770Y1861900D01*
X804334Y1887861D01*
X824465Y1925198D01*
X896886Y1931230D01*
X969627Y1921902D01*
X1083208Y1911663D01*
X1146565Y1934694D01*
X1182784Y1984902D01*
X1205393Y2037554D01*
X1188616Y2064031D01*
X1115890Y2073293D01*
X1017490Y2074333D01*
X891557Y2077292D01*
X828546Y2094221D01*
X806730Y2137201D01*
X804334Y2192866D01*
X814130Y2243666D01*
X952500Y2243666D01*
X969042Y2213685D01*
X1051405Y2201354D01*
X1055835Y2201333D01*
X1146080Y2213377D01*
X1185282Y2242474D01*
X1185334Y2243666D01*
X1149183Y2275766D01*
X1081999Y2286000D01*
X992362Y2270391D01*
X952500Y2243666D01*
X814130Y2243666D01*
X828660Y2319008D01*
X908184Y2389590D01*
X1052716Y2412921D01*
X1064400Y2413000D01*
X1215561Y2379746D01*
G37*
X1215561Y2379746D02*
X1312888Y2282091D01*
X1353572Y2123199D01*
X1354667Y2086080D01*
X1318241Y1939422D01*
X1221245Y1833609D01*
X1082103Y1779013D01*
X919236Y1786005D01*
X857250Y1806036D01*
X808770Y1861900D01*
X804334Y1887861D01*
X824465Y1925198D01*
X896886Y1931230D01*
X969627Y1921902D01*
X1083208Y1911663D01*
X1146565Y1934694D01*
X1182784Y1984902D01*
X1205393Y2037554D01*
X1188616Y2064031D01*
X1115890Y2073293D01*
X1017490Y2074333D01*
X891557Y2077292D01*
X828546Y2094221D01*
X806730Y2137201D01*
X804334Y2192866D01*
X814130Y2243666D01*
X952500Y2243666D01*
X969042Y2213685D01*
X1051405Y2201354D01*
X1055835Y2201333D01*
X1146080Y2213377D01*
X1185282Y2242474D01*
X1185334Y2243666D01*
X1149183Y2275766D01*
X1081999Y2286000D01*
X992362Y2270391D01*
X952500Y2243666D01*
X814130Y2243666D01*
X828660Y2319008D01*
X908184Y2389590D01*
X1052716Y2412921D01*
X1064400Y2413000D01*
X1215561Y2379746D01*
G36*
X1778000Y2398558D02*
G01*
X1778000Y2088279D01*
X1774291Y1921629D01*
X1761232Y1824721D01*
X1735922Y1782874D01*
X1716712Y1778000D01*
X1675978Y1806806D01*
X1651504Y1900881D01*
X1642629Y2000250D01*
X1631296Y2131391D01*
X1607051Y2203386D01*
X1555297Y2241740D01*
X1492250Y2263004D01*
X1382739Y2309157D01*
X1353416Y2353310D01*
X1400021Y2387390D01*
X1518294Y2403325D01*
X1566334Y2403379D01*
X1778000Y2398558D01*
G37*
X1778000Y2398558D02*
X1778000Y2088279D01*
X1774291Y1921629D01*
X1761232Y1824721D01*
X1735922Y1782874D01*
X1716712Y1778000D01*
X1675978Y1806806D01*
X1651504Y1900881D01*
X1642629Y2000250D01*
X1631296Y2131391D01*
X1607051Y2203386D01*
X1555297Y2241740D01*
X1492250Y2263004D01*
X1382739Y2309157D01*
X1353416Y2353310D01*
X1400021Y2387390D01*
X1518294Y2403325D01*
X1566334Y2403379D01*
X1778000Y2398558D01*
G36*
X2348511Y2405977D02*
G01*
X2402308Y2379355D01*
X2413000Y2337798D01*
X2398479Y2290116D01*
X2340575Y2273797D01*
X2243667Y2278744D01*
X2126720Y2279238D01*
X2075519Y2254655D01*
X2074334Y2248113D01*
X2110617Y2213290D01*
X2182950Y2201333D01*
X2337967Y2174375D01*
X2430187Y2096139D01*
X2455334Y1993361D01*
X2434649Y1879014D01*
X2364356Y1812662D01*
X2232095Y1785978D01*
X2145749Y1784755D01*
X1947334Y1788738D01*
X1947334Y1999086D01*
X2068996Y1999086D01*
X2104341Y1931436D01*
X2171974Y1908619D01*
X2252505Y1926367D01*
X2303785Y1972578D01*
X2307167Y1989666D01*
X2269277Y2042820D01*
X2190750Y2066562D01*
X2100476Y2052830D01*
X2068996Y1999086D01*
X1947334Y1999086D01*
X1947334Y2050069D01*
X1955275Y2200434D01*
X1976097Y2315297D01*
X1998134Y2362200D01*
X2069864Y2393894D01*
X2187719Y2411634D01*
X2230967Y2413000D01*
X2348511Y2405977D01*
G37*
X2348511Y2405977D02*
X2402308Y2379355D01*
X2413000Y2337798D01*
X2398479Y2290116D01*
X2340575Y2273797D01*
X2243667Y2278744D01*
X2126720Y2279238D01*
X2075519Y2254655D01*
X2074334Y2248113D01*
X2110617Y2213290D01*
X2182950Y2201333D01*
X2337967Y2174375D01*
X2430187Y2096139D01*
X2455334Y1993361D01*
X2434649Y1879014D01*
X2364356Y1812662D01*
X2232095Y1785978D01*
X2145749Y1784755D01*
X1947334Y1788738D01*
X1947334Y1999086D01*
X2068996Y1999086D01*
X2104341Y1931436D01*
X2171974Y1908619D01*
X2252505Y1926367D01*
X2303785Y1972578D01*
X2307167Y1989666D01*
X2269277Y2042820D01*
X2190750Y2066562D01*
X2100476Y2052830D01*
X2068996Y1999086D01*
X1947334Y1999086D01*
X1947334Y2050069D01*
X1955275Y2200434D01*
X1976097Y2315297D01*
X1998134Y2362200D01*
X2069864Y2393894D01*
X2187719Y2411634D01*
X2230967Y2413000D01*
X2348511Y2405977D01*
G36*
X3329119Y2383099D02*
G01*
X3428947Y2292932D01*
X3470087Y2141805D01*
X3471334Y2102750D01*
X3438112Y1939711D01*
X3345001Y1829443D01*
X3201826Y1782238D01*
X3164417Y1781342D01*
X3051869Y1789953D01*
X2974056Y1805980D01*
X2973917Y1806036D01*
X2925736Y1861850D01*
X2921000Y1889279D01*
X2940693Y1928355D01*
X3012318Y1932361D01*
X3069631Y1923286D01*
X3209083Y1918290D01*
X3281298Y1947718D01*
X3337712Y2011797D01*
X3319515Y2052149D01*
X3223430Y2071564D01*
X3132667Y2074333D01*
X3006006Y2078618D01*
X2942820Y2097256D01*
X2922105Y2138924D01*
X2921000Y2161783D01*
X2936722Y2243666D01*
X3069167Y2243666D01*
X3085709Y2213685D01*
X3168072Y2201354D01*
X3172502Y2201333D01*
X3262747Y2213377D01*
X3301949Y2242474D01*
X3302000Y2243666D01*
X3265850Y2275766D01*
X3198665Y2286000D01*
X3109029Y2270391D01*
X3069167Y2243666D01*
X2936722Y2243666D01*
X2948661Y2305842D01*
X3033988Y2388364D01*
X3169928Y2413000D01*
X3329119Y2383099D01*
G37*
X3329119Y2383099D02*
X3428947Y2292932D01*
X3470087Y2141805D01*
X3471334Y2102750D01*
X3438112Y1939711D01*
X3345001Y1829443D01*
X3201826Y1782238D01*
X3164417Y1781342D01*
X3051869Y1789953D01*
X2974056Y1805980D01*
X2973917Y1806036D01*
X2925736Y1861850D01*
X2921000Y1889279D01*
X2940693Y1928355D01*
X3012318Y1932361D01*
X3069631Y1923286D01*
X3209083Y1918290D01*
X3281298Y1947718D01*
X3337712Y2011797D01*
X3319515Y2052149D01*
X3223430Y2071564D01*
X3132667Y2074333D01*
X3006006Y2078618D01*
X2942820Y2097256D01*
X2922105Y2138924D01*
X2921000Y2161783D01*
X2936722Y2243666D01*
X3069167Y2243666D01*
X3085709Y2213685D01*
X3168072Y2201354D01*
X3172502Y2201333D01*
X3262747Y2213377D01*
X3301949Y2242474D01*
X3302000Y2243666D01*
X3265850Y2275766D01*
X3198665Y2286000D01*
X3109029Y2270391D01*
X3069167Y2243666D01*
X2936722Y2243666D01*
X2948661Y2305842D01*
X3033988Y2388364D01*
X3169928Y2413000D01*
X3329119Y2383099D01*
G36*
X3691445Y2610677D02*
G01*
X3710456Y2559426D01*
X3720956Y2456986D01*
X3725033Y2289433D01*
X3725334Y2201333D01*
X3723235Y2003924D01*
X3715547Y1877183D01*
X3700181Y1807185D01*
X3675048Y1780003D01*
X3661834Y1778000D01*
X3632222Y1791989D01*
X3613211Y1843240D01*
X3602711Y1945680D01*
X3598634Y2113234D01*
X3598334Y2201333D01*
X3600432Y2398742D01*
X3608120Y2525483D01*
X3623486Y2595481D01*
X3648619Y2622663D01*
X3661834Y2624666D01*
X3691445Y2610677D01*
G37*
X3691445Y2610677D02*
X3710456Y2559426D01*
X3720956Y2456986D01*
X3725033Y2289433D01*
X3725334Y2201333D01*
X3723235Y2003924D01*
X3715547Y1877183D01*
X3700181Y1807185D01*
X3675048Y1780003D01*
X3661834Y1778000D01*
X3632222Y1791989D01*
X3613211Y1843240D01*
X3602711Y1945680D01*
X3598634Y2113234D01*
X3598334Y2201333D01*
X3600432Y2398742D01*
X3608120Y2525483D01*
X3623486Y2595481D01*
X3648619Y2622663D01*
X3661834Y2624666D01*
X3691445Y2610677D01*
G36*
X4979428Y2372438D02*
G01*
X5013476Y2346476D01*
X5064441Y2245901D01*
X5080779Y2106162D01*
X5063306Y1964587D01*
X5012838Y1858505D01*
X5002583Y1848061D01*
X4884285Y1787445D01*
X4749702Y1783010D01*
X4633015Y1832740D01*
X4595567Y1872086D01*
X4542637Y2000238D01*
X4536127Y2093383D01*
X4657315Y2093383D01*
X4684129Y1989074D01*
X4750180Y1924270D01*
X4831159Y1906497D01*
X4902755Y1943281D01*
X4934776Y2007485D01*
X4949031Y2156829D01*
X4903570Y2248995D01*
X4830355Y2279120D01*
X4725356Y2261417D01*
X4667525Y2175383D01*
X4657315Y2093383D01*
X4536127Y2093383D01*
X4532287Y2148315D01*
X4563651Y2280881D01*
X4607084Y2342939D01*
X4719775Y2398784D01*
X4857252Y2408733D01*
X4979428Y2372438D01*
G37*
X4979428Y2372438D02*
X5013476Y2346476D01*
X5064441Y2245901D01*
X5080779Y2106162D01*
X5063306Y1964587D01*
X5012838Y1858505D01*
X5002583Y1848061D01*
X4884285Y1787445D01*
X4749702Y1783010D01*
X4633015Y1832740D01*
X4595567Y1872086D01*
X4542637Y2000238D01*
X4536127Y2093383D01*
X4657315Y2093383D01*
X4684129Y1989074D01*
X4750180Y1924270D01*
X4831159Y1906497D01*
X4902755Y1943281D01*
X4934776Y2007485D01*
X4949031Y2156829D01*
X4903570Y2248995D01*
X4830355Y2279120D01*
X4725356Y2261417D01*
X4667525Y2175383D01*
X4657315Y2093383D01*
X4536127Y2093383D01*
X4532287Y2148315D01*
X4563651Y2280881D01*
X4607084Y2342939D01*
X4719775Y2398784D01*
X4857252Y2408733D01*
X4979428Y2372438D01*
G36*
X5542678Y2397769D02*
G01*
X5653406Y2326228D01*
X5710375Y2219392D01*
X5731934Y2095500D01*
X5698659Y1933603D01*
X5604286Y1826320D01*
X5456984Y1781953D01*
X5422689Y1781342D01*
X5305848Y1789248D01*
X5222940Y1804108D01*
X5217584Y1806036D01*
X5169403Y1861850D01*
X5164667Y1889279D01*
X5184360Y1928355D01*
X5255984Y1932361D01*
X5313298Y1923286D01*
X5452750Y1918290D01*
X5524964Y1947718D01*
X5581379Y2011797D01*
X5563182Y2052149D01*
X5467097Y2071564D01*
X5376334Y2074333D01*
X5250472Y2078025D01*
X5187674Y2095825D01*
X5166431Y2137821D01*
X5164667Y2173605D01*
X5186078Y2243666D01*
X5334000Y2243666D01*
X5370843Y2214165D01*
X5459852Y2201350D01*
X5463499Y2201333D01*
X5548127Y2212798D01*
X5567668Y2242214D01*
X5566834Y2243666D01*
X5508480Y2276436D01*
X5437335Y2286000D01*
X5358981Y2271190D01*
X5334000Y2243666D01*
X5186078Y2243666D01*
X5200521Y2290923D01*
X5291778Y2372480D01*
X5413982Y2410641D01*
X5542678Y2397769D01*
G37*
X5542678Y2397769D02*
X5653406Y2326228D01*
X5710375Y2219392D01*
X5731934Y2095500D01*
X5698659Y1933603D01*
X5604286Y1826320D01*
X5456984Y1781953D01*
X5422689Y1781342D01*
X5305848Y1789248D01*
X5222940Y1804108D01*
X5217584Y1806036D01*
X5169403Y1861850D01*
X5164667Y1889279D01*
X5184360Y1928355D01*
X5255984Y1932361D01*
X5313298Y1923286D01*
X5452750Y1918290D01*
X5524964Y1947718D01*
X5581379Y2011797D01*
X5563182Y2052149D01*
X5467097Y2071564D01*
X5376334Y2074333D01*
X5250472Y2078025D01*
X5187674Y2095825D01*
X5166431Y2137821D01*
X5164667Y2173605D01*
X5186078Y2243666D01*
X5334000Y2243666D01*
X5370843Y2214165D01*
X5459852Y2201350D01*
X5463499Y2201333D01*
X5548127Y2212798D01*
X5567668Y2242214D01*
X5566834Y2243666D01*
X5508480Y2276436D01*
X5437335Y2286000D01*
X5358981Y2271190D01*
X5334000Y2243666D01*
X5186078Y2243666D01*
X5200521Y2290923D01*
X5291778Y2372480D01*
X5413982Y2410641D01*
X5542678Y2397769D01*
G36*
X6307667Y2201333D02*
G01*
X6305568Y2003924D01*
X6297881Y1877183D01*
X6282515Y1807185D01*
X6257382Y1780003D01*
X6244167Y1778000D01*
X6197201Y1810130D01*
X6180782Y1912672D01*
X6180667Y1926166D01*
X6170971Y2028616D01*
X6133694Y2069809D01*
X6097992Y2074333D01*
X5947225Y2103351D01*
X5837093Y2178283D01*
X5773482Y2280951D01*
X5767812Y2337735D01*
X5924566Y2337735D01*
X5942077Y2259882D01*
X5979584Y2229370D01*
X6095847Y2200863D01*
X6159870Y2236220D01*
X6180604Y2340787D01*
X6180667Y2349500D01*
X6174674Y2453594D01*
X6141128Y2491157D01*
X6056678Y2480060D01*
X6021917Y2470984D01*
X5953280Y2420088D01*
X5924566Y2337735D01*
X5767812Y2337735D01*
X5762276Y2393173D01*
X5809358Y2496770D01*
X5920613Y2573561D01*
X5934714Y2578795D01*
X6069572Y2612349D01*
X6186984Y2624666D01*
X6307667Y2624666D01*
X6307667Y2201333D01*
G37*
X6307667Y2201333D02*
X6305568Y2003924D01*
X6297881Y1877183D01*
X6282515Y1807185D01*
X6257382Y1780003D01*
X6244167Y1778000D01*
X6197201Y1810130D01*
X6180782Y1912672D01*
X6180667Y1926166D01*
X6170971Y2028616D01*
X6133694Y2069809D01*
X6097992Y2074333D01*
X5947225Y2103351D01*
X5837093Y2178283D01*
X5773482Y2280951D01*
X5767812Y2337735D01*
X5924566Y2337735D01*
X5942077Y2259882D01*
X5979584Y2229370D01*
X6095847Y2200863D01*
X6159870Y2236220D01*
X6180604Y2340787D01*
X6180667Y2349500D01*
X6174674Y2453594D01*
X6141128Y2491157D01*
X6056678Y2480060D01*
X6021917Y2470984D01*
X5953280Y2420088D01*
X5924566Y2337735D01*
X5767812Y2337735D01*
X5762276Y2393173D01*
X5809358Y2496770D01*
X5920613Y2573561D01*
X5934714Y2578795D01*
X6069572Y2612349D01*
X6186984Y2624666D01*
X6307667Y2624666D01*
X6307667Y2201333D01*
G36*
X6584654Y2596705D02*
G01*
X6602848Y2504015D01*
X6604000Y2455333D01*
X6593515Y2337591D01*
X6558756Y2289073D01*
X6540500Y2286000D01*
X6496347Y2313961D01*
X6478153Y2406651D01*
X6477000Y2455333D01*
X6487486Y2573076D01*
X6522244Y2621593D01*
X6540500Y2624666D01*
X6584654Y2596705D01*
G37*
X6584654Y2596705D02*
X6602848Y2504015D01*
X6604000Y2455333D01*
X6593515Y2337591D01*
X6558756Y2289073D01*
X6540500Y2286000D01*
X6496347Y2313961D01*
X6478153Y2406651D01*
X6477000Y2455333D01*
X6487486Y2573076D01*
X6522244Y2621593D01*
X6540500Y2624666D01*
X6584654Y2596705D01*
G36*
X6796320Y2596705D02*
G01*
X6814514Y2504015D01*
X6815667Y2455333D01*
X6805181Y2337591D01*
X6770423Y2289073D01*
X6752167Y2286000D01*
X6708013Y2313961D01*
X6689819Y2406651D01*
X6688667Y2455333D01*
X6699152Y2573076D01*
X6733911Y2621593D01*
X6752167Y2624666D01*
X6796320Y2596705D01*
G37*
X6796320Y2596705D02*
X6814514Y2504015D01*
X6815667Y2455333D01*
X6805181Y2337591D01*
X6770423Y2289073D01*
X6752167Y2286000D01*
X6708013Y2313961D01*
X6689819Y2406651D01*
X6688667Y2455333D01*
X6699152Y2573076D01*
X6733911Y2621593D01*
X6752167Y2624666D01*
X6796320Y2596705D01*
G36*
X94934Y12691851D02*
G01*
X219946Y12672139D01*
X292041Y12625306D01*
X328205Y12566323D01*
X361907Y12427911D01*
X330488Y12315206D01*
X242844Y12246632D01*
X167883Y12234333D01*
X82656Y12222950D01*
X62541Y12193690D01*
X63500Y12192000D01*
X121651Y12159641D01*
X196526Y12149666D01*
X274701Y12132640D01*
X285962Y12096750D01*
X230102Y12043182D01*
X132828Y12036783D01*
X23704Y12078565D01*
X10584Y12087311D01*
X-42259Y12136247D01*
X-71199Y12204704D01*
X-82993Y12316962D01*
X-84666Y12429668D01*
X-84666Y12439137D01*
X43020Y12439137D01*
X61990Y12358365D01*
X70556Y12347222D01*
X144043Y12319248D01*
X211416Y12362201D01*
X234332Y12408387D01*
X233223Y12495886D01*
X190360Y12570864D01*
X126991Y12605842D01*
X88729Y12596677D01*
X53105Y12534658D01*
X43020Y12439137D01*
X-84666Y12439137D01*
X-84666Y12704868D01*
X94934Y12691851D01*
G37*
X94934Y12691851D02*
X219946Y12672139D01*
X292041Y12625306D01*
X328205Y12566323D01*
X361907Y12427911D01*
X330488Y12315206D01*
X242844Y12246632D01*
X167883Y12234333D01*
X82656Y12222950D01*
X62541Y12193690D01*
X63500Y12192000D01*
X121651Y12159641D01*
X196526Y12149666D01*
X274701Y12132640D01*
X285962Y12096750D01*
X230102Y12043182D01*
X132828Y12036783D01*
X23704Y12078565D01*
X10584Y12087311D01*
X-42259Y12136247D01*
X-71199Y12204704D01*
X-82993Y12316962D01*
X-84666Y12429668D01*
X-84666Y12439137D01*
X43020Y12439137D01*
X61990Y12358365D01*
X70556Y12347222D01*
X144043Y12319248D01*
X211416Y12362201D01*
X234332Y12408387D01*
X233223Y12495886D01*
X190360Y12570864D01*
X126991Y12605842D01*
X88729Y12596677D01*
X53105Y12534658D01*
X43020Y12439137D01*
X-84666Y12439137D01*
X-84666Y12704868D01*
X94934Y12691851D01*
G36*
X-17072119Y12326040D02*
G01*
X-17060333Y12276666D01*
X-17086803Y12207714D01*
X-17123833Y12192000D01*
X-17175547Y12227293D01*
X-17187333Y12276666D01*
X-17160863Y12345619D01*
X-17123833Y12361333D01*
X-17072119Y12326040D01*
G37*
X-17072119Y12326040D02*
X-17060333Y12276666D01*
X-17086803Y12207714D01*
X-17123833Y12192000D01*
X-17175547Y12227293D01*
X-17187333Y12276666D01*
X-17160863Y12345619D01*
X-17123833Y12361333D01*
X-17072119Y12326040D01*
G36*
X-16774583Y12691972D02*
G01*
X-16667339Y12674238D01*
X-16618219Y12632285D01*
X-16602916Y12567371D01*
X-16609236Y12482451D01*
X-16668349Y12431148D01*
X-16719333Y12410823D01*
X-16819777Y12366218D01*
X-16842287Y12333553D01*
X-16785972Y12319065D01*
X-16732250Y12320295D01*
X-16614718Y12324505D01*
X-16567783Y12312165D01*
X-16577992Y12276940D01*
X-16594666Y12255500D01*
X-16689737Y12200330D01*
X-16812737Y12202909D01*
X-16908679Y12247715D01*
X-16968093Y12327905D01*
X-16951306Y12412395D01*
X-16864364Y12485399D01*
X-16808672Y12508742D01*
X-16718899Y12549618D01*
X-16706904Y12583914D01*
X-16713801Y12589305D01*
X-16793202Y12603582D01*
X-16849045Y12594046D01*
X-16917066Y12591159D01*
X-16933333Y12636203D01*
X-16913941Y12681452D01*
X-16842739Y12695269D01*
X-16774583Y12691972D01*
G37*
X-16774583Y12691972D02*
X-16667339Y12674238D01*
X-16618219Y12632285D01*
X-16602916Y12567371D01*
X-16609236Y12482451D01*
X-16668349Y12431148D01*
X-16719333Y12410823D01*
X-16819777Y12366218D01*
X-16842287Y12333553D01*
X-16785972Y12319065D01*
X-16732250Y12320295D01*
X-16614718Y12324505D01*
X-16567783Y12312165D01*
X-16577992Y12276940D01*
X-16594666Y12255500D01*
X-16689737Y12200330D01*
X-16812737Y12202909D01*
X-16908679Y12247715D01*
X-16968093Y12327905D01*
X-16951306Y12412395D01*
X-16864364Y12485399D01*
X-16808672Y12508742D01*
X-16718899Y12549618D01*
X-16706904Y12583914D01*
X-16713801Y12589305D01*
X-16793202Y12603582D01*
X-16849045Y12594046D01*
X-16917066Y12591159D01*
X-16933333Y12636203D01*
X-16913941Y12681452D01*
X-16842739Y12695269D01*
X-16774583Y12691972D01*
G36*
X-16409628Y12680493D02*
G01*
X-16389832Y12611343D01*
X-16383125Y12476604D01*
X-16383000Y12446000D01*
X-16387877Y12298514D01*
X-16405164Y12219329D01*
X-16438849Y12192501D01*
X-16446500Y12192000D01*
X-16483371Y12211507D01*
X-16503168Y12280657D01*
X-16509875Y12415396D01*
X-16510000Y12446000D01*
X-16505123Y12593486D01*
X-16487836Y12672671D01*
X-16454151Y12699499D01*
X-16446500Y12700000D01*
X-16409628Y12680493D01*
G37*
X-16409628Y12680493D02*
X-16389832Y12611343D01*
X-16383125Y12476604D01*
X-16383000Y12446000D01*
X-16387877Y12298514D01*
X-16405164Y12219329D01*
X-16438849Y12192501D01*
X-16446500Y12192000D01*
X-16483371Y12211507D01*
X-16503168Y12280657D01*
X-16509875Y12415396D01*
X-16510000Y12446000D01*
X-16505123Y12593486D01*
X-16487836Y12672671D01*
X-16454151Y12699499D01*
X-16446500Y12700000D01*
X-16409628Y12680493D01*
G36*
X-15863585Y12853382D02*
G01*
X-15844032Y12795505D01*
X-15834688Y12680671D01*
X-15832666Y12530666D01*
X-15835657Y12356900D01*
X-15846509Y12252616D01*
X-15868041Y12202781D01*
X-15896166Y12192000D01*
X-15938476Y12217505D01*
X-15957401Y12303821D01*
X-15959666Y12377971D01*
X-15974140Y12520291D01*
X-16018211Y12586191D01*
X-16022521Y12588061D01*
X-16089845Y12576212D01*
X-16142126Y12497560D01*
X-16169467Y12369811D01*
X-16171333Y12321783D01*
X-16183949Y12231426D01*
X-16214440Y12192058D01*
X-16215779Y12192000D01*
X-16240398Y12231645D01*
X-16249808Y12342002D01*
X-16247529Y12435416D01*
X-16238193Y12572506D01*
X-16220141Y12646496D01*
X-16180797Y12678865D01*
X-16107587Y12691092D01*
X-16097250Y12692099D01*
X-15996877Y12715926D01*
X-15960827Y12769283D01*
X-15959666Y12787349D01*
X-15932496Y12854490D01*
X-15896166Y12869333D01*
X-15863585Y12853382D01*
G37*
X-15863585Y12853382D02*
X-15844032Y12795505D01*
X-15834688Y12680671D01*
X-15832666Y12530666D01*
X-15835657Y12356900D01*
X-15846509Y12252616D01*
X-15868041Y12202781D01*
X-15896166Y12192000D01*
X-15938476Y12217505D01*
X-15957401Y12303821D01*
X-15959666Y12377971D01*
X-15974140Y12520291D01*
X-16018211Y12586191D01*
X-16022521Y12588061D01*
X-16089845Y12576212D01*
X-16142126Y12497560D01*
X-16169467Y12369811D01*
X-16171333Y12321783D01*
X-16183949Y12231426D01*
X-16214440Y12192058D01*
X-16215779Y12192000D01*
X-16240398Y12231645D01*
X-16249808Y12342002D01*
X-16247529Y12435416D01*
X-16238193Y12572506D01*
X-16220141Y12646496D01*
X-16180797Y12678865D01*
X-16107587Y12691092D01*
X-16097250Y12692099D01*
X-15996877Y12715926D01*
X-15960827Y12769283D01*
X-15959666Y12787349D01*
X-15932496Y12854490D01*
X-15896166Y12869333D01*
X-15863585Y12853382D01*
G36*
X-15540525Y12792971D02*
G01*
X-15536333Y12767028D01*
X-15504312Y12698965D01*
X-15483416Y12685584D01*
X-15453236Y12656339D01*
X-15480499Y12628444D01*
X-15513719Y12567327D01*
X-15538505Y12455444D01*
X-15543999Y12402971D01*
X-15557827Y12284425D01*
X-15587464Y12226006D01*
X-15648599Y12203176D01*
X-15673916Y12199771D01*
X-15765883Y12206346D01*
X-15790333Y12247751D01*
X-15754841Y12306916D01*
X-15705666Y12331266D01*
X-15640924Y12376842D01*
X-15621021Y12479442D01*
X-15621000Y12484370D01*
X-15633428Y12579091D01*
X-15680158Y12613486D01*
X-15705666Y12615333D01*
X-15774457Y12633061D01*
X-15790333Y12657666D01*
X-15754877Y12692062D01*
X-15705666Y12700000D01*
X-15636714Y12726470D01*
X-15621000Y12763500D01*
X-15598141Y12819836D01*
X-15578666Y12827000D01*
X-15540525Y12792971D01*
G37*
X-15540525Y12792971D02*
X-15536333Y12767028D01*
X-15504312Y12698965D01*
X-15483416Y12685584D01*
X-15453236Y12656339D01*
X-15480499Y12628444D01*
X-15513719Y12567327D01*
X-15538505Y12455444D01*
X-15543999Y12402971D01*
X-15557827Y12284425D01*
X-15587464Y12226006D01*
X-15648599Y12203176D01*
X-15673916Y12199771D01*
X-15765883Y12206346D01*
X-15790333Y12247751D01*
X-15754841Y12306916D01*
X-15705666Y12331266D01*
X-15640924Y12376842D01*
X-15621021Y12479442D01*
X-15621000Y12484370D01*
X-15633428Y12579091D01*
X-15680158Y12613486D01*
X-15705666Y12615333D01*
X-15774457Y12633061D01*
X-15790333Y12657666D01*
X-15754877Y12692062D01*
X-15705666Y12700000D01*
X-15636714Y12726470D01*
X-15621000Y12763500D01*
X-15598141Y12819836D01*
X-15578666Y12827000D01*
X-15540525Y12792971D01*
G36*
X-15003685Y12845241D02*
G01*
X-14951130Y12766849D01*
X-14929822Y12624987D01*
X-14934633Y12435416D01*
X-14952600Y12283919D01*
X-14981943Y12206877D01*
X-15011084Y12192000D01*
X-15049397Y12219327D01*
X-15067754Y12309692D01*
X-15070666Y12403666D01*
X-15077464Y12536776D01*
X-15101001Y12601789D01*
X-15134166Y12615333D01*
X-15190502Y12638192D01*
X-15197666Y12657666D01*
X-15163378Y12695224D01*
X-15134166Y12700000D01*
X-15077831Y12722859D01*
X-15070666Y12742333D01*
X-15104955Y12779890D01*
X-15134166Y12784666D01*
X-15190502Y12807525D01*
X-15197666Y12827000D01*
X-15161407Y12858709D01*
X-15090785Y12869333D01*
X-15003685Y12845241D01*
G37*
X-15003685Y12845241D02*
X-14951130Y12766849D01*
X-14929822Y12624987D01*
X-14934633Y12435416D01*
X-14952600Y12283919D01*
X-14981943Y12206877D01*
X-15011084Y12192000D01*
X-15049397Y12219327D01*
X-15067754Y12309692D01*
X-15070666Y12403666D01*
X-15077464Y12536776D01*
X-15101001Y12601789D01*
X-15134166Y12615333D01*
X-15190502Y12638192D01*
X-15197666Y12657666D01*
X-15163378Y12695224D01*
X-15134166Y12700000D01*
X-15077831Y12722859D01*
X-15070666Y12742333D01*
X-15104955Y12779890D01*
X-15134166Y12784666D01*
X-15190502Y12807525D01*
X-15197666Y12827000D01*
X-15161407Y12858709D01*
X-15090785Y12869333D01*
X-15003685Y12845241D01*
G36*
X-14498549Y12677089D02*
G01*
X-14437156Y12618116D01*
X-14397485Y12482544D01*
X-14415243Y12358401D01*
X-14476259Y12259734D01*
X-14566361Y12200590D01*
X-14671378Y12195016D01*
X-14777140Y12257059D01*
X-14788939Y12269417D01*
X-14851351Y12396836D01*
X-14847673Y12472805D01*
X-14730742Y12472805D01*
X-14714541Y12376898D01*
X-14665610Y12321729D01*
X-14604871Y12330954D01*
X-14556048Y12392117D01*
X-14541500Y12467746D01*
X-14555022Y12560549D01*
X-14605038Y12592990D01*
X-14625587Y12594166D01*
X-14699862Y12559472D01*
X-14730742Y12472805D01*
X-14847673Y12472805D01*
X-14844098Y12546612D01*
X-14815177Y12618116D01*
X-14739735Y12683175D01*
X-14626166Y12700000D01*
X-14498549Y12677089D01*
G37*
X-14498549Y12677089D02*
X-14437156Y12618116D01*
X-14397485Y12482544D01*
X-14415243Y12358401D01*
X-14476259Y12259734D01*
X-14566361Y12200590D01*
X-14671378Y12195016D01*
X-14777140Y12257059D01*
X-14788939Y12269417D01*
X-14851351Y12396836D01*
X-14847673Y12472805D01*
X-14730742Y12472805D01*
X-14714541Y12376898D01*
X-14665610Y12321729D01*
X-14604871Y12330954D01*
X-14556048Y12392117D01*
X-14541500Y12467746D01*
X-14555022Y12560549D01*
X-14605038Y12592990D01*
X-14625587Y12594166D01*
X-14699862Y12559472D01*
X-14730742Y12472805D01*
X-14847673Y12472805D01*
X-14844098Y12546612D01*
X-14815177Y12618116D01*
X-14739735Y12683175D01*
X-14626166Y12700000D01*
X-14498549Y12677089D01*
G36*
X-13801272Y12779763D02*
G01*
X-13794981Y12752916D01*
X-13792523Y12606611D01*
X-13803294Y12453542D01*
X-13823904Y12323652D01*
X-13850965Y12246886D01*
X-13852478Y12244916D01*
X-13930124Y12199690D01*
X-14023836Y12197026D01*
X-14068778Y12220222D01*
X-14095899Y12280636D01*
X-14048141Y12315704D01*
X-14012333Y12319000D01*
X-13953979Y12335574D01*
X-13930434Y12400278D01*
X-13927666Y12467166D01*
X-13937137Y12569286D01*
X-13974111Y12610490D01*
X-14012333Y12615333D01*
X-14081123Y12633061D01*
X-14097000Y12657666D01*
X-14061544Y12692062D01*
X-14012333Y12700000D01*
X-13943381Y12726470D01*
X-13927666Y12763500D01*
X-13900858Y12817401D01*
X-13845961Y12821804D01*
X-13801272Y12779763D01*
G37*
X-13801272Y12779763D02*
X-13794981Y12752916D01*
X-13792523Y12606611D01*
X-13803294Y12453542D01*
X-13823904Y12323652D01*
X-13850965Y12246886D01*
X-13852478Y12244916D01*
X-13930124Y12199690D01*
X-14023836Y12197026D01*
X-14068778Y12220222D01*
X-14095899Y12280636D01*
X-14048141Y12315704D01*
X-14012333Y12319000D01*
X-13953979Y12335574D01*
X-13930434Y12400278D01*
X-13927666Y12467166D01*
X-13937137Y12569286D01*
X-13974111Y12610490D01*
X-14012333Y12615333D01*
X-14081123Y12633061D01*
X-14097000Y12657666D01*
X-14061544Y12692062D01*
X-14012333Y12700000D01*
X-13943381Y12726470D01*
X-13927666Y12763500D01*
X-13900858Y12817401D01*
X-13845961Y12821804D01*
X-13801272Y12779763D01*
G36*
X-13317669Y12677286D02*
G01*
X-13301730Y12589934D01*
X-13301137Y12456583D01*
X-13313833Y12213166D01*
X-13496782Y12207022D01*
X-13629251Y12215240D01*
X-13696920Y12248263D01*
X-13700536Y12255096D01*
X-13710613Y12329062D01*
X-13710553Y12448141D01*
X-13708087Y12490783D01*
X-13685986Y12624026D01*
X-13651375Y12684935D01*
X-13614869Y12670838D01*
X-13587083Y12579066D01*
X-13580981Y12522756D01*
X-13565467Y12405612D01*
X-13533822Y12351848D01*
X-13483166Y12340166D01*
X-13427396Y12355686D01*
X-13398146Y12416382D01*
X-13385482Y12520083D01*
X-13367240Y12648154D01*
X-13342071Y12698624D01*
X-13317669Y12677286D01*
G37*
X-13317669Y12677286D02*
X-13301730Y12589934D01*
X-13301137Y12456583D01*
X-13313833Y12213166D01*
X-13496782Y12207022D01*
X-13629251Y12215240D01*
X-13696920Y12248263D01*
X-13700536Y12255096D01*
X-13710613Y12329062D01*
X-13710553Y12448141D01*
X-13708087Y12490783D01*
X-13685986Y12624026D01*
X-13651375Y12684935D01*
X-13614869Y12670838D01*
X-13587083Y12579066D01*
X-13580981Y12522756D01*
X-13565467Y12405612D01*
X-13533822Y12351848D01*
X-13483166Y12340166D01*
X-13427396Y12355686D01*
X-13398146Y12416382D01*
X-13385482Y12520083D01*
X-13367240Y12648154D01*
X-13342071Y12698624D01*
X-13317669Y12677286D01*
G36*
X-12832565Y12664941D02*
G01*
X-12761467Y12563121D01*
X-12742333Y12430640D01*
X-12775134Y12306560D01*
X-12857526Y12224731D01*
X-12965493Y12193837D01*
X-13075019Y12222561D01*
X-13142099Y12286086D01*
X-13202037Y12426476D01*
X-13201236Y12435543D01*
X-13075628Y12435543D01*
X-13048226Y12358386D01*
X-12982676Y12325350D01*
X-12964711Y12327034D01*
X-12905792Y12374016D01*
X-12890500Y12467746D01*
X-12913004Y12565468D01*
X-12967843Y12594408D01*
X-13036002Y12547700D01*
X-13051373Y12525837D01*
X-13075628Y12435543D01*
X-13201236Y12435543D01*
X-13190738Y12554326D01*
X-13116707Y12651072D01*
X-12988451Y12698149D01*
X-12952465Y12700000D01*
X-12832565Y12664941D01*
G37*
X-12832565Y12664941D02*
X-12761467Y12563121D01*
X-12742333Y12430640D01*
X-12775134Y12306560D01*
X-12857526Y12224731D01*
X-12965493Y12193837D01*
X-13075019Y12222561D01*
X-13142099Y12286086D01*
X-13202037Y12426476D01*
X-13201236Y12435543D01*
X-13075628Y12435543D01*
X-13048226Y12358386D01*
X-12982676Y12325350D01*
X-12964711Y12327034D01*
X-12905792Y12374016D01*
X-12890500Y12467746D01*
X-12913004Y12565468D01*
X-12967843Y12594408D01*
X-13036002Y12547700D01*
X-13051373Y12525837D01*
X-13075628Y12435543D01*
X-13201236Y12435543D01*
X-13190738Y12554326D01*
X-13116707Y12651072D01*
X-12988451Y12698149D01*
X-12952465Y12700000D01*
X-12832565Y12664941D01*
G36*
X-12150272Y12779763D02*
G01*
X-12143981Y12752916D01*
X-12141523Y12606611D01*
X-12152294Y12453542D01*
X-12172904Y12323652D01*
X-12199965Y12246886D01*
X-12201478Y12244916D01*
X-12279124Y12199690D01*
X-12372836Y12197026D01*
X-12417778Y12220222D01*
X-12444899Y12280636D01*
X-12397141Y12315704D01*
X-12361333Y12319000D01*
X-12302979Y12335574D01*
X-12279434Y12400278D01*
X-12276666Y12467166D01*
X-12286137Y12569286D01*
X-12323111Y12610490D01*
X-12361333Y12615333D01*
X-12430123Y12633061D01*
X-12446000Y12657666D01*
X-12410544Y12692062D01*
X-12361333Y12700000D01*
X-12292381Y12726470D01*
X-12276666Y12763500D01*
X-12249858Y12817401D01*
X-12194961Y12821804D01*
X-12150272Y12779763D01*
G37*
X-12150272Y12779763D02*
X-12143981Y12752916D01*
X-12141523Y12606611D01*
X-12152294Y12453542D01*
X-12172904Y12323652D01*
X-12199965Y12246886D01*
X-12201478Y12244916D01*
X-12279124Y12199690D01*
X-12372836Y12197026D01*
X-12417778Y12220222D01*
X-12444899Y12280636D01*
X-12397141Y12315704D01*
X-12361333Y12319000D01*
X-12302979Y12335574D01*
X-12279434Y12400278D01*
X-12276666Y12467166D01*
X-12286137Y12569286D01*
X-12323111Y12610490D01*
X-12361333Y12615333D01*
X-12430123Y12633061D01*
X-12446000Y12657666D01*
X-12410544Y12692062D01*
X-12361333Y12700000D01*
X-12292381Y12726470D01*
X-12276666Y12763500D01*
X-12249858Y12817401D01*
X-12194961Y12821804D01*
X-12150272Y12779763D01*
G36*
X-11957784Y12661440D02*
G01*
X-11942496Y12560709D01*
X-11938000Y12446000D01*
X-11944426Y12310705D01*
X-11961215Y12218980D01*
X-11980333Y12192000D01*
X-12002882Y12230560D01*
X-12018170Y12331291D01*
X-12022666Y12446000D01*
X-12016240Y12581295D01*
X-11999451Y12673020D01*
X-11980333Y12700000D01*
X-11957784Y12661440D01*
G37*
X-11957784Y12661440D02*
X-11942496Y12560709D01*
X-11938000Y12446000D01*
X-11944426Y12310705D01*
X-11961215Y12218980D01*
X-11980333Y12192000D01*
X-12002882Y12230560D01*
X-12018170Y12331291D01*
X-12022666Y12446000D01*
X-12016240Y12581295D01*
X-11999451Y12673020D01*
X-11980333Y12700000D01*
X-11957784Y12661440D01*
G36*
X-11418585Y12853382D02*
G01*
X-11399032Y12795505D01*
X-11389688Y12680671D01*
X-11387666Y12530666D01*
X-11390657Y12356900D01*
X-11401509Y12252616D01*
X-11423041Y12202781D01*
X-11451166Y12192000D01*
X-11493476Y12217505D01*
X-11512401Y12303821D01*
X-11514666Y12377971D01*
X-11528729Y12517645D01*
X-11569443Y12584640D01*
X-11574028Y12586720D01*
X-11635787Y12594698D01*
X-11669853Y12550132D01*
X-11683043Y12439931D01*
X-11684000Y12375444D01*
X-11692452Y12253737D01*
X-11721661Y12199210D01*
X-11749612Y12192000D01*
X-11786812Y12207840D01*
X-11803900Y12267164D01*
X-11804722Y12387672D01*
X-11802529Y12435416D01*
X-11793193Y12572506D01*
X-11775141Y12646496D01*
X-11735797Y12678865D01*
X-11662587Y12691092D01*
X-11652250Y12692099D01*
X-11551877Y12715926D01*
X-11515827Y12769283D01*
X-11514666Y12787349D01*
X-11487496Y12854490D01*
X-11451166Y12869333D01*
X-11418585Y12853382D01*
G37*
X-11418585Y12853382D02*
X-11399032Y12795505D01*
X-11389688Y12680671D01*
X-11387666Y12530666D01*
X-11390657Y12356900D01*
X-11401509Y12252616D01*
X-11423041Y12202781D01*
X-11451166Y12192000D01*
X-11493476Y12217505D01*
X-11512401Y12303821D01*
X-11514666Y12377971D01*
X-11528729Y12517645D01*
X-11569443Y12584640D01*
X-11574028Y12586720D01*
X-11635787Y12594698D01*
X-11669853Y12550132D01*
X-11683043Y12439931D01*
X-11684000Y12375444D01*
X-11692452Y12253737D01*
X-11721661Y12199210D01*
X-11749612Y12192000D01*
X-11786812Y12207840D01*
X-11803900Y12267164D01*
X-11804722Y12387672D01*
X-11802529Y12435416D01*
X-11793193Y12572506D01*
X-11775141Y12646496D01*
X-11735797Y12678865D01*
X-11662587Y12691092D01*
X-11652250Y12692099D01*
X-11551877Y12715926D01*
X-11515827Y12769283D01*
X-11514666Y12787349D01*
X-11487496Y12854490D01*
X-11451166Y12869333D01*
X-11418585Y12853382D01*
G36*
X-11081035Y12693150D02*
G01*
X-10990500Y12658348D01*
X-10961388Y12632951D01*
X-10933543Y12546051D01*
X-10973009Y12463203D01*
X-11065762Y12411981D01*
X-11074704Y12410141D01*
X-11172370Y12379354D01*
X-11200140Y12346379D01*
X-11156747Y12327575D01*
X-11080750Y12331992D01*
X-10970009Y12339633D01*
X-10924890Y12315794D01*
X-10922000Y12299701D01*
X-10958528Y12237376D01*
X-11049466Y12201396D01*
X-11166849Y12198551D01*
X-11250083Y12220036D01*
X-11290680Y12274080D01*
X-11303000Y12345896D01*
X-11278100Y12433452D01*
X-11190404Y12489435D01*
X-11176050Y12494659D01*
X-11089930Y12542134D01*
X-11079199Y12583720D01*
X-11138862Y12599390D01*
X-11199761Y12589733D01*
X-11279074Y12583888D01*
X-11302943Y12627879D01*
X-11303000Y12631911D01*
X-11268074Y12679838D01*
X-11183823Y12700282D01*
X-11081035Y12693150D01*
G37*
X-11081035Y12693150D02*
X-10990500Y12658348D01*
X-10961388Y12632951D01*
X-10933543Y12546051D01*
X-10973009Y12463203D01*
X-11065762Y12411981D01*
X-11074704Y12410141D01*
X-11172370Y12379354D01*
X-11200140Y12346379D01*
X-11156747Y12327575D01*
X-11080750Y12331992D01*
X-10970009Y12339633D01*
X-10924890Y12315794D01*
X-10922000Y12299701D01*
X-10958528Y12237376D01*
X-11049466Y12201396D01*
X-11166849Y12198551D01*
X-11250083Y12220036D01*
X-11290680Y12274080D01*
X-11303000Y12345896D01*
X-11278100Y12433452D01*
X-11190404Y12489435D01*
X-11176050Y12494659D01*
X-11089930Y12542134D01*
X-11079199Y12583720D01*
X-11138862Y12599390D01*
X-11199761Y12589733D01*
X-11279074Y12583888D01*
X-11302943Y12627879D01*
X-11303000Y12631911D01*
X-11268074Y12679838D01*
X-11183823Y12700282D01*
X-11081035Y12693150D01*
G36*
X-10241990Y12666388D02*
G01*
X-10168726Y12568522D01*
X-10151032Y12435260D01*
X-10189638Y12300486D01*
X-10284852Y12216553D01*
X-10419151Y12193403D01*
X-10530416Y12220036D01*
X-10579567Y12276001D01*
X-10583333Y12298699D01*
X-10556624Y12335930D01*
X-10467642Y12336840D01*
X-10441431Y12332983D01*
X-10333193Y12328115D01*
X-10279992Y12363931D01*
X-10273426Y12377977D01*
X-10271628Y12422253D01*
X-10323051Y12442143D01*
X-10415328Y12446000D01*
X-10527182Y12454138D01*
X-10575866Y12484740D01*
X-10583333Y12522200D01*
X-10576156Y12543554D01*
X-10443305Y12543554D01*
X-10392042Y12530975D01*
X-10371666Y12530666D01*
X-10304379Y12539204D01*
X-10311142Y12571124D01*
X-10320866Y12581466D01*
X-10378473Y12610469D01*
X-10422466Y12581466D01*
X-10443305Y12543554D01*
X-10576156Y12543554D01*
X-10547200Y12629696D01*
X-10447331Y12690394D01*
X-10368383Y12700000D01*
X-10241990Y12666388D01*
G37*
X-10241990Y12666388D02*
X-10168726Y12568522D01*
X-10151032Y12435260D01*
X-10189638Y12300486D01*
X-10284852Y12216553D01*
X-10419151Y12193403D01*
X-10530416Y12220036D01*
X-10579567Y12276001D01*
X-10583333Y12298699D01*
X-10556624Y12335930D01*
X-10467642Y12336840D01*
X-10441431Y12332983D01*
X-10333193Y12328115D01*
X-10279992Y12363931D01*
X-10273426Y12377977D01*
X-10271628Y12422253D01*
X-10323051Y12442143D01*
X-10415328Y12446000D01*
X-10527182Y12454138D01*
X-10575866Y12484740D01*
X-10583333Y12522200D01*
X-10576156Y12543554D01*
X-10443305Y12543554D01*
X-10392042Y12530975D01*
X-10371666Y12530666D01*
X-10304379Y12539204D01*
X-10311142Y12571124D01*
X-10320866Y12581466D01*
X-10378473Y12610469D01*
X-10422466Y12581466D01*
X-10443305Y12543554D01*
X-10576156Y12543554D01*
X-10547200Y12629696D01*
X-10447331Y12690394D01*
X-10368383Y12700000D01*
X-10241990Y12666388D01*
G36*
X-9683063Y12853486D02*
G01*
X-9663529Y12795953D01*
X-9654118Y12681747D01*
X-9652000Y12527139D01*
X-9655608Y12348862D01*
X-9667591Y12244317D01*
X-9689688Y12202829D01*
X-9704916Y12202343D01*
X-9741341Y12251430D01*
X-9771121Y12354739D01*
X-9779000Y12406954D01*
X-9805941Y12538080D01*
X-9849808Y12592009D01*
X-9863666Y12594166D01*
X-9907424Y12565458D01*
X-9932725Y12471248D01*
X-9940069Y12393083D01*
X-9958573Y12258000D01*
X-9993814Y12197418D01*
X-10014153Y12192000D01*
X-10053829Y12218153D01*
X-10072500Y12305727D01*
X-10075333Y12395200D01*
X-10059735Y12561421D01*
X-10008273Y12658772D01*
X-9913946Y12697974D01*
X-9876366Y12700000D01*
X-9797826Y12723548D01*
X-9779000Y12784666D01*
X-9752530Y12853619D01*
X-9715500Y12869333D01*
X-9683063Y12853486D01*
G37*
X-9683063Y12853486D02*
X-9663529Y12795953D01*
X-9654118Y12681747D01*
X-9652000Y12527139D01*
X-9655608Y12348862D01*
X-9667591Y12244317D01*
X-9689688Y12202829D01*
X-9704916Y12202343D01*
X-9741341Y12251430D01*
X-9771121Y12354739D01*
X-9779000Y12406954D01*
X-9805941Y12538080D01*
X-9849808Y12592009D01*
X-9863666Y12594166D01*
X-9907424Y12565458D01*
X-9932725Y12471248D01*
X-9940069Y12393083D01*
X-9958573Y12258000D01*
X-9993814Y12197418D01*
X-10014153Y12192000D01*
X-10053829Y12218153D01*
X-10072500Y12305727D01*
X-10075333Y12395200D01*
X-10059735Y12561421D01*
X-10008273Y12658772D01*
X-9913946Y12697974D01*
X-9876366Y12700000D01*
X-9797826Y12723548D01*
X-9779000Y12784666D01*
X-9752530Y12853619D01*
X-9715500Y12869333D01*
X-9683063Y12853486D01*
G36*
X-9313939Y12779763D02*
G01*
X-9307648Y12752916D01*
X-9305190Y12606611D01*
X-9315961Y12453542D01*
X-9336571Y12323652D01*
X-9363631Y12246886D01*
X-9365144Y12244916D01*
X-9442791Y12199690D01*
X-9536503Y12197026D01*
X-9581444Y12220222D01*
X-9608566Y12280636D01*
X-9560808Y12315704D01*
X-9525000Y12319000D01*
X-9466646Y12335574D01*
X-9443101Y12400278D01*
X-9440333Y12467166D01*
X-9449804Y12569286D01*
X-9486778Y12610490D01*
X-9525000Y12615333D01*
X-9593790Y12633061D01*
X-9609666Y12657666D01*
X-9574210Y12692062D01*
X-9525000Y12700000D01*
X-9456048Y12726470D01*
X-9440333Y12763500D01*
X-9413524Y12817401D01*
X-9358628Y12821804D01*
X-9313939Y12779763D01*
G37*
X-9313939Y12779763D02*
X-9307648Y12752916D01*
X-9305190Y12606611D01*
X-9315961Y12453542D01*
X-9336571Y12323652D01*
X-9363631Y12246886D01*
X-9365144Y12244916D01*
X-9442791Y12199690D01*
X-9536503Y12197026D01*
X-9581444Y12220222D01*
X-9608566Y12280636D01*
X-9560808Y12315704D01*
X-9525000Y12319000D01*
X-9466646Y12335574D01*
X-9443101Y12400278D01*
X-9440333Y12467166D01*
X-9449804Y12569286D01*
X-9486778Y12610490D01*
X-9525000Y12615333D01*
X-9593790Y12633061D01*
X-9609666Y12657666D01*
X-9574210Y12692062D01*
X-9525000Y12700000D01*
X-9456048Y12726470D01*
X-9440333Y12763500D01*
X-9413524Y12817401D01*
X-9358628Y12821804D01*
X-9313939Y12779763D01*
G36*
X-8598766Y12674197D02*
G01*
X-8530559Y12590999D01*
X-8509004Y12441726D01*
X-8509000Y12439023D01*
X-8541939Y12298585D01*
X-8631461Y12213236D01*
X-8763623Y12191220D01*
X-8879416Y12220036D01*
X-8928567Y12276001D01*
X-8932333Y12298699D01*
X-8905624Y12335930D01*
X-8816642Y12336840D01*
X-8790431Y12332983D01*
X-8682193Y12328115D01*
X-8628992Y12363931D01*
X-8622426Y12377977D01*
X-8620628Y12422253D01*
X-8672051Y12442143D01*
X-8764328Y12446000D01*
X-8876182Y12454138D01*
X-8924866Y12484740D01*
X-8932333Y12522200D01*
X-8925143Y12543554D01*
X-8792305Y12543554D01*
X-8741042Y12530975D01*
X-8720666Y12530666D01*
X-8653379Y12539204D01*
X-8660142Y12571124D01*
X-8669866Y12581466D01*
X-8727473Y12610469D01*
X-8771466Y12581466D01*
X-8792305Y12543554D01*
X-8925143Y12543554D01*
X-8896109Y12629776D01*
X-8796697Y12690652D01*
X-8720666Y12700000D01*
X-8598766Y12674197D01*
G37*
X-8598766Y12674197D02*
X-8530559Y12590999D01*
X-8509004Y12441726D01*
X-8509000Y12439023D01*
X-8541939Y12298585D01*
X-8631461Y12213236D01*
X-8763623Y12191220D01*
X-8879416Y12220036D01*
X-8928567Y12276001D01*
X-8932333Y12298699D01*
X-8905624Y12335930D01*
X-8816642Y12336840D01*
X-8790431Y12332983D01*
X-8682193Y12328115D01*
X-8628992Y12363931D01*
X-8622426Y12377977D01*
X-8620628Y12422253D01*
X-8672051Y12442143D01*
X-8764328Y12446000D01*
X-8876182Y12454138D01*
X-8924866Y12484740D01*
X-8932333Y12522200D01*
X-8925143Y12543554D01*
X-8792305Y12543554D01*
X-8741042Y12530975D01*
X-8720666Y12530666D01*
X-8653379Y12539204D01*
X-8660142Y12571124D01*
X-8669866Y12581466D01*
X-8727473Y12610469D01*
X-8771466Y12581466D01*
X-8792305Y12543554D01*
X-8925143Y12543554D01*
X-8896109Y12629776D01*
X-8796697Y12690652D01*
X-8720666Y12700000D01*
X-8598766Y12674197D01*
G36*
X-8211989Y12680978D02*
G01*
X-8123118Y12623710D01*
X-8110900Y12608293D01*
X-8049590Y12473228D01*
X-8069905Y12352695D01*
X-8128000Y12276666D01*
X-8251412Y12203081D01*
X-8392602Y12212224D01*
X-8413750Y12220036D01*
X-8462560Y12275951D01*
X-8466666Y12300303D01*
X-8440435Y12339430D01*
X-8352876Y12336399D01*
X-8343928Y12334669D01*
X-8250817Y12328767D01*
X-8203933Y12371185D01*
X-8191411Y12403948D01*
X-8188778Y12511743D01*
X-8243979Y12580246D01*
X-8336221Y12590833D01*
X-8380842Y12573620D01*
X-8448008Y12544948D01*
X-8464010Y12569740D01*
X-8459517Y12601237D01*
X-8410694Y12669124D01*
X-8318016Y12695910D01*
X-8211989Y12680978D01*
G37*
X-8211989Y12680978D02*
X-8123118Y12623710D01*
X-8110900Y12608293D01*
X-8049590Y12473228D01*
X-8069905Y12352695D01*
X-8128000Y12276666D01*
X-8251412Y12203081D01*
X-8392602Y12212224D01*
X-8413750Y12220036D01*
X-8462560Y12275951D01*
X-8466666Y12300303D01*
X-8440435Y12339430D01*
X-8352876Y12336399D01*
X-8343928Y12334669D01*
X-8250817Y12328767D01*
X-8203933Y12371185D01*
X-8191411Y12403948D01*
X-8188778Y12511743D01*
X-8243979Y12580246D01*
X-8336221Y12590833D01*
X-8380842Y12573620D01*
X-8448008Y12544948D01*
X-8464010Y12569740D01*
X-8459517Y12601237D01*
X-8410694Y12669124D01*
X-8318016Y12695910D01*
X-8211989Y12680978D01*
G36*
X-7577666Y12686120D02*
G01*
X-7577666Y12439060D01*
X-7584254Y12306615D01*
X-7601374Y12217123D01*
X-7620000Y12192000D01*
X-7645501Y12229781D01*
X-7660582Y12325132D01*
X-7662333Y12377971D01*
X-7674858Y12514414D01*
X-7715104Y12582198D01*
X-7729653Y12589775D01*
X-7809687Y12600390D01*
X-7855401Y12549842D01*
X-7873166Y12428872D01*
X-7874000Y12380001D01*
X-7882526Y12255349D01*
X-7911443Y12199126D01*
X-7937500Y12192000D01*
X-7981325Y12219508D01*
X-7999670Y12311050D01*
X-8001000Y12364116D01*
X-7987272Y12536225D01*
X-7939650Y12639640D01*
X-7848477Y12686789D01*
X-7745701Y12692704D01*
X-7577666Y12686120D01*
G37*
X-7577666Y12686120D02*
X-7577666Y12439060D01*
X-7584254Y12306615D01*
X-7601374Y12217123D01*
X-7620000Y12192000D01*
X-7645501Y12229781D01*
X-7660582Y12325132D01*
X-7662333Y12377971D01*
X-7674858Y12514414D01*
X-7715104Y12582198D01*
X-7729653Y12589775D01*
X-7809687Y12600390D01*
X-7855401Y12549842D01*
X-7873166Y12428872D01*
X-7874000Y12380001D01*
X-7882526Y12255349D01*
X-7911443Y12199126D01*
X-7937500Y12192000D01*
X-7981325Y12219508D01*
X-7999670Y12311050D01*
X-8001000Y12364116D01*
X-7987272Y12536225D01*
X-7939650Y12639640D01*
X-7848477Y12686789D01*
X-7745701Y12692704D01*
X-7577666Y12686120D01*
G36*
X-7147919Y12663151D02*
G01*
X-7097394Y12622583D01*
X-7034957Y12504808D01*
X-7041751Y12387024D01*
X-7103924Y12285505D01*
X-7207621Y12216525D01*
X-7338987Y12196357D01*
X-7440083Y12220036D01*
X-7497055Y12264377D01*
X-7483154Y12309419D01*
X-7410677Y12340012D01*
X-7338644Y12344995D01*
X-7227818Y12355172D01*
X-7168051Y12388222D01*
X-7165783Y12393083D01*
X-7184220Y12429726D01*
X-7277220Y12445177D01*
X-7320139Y12446000D01*
X-7440771Y12456756D01*
X-7487449Y12496910D01*
X-7476782Y12544067D01*
X-7347574Y12544067D01*
X-7285435Y12532132D01*
X-7258050Y12531954D01*
X-7177780Y12536567D01*
X-7173245Y12553808D01*
X-7211330Y12578674D01*
X-7294221Y12601626D01*
X-7336213Y12577387D01*
X-7347574Y12544067D01*
X-7476782Y12544067D01*
X-7469040Y12578292D01*
X-7449177Y12618116D01*
X-7372631Y12682616D01*
X-7260903Y12697772D01*
X-7147919Y12663151D01*
G37*
X-7147919Y12663151D02*
X-7097394Y12622583D01*
X-7034957Y12504808D01*
X-7041751Y12387024D01*
X-7103924Y12285505D01*
X-7207621Y12216525D01*
X-7338987Y12196357D01*
X-7440083Y12220036D01*
X-7497055Y12264377D01*
X-7483154Y12309419D01*
X-7410677Y12340012D01*
X-7338644Y12344995D01*
X-7227818Y12355172D01*
X-7168051Y12388222D01*
X-7165783Y12393083D01*
X-7184220Y12429726D01*
X-7277220Y12445177D01*
X-7320139Y12446000D01*
X-7440771Y12456756D01*
X-7487449Y12496910D01*
X-7476782Y12544067D01*
X-7347574Y12544067D01*
X-7285435Y12532132D01*
X-7258050Y12531954D01*
X-7177780Y12536567D01*
X-7173245Y12553808D01*
X-7211330Y12578674D01*
X-7294221Y12601626D01*
X-7336213Y12577387D01*
X-7347574Y12544067D01*
X-7476782Y12544067D01*
X-7469040Y12578292D01*
X-7449177Y12618116D01*
X-7372631Y12682616D01*
X-7260903Y12697772D01*
X-7147919Y12663151D01*
G36*
X-6877784Y12661440D02*
G01*
X-6862496Y12560709D01*
X-6858000Y12446000D01*
X-6864426Y12310705D01*
X-6881215Y12218980D01*
X-6900333Y12192000D01*
X-6922882Y12230560D01*
X-6938170Y12331291D01*
X-6942666Y12446000D01*
X-6936240Y12581295D01*
X-6919451Y12673020D01*
X-6900333Y12700000D01*
X-6877784Y12661440D01*
G37*
X-6877784Y12661440D02*
X-6862496Y12560709D01*
X-6858000Y12446000D01*
X-6864426Y12310705D01*
X-6881215Y12218980D01*
X-6900333Y12192000D01*
X-6922882Y12230560D01*
X-6938170Y12331291D01*
X-6942666Y12446000D01*
X-6936240Y12581295D01*
X-6919451Y12673020D01*
X-6900333Y12700000D01*
X-6877784Y12661440D01*
G36*
X-6497241Y12678914D02*
G01*
X-6420787Y12607552D01*
X-6393030Y12473757D01*
X-6392333Y12439023D01*
X-6409718Y12310334D01*
X-6467323Y12239732D01*
X-6474217Y12235823D01*
X-6586308Y12198518D01*
X-6692895Y12196885D01*
X-6745111Y12220222D01*
X-6777155Y12284836D01*
X-6737630Y12325125D01*
X-6650516Y12328644D01*
X-6555324Y12329307D01*
X-6507231Y12379158D01*
X-6497998Y12404196D01*
X-6495711Y12510734D01*
X-6550196Y12579843D01*
X-6640388Y12592078D01*
X-6683728Y12575643D01*
X-6750637Y12549683D01*
X-6772150Y12582848D01*
X-6773333Y12613844D01*
X-6756137Y12674463D01*
X-6689417Y12697871D01*
X-6633633Y12700000D01*
X-6497241Y12678914D01*
G37*
X-6497241Y12678914D02*
X-6420787Y12607552D01*
X-6393030Y12473757D01*
X-6392333Y12439023D01*
X-6409718Y12310334D01*
X-6467323Y12239732D01*
X-6474217Y12235823D01*
X-6586308Y12198518D01*
X-6692895Y12196885D01*
X-6745111Y12220222D01*
X-6777155Y12284836D01*
X-6737630Y12325125D01*
X-6650516Y12328644D01*
X-6555324Y12329307D01*
X-6507231Y12379158D01*
X-6497998Y12404196D01*
X-6495711Y12510734D01*
X-6550196Y12579843D01*
X-6640388Y12592078D01*
X-6683728Y12575643D01*
X-6750637Y12549683D01*
X-6772150Y12582848D01*
X-6773333Y12613844D01*
X-6756137Y12674463D01*
X-6689417Y12697871D01*
X-6633633Y12700000D01*
X-6497241Y12678914D01*
G36*
X-6085726Y12692785D02*
G01*
X-5995375Y12658347D01*
X-5966055Y12632951D01*
X-5938210Y12546051D01*
X-5977676Y12463203D01*
X-6070429Y12411981D01*
X-6079371Y12410141D01*
X-6177037Y12379354D01*
X-6204806Y12346379D01*
X-6161414Y12327575D01*
X-6085416Y12331992D01*
X-5974675Y12339633D01*
X-5929557Y12315794D01*
X-5926666Y12299701D01*
X-5961739Y12233600D01*
X-6047666Y12198982D01*
X-6155507Y12199017D01*
X-6256324Y12236875D01*
X-6285366Y12260414D01*
X-6336190Y12338723D01*
X-6313513Y12408632D01*
X-6212816Y12480820D01*
X-6186156Y12494828D01*
X-6104925Y12554364D01*
X-6100032Y12597753D01*
X-6164968Y12607647D01*
X-6223379Y12594046D01*
X-6291833Y12591332D01*
X-6307666Y12633647D01*
X-6272723Y12680498D01*
X-6188459Y12700189D01*
X-6085726Y12692785D01*
G37*
X-6085726Y12692785D02*
X-5995375Y12658347D01*
X-5966055Y12632951D01*
X-5938210Y12546051D01*
X-5977676Y12463203D01*
X-6070429Y12411981D01*
X-6079371Y12410141D01*
X-6177037Y12379354D01*
X-6204806Y12346379D01*
X-6161414Y12327575D01*
X-6085416Y12331992D01*
X-5974675Y12339633D01*
X-5929557Y12315794D01*
X-5926666Y12299701D01*
X-5961739Y12233600D01*
X-6047666Y12198982D01*
X-6155507Y12199017D01*
X-6256324Y12236875D01*
X-6285366Y12260414D01*
X-6336190Y12338723D01*
X-6313513Y12408632D01*
X-6212816Y12480820D01*
X-6186156Y12494828D01*
X-6104925Y12554364D01*
X-6100032Y12597753D01*
X-6164968Y12607647D01*
X-6223379Y12594046D01*
X-6291833Y12591332D01*
X-6307666Y12633647D01*
X-6272723Y12680498D01*
X-6188459Y12700189D01*
X-6085726Y12692785D01*
G36*
X-5295876Y12675668D02*
G01*
X-5191886Y12599927D01*
X-5166002Y12562416D01*
X-5125002Y12470089D01*
X-5133497Y12394742D01*
X-5166002Y12329583D01*
X-5257192Y12233871D01*
X-5373701Y12198826D01*
X-5487260Y12230321D01*
X-5519178Y12256225D01*
X-5570113Y12352413D01*
X-5581140Y12440557D01*
X-5461000Y12440557D01*
X-5451162Y12351583D01*
X-5409200Y12323871D01*
X-5365750Y12326639D01*
X-5280642Y12373702D01*
X-5257874Y12428538D01*
X-5273122Y12516169D01*
X-5327446Y12583341D01*
X-5395560Y12603523D01*
X-5416812Y12595313D01*
X-5448376Y12537329D01*
X-5461000Y12440557D01*
X-5581140Y12440557D01*
X-5585913Y12478699D01*
X-5565815Y12596417D01*
X-5527060Y12655542D01*
X-5418352Y12696979D01*
X-5295876Y12675668D01*
G37*
X-5295876Y12675668D02*
X-5191886Y12599927D01*
X-5166002Y12562416D01*
X-5125002Y12470089D01*
X-5133497Y12394742D01*
X-5166002Y12329583D01*
X-5257192Y12233871D01*
X-5373701Y12198826D01*
X-5487260Y12230321D01*
X-5519178Y12256225D01*
X-5570113Y12352413D01*
X-5581140Y12440557D01*
X-5461000Y12440557D01*
X-5451162Y12351583D01*
X-5409200Y12323871D01*
X-5365750Y12326639D01*
X-5280642Y12373702D01*
X-5257874Y12428538D01*
X-5273122Y12516169D01*
X-5327446Y12583341D01*
X-5395560Y12603523D01*
X-5416812Y12595313D01*
X-5448376Y12537329D01*
X-5461000Y12440557D01*
X-5581140Y12440557D01*
X-5585913Y12478699D01*
X-5565815Y12596417D01*
X-5527060Y12655542D01*
X-5418352Y12696979D01*
X-5295876Y12675668D01*
G36*
X-4826439Y12779726D02*
G01*
X-4820083Y12752916D01*
X-4818476Y12607835D01*
X-4831409Y12452024D01*
X-4854896Y12321296D01*
X-4874278Y12266083D01*
X-4934255Y12212744D01*
X-5017973Y12192612D01*
X-5091846Y12207121D01*
X-5122333Y12255500D01*
X-5087040Y12307214D01*
X-5037666Y12319000D01*
X-4979312Y12335574D01*
X-4955767Y12400278D01*
X-4953000Y12467166D01*
X-4962471Y12569286D01*
X-4999444Y12610490D01*
X-5037666Y12615333D01*
X-5106457Y12633061D01*
X-5122333Y12657666D01*
X-5086877Y12692062D01*
X-5037666Y12700000D01*
X-4968714Y12726470D01*
X-4953000Y12763500D01*
X-4926185Y12817401D01*
X-4871246Y12821794D01*
X-4826439Y12779726D01*
G37*
X-4826439Y12779726D02*
X-4820083Y12752916D01*
X-4818476Y12607835D01*
X-4831409Y12452024D01*
X-4854896Y12321296D01*
X-4874278Y12266083D01*
X-4934255Y12212744D01*
X-5017973Y12192612D01*
X-5091846Y12207121D01*
X-5122333Y12255500D01*
X-5087040Y12307214D01*
X-5037666Y12319000D01*
X-4979312Y12335574D01*
X-4955767Y12400278D01*
X-4953000Y12467166D01*
X-4962471Y12569286D01*
X-4999444Y12610490D01*
X-5037666Y12615333D01*
X-5106457Y12633061D01*
X-5122333Y12657666D01*
X-5086877Y12692062D01*
X-5037666Y12700000D01*
X-4968714Y12726470D01*
X-4953000Y12763500D01*
X-4926185Y12817401D01*
X-4871246Y12821794D01*
X-4826439Y12779726D01*
G36*
X-4126882Y12677089D02*
G01*
X-4065489Y12618116D01*
X-4024203Y12473662D01*
X-4046225Y12337285D01*
X-4099083Y12262061D01*
X-4192521Y12211849D01*
X-4305649Y12191803D01*
X-4398294Y12207215D01*
X-4416778Y12220222D01*
X-4446139Y12283802D01*
X-4401018Y12327448D01*
X-4311446Y12340576D01*
X-4213293Y12355318D01*
X-4160349Y12391510D01*
X-4159751Y12393083D01*
X-4178682Y12429780D01*
X-4272421Y12445209D01*
X-4314472Y12446000D01*
X-4435105Y12456756D01*
X-4481782Y12496910D01*
X-4464572Y12573000D01*
X-4339166Y12573000D01*
X-4323983Y12541791D01*
X-4254500Y12530666D01*
X-4180931Y12543834D01*
X-4169833Y12573000D01*
X-4231262Y12612380D01*
X-4254500Y12615333D01*
X-4325509Y12588494D01*
X-4339166Y12573000D01*
X-4464572Y12573000D01*
X-4463374Y12578292D01*
X-4443510Y12618116D01*
X-4368068Y12683175D01*
X-4254500Y12700000D01*
X-4126882Y12677089D01*
G37*
X-4126882Y12677089D02*
X-4065489Y12618116D01*
X-4024203Y12473662D01*
X-4046225Y12337285D01*
X-4099083Y12262061D01*
X-4192521Y12211849D01*
X-4305649Y12191803D01*
X-4398294Y12207215D01*
X-4416778Y12220222D01*
X-4446139Y12283802D01*
X-4401018Y12327448D01*
X-4311446Y12340576D01*
X-4213293Y12355318D01*
X-4160349Y12391510D01*
X-4159751Y12393083D01*
X-4178682Y12429780D01*
X-4272421Y12445209D01*
X-4314472Y12446000D01*
X-4435105Y12456756D01*
X-4481782Y12496910D01*
X-4464572Y12573000D01*
X-4339166Y12573000D01*
X-4323983Y12541791D01*
X-4254500Y12530666D01*
X-4180931Y12543834D01*
X-4169833Y12573000D01*
X-4231262Y12612380D01*
X-4254500Y12615333D01*
X-4325509Y12588494D01*
X-4339166Y12573000D01*
X-4464572Y12573000D01*
X-4463374Y12578292D01*
X-4443510Y12618116D01*
X-4368068Y12683175D01*
X-4254500Y12700000D01*
X-4126882Y12677089D01*
G36*
X-3521540Y12682660D02*
G01*
X-3520722Y12667066D01*
X-3542360Y12611758D01*
X-3583107Y12504280D01*
X-3617279Y12413066D01*
X-3670722Y12291839D01*
X-3721896Y12211543D01*
X-3749649Y12192000D01*
X-3792881Y12227762D01*
X-3850535Y12319655D01*
X-3889453Y12400931D01*
X-3950874Y12553349D01*
X-3974509Y12644651D01*
X-3961596Y12688856D01*
X-3915833Y12700000D01*
X-3859476Y12678603D01*
X-3852333Y12660422D01*
X-3838165Y12595392D01*
X-3806162Y12501672D01*
X-3759992Y12382500D01*
X-3695801Y12541250D01*
X-3641202Y12641407D01*
X-3583819Y12696387D01*
X-3569111Y12700000D01*
X-3521540Y12682660D01*
G37*
X-3521540Y12682660D02*
X-3520722Y12667066D01*
X-3542360Y12611758D01*
X-3583107Y12504280D01*
X-3617279Y12413066D01*
X-3670722Y12291839D01*
X-3721896Y12211543D01*
X-3749649Y12192000D01*
X-3792881Y12227762D01*
X-3850535Y12319655D01*
X-3889453Y12400931D01*
X-3950874Y12553349D01*
X-3974509Y12644651D01*
X-3961596Y12688856D01*
X-3915833Y12700000D01*
X-3859476Y12678603D01*
X-3852333Y12660422D01*
X-3838165Y12595392D01*
X-3806162Y12501672D01*
X-3759992Y12382500D01*
X-3695801Y12541250D01*
X-3641202Y12641407D01*
X-3583819Y12696387D01*
X-3569111Y12700000D01*
X-3521540Y12682660D01*
G36*
X-3148335Y12687831D02*
G01*
X-3094085Y12650036D01*
X-3090333Y12633647D01*
X-3114484Y12587424D01*
X-3174621Y12594046D01*
X-3268101Y12601360D01*
X-3312204Y12587213D01*
X-3322287Y12557077D01*
X-3247973Y12532473D01*
X-3243027Y12531564D01*
X-3113356Y12482455D01*
X-3052404Y12407019D01*
X-3057149Y12323896D01*
X-3124573Y12251727D01*
X-3251654Y12209151D01*
X-3295916Y12205142D01*
X-3471333Y12197118D01*
X-3471333Y12385604D01*
X-3344333Y12385604D01*
X-3308723Y12330645D01*
X-3256139Y12319000D01*
X-3191620Y12339224D01*
X-3185563Y12371916D01*
X-3231115Y12424629D01*
X-3295127Y12437604D01*
X-3340058Y12407606D01*
X-3344333Y12385604D01*
X-3471333Y12385604D01*
X-3471333Y12397759D01*
X-3461191Y12527834D01*
X-3435545Y12625192D01*
X-3420533Y12649200D01*
X-3343654Y12688925D01*
X-3242223Y12701298D01*
X-3148335Y12687831D01*
G37*
X-3148335Y12687831D02*
X-3094085Y12650036D01*
X-3090333Y12633647D01*
X-3114484Y12587424D01*
X-3174621Y12594046D01*
X-3268101Y12601360D01*
X-3312204Y12587213D01*
X-3322287Y12557077D01*
X-3247973Y12532473D01*
X-3243027Y12531564D01*
X-3113356Y12482455D01*
X-3052404Y12407019D01*
X-3057149Y12323896D01*
X-3124573Y12251727D01*
X-3251654Y12209151D01*
X-3295916Y12205142D01*
X-3471333Y12197118D01*
X-3471333Y12385604D01*
X-3344333Y12385604D01*
X-3308723Y12330645D01*
X-3256139Y12319000D01*
X-3191620Y12339224D01*
X-3185563Y12371916D01*
X-3231115Y12424629D01*
X-3295127Y12437604D01*
X-3340058Y12407606D01*
X-3344333Y12385604D01*
X-3471333Y12385604D01*
X-3471333Y12397759D01*
X-3461191Y12527834D01*
X-3435545Y12625192D01*
X-3420533Y12649200D01*
X-3343654Y12688925D01*
X-3242223Y12701298D01*
X-3148335Y12687831D01*
G36*
X-2570919Y12853382D02*
G01*
X-2551365Y12795505D01*
X-2542021Y12680671D01*
X-2540000Y12530666D01*
X-2542991Y12356900D01*
X-2553843Y12252616D01*
X-2575374Y12202781D01*
X-2603500Y12192000D01*
X-2645810Y12217505D01*
X-2664734Y12303821D01*
X-2667000Y12377971D01*
X-2681063Y12517645D01*
X-2721776Y12584640D01*
X-2726361Y12586720D01*
X-2788120Y12594698D01*
X-2822187Y12550132D01*
X-2835376Y12439931D01*
X-2836333Y12375444D01*
X-2845278Y12252458D01*
X-2875467Y12198038D01*
X-2899833Y12192000D01*
X-2942034Y12217366D01*
X-2960993Y12303311D01*
X-2963333Y12379037D01*
X-2955498Y12545606D01*
X-2926342Y12644136D01*
X-2867388Y12690278D01*
X-2789471Y12700000D01*
X-2698555Y12714421D01*
X-2667789Y12767386D01*
X-2667000Y12784666D01*
X-2640530Y12853619D01*
X-2603500Y12869333D01*
X-2570919Y12853382D01*
G37*
X-2570919Y12853382D02*
X-2551365Y12795505D01*
X-2542021Y12680671D01*
X-2540000Y12530666D01*
X-2542991Y12356900D01*
X-2553843Y12252616D01*
X-2575374Y12202781D01*
X-2603500Y12192000D01*
X-2645810Y12217505D01*
X-2664734Y12303821D01*
X-2667000Y12377971D01*
X-2681063Y12517645D01*
X-2721776Y12584640D01*
X-2726361Y12586720D01*
X-2788120Y12594698D01*
X-2822187Y12550132D01*
X-2835376Y12439931D01*
X-2836333Y12375444D01*
X-2845278Y12252458D01*
X-2875467Y12198038D01*
X-2899833Y12192000D01*
X-2942034Y12217366D01*
X-2960993Y12303311D01*
X-2963333Y12379037D01*
X-2955498Y12545606D01*
X-2926342Y12644136D01*
X-2867388Y12690278D01*
X-2789471Y12700000D01*
X-2698555Y12714421D01*
X-2667789Y12767386D01*
X-2667000Y12784666D01*
X-2640530Y12853619D01*
X-2603500Y12869333D01*
X-2570919Y12853382D01*
G36*
X-1903131Y12692749D02*
G01*
X-1812336Y12673153D01*
X-1776475Y12642736D01*
X-1778000Y12636500D01*
X-1831612Y12607387D01*
X-1891236Y12605854D01*
X-1975857Y12597686D01*
X-2010151Y12574104D01*
X-1998417Y12539399D01*
X-1953294Y12530666D01*
X-1818541Y12509814D01*
X-1749637Y12442468D01*
X-1735666Y12359657D01*
X-1750744Y12273048D01*
X-1806924Y12223581D01*
X-1920625Y12202003D01*
X-2021416Y12198604D01*
X-2107747Y12203211D01*
X-2147386Y12234325D01*
X-2158482Y12315510D01*
X-2159000Y12377240D01*
X-2156140Y12403794D01*
X-2027609Y12403794D01*
X-2012574Y12364150D01*
X-1948190Y12322850D01*
X-1871201Y12332629D01*
X-1843384Y12358285D01*
X-1857725Y12399497D01*
X-1907575Y12425651D01*
X-1997323Y12437505D01*
X-2027609Y12403794D01*
X-2156140Y12403794D01*
X-2140363Y12550228D01*
X-2080627Y12653365D01*
X-1974051Y12693728D01*
X-1903131Y12692749D01*
G37*
X-1903131Y12692749D02*
X-1812336Y12673153D01*
X-1776475Y12642736D01*
X-1778000Y12636500D01*
X-1831612Y12607387D01*
X-1891236Y12605854D01*
X-1975857Y12597686D01*
X-2010151Y12574104D01*
X-1998417Y12539399D01*
X-1953294Y12530666D01*
X-1818541Y12509814D01*
X-1749637Y12442468D01*
X-1735666Y12359657D01*
X-1750744Y12273048D01*
X-1806924Y12223581D01*
X-1920625Y12202003D01*
X-2021416Y12198604D01*
X-2107747Y12203211D01*
X-2147386Y12234325D01*
X-2158482Y12315510D01*
X-2159000Y12377240D01*
X-2156140Y12403794D01*
X-2027609Y12403794D01*
X-2012574Y12364150D01*
X-1948190Y12322850D01*
X-1871201Y12332629D01*
X-1843384Y12358285D01*
X-1857725Y12399497D01*
X-1907575Y12425651D01*
X-1997323Y12437505D01*
X-2027609Y12403794D01*
X-2156140Y12403794D01*
X-2140363Y12550228D01*
X-2080627Y12653365D01*
X-1974051Y12693728D01*
X-1903131Y12692749D01*
G36*
X-1227666Y12446000D02*
G01*
X-1232543Y12298514D01*
X-1249831Y12219329D01*
X-1283515Y12192501D01*
X-1291166Y12192000D01*
X-1333476Y12217505D01*
X-1352401Y12303821D01*
X-1354666Y12377971D01*
X-1368729Y12517645D01*
X-1409443Y12584640D01*
X-1414028Y12586720D01*
X-1475787Y12594698D01*
X-1509853Y12550132D01*
X-1523043Y12439931D01*
X-1524000Y12375444D01*
X-1532945Y12252458D01*
X-1563133Y12198038D01*
X-1587500Y12192000D01*
X-1628162Y12215495D01*
X-1647526Y12296310D01*
X-1651000Y12395200D01*
X-1637585Y12556017D01*
X-1588725Y12650226D01*
X-1491495Y12692836D01*
X-1388533Y12700000D01*
X-1227666Y12700000D01*
X-1227666Y12446000D01*
G37*
X-1227666Y12446000D02*
X-1232543Y12298514D01*
X-1249831Y12219329D01*
X-1283515Y12192501D01*
X-1291166Y12192000D01*
X-1333476Y12217505D01*
X-1352401Y12303821D01*
X-1354666Y12377971D01*
X-1368729Y12517645D01*
X-1409443Y12584640D01*
X-1414028Y12586720D01*
X-1475787Y12594698D01*
X-1509853Y12550132D01*
X-1523043Y12439931D01*
X-1524000Y12375444D01*
X-1532945Y12252458D01*
X-1563133Y12198038D01*
X-1587500Y12192000D01*
X-1628162Y12215495D01*
X-1647526Y12296310D01*
X-1651000Y12395200D01*
X-1637585Y12556017D01*
X-1588725Y12650226D01*
X-1491495Y12692836D01*
X-1388533Y12700000D01*
X-1227666Y12700000D01*
X-1227666Y12446000D01*
G36*
X-677333Y12448319D02*
G01*
X-682132Y12300071D01*
X-699160Y12220150D01*
X-732366Y12192622D01*
X-740833Y12192000D01*
X-783143Y12217505D01*
X-802068Y12303821D01*
X-804333Y12377971D01*
X-815802Y12511232D01*
X-853934Y12579344D01*
X-875032Y12591071D01*
X-953067Y12587670D01*
X-999846Y12505593D01*
X-1015352Y12350750D01*
X-1026238Y12248688D01*
X-1052420Y12194604D01*
X-1060446Y12192000D01*
X-1085065Y12231645D01*
X-1094475Y12342002D01*
X-1092196Y12435416D01*
X-1079500Y12678833D01*
X-878416Y12691736D01*
X-677333Y12704639D01*
X-677333Y12448319D01*
G37*
X-677333Y12448319D02*
X-682132Y12300071D01*
X-699160Y12220150D01*
X-732366Y12192622D01*
X-740833Y12192000D01*
X-783143Y12217505D01*
X-802068Y12303821D01*
X-804333Y12377971D01*
X-815802Y12511232D01*
X-853934Y12579344D01*
X-875032Y12591071D01*
X-953067Y12587670D01*
X-999846Y12505593D01*
X-1015352Y12350750D01*
X-1026238Y12248688D01*
X-1052420Y12194604D01*
X-1060446Y12192000D01*
X-1085065Y12231645D01*
X-1094475Y12342002D01*
X-1092196Y12435416D01*
X-1079500Y12678833D01*
X-878416Y12691736D01*
X-677333Y12704639D01*
X-677333Y12448319D01*
G36*
X-237861Y12663729D02*
G01*
X-220133Y12649200D01*
X-178689Y12558219D01*
X-172907Y12432311D01*
X-201134Y12312551D01*
X-235857Y12258524D01*
X-341328Y12201370D01*
X-460250Y12202001D01*
X-552205Y12257756D01*
X-592906Y12347908D01*
X-606778Y12446000D01*
X-601896Y12476238D01*
X-493770Y12476238D01*
X-479055Y12386906D01*
X-419146Y12327229D01*
X-378147Y12319000D01*
X-317441Y12340820D01*
X-296813Y12419696D01*
X-296333Y12443501D01*
X-315823Y12556548D01*
X-367358Y12602357D01*
X-440539Y12573087D01*
X-452913Y12561563D01*
X-493770Y12476238D01*
X-601896Y12476238D01*
X-588462Y12559423D01*
X-552205Y12634244D01*
X-462300Y12686379D01*
X-342530Y12696883D01*
X-237861Y12663729D01*
G37*
X-237861Y12663729D02*
X-220133Y12649200D01*
X-178689Y12558219D01*
X-172907Y12432311D01*
X-201134Y12312551D01*
X-235857Y12258524D01*
X-341328Y12201370D01*
X-460250Y12202001D01*
X-552205Y12257756D01*
X-592906Y12347908D01*
X-606778Y12446000D01*
X-601896Y12476238D01*
X-493770Y12476238D01*
X-479055Y12386906D01*
X-419146Y12327229D01*
X-378147Y12319000D01*
X-317441Y12340820D01*
X-296813Y12419696D01*
X-296333Y12443501D01*
X-315823Y12556548D01*
X-367358Y12602357D01*
X-440539Y12573087D01*
X-452913Y12561563D01*
X-493770Y12476238D01*
X-601896Y12476238D01*
X-588462Y12559423D01*
X-552205Y12634244D01*
X-462300Y12686379D01*
X-342530Y12696883D01*
X-237861Y12663729D01*
G36*
X1439334Y12445328D02*
G01*
X1434434Y12298063D01*
X1417070Y12219092D01*
X1383244Y12192468D01*
X1375834Y12192000D01*
X1333524Y12217505D01*
X1314599Y12303821D01*
X1312334Y12377971D01*
X1298271Y12517645D01*
X1257557Y12584640D01*
X1252972Y12586720D01*
X1191213Y12594698D01*
X1157147Y12550132D01*
X1143957Y12439931D01*
X1143000Y12375444D01*
X1134055Y12252458D01*
X1103867Y12198038D01*
X1079500Y12192000D01*
X1037190Y12217505D01*
X1018266Y12303821D01*
X1016000Y12377971D01*
X1001937Y12517645D01*
X961224Y12584640D01*
X956639Y12586720D01*
X894880Y12594698D01*
X860813Y12550132D01*
X847624Y12439931D01*
X846667Y12375444D01*
X837722Y12252458D01*
X807533Y12198038D01*
X783167Y12192000D01*
X742437Y12215494D01*
X723377Y12296347D01*
X720315Y12393083D01*
X726892Y12522838D01*
X742781Y12619352D01*
X752065Y12643039D01*
X810755Y12669566D01*
X938367Y12687758D01*
X1111250Y12695284D01*
X1439334Y12698657D01*
X1439334Y12445328D01*
G37*
X1439334Y12445328D02*
X1434434Y12298063D01*
X1417070Y12219092D01*
X1383244Y12192468D01*
X1375834Y12192000D01*
X1333524Y12217505D01*
X1314599Y12303821D01*
X1312334Y12377971D01*
X1298271Y12517645D01*
X1257557Y12584640D01*
X1252972Y12586720D01*
X1191213Y12594698D01*
X1157147Y12550132D01*
X1143957Y12439931D01*
X1143000Y12375444D01*
X1134055Y12252458D01*
X1103867Y12198038D01*
X1079500Y12192000D01*
X1037190Y12217505D01*
X1018266Y12303821D01*
X1016000Y12377971D01*
X1001937Y12517645D01*
X961224Y12584640D01*
X956639Y12586720D01*
X894880Y12594698D01*
X860813Y12550132D01*
X847624Y12439931D01*
X846667Y12375444D01*
X837722Y12252458D01*
X807533Y12198038D01*
X783167Y12192000D01*
X742437Y12215494D01*
X723377Y12296347D01*
X720315Y12393083D01*
X726892Y12522838D01*
X742781Y12619352D01*
X752065Y12643039D01*
X810755Y12669566D01*
X938367Y12687758D01*
X1111250Y12695284D01*
X1439334Y12698657D01*
X1439334Y12445328D01*
G36*
X1993420Y12855563D02*
G01*
X2031732Y12811616D01*
X2032000Y12805833D01*
X2009141Y12749497D01*
X1989667Y12742333D01*
X1965518Y12704260D01*
X1950190Y12606912D01*
X1947334Y12530666D01*
X1954948Y12409923D01*
X1974418Y12333284D01*
X1989667Y12319000D01*
X2027224Y12284712D01*
X2032000Y12255500D01*
X1999870Y12208534D01*
X1897328Y12192115D01*
X1883834Y12192000D01*
X1774247Y12205770D01*
X1735935Y12249717D01*
X1735667Y12255500D01*
X1758526Y12311836D01*
X1778000Y12319000D01*
X1802149Y12357073D01*
X1817477Y12454421D01*
X1820334Y12530666D01*
X1812719Y12651410D01*
X1793249Y12728049D01*
X1778000Y12742333D01*
X1740443Y12776621D01*
X1735667Y12805833D01*
X1767797Y12852799D01*
X1870339Y12869218D01*
X1883834Y12869333D01*
X1993420Y12855563D01*
G37*
X1993420Y12855563D02*
X2031732Y12811616D01*
X2032000Y12805833D01*
X2009141Y12749497D01*
X1989667Y12742333D01*
X1965518Y12704260D01*
X1950190Y12606912D01*
X1947334Y12530666D01*
X1954948Y12409923D01*
X1974418Y12333284D01*
X1989667Y12319000D01*
X2027224Y12284712D01*
X2032000Y12255500D01*
X1999870Y12208534D01*
X1897328Y12192115D01*
X1883834Y12192000D01*
X1774247Y12205770D01*
X1735935Y12249717D01*
X1735667Y12255500D01*
X1758526Y12311836D01*
X1778000Y12319000D01*
X1802149Y12357073D01*
X1817477Y12454421D01*
X1820334Y12530666D01*
X1812719Y12651410D01*
X1793249Y12728049D01*
X1778000Y12742333D01*
X1740443Y12776621D01*
X1735667Y12805833D01*
X1767797Y12852799D01*
X1870339Y12869218D01*
X1883834Y12869333D01*
X1993420Y12855563D01*
G36*
X-17454904Y12856965D02*
G01*
X-17345717Y12840099D01*
X-17290424Y12792558D01*
X-17268065Y12731750D01*
X-17262579Y12641273D01*
X-17297964Y12613831D01*
X-17355151Y12652662D01*
X-17392754Y12710583D01*
X-17441779Y12805833D01*
X-17417537Y12710583D01*
X-17417623Y12634450D01*
X-17457157Y12615275D01*
X-17514698Y12651187D01*
X-17561538Y12723158D01*
X-17600073Y12814594D01*
X-17592762Y12854041D01*
X-17524424Y12860549D01*
X-17454904Y12856965D01*
G37*
X-17454904Y12856965D02*
X-17345717Y12840099D01*
X-17290424Y12792558D01*
X-17268065Y12731750D01*
X-17262579Y12641273D01*
X-17297964Y12613831D01*
X-17355151Y12652662D01*
X-17392754Y12710583D01*
X-17441779Y12805833D01*
X-17417537Y12710583D01*
X-17417623Y12634450D01*
X-17457157Y12615275D01*
X-17514698Y12651187D01*
X-17561538Y12723158D01*
X-17600073Y12814594D01*
X-17592762Y12854041D01*
X-17524424Y12860549D01*
X-17454904Y12856965D01*
G36*
X1567161Y12860748D02*
G01*
X1618887Y12815845D01*
X1625304Y12802371D01*
X1649505Y12694103D01*
X1634145Y12629001D01*
X1591719Y12620227D01*
X1534718Y12680942D01*
X1525490Y12697217D01*
X1489740Y12783116D01*
X1481667Y12824217D01*
X1509167Y12865402D01*
X1567161Y12860748D01*
G37*
X1567161Y12860748D02*
X1618887Y12815845D01*
X1625304Y12802371D01*
X1649505Y12694103D01*
X1634145Y12629001D01*
X1591719Y12620227D01*
X1534718Y12680942D01*
X1525490Y12697217D01*
X1489740Y12783116D01*
X1481667Y12824217D01*
X1509167Y12865402D01*
X1567161Y12860748D01*
G36*
X2440810Y12864061D02*
G01*
X2450446Y12832528D01*
X2424344Y12751157D01*
X2414048Y12723922D01*
X2365198Y12640389D01*
X2316670Y12618239D01*
X2287101Y12662446D01*
X2284713Y12689416D01*
X2279917Y12740924D01*
X2257446Y12718322D01*
X2240276Y12689416D01*
X2181536Y12624000D01*
X2136753Y12625595D01*
X2127738Y12689925D01*
X2132318Y12710583D01*
X2152763Y12798453D01*
X2158422Y12837583D01*
X2188562Y12867882D01*
X2248972Y12860734D01*
X2297435Y12822439D01*
X2300297Y12816416D01*
X2319424Y12785221D01*
X2324991Y12816416D01*
X2362413Y12863434D01*
X2391834Y12869333D01*
X2440810Y12864061D01*
G37*
X2440810Y12864061D02*
X2450446Y12832528D01*
X2424344Y12751157D01*
X2414048Y12723922D01*
X2365198Y12640389D01*
X2316670Y12618239D01*
X2287101Y12662446D01*
X2284713Y12689416D01*
X2279917Y12740924D01*
X2257446Y12718322D01*
X2240276Y12689416D01*
X2181536Y12624000D01*
X2136753Y12625595D01*
X2127738Y12689925D01*
X2132318Y12710583D01*
X2152763Y12798453D01*
X2158422Y12837583D01*
X2188562Y12867882D01*
X2248972Y12860734D01*
X2297435Y12822439D01*
X2300297Y12816416D01*
X2319424Y12785221D01*
X2324991Y12816416D01*
X2362413Y12863434D01*
X2391834Y12869333D01*
X2440810Y12864061D01*
G36*
X-16390376Y12835447D02*
G01*
X-16383000Y12805833D01*
X-16416886Y12749709D01*
X-16446500Y12742333D01*
X-16502624Y12776220D01*
X-16510000Y12805833D01*
X-16476113Y12861957D01*
X-16446500Y12869333D01*
X-16390376Y12835447D01*
G37*
X-16390376Y12835447D02*
X-16383000Y12805833D01*
X-16416886Y12749709D01*
X-16446500Y12742333D01*
X-16502624Y12776220D01*
X-16510000Y12805833D01*
X-16476113Y12861957D01*
X-16446500Y12869333D01*
X-16390376Y12835447D01*
G36*
X-11916492Y12817495D02*
G01*
X-11909384Y12766769D01*
X-11955639Y12742333D01*
X-12013955Y12776418D01*
X-12022666Y12809361D01*
X-11998052Y12858734D01*
X-11972396Y12859632D01*
X-11916492Y12817495D01*
G37*
X-11916492Y12817495D02*
X-11909384Y12766769D01*
X-11955639Y12742333D01*
X-12013955Y12776418D01*
X-12022666Y12809361D01*
X-11998052Y12858734D01*
X-11972396Y12859632D01*
X-11916492Y12817495D01*
G36*
X-6823042Y12835447D02*
G01*
X-6815666Y12805833D01*
X-6849553Y12749709D01*
X-6879166Y12742333D01*
X-6935291Y12776220D01*
X-6942666Y12805833D01*
X-6908780Y12861957D01*
X-6879166Y12869333D01*
X-6823042Y12835447D01*
G37*
X-6823042Y12835447D02*
X-6815666Y12805833D01*
X-6849553Y12749709D01*
X-6879166Y12742333D01*
X-6935291Y12776220D01*
X-6942666Y12805833D01*
X-6908780Y12861957D01*
X-6879166Y12869333D01*
X-6823042Y12835447D01*
D12*
X-10829840Y10016800D02*
X-10829840Y4816800D01*
X-3089840Y10016800D02*
X-3089840Y4816800D01*
X-10259840Y11456800D02*
X-10259840Y10016800D01*
X-10829840Y10016800D02*
X-10259840Y10016800D01*
X-10829840Y4816800D02*
X-10259840Y4816800D01*
X-3659840Y10016800D02*
X-3089840Y10016800D01*
X-3659840Y4816800D02*
X-3089840Y4816800D01*
X-8739840Y10016800D02*
X-7719840Y10016800D01*
X-8739840Y4816800D02*
X-7719840Y4816800D01*
X-6199840Y10016800D02*
X-5179840Y10016800D01*
X-6199840Y4816800D02*
X-5179840Y4816800D01*
X-10538723Y27214898D02*
X-11055879Y27214898D01*
X-10538723Y25794898D02*
X-11055879Y25794898D01*
X-16623920Y14280420D02*
X-16623920Y18165420D01*
X-14353920Y14280420D02*
X-16623920Y14280420D01*
X-14353920Y18165420D02*
X-14353920Y14280420D01*
X-13937053Y7510331D02*
X-12608305Y3859625D01*
X-12608305Y3859625D02*
X-14741407Y3083239D01*
X-14741407Y3083239D02*
X-16070155Y6733945D01*
X9249903Y704972D02*
X11747133Y-2271111D01*
X11747133Y-2271111D02*
X10008212Y-3730238D01*
X10008212Y-3730238D02*
X7510982Y-754156D01*
X719200Y14755400D02*
X719200Y18640400D01*
X2989200Y14755400D02*
X719200Y14755400D01*
X2989200Y18640400D02*
X2989200Y14755400D01*
X-3381400Y27135200D02*
X-7266400Y27135200D01*
X-7266400Y27135200D02*
X-7266400Y29405200D01*
X-7266400Y29405200D02*
X-3381400Y29405200D01*
X-14144060Y21530048D02*
X-14144060Y21007544D01*
X-12724060Y21530048D02*
X-12724060Y21007544D01*
X-13562400Y9947652D02*
X-13562400Y9425148D01*
X-12142400Y9947652D02*
X-12142400Y9425148D01*
X-1980000Y6246656D02*
X-1980000Y5724152D01*
X-560000Y6246656D02*
X-560000Y5724152D01*
X-2439600Y16373848D02*
X-2439600Y15851344D01*
X-3859600Y16373848D02*
X-3859600Y15851344D01*
X229800Y23613588D02*
X229800Y24136092D01*
X1649800Y23613588D02*
X1649800Y24136092D01*
D10*
X-3462840Y25284800D02*
X-3462840Y25079800D01*
X-8962840Y25284800D02*
X-8962840Y24984800D01*
X-8962840Y19774800D02*
X-8962840Y20074800D01*
X-3462840Y19774800D02*
X-3462840Y20074800D01*
X-3462840Y25284800D02*
X-8962840Y25284800D01*
X-3462840Y19774800D02*
X-8962840Y19774800D01*
X-3462840Y25079800D02*
X-1712840Y25079800D01*
X-1993700Y-1334585D02*
X-2243700Y-2084585D01*
X-2493700Y-1334585D01*
X-3172271Y-2013157D02*
X-3136557Y-2048871D01*
X-3029414Y-2084585D01*
X-2957985Y-2084585D01*
X-2850842Y-2048871D01*
X-2779414Y-1977442D01*
X-2743700Y-1906014D01*
X-2707985Y-1763157D01*
X-2707985Y-1656014D01*
X-2743700Y-1513157D01*
X-2779414Y-1441728D01*
X-2850842Y-1370300D01*
X-2957985Y-1334585D01*
X-3029414Y-1334585D01*
X-3136557Y-1370300D01*
X-3172271Y-1406014D01*
X-3922271Y-2013157D02*
X-3886557Y-2048871D01*
X-3779414Y-2084585D01*
X-3707985Y-2084585D01*
X-3600842Y-2048871D01*
X-3529414Y-1977442D01*
X-3493700Y-1906014D01*
X-3457985Y-1763157D01*
X-3457985Y-1656014D01*
X-3493700Y-1513157D01*
X-3529414Y-1441728D01*
X-3600842Y-1370300D01*
X-3707985Y-1334585D01*
X-3779414Y-1334585D01*
X-3886557Y-1370300D01*
X-3922271Y-1406014D01*
X457014Y-2048871D02*
X349871Y-2084585D01*
X171299Y-2084585D01*
X99871Y-2048871D01*
X64157Y-2013157D01*
X28442Y-1941728D01*
X28442Y-1870300D01*
X64157Y-1798871D01*
X99871Y-1763157D01*
X171299Y-1727442D01*
X314157Y-1691728D01*
X385585Y-1656014D01*
X421299Y-1620300D01*
X457014Y-1548871D01*
X457014Y-1477442D01*
X421299Y-1406014D01*
X385585Y-1370300D01*
X314157Y-1334585D01*
X135585Y-1334585D01*
X28442Y-1370300D01*
X-292985Y-2084585D02*
X-292985Y-1334585D01*
X-471557Y-1334585D01*
X-578699Y-1370300D01*
X-650128Y-1441728D01*
X-685842Y-1513157D01*
X-721557Y-1656014D01*
X-721557Y-1763157D01*
X-685842Y-1906014D01*
X-650128Y-1977442D01*
X-578699Y-2048871D01*
X-471557Y-2084585D01*
X-292985Y-2084585D01*
X-1007271Y-1870300D02*
X-1364414Y-1870300D01*
X-935842Y-2084585D02*
X-1185842Y-1334585D01*
X-1435842Y-2084585D01*
X4590442Y-1370300D02*
X4661871Y-1334585D01*
X4769014Y-1334585D01*
X4876157Y-1370300D01*
X4947585Y-1441728D01*
X4983300Y-1513157D01*
X5019014Y-1656014D01*
X5019014Y-1763157D01*
X4983300Y-1906014D01*
X4947585Y-1977442D01*
X4876157Y-2048871D01*
X4769014Y-2084585D01*
X4697585Y-2084585D01*
X4590442Y-2048871D01*
X4554728Y-2013157D01*
X4554728Y-1763157D01*
X4697585Y-1763157D01*
X4233300Y-2084585D02*
X4233300Y-1334585D01*
X3947585Y-1334585D01*
X3876157Y-1370300D01*
X3840442Y-1406014D01*
X3804728Y-1477442D01*
X3804728Y-1584585D01*
X3840442Y-1656014D01*
X3876157Y-1691728D01*
X3947585Y-1727442D01*
X4233300Y-1727442D01*
X3483300Y-2084585D02*
X3483300Y-1334585D01*
X2983300Y-1334585D02*
X2840442Y-1334585D01*
X2769014Y-1370300D01*
X2697585Y-1441728D01*
X2661871Y-1584585D01*
X2661871Y-1834585D01*
X2697585Y-1977442D01*
X2769014Y-2048871D01*
X2840442Y-2084585D01*
X2983300Y-2084585D01*
X3054728Y-2048871D01*
X3126157Y-1977442D01*
X3161871Y-1834585D01*
X3161871Y-1584585D01*
X3126157Y-1441728D01*
X3054728Y-1370300D01*
X2983300Y-1334585D01*
X1947585Y-2084585D02*
X2376157Y-2084585D01*
X2161871Y-2084585D02*
X2161871Y-1334585D01*
X2233300Y-1441728D01*
X2304728Y-1513157D01*
X2376157Y-1548871D01*
X-2422271Y-7212300D02*
X-2350842Y-7176585D01*
X-2243700Y-7176585D01*
X-2136557Y-7212300D01*
X-2065128Y-7283728D01*
X-2029414Y-7355157D01*
X-1993700Y-7498014D01*
X-1993700Y-7605157D01*
X-2029414Y-7748014D01*
X-2065128Y-7819442D01*
X-2136557Y-7890871D01*
X-2243700Y-7926585D01*
X-2315128Y-7926585D01*
X-2422271Y-7890871D01*
X-2457985Y-7855157D01*
X-2457985Y-7605157D01*
X-2315128Y-7605157D01*
X-2779414Y-7926585D02*
X-2779414Y-7176585D01*
X-3207985Y-7926585D01*
X-3207985Y-7176585D01*
X-3565128Y-7926585D02*
X-3565128Y-7176585D01*
X-3743700Y-7176585D01*
X-3850842Y-7212300D01*
X-3922271Y-7283728D01*
X-3957985Y-7355157D01*
X-3993700Y-7498014D01*
X-3993700Y-7605157D01*
X-3957985Y-7748014D01*
X-3922271Y-7819442D01*
X-3850842Y-7890871D01*
X-3743700Y-7926585D01*
X-3565128Y-7926585D01*
X439157Y-7890871D02*
X332014Y-7926585D01*
X153442Y-7926585D01*
X82014Y-7890871D01*
X46300Y-7855157D01*
X10585Y-7783728D01*
X10585Y-7712300D01*
X46300Y-7640871D01*
X82014Y-7605157D01*
X153442Y-7569442D01*
X296300Y-7533728D01*
X367728Y-7498014D01*
X403442Y-7462300D01*
X439157Y-7390871D01*
X439157Y-7319442D01*
X403442Y-7248014D01*
X367728Y-7212300D01*
X296300Y-7176585D01*
X117728Y-7176585D01*
X10585Y-7212300D01*
X-739414Y-7855157D02*
X-703699Y-7890871D01*
X-596557Y-7926585D01*
X-525128Y-7926585D01*
X-417985Y-7890871D01*
X-346557Y-7819442D01*
X-310842Y-7748014D01*
X-275128Y-7605157D01*
X-275128Y-7498014D01*
X-310842Y-7355157D01*
X-346557Y-7283728D01*
X-417985Y-7212300D01*
X-525128Y-7176585D01*
X-596557Y-7176585D01*
X-703699Y-7212300D01*
X-739414Y-7248014D01*
X-1417985Y-7926585D02*
X-1060842Y-7926585D01*
X-1060842Y-7176585D01*
X4590442Y-7212300D02*
X4661871Y-7176585D01*
X4769014Y-7176585D01*
X4876157Y-7212300D01*
X4947585Y-7283728D01*
X4983300Y-7355157D01*
X5019014Y-7498014D01*
X5019014Y-7605157D01*
X4983300Y-7748014D01*
X4947585Y-7819442D01*
X4876157Y-7890871D01*
X4769014Y-7926585D01*
X4697585Y-7926585D01*
X4590442Y-7890871D01*
X4554728Y-7855157D01*
X4554728Y-7605157D01*
X4697585Y-7605157D01*
X4233300Y-7926585D02*
X4233300Y-7176585D01*
X3947585Y-7176585D01*
X3876157Y-7212300D01*
X3840442Y-7248014D01*
X3804728Y-7319442D01*
X3804728Y-7426585D01*
X3840442Y-7498014D01*
X3876157Y-7533728D01*
X3947585Y-7569442D01*
X4233300Y-7569442D01*
X3483300Y-7926585D02*
X3483300Y-7176585D01*
X2983300Y-7176585D02*
X2840442Y-7176585D01*
X2769014Y-7212300D01*
X2697585Y-7283728D01*
X2661871Y-7426585D01*
X2661871Y-7676585D01*
X2697585Y-7819442D01*
X2769014Y-7890871D01*
X2840442Y-7926585D01*
X2983300Y-7926585D01*
X3054728Y-7890871D01*
X3126157Y-7819442D01*
X3161871Y-7676585D01*
X3161871Y-7426585D01*
X3126157Y-7283728D01*
X3054728Y-7212300D01*
X2983300Y-7176585D01*
X2376157Y-7248014D02*
X2340442Y-7212300D01*
X2269014Y-7176585D01*
X2090442Y-7176585D01*
X2019014Y-7212300D01*
X1983300Y-7248014D01*
X1947585Y-7319442D01*
X1947585Y-7390871D01*
X1983300Y-7498014D01*
X2411871Y-7926585D01*
X1947585Y-7926585D01*
X-12377459Y7750133D02*
X-11663173Y7750133D01*
X-11520316Y7797752D01*
X-11425078Y7892990D01*
X-11377459Y8035847D01*
X-11377459Y8131085D01*
X-11377459Y6750133D02*
X-11377459Y7321561D01*
X-11377459Y7035847D02*
X-12377459Y7035847D01*
X-12234601Y7131085D01*
X-12139363Y7226323D01*
X-12091744Y7321561D01*
X-10630634Y27797755D02*
X-10583015Y27750136D01*
X-10440158Y27702517D01*
X-10344920Y27702517D01*
X-10202062Y27750136D01*
X-10106824Y27845374D01*
X-10059205Y27940612D01*
X-10011586Y28131088D01*
X-10011586Y28273945D01*
X-10059205Y28464421D01*
X-10106824Y28559659D01*
X-10202062Y28654898D01*
X-10344920Y28702517D01*
X-10440158Y28702517D01*
X-10583015Y28654898D01*
X-10630634Y28607278D01*
X-11583015Y27702517D02*
X-11011586Y27702517D01*
X-11297301Y27702517D02*
X-11297301Y28702517D01*
X-11202062Y28559659D01*
X-11106824Y28464421D01*
X-11011586Y28416802D01*
X-13216539Y17303515D02*
X-14216539Y17303515D01*
X-14216539Y17065420D01*
X-14168920Y16922562D01*
X-14073681Y16827324D01*
X-13978443Y16779705D01*
X-13787967Y16732086D01*
X-13645110Y16732086D01*
X-13454634Y16779705D01*
X-13359396Y16827324D01*
X-13264158Y16922562D01*
X-13216539Y17065420D01*
X-13216539Y17303515D01*
X-13216539Y15779705D02*
X-13216539Y16351134D01*
X-13216539Y16065420D02*
X-14216539Y16065420D01*
X-14073681Y16160658D01*
X-13978443Y16255896D01*
X-13930824Y16351134D01*
X-12918786Y5392800D02*
X-11979093Y5734821D01*
X-12060527Y5958557D01*
X-12154134Y6076512D01*
X-12276202Y6133433D01*
X-12381983Y6145607D01*
X-12577259Y6125208D01*
X-12711501Y6076348D01*
X-12874203Y5966454D01*
X-12947411Y5889133D01*
X-13004332Y5767065D01*
X-13000219Y5616537D01*
X-12918786Y5392800D01*
X-12394321Y6597193D02*
X-12365861Y6658227D01*
X-12353687Y6764008D01*
X-12435120Y6987744D01*
X-12512441Y7060952D01*
X-12573475Y7089413D01*
X-12679256Y7101586D01*
X-12768751Y7069013D01*
X-12886706Y6975406D01*
X-13228233Y6242999D01*
X-13439960Y6824713D01*
X10930998Y-936588D02*
X11697043Y-293801D01*
X11543998Y-111409D01*
X11415693Y-32583D01*
X11281518Y-20844D01*
X11177953Y-45584D01*
X11001431Y-131541D01*
X10891996Y-223368D01*
X10776691Y-382282D01*
X10734344Y-479978D01*
X10722605Y-614153D01*
X10777953Y-754197D01*
X10930998Y-936588D01*
X11115473Y399286D02*
X10717557Y873504D01*
X10639993Y373285D01*
X10548166Y482720D01*
X10450470Y525067D01*
X10383382Y530937D01*
X10279817Y506197D01*
X10097425Y353152D01*
X10055078Y255456D01*
X10049208Y188369D01*
X10073948Y84803D01*
X10257602Y-134065D01*
X10355298Y-176413D01*
X10422385Y-182282D01*
X4126580Y17778495D02*
X3126580Y17778495D01*
X3126580Y17540400D01*
X3174200Y17397542D01*
X3269438Y17302304D01*
X3364676Y17254685D01*
X3555152Y17207066D01*
X3698009Y17207066D01*
X3888485Y17254685D01*
X3983723Y17302304D01*
X4078961Y17397542D01*
X4126580Y17540400D01*
X4126580Y17778495D01*
X3459914Y16349923D02*
X4126580Y16349923D01*
X3078961Y16588019D02*
X3793247Y16826114D01*
X3793247Y16207066D01*
X-4243304Y25997819D02*
X-4243304Y26997819D01*
X-4481400Y26997819D01*
X-4624257Y26950200D01*
X-4719495Y26854961D01*
X-4767114Y26759723D01*
X-4814733Y26569247D01*
X-4814733Y26426390D01*
X-4767114Y26235914D01*
X-4719495Y26140676D01*
X-4624257Y26045438D01*
X-4481400Y25997819D01*
X-4243304Y25997819D01*
X-5719495Y26997819D02*
X-5243304Y26997819D01*
X-5195685Y26521628D01*
X-5243304Y26569247D01*
X-5338542Y26616866D01*
X-5576638Y26616866D01*
X-5671876Y26569247D01*
X-5719495Y26521628D01*
X-5767114Y26426390D01*
X-5767114Y26188295D01*
X-5719495Y26093057D01*
X-5671876Y26045438D01*
X-5576638Y25997819D01*
X-5338542Y25997819D01*
X-5243304Y26045438D01*
X-5195685Y26093057D01*
X-14631679Y21435462D02*
X-15107869Y21768796D01*
X-14631679Y22006891D02*
X-15631679Y22006891D01*
X-15631679Y21625938D01*
X-15584060Y21530700D01*
X-15536440Y21483081D01*
X-15441202Y21435462D01*
X-15298345Y21435462D01*
X-15203107Y21483081D01*
X-15155488Y21530700D01*
X-15107869Y21625938D01*
X-15107869Y22006891D01*
X-14631679Y20483081D02*
X-14631679Y21054510D01*
X-14631679Y20768796D02*
X-15631679Y20768796D01*
X-15488821Y20864034D01*
X-15393583Y20959272D01*
X-15345964Y21054510D01*
X-14050019Y9853066D02*
X-14526209Y10186400D01*
X-14050019Y10424495D02*
X-15050019Y10424495D01*
X-15050019Y10043542D01*
X-15002400Y9948304D01*
X-14954780Y9900685D01*
X-14859542Y9853066D01*
X-14716685Y9853066D01*
X-14621447Y9900685D01*
X-14573828Y9948304D01*
X-14526209Y10043542D01*
X-14526209Y10424495D01*
X-14954780Y9472114D02*
X-15002400Y9424495D01*
X-15050019Y9329257D01*
X-15050019Y9091161D01*
X-15002400Y8995923D01*
X-14954780Y8948304D01*
X-14859542Y8900685D01*
X-14764304Y8900685D01*
X-14621447Y8948304D01*
X-14050019Y9519733D01*
X-14050019Y8900685D01*
X-2467619Y6152070D02*
X-2943809Y6485404D01*
X-2467619Y6723499D02*
X-3467619Y6723499D01*
X-3467619Y6342546D01*
X-3420000Y6247308D01*
X-3372380Y6199689D01*
X-3277142Y6152070D01*
X-3134285Y6152070D01*
X-3039047Y6199689D01*
X-2991428Y6247308D01*
X-2943809Y6342546D01*
X-2943809Y6723499D01*
X-3467619Y5818737D02*
X-3467619Y5199689D01*
X-3086666Y5533023D01*
X-3086666Y5390165D01*
X-3039047Y5294927D01*
X-2991428Y5247308D01*
X-2896190Y5199689D01*
X-2658095Y5199689D01*
X-2562857Y5247308D01*
X-2515238Y5294927D01*
X-2467619Y5390165D01*
X-2467619Y5675880D01*
X-2515238Y5771118D01*
X-2562857Y5818737D01*
X-4347219Y16279262D02*
X-4823409Y16612596D01*
X-4347219Y16850691D02*
X-5347219Y16850691D01*
X-5347219Y16469738D01*
X-5299600Y16374500D01*
X-5251980Y16326881D01*
X-5156742Y16279262D01*
X-5013885Y16279262D01*
X-4918647Y16326881D01*
X-4871028Y16374500D01*
X-4823409Y16469738D01*
X-4823409Y16850691D01*
X-5013885Y15422119D02*
X-4347219Y15422119D01*
X-5394838Y15660215D02*
X-4680552Y15898310D01*
X-4680552Y15279262D01*
X3042180Y24041506D02*
X2565990Y24374840D01*
X3042180Y24612935D02*
X2042180Y24612935D01*
X2042180Y24231982D01*
X2089800Y24136744D01*
X2137419Y24089125D01*
X2232657Y24041506D01*
X2375514Y24041506D01*
X2470752Y24089125D01*
X2518371Y24136744D01*
X2565990Y24231982D01*
X2565990Y24612935D01*
X2042180Y23136744D02*
X2042180Y23612935D01*
X2518371Y23660554D01*
X2470752Y23612935D01*
X2423133Y23517697D01*
X2423133Y23279601D01*
X2470752Y23184363D01*
X2518371Y23136744D01*
X2613609Y23089125D01*
X2851704Y23089125D01*
X2946942Y23136744D01*
X2994561Y23184363D01*
X3042180Y23279601D01*
X3042180Y23517697D01*
X2994561Y23612935D01*
X2946942Y23660554D01*
X-5450935Y26757419D02*
X-5450935Y25947895D01*
X-5498554Y25852657D01*
X-5546173Y25805038D01*
X-5641411Y25757419D01*
X-5831887Y25757419D01*
X-5927125Y25805038D01*
X-5974744Y25852657D01*
X-6022363Y25947895D01*
X-6022363Y26757419D01*
X-7022363Y25757419D02*
X-6450935Y25757419D01*
X-6736649Y25757419D02*
X-6736649Y26757419D01*
X-6641411Y26614561D01*
X-6546173Y26519323D01*
X-6450935Y26471704D01*
M02*
