G04 #@! TF.GenerationSoftware,KiCad,Pcbnew,(5.1.5)-3*
G04 #@! TF.CreationDate,2020-08-07T09:29:16-05:00*
G04 #@! TF.ProjectId,matt_damon,6d617474-5f64-4616-9d6f-6e2e6b696361,rev?*
G04 #@! TF.SameCoordinates,Original*
G04 #@! TF.FileFunction,Copper,L1,Top*
G04 #@! TF.FilePolarity,Positive*
%FSLAX46Y46*%
G04 Gerber Fmt 4.6, Leading zero omitted, Abs format (unit mm)*
G04 Created by KiCad (PCBNEW (5.1.5)-3) date 2020-08-07 09:29:16*
%MOMM*%
%LPD*%
G04 APERTURE LIST*
%ADD10C,1.727200*%
%ADD11O,1.727200X1.727200*%
%ADD12R,1.727200X1.727200*%
%ADD13C,0.600000*%
%ADD14C,0.254000*%
G04 APERTURE END LIST*
D10*
X2146300Y-3289300D03*
X2146300Y-5829300D03*
D11*
X-393700Y-3289300D03*
X-393700Y-5829300D03*
X-2933700Y-3289300D03*
D12*
X-2933700Y-5829300D03*
D13*
X-11071860Y4907280D03*
X-8178800Y26504900D03*
D14*
G36*
X-6229497Y30770075D02*
G01*
X-5742546Y30764720D01*
X-5611203Y30763013D01*
X-4974285Y30752795D01*
X-4415276Y30739765D01*
X-3926969Y30723346D01*
X-3502013Y30702965D01*
X-3133265Y30678070D01*
X-2813702Y30648142D01*
X-2536174Y30612690D01*
X-2293293Y30571229D01*
X-2077637Y30523270D01*
X-1879902Y30467783D01*
X-1858466Y30461035D01*
X-1855039Y30460009D01*
X-1642140Y30399526D01*
X-1632110Y30397112D01*
X-1462127Y30363443D01*
X-1443437Y30361164D01*
X-1327626Y30355699D01*
X-1302762Y30356969D01*
X-1278624Y30363065D01*
X-1266792Y30368013D01*
X-1216405Y30392140D01*
X-1195112Y30405041D01*
X-1176745Y30421848D01*
X-1162010Y30441916D01*
X-1151474Y30464473D01*
X-1148041Y30477828D01*
X-1074553Y30423491D01*
X-1071387Y30421224D01*
X-895293Y30299189D01*
X-888742Y30294941D01*
X-704702Y30183486D01*
X-696926Y30179142D01*
X-535410Y30096205D01*
X-525632Y30091697D01*
X-474226Y30070592D01*
X-332167Y30009697D01*
X-152309Y29919854D01*
X36430Y29815754D01*
X106749Y29774039D01*
X311564Y29651218D01*
X315495Y29648955D01*
X469359Y29564007D01*
X479661Y29558913D01*
X602704Y29504859D01*
X620788Y29498495D01*
X733404Y29468195D01*
X752309Y29464618D01*
X874891Y29450932D01*
X885489Y29450196D01*
X1038433Y29445987D01*
X1040665Y29445945D01*
X1055395Y29445799D01*
X1221747Y29439713D01*
X1256703Y29434023D01*
X1264142Y29413840D01*
X1277143Y29392608D01*
X1294036Y29374320D01*
X1305258Y29365422D01*
X1370822Y29319207D01*
X1399226Y29304162D01*
X1523378Y29257399D01*
X1457789Y29241290D01*
X1445811Y29237714D01*
X1306400Y29188509D01*
X1300026Y29186065D01*
X1299944Y29186031D01*
X1298808Y29185554D01*
X1156721Y29125018D01*
X1134884Y29113062D01*
X1115799Y29097075D01*
X1100199Y29077672D01*
X1088684Y29055598D01*
X1081697Y29031702D01*
X1079506Y29006902D01*
X1082196Y28982152D01*
X1089662Y28958401D01*
X1101618Y28936564D01*
X1117605Y28917479D01*
X1137008Y28901879D01*
X1155357Y28891933D01*
X1365773Y28799360D01*
X1858951Y28569569D01*
X2268254Y28350911D01*
X2574377Y28156246D01*
X2473198Y28168647D01*
X2368039Y28191482D01*
X2211399Y28246566D01*
X2023807Y28327525D01*
X1944614Y28365813D01*
X1752332Y28460767D01*
X1748685Y28462496D01*
X1616426Y28522660D01*
X1603839Y28527596D01*
X1517202Y28556346D01*
X1492918Y28561833D01*
X1479348Y28562791D01*
X1423474Y28563735D01*
X1398660Y28561713D01*
X1374717Y28554890D01*
X1357459Y28546524D01*
X1317485Y28523265D01*
X1297297Y28508695D01*
X1287558Y28499116D01*
X1258661Y28467460D01*
X1245966Y28451036D01*
X1217113Y28406633D01*
X1205659Y28384528D01*
X1198738Y28360613D01*
X1196615Y28335808D01*
X1199373Y28311064D01*
X1206905Y28287335D01*
X1218921Y28265530D01*
X1234961Y28246489D01*
X1254407Y28230943D01*
X1276512Y28219489D01*
X1301205Y28212426D01*
X1333038Y28206722D01*
X1357857Y28204754D01*
X1383146Y28207790D01*
X1429375Y28218125D01*
X1473485Y28221154D01*
X1514324Y28203117D01*
X1602362Y28131667D01*
X1694299Y28055109D01*
X1697455Y28052565D01*
X1841514Y27940190D01*
X1843139Y27938944D01*
X2021068Y27804707D01*
X2022361Y27803744D01*
X2216496Y27661110D01*
X2217356Y27660484D01*
X2273846Y27619704D01*
X2608311Y27365176D01*
X2893913Y27119274D01*
X3123029Y26890156D01*
X3287435Y26687150D01*
X3352501Y26580178D01*
X3399519Y26462586D01*
X3449432Y26293407D01*
X3489341Y26112870D01*
X3490224Y26107879D01*
X3491715Y26100671D01*
X3536142Y25913471D01*
X3538409Y25905179D01*
X3614848Y25658697D01*
X3616501Y25653732D01*
X3719414Y25364567D01*
X3720822Y25360800D01*
X3838412Y25060824D01*
X3838558Y25060453D01*
X3936595Y24812654D01*
X4026511Y24570823D01*
X4101668Y24354070D01*
X4154729Y24183644D01*
X4175325Y24102325D01*
X4176488Y24098051D01*
X4229065Y23917215D01*
X4232685Y23906550D01*
X4325552Y23668285D01*
X4328168Y23662067D01*
X4455712Y23380087D01*
X4457442Y23376421D01*
X4541097Y23206161D01*
X4541142Y23206069D01*
X4628651Y23028329D01*
X4628649Y23028330D01*
X4597500Y23043089D01*
X4574064Y23051492D01*
X4549440Y23055163D01*
X4524573Y23053958D01*
X4500418Y23047926D01*
X4477905Y23037297D01*
X4457898Y23022480D01*
X4441165Y23004045D01*
X4428351Y22982700D01*
X4419211Y22956168D01*
X4408653Y22909190D01*
X4405601Y22884481D01*
X4405945Y22871480D01*
X4414827Y22757445D01*
X4415772Y22748990D01*
X4442943Y22562574D01*
X4443365Y22559880D01*
X4487672Y22295761D01*
X4487765Y22295214D01*
X4488778Y22289332D01*
X4588084Y21637405D01*
X4657960Y20996437D01*
X4698829Y20350802D01*
X4710878Y19685937D01*
X4694227Y18987362D01*
X4648967Y18240774D01*
X4575127Y17431385D01*
X4548257Y17181890D01*
X4381525Y16008800D01*
X4139297Y14817007D01*
X4089358Y14607209D01*
X4007289Y14280660D01*
X3928509Y13995219D01*
X3846147Y13731009D01*
X3753221Y13468005D01*
X3642571Y13186014D01*
X3507129Y12865318D01*
X3344769Y12497257D01*
X3344133Y12495790D01*
X3149426Y12038907D01*
X3147111Y12033081D01*
X2994671Y11619947D01*
X2991849Y11611372D01*
X2880168Y11226464D01*
X2877476Y11215334D01*
X2805046Y10843126D01*
X2803248Y10830562D01*
X2768564Y10455528D01*
X2768025Y10443332D01*
X2769578Y10049949D01*
X2770032Y10039703D01*
X2806316Y9612444D01*
X2807190Y9604865D01*
X2876697Y9128207D01*
X2877498Y9123371D01*
X2968269Y8634004D01*
X2968745Y8631572D01*
X3036823Y8300698D01*
X3037407Y8298008D01*
X3096272Y8040331D01*
X3097542Y8035256D01*
X3150627Y7840256D01*
X3153493Y7831106D01*
X3204231Y7688266D01*
X3210865Y7672887D01*
X3262690Y7571686D01*
X3276752Y7549997D01*
X3333097Y7479915D01*
X3348495Y7463871D01*
X3375520Y7440249D01*
X3391025Y7428656D01*
X3458910Y7385553D01*
X3487538Y7372049D01*
X3569586Y7345238D01*
X3596849Y7339542D01*
X3706119Y7329010D01*
X3723169Y7328517D01*
X3872723Y7334251D01*
X3881539Y7334897D01*
X4084437Y7356883D01*
X4088602Y7357404D01*
X4357904Y7395628D01*
X4359238Y7395825D01*
X4446164Y7409106D01*
X4830938Y7458262D01*
X5191276Y7484775D01*
X5512668Y7488750D01*
X5777871Y7470553D01*
X5953980Y7436123D01*
X6138340Y7347893D01*
X6301401Y7207695D01*
X6400702Y7066098D01*
X6441285Y6955162D01*
X6489074Y6752396D01*
X6540098Y6463195D01*
X6593498Y6089427D01*
X6646198Y5657292D01*
X6646263Y5656766D01*
X6682100Y5372767D01*
X6682447Y5370228D01*
X6724703Y5082272D01*
X6725092Y5079793D01*
X6769872Y4811636D01*
X6770445Y4808453D01*
X6813856Y4583852D01*
X6814841Y4579219D01*
X6842858Y4458599D01*
X6845074Y4450333D01*
X6913055Y4227118D01*
X6915468Y4219966D01*
X7006681Y3973963D01*
X7008759Y3968718D01*
X7115548Y3715782D01*
X7117614Y3711149D01*
X7232327Y3467131D01*
X7234789Y3462177D01*
X7349770Y3242930D01*
X7353454Y3236384D01*
X7461051Y3057761D01*
X7468616Y3046591D01*
X7561172Y2924443D01*
X7576887Y2907242D01*
X7615712Y2871887D01*
X7644251Y2852282D01*
X7742054Y2803194D01*
X7756434Y2797054D01*
X7910785Y2742111D01*
X7918997Y2739498D01*
X8103099Y2687732D01*
X8108688Y2686297D01*
X8191814Y2666950D01*
X8386602Y2619546D01*
X8570157Y2566126D01*
X8712140Y2516130D01*
X8741566Y2503274D01*
X8967550Y2373084D01*
X9238430Y2178810D01*
X9547813Y1925703D01*
X9887885Y1620722D01*
X10251621Y1270568D01*
X10632400Y881719D01*
X11023734Y460585D01*
X11419150Y13603D01*
X11812267Y-452868D01*
X12197193Y-933061D01*
X12239645Y-987591D01*
X12367566Y-1155646D01*
X12511375Y-1349894D01*
X12662962Y-1558784D01*
X12814004Y-1770461D01*
X12956070Y-1972915D01*
X13080852Y-2154296D01*
X13168859Y-2286000D01*
X13081000Y-2286000D01*
X13056224Y-2288440D01*
X13032399Y-2295667D01*
X13010443Y-2307403D01*
X12991197Y-2323197D01*
X12975403Y-2342443D01*
X12963667Y-2364399D01*
X12956440Y-2388224D01*
X12954001Y-2412440D01*
X12952742Y-2698190D01*
X12951633Y-2950042D01*
X11223307Y-5926392D01*
X9514630Y-8868907D01*
X-1134198Y-8879499D01*
X-2298852Y-8880585D01*
X-3381466Y-8881433D01*
X-4384683Y-8882035D01*
X-5311139Y-8882380D01*
X-6163437Y-8882456D01*
X-6944256Y-8882255D01*
X-7656230Y-8881764D01*
X-8301980Y-8880975D01*
X-8884136Y-8879877D01*
X-9405466Y-8878458D01*
X-9868366Y-8876711D01*
X-10275345Y-8874624D01*
X-10629400Y-8872186D01*
X-10933366Y-8869385D01*
X-11188837Y-8866221D01*
X-11399340Y-8862675D01*
X-11566801Y-8858756D01*
X-11693841Y-8854464D01*
X-11774576Y-8850265D01*
X-11788278Y-8801111D01*
X-11821670Y-8638676D01*
X-11845442Y-8482050D01*
X-11851671Y-8400414D01*
X-11827957Y-8217584D01*
X-11754559Y-7983826D01*
X-11635429Y-7716560D01*
X-11476316Y-7433751D01*
X-11449621Y-7391481D01*
X-11448267Y-7389288D01*
X-11303827Y-7149951D01*
X-11298907Y-7141005D01*
X-11188345Y-6919288D01*
X-11183019Y-6907030D01*
X-11098036Y-6679389D01*
X-11094201Y-6667312D01*
X-11026498Y-6410201D01*
X-11024529Y-6401488D01*
X-10965809Y-6091365D01*
X-10965173Y-6087718D01*
X-10945595Y-5964821D01*
X-10945491Y-5964151D01*
X-10873393Y-5495491D01*
X-10872037Y-5470632D01*
X-10875558Y-5445986D01*
X-10883819Y-5422500D01*
X-10893829Y-5404867D01*
X-10992808Y-5259015D01*
X-11056918Y-5132567D01*
X-11102114Y-4985919D01*
X-11105628Y-4965700D01*
X-4435372Y-4965700D01*
X-4435372Y-6692900D01*
X-4423112Y-6817382D01*
X-4386802Y-6937080D01*
X-4327837Y-7047394D01*
X-4248485Y-7144085D01*
X-4151794Y-7223437D01*
X-4041480Y-7282402D01*
X-3921782Y-7318712D01*
X-3797300Y-7330972D01*
X-2070100Y-7330972D01*
X-1945618Y-7318712D01*
X-1825920Y-7282402D01*
X-1715606Y-7223437D01*
X-1618915Y-7144085D01*
X-1539563Y-7047394D01*
X-1480598Y-6937080D01*
X-1463064Y-6879277D01*
X-1349002Y-6993339D01*
X-1103553Y-7157342D01*
X-830825Y-7270310D01*
X-541299Y-7327900D01*
X-246101Y-7327900D01*
X43425Y-7270310D01*
X316153Y-7157342D01*
X561602Y-6993339D01*
X770339Y-6784602D01*
X876300Y-6626019D01*
X982261Y-6784602D01*
X1190998Y-6993339D01*
X1436447Y-7157342D01*
X1709175Y-7270310D01*
X1998701Y-7327900D01*
X2293899Y-7327900D01*
X2583425Y-7270310D01*
X2856153Y-7157342D01*
X3101602Y-6993339D01*
X3310339Y-6784602D01*
X3474342Y-6539153D01*
X3587310Y-6266425D01*
X3644900Y-5976899D01*
X3644900Y-5681701D01*
X3587310Y-5392175D01*
X3474342Y-5119447D01*
X3310339Y-4873998D01*
X3101602Y-4665261D01*
X2943019Y-4559300D01*
X3101602Y-4453339D01*
X3310339Y-4244602D01*
X3474342Y-3999153D01*
X3587310Y-3726425D01*
X3644900Y-3436899D01*
X3644900Y-3141701D01*
X3587310Y-2852175D01*
X3474342Y-2579447D01*
X3310339Y-2333998D01*
X3101602Y-2125261D01*
X2856153Y-1961258D01*
X2583425Y-1848290D01*
X2293899Y-1790700D01*
X1998701Y-1790700D01*
X1709175Y-1848290D01*
X1436447Y-1961258D01*
X1190998Y-2125261D01*
X982261Y-2333998D01*
X876300Y-2492581D01*
X770339Y-2333998D01*
X561602Y-2125261D01*
X316153Y-1961258D01*
X43425Y-1848290D01*
X-246101Y-1790700D01*
X-541299Y-1790700D01*
X-830825Y-1848290D01*
X-1103553Y-1961258D01*
X-1349002Y-2125261D01*
X-1557739Y-2333998D01*
X-1668259Y-2499403D01*
X-1726883Y-2400812D01*
X-1923407Y-2182446D01*
X-2158756Y-2006616D01*
X-2423886Y-1880078D01*
X-2574674Y-1834342D01*
X-2806700Y-1955483D01*
X-2806700Y-3162300D01*
X-2786700Y-3162300D01*
X-2786700Y-3416300D01*
X-2806700Y-3416300D01*
X-2806700Y-3436300D01*
X-3060700Y-3436300D01*
X-3060700Y-3416300D01*
X-4268164Y-3416300D01*
X-4388663Y-3648327D01*
X-4290664Y-3925278D01*
X-4140517Y-4177788D01*
X-3979008Y-4357247D01*
X-4041480Y-4376198D01*
X-4151794Y-4435163D01*
X-4248485Y-4514515D01*
X-4327837Y-4611206D01*
X-4386802Y-4721520D01*
X-4423112Y-4841218D01*
X-4435372Y-4965700D01*
X-11105628Y-4965700D01*
X-11107343Y-4955839D01*
X-11109050Y-4947634D01*
X-11138014Y-4828304D01*
X-11141103Y-4817637D01*
X-11198440Y-4647802D01*
X-11200561Y-4641991D01*
X-11277136Y-4447052D01*
X-11278989Y-4442587D01*
X-11341538Y-4299600D01*
X-11445981Y-4054176D01*
X-11506934Y-3858139D01*
X-11525357Y-3698854D01*
X-11503827Y-3557429D01*
X-11437161Y-3409031D01*
X-11313790Y-3236293D01*
X-11126355Y-3029250D01*
X-11025945Y-2930273D01*
X-4388663Y-2930273D01*
X-4268164Y-3162300D01*
X-3060700Y-3162300D01*
X-3060700Y-1955483D01*
X-3292726Y-1834342D01*
X-3443514Y-1880078D01*
X-3708644Y-2006616D01*
X-3943993Y-2182446D01*
X-4140517Y-2400812D01*
X-4290664Y-2653322D01*
X-4388663Y-2930273D01*
X-11025945Y-2930273D01*
X-10885050Y-2791390D01*
X-10512366Y-2432728D01*
X-10511589Y-2431973D01*
X-10195911Y-2122944D01*
X-10194758Y-2121801D01*
X-9930889Y-1856798D01*
X-9929222Y-1855092D01*
X-9711435Y-1627994D01*
X-9709095Y-1625487D01*
X-9531661Y-1430174D01*
X-9528504Y-1426565D01*
X-9385696Y-1256918D01*
X-9381689Y-1251905D01*
X-9267777Y-1101804D01*
X-9263169Y-1095320D01*
X-9173481Y-960358D01*
X-9171095Y-956629D01*
X-8954390Y-604495D01*
X-8943483Y-582115D01*
X-8937151Y-558037D01*
X-8935639Y-533187D01*
X-8939003Y-508519D01*
X-8947115Y-484981D01*
X-8959664Y-463479D01*
X-8969732Y-451251D01*
X-9261151Y-139202D01*
X-9404233Y23762D01*
X-9523865Y185039D01*
X-9639152Y372633D01*
X-9767119Y613568D01*
X-9796545Y672236D01*
X-9796719Y672581D01*
X-9903558Y883981D01*
X-9905181Y887086D01*
X-9983865Y1032656D01*
X-9988674Y1040810D01*
X-10046796Y1131470D01*
X-10062436Y1151233D01*
X-10107587Y1197902D01*
X-10126569Y1214012D01*
X-10157774Y1229766D01*
X-10197547Y1243365D01*
X-10221781Y1249072D01*
X-10253867Y1249278D01*
X-10276523Y1246541D01*
X-10285011Y1245223D01*
X-10561831Y1192596D01*
X-10908258Y1149430D01*
X-11332262Y1114927D01*
X-11835914Y1089106D01*
X-12385410Y1072596D01*
X-12892195Y1064861D01*
X-13322506Y1065872D01*
X-13684032Y1076139D01*
X-13984778Y1096079D01*
X-14232610Y1125951D01*
X-14435664Y1165813D01*
X-14605883Y1216570D01*
X-14614864Y1219866D01*
X-14887326Y1347485D01*
X-15168208Y1524254D01*
X-15441691Y1736734D01*
X-15687907Y1968364D01*
X-15887372Y2201576D01*
X-16021567Y2415776D01*
X-16051586Y2479940D01*
X-16072609Y2538285D01*
X-16086734Y2604813D01*
X-16095875Y2700196D01*
X-16100036Y2839987D01*
X-16099812Y3036971D01*
X-16096344Y3303863D01*
X-16095754Y3342388D01*
X-16095745Y3343108D01*
X-16093209Y3606050D01*
X-16093203Y3607497D01*
X-16093633Y3853708D01*
X-16093647Y3855375D01*
X-16096799Y4067297D01*
X-16096863Y4069872D01*
X-16102493Y4229948D01*
X-16102825Y4235675D01*
X-16109531Y4318979D01*
X-16113625Y4342310D01*
X-16144375Y4454677D01*
X-16151685Y4474646D01*
X-16219888Y4621512D01*
X-16225195Y4631705D01*
X-16336348Y4823487D01*
X-16339504Y4828645D01*
X-16492985Y5066580D01*
X-16493295Y5067058D01*
X-16656699Y5317897D01*
X-16773375Y5513893D01*
X-16850670Y5671628D01*
X-16897360Y5809073D01*
X-16922568Y5948318D01*
X-16932678Y6112654D01*
X-16933576Y6197910D01*
X-16933638Y6200755D01*
X-16941811Y6448745D01*
X-16942994Y6462350D01*
X-16972417Y6670349D01*
X-16976255Y6688157D01*
X-17034857Y6888860D01*
X-17039814Y6902771D01*
X-17135525Y7128872D01*
X-17137979Y7134310D01*
X-17182372Y7226821D01*
X-17240705Y7354599D01*
X-17280834Y7468402D01*
X-17305582Y7583906D01*
X-17316099Y7717525D01*
X-17311577Y7884219D01*
X-17290891Y8096316D01*
X-17253506Y8364901D01*
X-17199302Y8701051D01*
X-17169928Y8874444D01*
X-17168337Y8888663D01*
X-17164802Y8952769D01*
X-17165874Y8977643D01*
X-17171778Y9001829D01*
X-17182865Y9025364D01*
X-17210391Y9070992D01*
X-17225278Y9090947D01*
X-17243773Y9107613D01*
X-17257154Y9116238D01*
X-17332749Y9158507D01*
X-17348961Y9166125D01*
X-17471075Y9213304D01*
X-17838038Y9385929D01*
X-18157337Y9612966D01*
X-18423903Y9887058D01*
X-18629949Y10202350D01*
X-18653017Y10248984D01*
X-18710936Y10377533D01*
X-18745094Y10476532D01*
X-18763866Y10577209D01*
X-18772725Y10714271D01*
X-18774832Y10915494D01*
X-18774833Y10921381D01*
X-18772842Y11125061D01*
X-18764217Y11263620D01*
X-18745895Y11364302D01*
X-18712680Y11461421D01*
X-18656653Y11585374D01*
X-18595686Y11700039D01*
X-18495888Y11871559D01*
X-18366994Y12083562D01*
X-18219307Y12319066D01*
X-18062033Y12562932D01*
X-18033481Y12606445D01*
X-18033029Y12607138D01*
X-17756670Y13034354D01*
X-17755294Y13036529D01*
X-17531864Y13397770D01*
X-17529893Y13401068D01*
X-17359353Y13696407D01*
X-17356326Y13701963D01*
X-17238632Y13931474D01*
X-17233571Y13942641D01*
X-17168683Y14106399D01*
X-17161802Y14130456D01*
X-17147757Y14207675D01*
X-17145724Y14232489D01*
X-17149990Y14263105D01*
X-17176450Y14362396D01*
X-17185188Y14385708D01*
X-17198306Y14406868D01*
X-17214133Y14424023D01*
X-17305945Y14506787D01*
X-17324814Y14520860D01*
X-17340543Y14530460D01*
X-17433153Y14593975D01*
X-17572667Y14700990D01*
X-17741996Y14837587D01*
X-17922430Y14988280D01*
X-18096142Y15138184D01*
X-18245024Y15272089D01*
X-18349651Y15373296D01*
X-18442275Y15491757D01*
X-18512390Y15635201D01*
X-18568213Y15828322D01*
X-18612269Y16088829D01*
X-18633687Y16278428D01*
X-18644491Y16393270D01*
X-18652442Y16498050D01*
X-18657126Y16601493D01*
X-18658172Y16713540D01*
X-18655082Y16844070D01*
X-18647291Y17002517D01*
X-18634269Y17197689D01*
X-18615517Y17438411D01*
X-18590555Y17733549D01*
X-18558913Y18091950D01*
X-18520111Y18522650D01*
X-18504049Y18699870D01*
X-18504045Y18699922D01*
X-18463465Y19149737D01*
X-18463427Y19150163D01*
X-18431009Y19523547D01*
X-18430918Y19524656D01*
X-18407140Y19829495D01*
X-18406983Y19831759D01*
X-18392321Y20075937D01*
X-18392137Y20080187D01*
X-18387069Y20271592D01*
X-18387099Y20279289D01*
X-18392103Y20425805D01*
X-18393290Y20439325D01*
X-18408841Y20548839D01*
X-18413997Y20570844D01*
X-18440573Y20651241D01*
X-18454362Y20680113D01*
X-18492441Y20739279D01*
X-18513485Y20764227D01*
X-18563543Y20810048D01*
X-18580407Y20823063D01*
X-18642922Y20863425D01*
X-18648967Y20867093D01*
X-18690113Y20890521D01*
X-18799115Y20960283D01*
X-18860709Y21022096D01*
X-18900306Y21100694D01*
X-18929129Y21231157D01*
X-18948133Y21435351D01*
X-18952932Y21521523D01*
X-18952994Y21522552D01*
X-18966448Y21733309D01*
X-18967152Y21740821D01*
X-18985436Y21888518D01*
X-18988569Y21904905D01*
X-19016222Y22011147D01*
X-19024682Y22034214D01*
X-19066244Y22120607D01*
X-19073590Y22133806D01*
X-19094622Y22166807D01*
X-19152288Y22264055D01*
X-19178248Y22325813D01*
X-19178548Y22327716D01*
X-19185071Y22352497D01*
X-19216631Y22436747D01*
X-19230752Y22463920D01*
X-19323233Y22599060D01*
X-19330122Y22608211D01*
X-19480231Y22789954D01*
X-19484334Y22794680D01*
X-19688772Y23018738D01*
X-19690375Y23020463D01*
X-19700343Y23030989D01*
X-19938929Y23294275D01*
X-20108987Y23508712D01*
X-20213935Y23676251D01*
X-20262872Y23804662D01*
X-20263279Y23806691D01*
X-20268035Y23823974D01*
X-20316087Y23960162D01*
X-20327047Y23983409D01*
X-20391606Y24090643D01*
X-20336270Y24055073D01*
X-20208358Y23963308D01*
X-20207718Y23962852D01*
X-19996813Y23813516D01*
X-19989994Y23809010D01*
X-19840697Y23717115D01*
X-19820767Y23707144D01*
X-19733267Y23672595D01*
X-19709326Y23665765D01*
X-19684512Y23663738D01*
X-19659780Y23666590D01*
X-19636079Y23674212D01*
X-19614321Y23686312D01*
X-19602207Y23695839D01*
X-19576695Y23718538D01*
X-19559807Y23736831D01*
X-19546811Y23758066D01*
X-19538209Y23781429D01*
X-19534330Y23806021D01*
X-19535323Y23830898D01*
X-19545700Y23866415D01*
X-19582367Y23946268D01*
X-19594880Y23967706D01*
X-19667242Y24067742D01*
X-19662356Y24065758D01*
X-19638482Y24058697D01*
X-19613690Y24056429D01*
X-19588931Y24059041D01*
X-19565469Y24066303D01*
X-19509051Y24089956D01*
X-19487144Y24101786D01*
X-19467967Y24117662D01*
X-19452256Y24136975D01*
X-19440614Y24158982D01*
X-19435614Y24173718D01*
X-19410642Y24265444D01*
X-19406182Y24298623D01*
X-19405945Y24464432D01*
X-19406205Y24472734D01*
X-19414349Y24599846D01*
X-19414401Y24600622D01*
X-19426833Y24777671D01*
X-19428784Y24880001D01*
X-19422056Y24921303D01*
X-19410618Y24941502D01*
X-19370864Y24982305D01*
X-19364129Y24988617D01*
X-19266238Y25067136D01*
X-19129549Y25160417D01*
X-19026494Y25222893D01*
X-19021666Y25225972D01*
X-18860718Y25333756D01*
X-18834041Y25357712D01*
X-18756090Y25450740D01*
X-18742048Y25471298D01*
X-18731398Y25497147D01*
X-18726645Y25513644D01*
X-18696000Y25581623D01*
X-18612063Y25665053D01*
X-18447904Y25777630D01*
X-18201502Y25914472D01*
X-18130667Y25950547D01*
X-18129837Y25950974D01*
X-17921722Y26058897D01*
X-17919571Y26060038D01*
X-17698106Y26180327D01*
X-17695964Y26181518D01*
X-17499398Y26293247D01*
X-17497247Y26294497D01*
X-17442281Y26327181D01*
X-17255206Y26437961D01*
X-17085150Y26532439D01*
X-16914013Y26619369D01*
X-16723798Y26707269D01*
X-16496970Y26804283D01*
X-16216628Y26918268D01*
X-16015917Y26998008D01*
X-16015834Y26998042D01*
X-15705082Y27121755D01*
X-15703772Y27122285D01*
X-15456268Y27224023D01*
X-15453556Y27225174D01*
X-15253366Y27312946D01*
X-15248973Y27314973D01*
X-15080165Y27396787D01*
X-15074620Y27399645D01*
X-14921261Y27483510D01*
X-14916018Y27486541D01*
X-14762174Y27580465D01*
X-14758560Y27582757D01*
X-14588299Y27694748D01*
X-14586750Y27695783D01*
X-14467835Y27776524D01*
X-13823581Y28188189D01*
X-13104910Y28594762D01*
X-12319192Y28992810D01*
X-11475666Y29377779D01*
X-10583623Y29745142D01*
X-9691759Y30076563D01*
X-9404143Y30179199D01*
X-9403350Y30179485D01*
X-9117900Y30283490D01*
X-9117104Y30283783D01*
X-8852530Y30382189D01*
X-8851542Y30382561D01*
X-8625775Y30468676D01*
X-8624159Y30469305D01*
X-8455128Y30536437D01*
X-8453066Y30537277D01*
X-8416904Y30552378D01*
X-8283034Y30606639D01*
X-8156429Y30650810D01*
X-8026594Y30686626D01*
X-7883326Y30715316D01*
X-7716807Y30737623D01*
X-7517911Y30754006D01*
X-7278028Y30764898D01*
X-6988922Y30770806D01*
X-6642126Y30772321D01*
X-6229497Y30770075D01*
G37*
X-6229497Y30770075D02*
X-5742546Y30764720D01*
X-5611203Y30763013D01*
X-4974285Y30752795D01*
X-4415276Y30739765D01*
X-3926969Y30723346D01*
X-3502013Y30702965D01*
X-3133265Y30678070D01*
X-2813702Y30648142D01*
X-2536174Y30612690D01*
X-2293293Y30571229D01*
X-2077637Y30523270D01*
X-1879902Y30467783D01*
X-1858466Y30461035D01*
X-1855039Y30460009D01*
X-1642140Y30399526D01*
X-1632110Y30397112D01*
X-1462127Y30363443D01*
X-1443437Y30361164D01*
X-1327626Y30355699D01*
X-1302762Y30356969D01*
X-1278624Y30363065D01*
X-1266792Y30368013D01*
X-1216405Y30392140D01*
X-1195112Y30405041D01*
X-1176745Y30421848D01*
X-1162010Y30441916D01*
X-1151474Y30464473D01*
X-1148041Y30477828D01*
X-1074553Y30423491D01*
X-1071387Y30421224D01*
X-895293Y30299189D01*
X-888742Y30294941D01*
X-704702Y30183486D01*
X-696926Y30179142D01*
X-535410Y30096205D01*
X-525632Y30091697D01*
X-474226Y30070592D01*
X-332167Y30009697D01*
X-152309Y29919854D01*
X36430Y29815754D01*
X106749Y29774039D01*
X311564Y29651218D01*
X315495Y29648955D01*
X469359Y29564007D01*
X479661Y29558913D01*
X602704Y29504859D01*
X620788Y29498495D01*
X733404Y29468195D01*
X752309Y29464618D01*
X874891Y29450932D01*
X885489Y29450196D01*
X1038433Y29445987D01*
X1040665Y29445945D01*
X1055395Y29445799D01*
X1221747Y29439713D01*
X1256703Y29434023D01*
X1264142Y29413840D01*
X1277143Y29392608D01*
X1294036Y29374320D01*
X1305258Y29365422D01*
X1370822Y29319207D01*
X1399226Y29304162D01*
X1523378Y29257399D01*
X1457789Y29241290D01*
X1445811Y29237714D01*
X1306400Y29188509D01*
X1300026Y29186065D01*
X1299944Y29186031D01*
X1298808Y29185554D01*
X1156721Y29125018D01*
X1134884Y29113062D01*
X1115799Y29097075D01*
X1100199Y29077672D01*
X1088684Y29055598D01*
X1081697Y29031702D01*
X1079506Y29006902D01*
X1082196Y28982152D01*
X1089662Y28958401D01*
X1101618Y28936564D01*
X1117605Y28917479D01*
X1137008Y28901879D01*
X1155357Y28891933D01*
X1365773Y28799360D01*
X1858951Y28569569D01*
X2268254Y28350911D01*
X2574377Y28156246D01*
X2473198Y28168647D01*
X2368039Y28191482D01*
X2211399Y28246566D01*
X2023807Y28327525D01*
X1944614Y28365813D01*
X1752332Y28460767D01*
X1748685Y28462496D01*
X1616426Y28522660D01*
X1603839Y28527596D01*
X1517202Y28556346D01*
X1492918Y28561833D01*
X1479348Y28562791D01*
X1423474Y28563735D01*
X1398660Y28561713D01*
X1374717Y28554890D01*
X1357459Y28546524D01*
X1317485Y28523265D01*
X1297297Y28508695D01*
X1287558Y28499116D01*
X1258661Y28467460D01*
X1245966Y28451036D01*
X1217113Y28406633D01*
X1205659Y28384528D01*
X1198738Y28360613D01*
X1196615Y28335808D01*
X1199373Y28311064D01*
X1206905Y28287335D01*
X1218921Y28265530D01*
X1234961Y28246489D01*
X1254407Y28230943D01*
X1276512Y28219489D01*
X1301205Y28212426D01*
X1333038Y28206722D01*
X1357857Y28204754D01*
X1383146Y28207790D01*
X1429375Y28218125D01*
X1473485Y28221154D01*
X1514324Y28203117D01*
X1602362Y28131667D01*
X1694299Y28055109D01*
X1697455Y28052565D01*
X1841514Y27940190D01*
X1843139Y27938944D01*
X2021068Y27804707D01*
X2022361Y27803744D01*
X2216496Y27661110D01*
X2217356Y27660484D01*
X2273846Y27619704D01*
X2608311Y27365176D01*
X2893913Y27119274D01*
X3123029Y26890156D01*
X3287435Y26687150D01*
X3352501Y26580178D01*
X3399519Y26462586D01*
X3449432Y26293407D01*
X3489341Y26112870D01*
X3490224Y26107879D01*
X3491715Y26100671D01*
X3536142Y25913471D01*
X3538409Y25905179D01*
X3614848Y25658697D01*
X3616501Y25653732D01*
X3719414Y25364567D01*
X3720822Y25360800D01*
X3838412Y25060824D01*
X3838558Y25060453D01*
X3936595Y24812654D01*
X4026511Y24570823D01*
X4101668Y24354070D01*
X4154729Y24183644D01*
X4175325Y24102325D01*
X4176488Y24098051D01*
X4229065Y23917215D01*
X4232685Y23906550D01*
X4325552Y23668285D01*
X4328168Y23662067D01*
X4455712Y23380087D01*
X4457442Y23376421D01*
X4541097Y23206161D01*
X4541142Y23206069D01*
X4628651Y23028329D01*
X4628649Y23028330D01*
X4597500Y23043089D01*
X4574064Y23051492D01*
X4549440Y23055163D01*
X4524573Y23053958D01*
X4500418Y23047926D01*
X4477905Y23037297D01*
X4457898Y23022480D01*
X4441165Y23004045D01*
X4428351Y22982700D01*
X4419211Y22956168D01*
X4408653Y22909190D01*
X4405601Y22884481D01*
X4405945Y22871480D01*
X4414827Y22757445D01*
X4415772Y22748990D01*
X4442943Y22562574D01*
X4443365Y22559880D01*
X4487672Y22295761D01*
X4487765Y22295214D01*
X4488778Y22289332D01*
X4588084Y21637405D01*
X4657960Y20996437D01*
X4698829Y20350802D01*
X4710878Y19685937D01*
X4694227Y18987362D01*
X4648967Y18240774D01*
X4575127Y17431385D01*
X4548257Y17181890D01*
X4381525Y16008800D01*
X4139297Y14817007D01*
X4089358Y14607209D01*
X4007289Y14280660D01*
X3928509Y13995219D01*
X3846147Y13731009D01*
X3753221Y13468005D01*
X3642571Y13186014D01*
X3507129Y12865318D01*
X3344769Y12497257D01*
X3344133Y12495790D01*
X3149426Y12038907D01*
X3147111Y12033081D01*
X2994671Y11619947D01*
X2991849Y11611372D01*
X2880168Y11226464D01*
X2877476Y11215334D01*
X2805046Y10843126D01*
X2803248Y10830562D01*
X2768564Y10455528D01*
X2768025Y10443332D01*
X2769578Y10049949D01*
X2770032Y10039703D01*
X2806316Y9612444D01*
X2807190Y9604865D01*
X2876697Y9128207D01*
X2877498Y9123371D01*
X2968269Y8634004D01*
X2968745Y8631572D01*
X3036823Y8300698D01*
X3037407Y8298008D01*
X3096272Y8040331D01*
X3097542Y8035256D01*
X3150627Y7840256D01*
X3153493Y7831106D01*
X3204231Y7688266D01*
X3210865Y7672887D01*
X3262690Y7571686D01*
X3276752Y7549997D01*
X3333097Y7479915D01*
X3348495Y7463871D01*
X3375520Y7440249D01*
X3391025Y7428656D01*
X3458910Y7385553D01*
X3487538Y7372049D01*
X3569586Y7345238D01*
X3596849Y7339542D01*
X3706119Y7329010D01*
X3723169Y7328517D01*
X3872723Y7334251D01*
X3881539Y7334897D01*
X4084437Y7356883D01*
X4088602Y7357404D01*
X4357904Y7395628D01*
X4359238Y7395825D01*
X4446164Y7409106D01*
X4830938Y7458262D01*
X5191276Y7484775D01*
X5512668Y7488750D01*
X5777871Y7470553D01*
X5953980Y7436123D01*
X6138340Y7347893D01*
X6301401Y7207695D01*
X6400702Y7066098D01*
X6441285Y6955162D01*
X6489074Y6752396D01*
X6540098Y6463195D01*
X6593498Y6089427D01*
X6646198Y5657292D01*
X6646263Y5656766D01*
X6682100Y5372767D01*
X6682447Y5370228D01*
X6724703Y5082272D01*
X6725092Y5079793D01*
X6769872Y4811636D01*
X6770445Y4808453D01*
X6813856Y4583852D01*
X6814841Y4579219D01*
X6842858Y4458599D01*
X6845074Y4450333D01*
X6913055Y4227118D01*
X6915468Y4219966D01*
X7006681Y3973963D01*
X7008759Y3968718D01*
X7115548Y3715782D01*
X7117614Y3711149D01*
X7232327Y3467131D01*
X7234789Y3462177D01*
X7349770Y3242930D01*
X7353454Y3236384D01*
X7461051Y3057761D01*
X7468616Y3046591D01*
X7561172Y2924443D01*
X7576887Y2907242D01*
X7615712Y2871887D01*
X7644251Y2852282D01*
X7742054Y2803194D01*
X7756434Y2797054D01*
X7910785Y2742111D01*
X7918997Y2739498D01*
X8103099Y2687732D01*
X8108688Y2686297D01*
X8191814Y2666950D01*
X8386602Y2619546D01*
X8570157Y2566126D01*
X8712140Y2516130D01*
X8741566Y2503274D01*
X8967550Y2373084D01*
X9238430Y2178810D01*
X9547813Y1925703D01*
X9887885Y1620722D01*
X10251621Y1270568D01*
X10632400Y881719D01*
X11023734Y460585D01*
X11419150Y13603D01*
X11812267Y-452868D01*
X12197193Y-933061D01*
X12239645Y-987591D01*
X12367566Y-1155646D01*
X12511375Y-1349894D01*
X12662962Y-1558784D01*
X12814004Y-1770461D01*
X12956070Y-1972915D01*
X13080852Y-2154296D01*
X13168859Y-2286000D01*
X13081000Y-2286000D01*
X13056224Y-2288440D01*
X13032399Y-2295667D01*
X13010443Y-2307403D01*
X12991197Y-2323197D01*
X12975403Y-2342443D01*
X12963667Y-2364399D01*
X12956440Y-2388224D01*
X12954001Y-2412440D01*
X12952742Y-2698190D01*
X12951633Y-2950042D01*
X11223307Y-5926392D01*
X9514630Y-8868907D01*
X-1134198Y-8879499D01*
X-2298852Y-8880585D01*
X-3381466Y-8881433D01*
X-4384683Y-8882035D01*
X-5311139Y-8882380D01*
X-6163437Y-8882456D01*
X-6944256Y-8882255D01*
X-7656230Y-8881764D01*
X-8301980Y-8880975D01*
X-8884136Y-8879877D01*
X-9405466Y-8878458D01*
X-9868366Y-8876711D01*
X-10275345Y-8874624D01*
X-10629400Y-8872186D01*
X-10933366Y-8869385D01*
X-11188837Y-8866221D01*
X-11399340Y-8862675D01*
X-11566801Y-8858756D01*
X-11693841Y-8854464D01*
X-11774576Y-8850265D01*
X-11788278Y-8801111D01*
X-11821670Y-8638676D01*
X-11845442Y-8482050D01*
X-11851671Y-8400414D01*
X-11827957Y-8217584D01*
X-11754559Y-7983826D01*
X-11635429Y-7716560D01*
X-11476316Y-7433751D01*
X-11449621Y-7391481D01*
X-11448267Y-7389288D01*
X-11303827Y-7149951D01*
X-11298907Y-7141005D01*
X-11188345Y-6919288D01*
X-11183019Y-6907030D01*
X-11098036Y-6679389D01*
X-11094201Y-6667312D01*
X-11026498Y-6410201D01*
X-11024529Y-6401488D01*
X-10965809Y-6091365D01*
X-10965173Y-6087718D01*
X-10945595Y-5964821D01*
X-10945491Y-5964151D01*
X-10873393Y-5495491D01*
X-10872037Y-5470632D01*
X-10875558Y-5445986D01*
X-10883819Y-5422500D01*
X-10893829Y-5404867D01*
X-10992808Y-5259015D01*
X-11056918Y-5132567D01*
X-11102114Y-4985919D01*
X-11105628Y-4965700D01*
X-4435372Y-4965700D01*
X-4435372Y-6692900D01*
X-4423112Y-6817382D01*
X-4386802Y-6937080D01*
X-4327837Y-7047394D01*
X-4248485Y-7144085D01*
X-4151794Y-7223437D01*
X-4041480Y-7282402D01*
X-3921782Y-7318712D01*
X-3797300Y-7330972D01*
X-2070100Y-7330972D01*
X-1945618Y-7318712D01*
X-1825920Y-7282402D01*
X-1715606Y-7223437D01*
X-1618915Y-7144085D01*
X-1539563Y-7047394D01*
X-1480598Y-6937080D01*
X-1463064Y-6879277D01*
X-1349002Y-6993339D01*
X-1103553Y-7157342D01*
X-830825Y-7270310D01*
X-541299Y-7327900D01*
X-246101Y-7327900D01*
X43425Y-7270310D01*
X316153Y-7157342D01*
X561602Y-6993339D01*
X770339Y-6784602D01*
X876300Y-6626019D01*
X982261Y-6784602D01*
X1190998Y-6993339D01*
X1436447Y-7157342D01*
X1709175Y-7270310D01*
X1998701Y-7327900D01*
X2293899Y-7327900D01*
X2583425Y-7270310D01*
X2856153Y-7157342D01*
X3101602Y-6993339D01*
X3310339Y-6784602D01*
X3474342Y-6539153D01*
X3587310Y-6266425D01*
X3644900Y-5976899D01*
X3644900Y-5681701D01*
X3587310Y-5392175D01*
X3474342Y-5119447D01*
X3310339Y-4873998D01*
X3101602Y-4665261D01*
X2943019Y-4559300D01*
X3101602Y-4453339D01*
X3310339Y-4244602D01*
X3474342Y-3999153D01*
X3587310Y-3726425D01*
X3644900Y-3436899D01*
X3644900Y-3141701D01*
X3587310Y-2852175D01*
X3474342Y-2579447D01*
X3310339Y-2333998D01*
X3101602Y-2125261D01*
X2856153Y-1961258D01*
X2583425Y-1848290D01*
X2293899Y-1790700D01*
X1998701Y-1790700D01*
X1709175Y-1848290D01*
X1436447Y-1961258D01*
X1190998Y-2125261D01*
X982261Y-2333998D01*
X876300Y-2492581D01*
X770339Y-2333998D01*
X561602Y-2125261D01*
X316153Y-1961258D01*
X43425Y-1848290D01*
X-246101Y-1790700D01*
X-541299Y-1790700D01*
X-830825Y-1848290D01*
X-1103553Y-1961258D01*
X-1349002Y-2125261D01*
X-1557739Y-2333998D01*
X-1668259Y-2499403D01*
X-1726883Y-2400812D01*
X-1923407Y-2182446D01*
X-2158756Y-2006616D01*
X-2423886Y-1880078D01*
X-2574674Y-1834342D01*
X-2806700Y-1955483D01*
X-2806700Y-3162300D01*
X-2786700Y-3162300D01*
X-2786700Y-3416300D01*
X-2806700Y-3416300D01*
X-2806700Y-3436300D01*
X-3060700Y-3436300D01*
X-3060700Y-3416300D01*
X-4268164Y-3416300D01*
X-4388663Y-3648327D01*
X-4290664Y-3925278D01*
X-4140517Y-4177788D01*
X-3979008Y-4357247D01*
X-4041480Y-4376198D01*
X-4151794Y-4435163D01*
X-4248485Y-4514515D01*
X-4327837Y-4611206D01*
X-4386802Y-4721520D01*
X-4423112Y-4841218D01*
X-4435372Y-4965700D01*
X-11105628Y-4965700D01*
X-11107343Y-4955839D01*
X-11109050Y-4947634D01*
X-11138014Y-4828304D01*
X-11141103Y-4817637D01*
X-11198440Y-4647802D01*
X-11200561Y-4641991D01*
X-11277136Y-4447052D01*
X-11278989Y-4442587D01*
X-11341538Y-4299600D01*
X-11445981Y-4054176D01*
X-11506934Y-3858139D01*
X-11525357Y-3698854D01*
X-11503827Y-3557429D01*
X-11437161Y-3409031D01*
X-11313790Y-3236293D01*
X-11126355Y-3029250D01*
X-11025945Y-2930273D01*
X-4388663Y-2930273D01*
X-4268164Y-3162300D01*
X-3060700Y-3162300D01*
X-3060700Y-1955483D01*
X-3292726Y-1834342D01*
X-3443514Y-1880078D01*
X-3708644Y-2006616D01*
X-3943993Y-2182446D01*
X-4140517Y-2400812D01*
X-4290664Y-2653322D01*
X-4388663Y-2930273D01*
X-11025945Y-2930273D01*
X-10885050Y-2791390D01*
X-10512366Y-2432728D01*
X-10511589Y-2431973D01*
X-10195911Y-2122944D01*
X-10194758Y-2121801D01*
X-9930889Y-1856798D01*
X-9929222Y-1855092D01*
X-9711435Y-1627994D01*
X-9709095Y-1625487D01*
X-9531661Y-1430174D01*
X-9528504Y-1426565D01*
X-9385696Y-1256918D01*
X-9381689Y-1251905D01*
X-9267777Y-1101804D01*
X-9263169Y-1095320D01*
X-9173481Y-960358D01*
X-9171095Y-956629D01*
X-8954390Y-604495D01*
X-8943483Y-582115D01*
X-8937151Y-558037D01*
X-8935639Y-533187D01*
X-8939003Y-508519D01*
X-8947115Y-484981D01*
X-8959664Y-463479D01*
X-8969732Y-451251D01*
X-9261151Y-139202D01*
X-9404233Y23762D01*
X-9523865Y185039D01*
X-9639152Y372633D01*
X-9767119Y613568D01*
X-9796545Y672236D01*
X-9796719Y672581D01*
X-9903558Y883981D01*
X-9905181Y887086D01*
X-9983865Y1032656D01*
X-9988674Y1040810D01*
X-10046796Y1131470D01*
X-10062436Y1151233D01*
X-10107587Y1197902D01*
X-10126569Y1214012D01*
X-10157774Y1229766D01*
X-10197547Y1243365D01*
X-10221781Y1249072D01*
X-10253867Y1249278D01*
X-10276523Y1246541D01*
X-10285011Y1245223D01*
X-10561831Y1192596D01*
X-10908258Y1149430D01*
X-11332262Y1114927D01*
X-11835914Y1089106D01*
X-12385410Y1072596D01*
X-12892195Y1064861D01*
X-13322506Y1065872D01*
X-13684032Y1076139D01*
X-13984778Y1096079D01*
X-14232610Y1125951D01*
X-14435664Y1165813D01*
X-14605883Y1216570D01*
X-14614864Y1219866D01*
X-14887326Y1347485D01*
X-15168208Y1524254D01*
X-15441691Y1736734D01*
X-15687907Y1968364D01*
X-15887372Y2201576D01*
X-16021567Y2415776D01*
X-16051586Y2479940D01*
X-16072609Y2538285D01*
X-16086734Y2604813D01*
X-16095875Y2700196D01*
X-16100036Y2839987D01*
X-16099812Y3036971D01*
X-16096344Y3303863D01*
X-16095754Y3342388D01*
X-16095745Y3343108D01*
X-16093209Y3606050D01*
X-16093203Y3607497D01*
X-16093633Y3853708D01*
X-16093647Y3855375D01*
X-16096799Y4067297D01*
X-16096863Y4069872D01*
X-16102493Y4229948D01*
X-16102825Y4235675D01*
X-16109531Y4318979D01*
X-16113625Y4342310D01*
X-16144375Y4454677D01*
X-16151685Y4474646D01*
X-16219888Y4621512D01*
X-16225195Y4631705D01*
X-16336348Y4823487D01*
X-16339504Y4828645D01*
X-16492985Y5066580D01*
X-16493295Y5067058D01*
X-16656699Y5317897D01*
X-16773375Y5513893D01*
X-16850670Y5671628D01*
X-16897360Y5809073D01*
X-16922568Y5948318D01*
X-16932678Y6112654D01*
X-16933576Y6197910D01*
X-16933638Y6200755D01*
X-16941811Y6448745D01*
X-16942994Y6462350D01*
X-16972417Y6670349D01*
X-16976255Y6688157D01*
X-17034857Y6888860D01*
X-17039814Y6902771D01*
X-17135525Y7128872D01*
X-17137979Y7134310D01*
X-17182372Y7226821D01*
X-17240705Y7354599D01*
X-17280834Y7468402D01*
X-17305582Y7583906D01*
X-17316099Y7717525D01*
X-17311577Y7884219D01*
X-17290891Y8096316D01*
X-17253506Y8364901D01*
X-17199302Y8701051D01*
X-17169928Y8874444D01*
X-17168337Y8888663D01*
X-17164802Y8952769D01*
X-17165874Y8977643D01*
X-17171778Y9001829D01*
X-17182865Y9025364D01*
X-17210391Y9070992D01*
X-17225278Y9090947D01*
X-17243773Y9107613D01*
X-17257154Y9116238D01*
X-17332749Y9158507D01*
X-17348961Y9166125D01*
X-17471075Y9213304D01*
X-17838038Y9385929D01*
X-18157337Y9612966D01*
X-18423903Y9887058D01*
X-18629949Y10202350D01*
X-18653017Y10248984D01*
X-18710936Y10377533D01*
X-18745094Y10476532D01*
X-18763866Y10577209D01*
X-18772725Y10714271D01*
X-18774832Y10915494D01*
X-18774833Y10921381D01*
X-18772842Y11125061D01*
X-18764217Y11263620D01*
X-18745895Y11364302D01*
X-18712680Y11461421D01*
X-18656653Y11585374D01*
X-18595686Y11700039D01*
X-18495888Y11871559D01*
X-18366994Y12083562D01*
X-18219307Y12319066D01*
X-18062033Y12562932D01*
X-18033481Y12606445D01*
X-18033029Y12607138D01*
X-17756670Y13034354D01*
X-17755294Y13036529D01*
X-17531864Y13397770D01*
X-17529893Y13401068D01*
X-17359353Y13696407D01*
X-17356326Y13701963D01*
X-17238632Y13931474D01*
X-17233571Y13942641D01*
X-17168683Y14106399D01*
X-17161802Y14130456D01*
X-17147757Y14207675D01*
X-17145724Y14232489D01*
X-17149990Y14263105D01*
X-17176450Y14362396D01*
X-17185188Y14385708D01*
X-17198306Y14406868D01*
X-17214133Y14424023D01*
X-17305945Y14506787D01*
X-17324814Y14520860D01*
X-17340543Y14530460D01*
X-17433153Y14593975D01*
X-17572667Y14700990D01*
X-17741996Y14837587D01*
X-17922430Y14988280D01*
X-18096142Y15138184D01*
X-18245024Y15272089D01*
X-18349651Y15373296D01*
X-18442275Y15491757D01*
X-18512390Y15635201D01*
X-18568213Y15828322D01*
X-18612269Y16088829D01*
X-18633687Y16278428D01*
X-18644491Y16393270D01*
X-18652442Y16498050D01*
X-18657126Y16601493D01*
X-18658172Y16713540D01*
X-18655082Y16844070D01*
X-18647291Y17002517D01*
X-18634269Y17197689D01*
X-18615517Y17438411D01*
X-18590555Y17733549D01*
X-18558913Y18091950D01*
X-18520111Y18522650D01*
X-18504049Y18699870D01*
X-18504045Y18699922D01*
X-18463465Y19149737D01*
X-18463427Y19150163D01*
X-18431009Y19523547D01*
X-18430918Y19524656D01*
X-18407140Y19829495D01*
X-18406983Y19831759D01*
X-18392321Y20075937D01*
X-18392137Y20080187D01*
X-18387069Y20271592D01*
X-18387099Y20279289D01*
X-18392103Y20425805D01*
X-18393290Y20439325D01*
X-18408841Y20548839D01*
X-18413997Y20570844D01*
X-18440573Y20651241D01*
X-18454362Y20680113D01*
X-18492441Y20739279D01*
X-18513485Y20764227D01*
X-18563543Y20810048D01*
X-18580407Y20823063D01*
X-18642922Y20863425D01*
X-18648967Y20867093D01*
X-18690113Y20890521D01*
X-18799115Y20960283D01*
X-18860709Y21022096D01*
X-18900306Y21100694D01*
X-18929129Y21231157D01*
X-18948133Y21435351D01*
X-18952932Y21521523D01*
X-18952994Y21522552D01*
X-18966448Y21733309D01*
X-18967152Y21740821D01*
X-18985436Y21888518D01*
X-18988569Y21904905D01*
X-19016222Y22011147D01*
X-19024682Y22034214D01*
X-19066244Y22120607D01*
X-19073590Y22133806D01*
X-19094622Y22166807D01*
X-19152288Y22264055D01*
X-19178248Y22325813D01*
X-19178548Y22327716D01*
X-19185071Y22352497D01*
X-19216631Y22436747D01*
X-19230752Y22463920D01*
X-19323233Y22599060D01*
X-19330122Y22608211D01*
X-19480231Y22789954D01*
X-19484334Y22794680D01*
X-19688772Y23018738D01*
X-19690375Y23020463D01*
X-19700343Y23030989D01*
X-19938929Y23294275D01*
X-20108987Y23508712D01*
X-20213935Y23676251D01*
X-20262872Y23804662D01*
X-20263279Y23806691D01*
X-20268035Y23823974D01*
X-20316087Y23960162D01*
X-20327047Y23983409D01*
X-20391606Y24090643D01*
X-20336270Y24055073D01*
X-20208358Y23963308D01*
X-20207718Y23962852D01*
X-19996813Y23813516D01*
X-19989994Y23809010D01*
X-19840697Y23717115D01*
X-19820767Y23707144D01*
X-19733267Y23672595D01*
X-19709326Y23665765D01*
X-19684512Y23663738D01*
X-19659780Y23666590D01*
X-19636079Y23674212D01*
X-19614321Y23686312D01*
X-19602207Y23695839D01*
X-19576695Y23718538D01*
X-19559807Y23736831D01*
X-19546811Y23758066D01*
X-19538209Y23781429D01*
X-19534330Y23806021D01*
X-19535323Y23830898D01*
X-19545700Y23866415D01*
X-19582367Y23946268D01*
X-19594880Y23967706D01*
X-19667242Y24067742D01*
X-19662356Y24065758D01*
X-19638482Y24058697D01*
X-19613690Y24056429D01*
X-19588931Y24059041D01*
X-19565469Y24066303D01*
X-19509051Y24089956D01*
X-19487144Y24101786D01*
X-19467967Y24117662D01*
X-19452256Y24136975D01*
X-19440614Y24158982D01*
X-19435614Y24173718D01*
X-19410642Y24265444D01*
X-19406182Y24298623D01*
X-19405945Y24464432D01*
X-19406205Y24472734D01*
X-19414349Y24599846D01*
X-19414401Y24600622D01*
X-19426833Y24777671D01*
X-19428784Y24880001D01*
X-19422056Y24921303D01*
X-19410618Y24941502D01*
X-19370864Y24982305D01*
X-19364129Y24988617D01*
X-19266238Y25067136D01*
X-19129549Y25160417D01*
X-19026494Y25222893D01*
X-19021666Y25225972D01*
X-18860718Y25333756D01*
X-18834041Y25357712D01*
X-18756090Y25450740D01*
X-18742048Y25471298D01*
X-18731398Y25497147D01*
X-18726645Y25513644D01*
X-18696000Y25581623D01*
X-18612063Y25665053D01*
X-18447904Y25777630D01*
X-18201502Y25914472D01*
X-18130667Y25950547D01*
X-18129837Y25950974D01*
X-17921722Y26058897D01*
X-17919571Y26060038D01*
X-17698106Y26180327D01*
X-17695964Y26181518D01*
X-17499398Y26293247D01*
X-17497247Y26294497D01*
X-17442281Y26327181D01*
X-17255206Y26437961D01*
X-17085150Y26532439D01*
X-16914013Y26619369D01*
X-16723798Y26707269D01*
X-16496970Y26804283D01*
X-16216628Y26918268D01*
X-16015917Y26998008D01*
X-16015834Y26998042D01*
X-15705082Y27121755D01*
X-15703772Y27122285D01*
X-15456268Y27224023D01*
X-15453556Y27225174D01*
X-15253366Y27312946D01*
X-15248973Y27314973D01*
X-15080165Y27396787D01*
X-15074620Y27399645D01*
X-14921261Y27483510D01*
X-14916018Y27486541D01*
X-14762174Y27580465D01*
X-14758560Y27582757D01*
X-14588299Y27694748D01*
X-14586750Y27695783D01*
X-14467835Y27776524D01*
X-13823581Y28188189D01*
X-13104910Y28594762D01*
X-12319192Y28992810D01*
X-11475666Y29377779D01*
X-10583623Y29745142D01*
X-9691759Y30076563D01*
X-9404143Y30179199D01*
X-9403350Y30179485D01*
X-9117900Y30283490D01*
X-9117104Y30283783D01*
X-8852530Y30382189D01*
X-8851542Y30382561D01*
X-8625775Y30468676D01*
X-8624159Y30469305D01*
X-8455128Y30536437D01*
X-8453066Y30537277D01*
X-8416904Y30552378D01*
X-8283034Y30606639D01*
X-8156429Y30650810D01*
X-8026594Y30686626D01*
X-7883326Y30715316D01*
X-7716807Y30737623D01*
X-7517911Y30754006D01*
X-7278028Y30764898D01*
X-6988922Y30770806D01*
X-6642126Y30772321D01*
X-6229497Y30770075D01*
M02*
